<svg width="88" height="86" viewBox="0 0 88 86" fill="none" xmlns="http://www.w3.org/2000/svg">
<g clip-path="url(#clip0_202_26)">
<path d="M59.887 28.2227C56.125 25.8289 51.6136 24.6888 47.196 24.8854C36.0648 25.3483 26.3399 33.7691 25.6158 45.8656C25.3764 50.2853 26.3878 54.8732 28.6457 58.7571C30.9322 62.5537 34.4064 65.5304 38.4275 67.4287C42.4192 69.2691 46.9578 70.0312 51.3438 69.3405C55.7298 68.6499 59.8472 66.5653 63.0587 63.555C66.2703 60.5447 68.692 56.5501 69.7169 52.2427C70.799 47.7606 70.3102 43.0538 68.5155 38.7896C66.8369 34.4668 63.795 30.7612 59.887 28.2227Z" fill="#FF986D"/>
<path d="M72.8892 29.8725C71.8087 28.8896 70.3281 29.2749 69.1389 29.8041C67.6018 30.5095 66.1814 31.3015 64.7617 32.2389C64.7037 32.2682 64.6457 32.2976 64.6457 32.2976C64.6751 32.3556 64.7338 32.4716 64.7632 32.5296C64.7925 32.5876 64.8799 32.6162 64.9092 32.6742C64.9386 32.7322 65.0553 32.8188 65.0847 32.8768C65.5772 32.5545 66.0991 32.2903 66.5917 31.9681C67.6642 31.3522 68.882 30.7356 70.0719 30.3518C70.5072 30.2042 71.0878 30.056 71.5246 30.1991C71.9613 30.3423 72.2535 30.6315 72.459 31.0374C72.9288 31.9653 72.7306 33.0128 72.2116 33.8584C71.6353 34.8787 70.855 35.7838 70.0747 36.6888C69.2657 37.6813 68.4274 38.6157 67.5891 39.5501C65.9125 41.419 64.1771 43.1719 62.3544 44.8961C58.709 48.3446 54.7421 51.4459 50.6284 54.2572C46.4274 57.0399 41.9921 59.504 37.4388 61.5908C35.1184 62.6199 32.8267 63.5616 30.4182 64.4167C29.3736 64.7999 28.3871 65.1537 27.2544 65.3628C26.4704 65.5412 25.4824 65.6043 24.7249 65.2593C24.4335 65.1154 24.2 64.9422 24.0826 64.7102C23.8462 63.9556 23.8426 63.2289 24.1583 62.4133C24.4152 61.4818 24.8762 60.6656 25.3078 59.7913C25.5383 59.3832 25.7395 58.9171 25.9986 58.4216C26.1998 57.9555 26.5176 57.576 26.8061 57.1385C27.066 56.7884 27.2678 56.4676 27.5277 56.1175C27.4396 55.9435 27.3222 55.7115 27.2341 55.5375C27.1181 55.5963 27.0315 55.713 26.9155 55.7717C26.3363 56.2106 25.8739 56.7362 25.3534 57.2911C24.833 57.8461 24.3125 58.401 23.9381 59.1006C23.5344 59.7421 23.2473 60.4703 22.9309 61.1405C22.3561 62.4515 21.8995 64.1398 23.0681 65.2967C23.3896 65.6439 23.8858 66.0484 24.4099 66.2202C24.934 66.3919 25.4868 66.4764 26.0388 66.4154C27.2595 66.3802 28.4494 65.9964 29.5814 65.6418C31.0612 65.1112 32.5411 64.5805 34.021 64.0498C36.864 62.9018 39.7063 61.6085 42.4318 60.2285C47.9696 57.3519 53.1851 53.9827 58.0491 50.063C62.855 46.1726 67.2807 41.8191 71.2396 37.119C72.1352 36.0099 73.2341 34.8707 73.7215 33.531C74.035 32.2795 73.853 30.7688 72.8892 29.8725Z" fill="white"/>
<path d="M43.5875 29.8449C43.5287 29.7289 43.412 29.6423 43.2953 29.5557C43.208 29.5271 43.1206 29.4984 43.0039 29.4118C42.8292 29.3546 42.5965 29.3267 42.4225 29.4147C42.3065 29.4735 42.2486 29.5028 42.1032 29.5036C41.9292 29.5916 41.7846 29.7377 41.64 29.8838C41.582 29.9131 41.5534 30.0005 41.4954 30.0299C41.4088 30.1466 41.3515 30.3213 41.3229 30.4086C41.2656 30.5833 41.2664 30.7287 41.3251 30.8447C41.3258 30.99 41.4139 31.164 41.5306 31.2506C41.5893 31.3666 41.706 31.4532 41.8228 31.5398C41.9101 31.5684 41.9975 31.5971 42.1142 31.6837C42.2889 31.741 42.5216 31.7689 42.6955 31.6808C42.8115 31.6221 42.8695 31.5927 43.0149 31.592C43.1888 31.5039 43.3334 31.3578 43.4781 31.2117C43.536 31.1824 43.5647 31.095 43.6227 31.0657C43.7093 30.9489 43.7665 30.7742 43.7952 30.6869C43.8524 30.5122 43.8517 30.3668 43.793 30.2509C43.7049 30.0769 43.6462 29.9609 43.5875 29.8449Z" fill="#E6EAEC"/>
<path d="M41.6331 40.0873C40.3573 40.7333 41.3849 42.7629 42.6607 42.117C43.9945 41.4417 42.9669 39.412 41.6331 40.0873Z" fill="#E6EAEC"/>
<path d="M51.8857 32.565C50.7839 33.1229 51.6353 34.8046 52.7372 34.2467C53.8683 33.7469 52.9875 32.0072 51.8857 32.565Z" fill="#E6EAEC"/>
<path d="M56.113 40.7701C55.9082 40.5095 55.5874 40.3077 55.2673 40.2511C54.9179 40.1366 54.6273 40.1381 54.2786 40.1689C53.9593 40.2577 53.6113 40.4339 53.3507 40.6387L53.2927 40.668C53.0321 40.8728 52.8303 41.1936 52.7157 41.543C52.6012 41.8924 52.5447 42.2124 52.6629 42.5898C52.781 42.9671 52.9278 43.257 53.162 43.5756C53.3668 43.8362 53.6876 44.0381 54.037 44.1526C54.3864 44.2671 54.7064 44.3236 55.0837 44.2055C55.461 44.0873 55.751 43.9405 56.0696 43.7063C56.3302 43.5015 56.532 43.1808 56.6466 42.8314C56.7611 42.4819 56.8176 42.1619 56.6994 41.7846L56.6701 41.7266C56.4939 41.3787 56.3178 41.0307 56.113 40.7701Z" fill="#E6EAEC"/>
<path d="M46.7661 49.2181C46.62 49.0735 46.4159 48.9583 46.2412 48.901C46.1539 48.8724 46.0085 48.8731 45.9212 48.8445C45.6885 48.8166 45.4852 48.8467 45.2532 48.9641C45.0792 49.0522 44.9632 49.1109 44.906 49.2856C44.8194 49.4023 44.7327 49.5191 44.6755 49.6938C44.6182 49.8685 44.6189 50.0138 44.6197 50.1591C44.6204 50.3045 44.6505 50.5078 44.7092 50.6238C44.7679 50.7398 44.7973 50.7978 44.914 50.8844C45.0601 51.029 45.2642 51.1443 45.4389 51.2015C45.5262 51.2302 45.6715 51.2294 45.7589 51.258C45.9916 51.2859 46.1949 51.2559 46.4269 51.1384C46.6009 51.0503 46.7168 50.9916 46.7741 50.8169C46.8607 50.7002 46.9474 50.5835 47.0046 50.4088C47.0619 50.2341 47.0611 50.0887 47.0604 49.9434C47.0597 49.798 47.001 49.6821 46.9129 49.5081C46.8835 49.4501 46.8248 49.3341 46.7661 49.2181Z" fill="#E6EAEC"/>
<path d="M63.7352 47.7666C60.7777 49.264 63.0972 53.8453 66.0547 52.3479C69.0123 50.8505 66.6928 46.2692 63.7352 47.7666Z" fill="#E6EAEC"/>
<path d="M56.9708 55.2717C56.8247 55.127 56.708 55.0404 56.5333 54.9832C56.446 54.9545 56.3586 54.9259 56.2713 54.8973C56.0679 54.9274 55.9226 54.9281 55.7486 55.0162C55.6326 55.0749 55.5167 55.1336 55.43 55.2503C55.3434 55.367 55.2568 55.4838 55.2282 55.5711C55.1415 55.6878 55.1423 55.8332 55.201 55.9491C55.2017 56.0945 55.2025 56.2398 55.3192 56.3265C55.3485 56.3844 55.4073 56.5004 55.4946 56.5291C55.6407 56.6737 55.7574 56.7603 55.9321 56.8176C56.0194 56.8462 56.1068 56.8748 56.1941 56.9034C56.3975 56.8734 56.5428 56.8726 56.7168 56.7845C56.8328 56.7258 56.9488 56.6671 57.0354 56.5504C57.122 56.4337 57.2086 56.317 57.2373 56.2296C57.3239 56.1129 57.3231 55.9676 57.2644 55.8516C57.2637 55.7062 57.263 55.5609 57.1463 55.4743C57.0875 55.3583 57.0582 55.3003 56.9708 55.2717Z" fill="#E6EAEC"/>
<path d="M62.8936 36.4632C62.7181 36.2606 62.5141 36.1453 62.252 36.0595C62.1647 36.0308 62.0193 36.0316 61.932 36.0029C61.6993 35.975 61.4379 36.0345 61.206 36.1519C61.032 36.24 60.8874 36.3861 60.8008 36.5028C60.6562 36.6489 60.5695 36.7656 60.5416 36.9983C60.4844 37.173 60.4271 37.3477 60.4572 37.551C60.4873 37.7543 60.488 37.8997 60.5761 38.0737C60.6348 38.1896 60.7515 38.2763 60.8103 38.3922C60.9857 38.5948 61.1898 38.7101 61.4518 38.796C61.5392 38.8246 61.6845 38.8239 61.7719 38.8525C62.0046 38.8804 62.2659 38.821 62.4979 38.7035C62.6718 38.6154 62.8164 38.4694 62.9031 38.3527C63.0477 38.2066 63.1343 38.0899 63.1622 37.8572C63.2194 37.6825 63.2767 37.5078 63.2466 37.3044C63.2165 37.1011 63.1284 36.9271 63.0404 36.7532C62.9816 36.6372 62.9523 36.5792 62.8936 36.4632Z" fill="#E6EAEC"/>
<path d="M35.6834 42.0066C34.8135 42.447 35.4888 43.7808 36.3587 43.3404C37.2286 42.9 36.5533 41.5662 35.6834 42.0066Z" fill="#E6EAEC"/>
<path d="M46.406 35.4125C46.2893 35.3259 46.1726 35.2392 46.0853 35.2106C45.9979 35.182 45.9399 35.2113 45.9105 35.1533C45.7652 35.1541 45.6199 35.1548 45.5039 35.2135C45.3879 35.2722 45.3299 35.3016 45.2433 35.4183C45.1273 35.477 45.0987 35.5644 45.0994 35.7097C45.0708 35.7971 45.0421 35.8844 45.0429 36.0298C45.0142 36.1171 45.073 36.2331 45.1317 36.3491C45.161 36.4071 45.1904 36.4651 45.2198 36.5231C45.3365 36.6097 45.4532 36.6963 45.5405 36.7249L45.7153 36.7822C45.8606 36.7815 46.0059 36.7807 46.1219 36.722C46.2379 36.6633 46.2959 36.6339 46.3825 36.5172C46.4985 36.4585 46.5271 36.3712 46.5264 36.2258C46.555 36.1385 46.5837 36.0511 46.5829 35.9058C46.6116 35.8184 46.5528 35.7024 46.4941 35.5864C46.4647 35.5285 46.4354 35.4705 46.406 35.4125Z" fill="#E6EAEC"/>
<path d="M52.4528 47.0675C51.409 47.596 52.2017 49.1617 53.2455 48.6333C54.3187 48.1628 53.4966 46.539 52.4528 47.0675Z" fill="#E6EAEC"/>
<path d="M49.2161 62.4034C48.8946 62.0562 48.4571 61.7677 48.0203 61.6246C47.7876 61.5967 47.5256 61.5108 47.2929 61.4829C46.7695 61.4565 46.3048 61.546 45.8409 61.7809C45.493 61.957 45.1744 62.1912 44.9725 62.512C44.7413 62.7748 44.5394 63.0955 44.4249 63.4449C44.3104 63.7944 44.2832 64.1724 44.314 64.5211C44.2868 64.8991 44.405 65.2764 44.5812 65.6244C44.7566 65.827 44.8741 66.0589 45.0495 66.2615C45.371 66.6087 45.8085 66.8972 46.2452 67.0404C46.4779 67.0683 46.74 67.1542 46.9727 67.1821C47.4961 67.2085 47.9607 67.119 48.4247 66.8841C48.7726 66.7079 49.0912 66.4738 49.2931 66.153C49.5243 65.8902 49.7262 65.5694 49.8407 65.22C49.9552 64.8706 49.9824 64.4926 49.9515 64.1439C49.9787 63.7659 49.8605 63.3886 49.6844 63.0406C49.5089 62.838 49.3335 62.6354 49.2161 62.4034Z" fill="#E6EAEC"/>
<path d="M19.7624 49.5574L17.4993 50.4118L16.9296 52.7402L15.4667 50.858L13.026 51.0738L14.3238 49.0324L13.4408 46.8567L15.7692 47.4263L17.622 45.9054L17.7504 48.3175L19.7624 49.5574Z" fill="white"/>
<path d="M50.8131 15.7685L47.8123 14.4464L45.1176 16.175L45.3922 12.976L42.8818 10.8956L46.0756 10.1529L47.2524 7.15282L48.8944 9.96429L52.122 10.1515L50.0123 12.604L50.8131 15.7685Z" fill="white"/>
<path d="M81.5234 47.3574L79.5789 47.9776L79.007 49.87L77.8069 48.2191L75.8015 48.2873L77.0142 46.6534L76.3359 44.7382L78.2577 45.3681L79.9086 44.1679L79.8895 46.1447L81.5234 47.3574Z" fill="white"/>
</g>
<defs>
<clipPath id="clip0_202_26">
<rect width="65" height="65" fill="white" transform="translate(0 27.3608) rotate(-26.853)"/>
</clipPath>
</defs>
</svg>
