<svg width="41" height="32" viewBox="0 0 41 32" fill="none" xmlns="http://www.w3.org/2000/svg">
<rect width="40" height="32" transform="translate(0.189941)" fill="white"/>
<path d="M27.9712 21.8344L24.8556 18.7188C24.7149 18.5781 24.5243 18.5 24.3243 18.5H23.8149C24.6774 17.3969 25.1899 16.0094 25.1899 14.5C25.1899 10.9094 22.2806 8 18.6899 8C15.0993 8 12.1899 10.9094 12.1899 14.5C12.1899 18.0906 15.0993 21 18.6899 21C20.1993 21 21.5868 20.4875 22.6899 19.625V20.1344C22.6899 20.3344 22.7681 20.525 22.9087 20.6656L26.0243 23.7812C26.3181 24.075 26.7931 24.075 27.0837 23.7812L27.9681 22.8969C28.2618 22.6031 28.2618 22.1281 27.9712 21.8344ZM18.6899 18.5C16.4806 18.5 14.6899 16.7125 14.6899 14.5C14.6899 12.2906 16.4774 10.5 18.6899 10.5C20.8993 10.5 22.6899 12.2875 22.6899 14.5C22.6899 16.7094 20.9024 18.5 18.6899 18.5Z" fill="black"/>
</svg>
