<svg width="56" height="50" viewBox="0 0 56 50" fill="none" xmlns="http://www.w3.org/2000/svg">
<mask id="mask0_190_3558" style="mask-type:luminance" maskUnits="userSpaceOnUse" x="1" y="-3" width="54" height="53">
<path d="M54.5 -3H1.5V50H54.5V-3Z" fill="white"/>
</mask>
<g mask="url(#mask0_190_3558)">
<path d="M22.6971 19.3928L25.7529 17.8844L26.243 14.512C26.3085 14.0605 26.8638 13.8802 27.1821 14.2068L29.561 16.6475L32.9199 16.0713C33.3696 15.9941 33.7125 16.4663 33.5002 16.8703L31.9142 19.8866L33.5002 22.9029C33.7125 23.3069 33.3696 23.779 32.9199 23.702L29.561 23.1257L27.1821 25.5663C26.8638 25.893 26.3085 25.7127 26.243 25.2611L25.7529 21.8887L22.6971 20.3804C22.2878 20.1784 22.2878 19.5948 22.6971 19.3928Z" fill="#FFD037"/>
<path d="M32.4524 10.4384C32.4524 12.5285 30.7579 14.2229 28.6679 14.2229C26.5778 14.2229 24.8833 12.5285 24.8833 10.4384C24.8833 8.34828 26.5778 6.65381 28.6679 6.65381C30.7579 6.65381 32.4524 8.34828 32.4524 10.4384Z" fill="#FF615F"/>
<path d="M33.7111 19.3547L30.4198 17.7305L29.892 14.0986C29.8216 13.6122 29.2239 13.4182 28.881 13.77L26.3191 16.3982L22.702 15.7777C22.2178 15.6946 21.8481 16.203 22.0767 16.6379L23.7848 19.8864L22.0767 23.1349C21.8481 23.57 22.2178 24.0784 22.702 23.9953L26.3191 23.3748L28.881 26.0029C29.2239 26.3548 29.8216 26.1606 29.892 25.6744L30.4198 22.0423L33.7111 20.4182C34.1518 20.2006 34.1518 19.5722 33.7111 19.3547Z" fill="#FFD037"/>
<path d="M37.4309 13.0731C37.4309 15.1632 35.7365 16.8577 33.6464 16.8577C31.5563 16.8577 29.8618 15.1632 29.8618 13.0731C29.8618 10.983 31.5563 9.28857 33.6464 9.28857C35.7365 9.28857 37.4309 10.983 37.4309 13.0731Z" fill="#00C3FF"/>
<path d="M26.1382 12.3202C26.1382 14.4103 24.4437 16.1048 22.3537 16.1048C20.2636 16.1048 18.5691 14.4103 18.5691 12.3202C18.5691 10.2301 20.2636 8.53564 22.3537 8.53564C24.4437 8.53564 26.1382 10.2301 26.1382 12.3202Z" fill="#03C65A"/>
<mask id="mask1_190_3558" style="mask-type:alpha" maskUnits="userSpaceOnUse" x="15" y="12" width="26" height="25">
<path d="M27.9999 36.5844C21.0023 36.5844 15.3296 30.9118 15.3296 23.9141V14.9703C15.3296 13.7355 16.3307 12.7344 17.5655 12.7344H38.4343C39.6691 12.7344 40.6702 13.7355 40.6702 14.9703V23.9141C40.6702 30.9118 34.9976 36.5844 27.9999 36.5844Z" fill="#FFD037"/>
</mask>
<g mask="url(#mask1_190_3558)">
<path d="M20.4717 30.682H16.7075C12.9654 30.682 9.93188 27.6485 9.93188 23.9064V20.5188C9.93188 19.2715 10.9431 18.2603 12.1904 18.2603H20.4717V30.682Z" fill="#FF615F"/>
</g>
<path d="M34.3991 43.8569H21.6008C20.3535 43.8569 19.3423 42.8457 19.3423 41.5984C19.3423 40.3511 20.3535 39.3398 21.6008 39.3398H34.3991C35.6464 39.3398 36.6576 40.3511 36.6576 41.5984C36.6576 42.8457 35.6464 43.8569 34.3991 43.8569Z" fill="#FFD037"/>
<path d="M31.3879 43.2784H24.6123V32.9131H31.3879V43.2784Z" fill="#FFD037"/>
<path d="M28 36.7047C20.9317 36.7047 15.2017 30.9748 15.2017 23.9064V14.8723C15.2017 13.625 16.2129 12.6138 17.4602 12.6138H38.5397C39.787 12.6138 40.7983 13.625 40.7983 14.8723V23.9064C40.7983 30.9748 35.0683 36.7047 28 36.7047Z" fill="#FFD037"/>
<mask id="mask2_190_3558" style="mask-type:alpha" maskUnits="userSpaceOnUse" x="15" y="12" width="26" height="25">
<path d="M28 36.7047C20.9317 36.7047 15.2017 30.9748 15.2017 23.9064V14.8723C15.2017 13.625 16.2129 12.6138 17.4602 12.6138H38.5397C39.787 12.6138 40.7983 13.625 40.7983 14.8723V23.9064C40.7983 30.9748 35.0683 36.7047 28 36.7047Z" fill="#FFD037"/>
</mask>
<g mask="url(#mask2_190_3558)">
<path d="M28.5323 18.3939L30.1584 21.6888L33.7946 22.2173C34.2814 22.2881 34.4761 22.8864 34.1238 23.2297L31.4923 25.7945L32.1135 29.4161C32.1967 29.9011 31.6878 30.2708 31.2524 30.0419L27.9998 28.332L24.7475 30.0419C24.312 30.2708 23.8031 29.9011 23.8862 29.4161L24.5074 25.7945L21.8762 23.2297C21.5238 22.8864 21.7184 22.2881 22.2053 22.2173L25.8414 21.6888L27.4676 18.3939C27.6853 17.9527 28.3145 17.9527 28.5323 18.3939Z" fill="#FF8533"/>
</g>
<mask id="mask3_190_3558" style="mask-type:alpha" maskUnits="userSpaceOnUse" x="15" y="12" width="26" height="25">
<path d="M27.9999 36.5844C21.0023 36.5844 15.3296 30.9118 15.3296 23.9141V14.9703C15.3296 13.7355 16.3307 12.7344 17.5655 12.7344H38.4343C39.6691 12.7344 40.6702 13.7355 40.6702 14.9703V23.9141C40.6702 30.9118 34.9976 36.5844 27.9999 36.5844Z" fill="#FFD037"/>
</mask>
<g mask="url(#mask3_190_3558)">
<path d="M35.5283 30.682H39.2925C43.0346 30.682 46.0681 27.6485 46.0681 23.9064V20.5188C46.0681 19.2715 45.0569 18.2603 43.8096 18.2603H35.5283V30.682Z" fill="#03C65A"/>
</g>
</g>
</svg>
