<svg width="56" height="53" viewBox="0 0 56 53" fill="none" xmlns="http://www.w3.org/2000/svg">
<mask id="mask0_190_5714" style="mask-type:luminance" maskUnits="userSpaceOnUse" x="1" y="0" width="54" height="53">
<path d="M54.5 0H1.5V53H54.5V0Z" fill="white"/>
</mask>
<g mask="url(#mask0_190_5714)">
<path d="M31.3877 47.8205H24.6121C23.7805 47.8205 23.1064 47.1463 23.1064 46.3148V40.5744C23.1064 39.327 24.1177 38.3159 25.365 38.3159H30.6349C31.8822 38.3159 32.8934 39.327 32.8934 40.5744V46.3148C32.8934 47.1463 32.2192 47.8205 31.3877 47.8205Z" fill="#03C65A"/>
<mask id="mask1_190_5714" style="mask-type:alpha" maskUnits="userSpaceOnUse" x="14" y="14" width="28" height="29">
<path d="M38.9161 42.1741H27.9999H17.0837C16.46 42.1741 15.8954 41.9213 15.4867 41.5126C15.078 41.1039 14.8252 40.5392 14.8252 39.9156V33.8929V27.8702C14.8252 24.2321 16.2998 20.9385 18.684 18.5543C21.0681 16.1702 24.3618 14.6956 27.9999 14.6956C35.2761 14.6956 41.1746 20.594 41.1746 27.8702V39.9156C41.1746 41.1629 40.1634 42.1741 38.9161 42.1741Z" fill="#FF0000"/>
</mask>
<g mask="url(#mask1_190_5714)">
<path d="M41.1746 34.573H14.8252V22.6736H41.1746V34.573Z" fill="#FFD037"/>
<path d="M41.1746 42.1742H14.8252V33.1401H41.1746V42.1742Z" fill="#FF615F"/>
<path d="M41.1746 24.1059H14.8252V14.6956H41.1746V24.1059Z" fill="#0094FF"/>
</g>
</g>
</svg>
