<svg width="56" height="53" viewBox="0 0 56 53" fill="none" xmlns="http://www.w3.org/2000/svg">
<mask id="mask0_190_3813" style="mask-type:luminance" maskUnits="userSpaceOnUse" x="1" y="0" width="54" height="53">
<path d="M54.5 0H1.5V53H54.5V0Z" fill="white"/>
</mask>
<g mask="url(#mask0_190_3813)">
<path d="M24.3873 19.0329C24.3873 22.0189 22.0782 24.4394 19.2298 24.4394C16.3814 24.4394 14.0723 22.0189 14.0723 19.0329C14.0723 16.047 16.3814 13.6265 19.2298 13.6265C22.0782 13.6265 24.3873 16.047 24.3873 19.0329Z" fill="#0094FF"/>
<path d="M31.6123 19.0329C31.6123 22.0189 33.9213 24.4394 36.7697 24.4394C39.6182 24.4394 41.9273 22.0189 41.9273 19.0329C41.9273 16.047 39.6182 13.6265 36.7697 13.6265C33.9213 13.6265 31.6123 16.047 31.6123 19.0329Z" fill="#FF615F"/>
<path d="M44.5625 31.318C44.5625 39.6336 37.1472 46.3749 28 46.3749C18.8528 46.3749 11.4375 39.6336 11.4375 31.318C11.4375 23.0025 18.8528 16.2612 28 16.2612C37.1472 16.2612 44.5625 23.0025 44.5625 31.318Z" fill="#FFD037"/>
<path d="M22.7681 32.5245C24.2758 33.7053 26.0851 34.3295 28.0001 34.3295C29.915 34.3295 31.7243 33.7053 33.232 32.5245C33.8868 32.0117 34.8331 32.1269 35.3457 32.7816C35.8585 33.4362 35.7435 34.3825 35.0888 34.8953C33.046 36.4953 30.5948 37.341 28.0001 37.341C25.4053 37.341 22.9541 36.4953 20.9113 34.8953C20.2566 34.3825 20.1416 33.4362 20.6544 32.7816C21.167 32.1269 22.1134 32.0116 22.7681 32.5245Z" fill="#FF8533"/>
</g>
</svg>
