<svg width="56" height="53" viewBox="0 0 56 53" fill="none" xmlns="http://www.w3.org/2000/svg">
<mask id="mask0_190_5944" style="mask-type:luminance" maskUnits="userSpaceOnUse" x="1" y="0" width="54" height="53">
<path d="M54.5 0H1.5V53H54.5V0Z" fill="white"/>
</mask>
<g mask="url(#mask0_190_5944)">
<mask id="mask1_190_5944" style="mask-type:alpha" maskUnits="userSpaceOnUse" x="10" y="16" width="36" height="30">
<path d="M20.0458 16.8607C13.8249 16.9267 9.57696 22.2506 10.3955 28.4176C11.4991 36.7334 20.513 42.4985 25.1912 44.9612C26.9418 45.8826 29.0311 45.8826 30.7817 44.9612C35.4599 42.4984 44.4743 36.7331 45.5775 28.417C46.3956 22.25 42.1475 16.9265 35.9266 16.8607H20.0458Z" fill="#00FF67"/>
</mask>
<g mask="url(#mask1_190_5944)">
<path d="M36.0266 16.8623C32.7513 16.7959 29.8307 18.3259 27.9882 20.7268C26.1457 18.3259 23.2251 16.7959 19.9498 16.8623C13.6874 16.9893 9.50806 22.4104 10.4238 28.607C12.0759 39.786 27.9882 46.3018 27.9882 46.3018C27.9882 46.3018 43.9005 39.786 45.5525 28.607C46.4683 22.4104 42.289 16.9893 36.0266 16.8623Z" fill="#FFD037"/>
</g>
<mask id="mask2_190_5944" style="mask-type:alpha" maskUnits="userSpaceOnUse" x="10" y="16" width="36" height="30">
<path d="M20.0458 16.8607C13.8249 16.9267 9.57696 22.2506 10.3955 28.4176C11.4991 36.7334 20.513 42.4985 25.1912 44.9612C26.9418 45.8826 29.0311 45.8826 30.7817 44.9612C35.4599 42.4984 44.4743 36.7331 45.5775 28.417C46.3956 22.25 42.1475 16.9265 35.9266 16.8607H20.0458Z" fill="#00FF67"/>
</mask>
<g mask="url(#mask2_190_5944)">
<path d="M27.9865 20.7267C26.144 18.3259 23.2235 16.7958 19.9482 16.8622C13.6855 16.9891 9.50637 22.4104 10.4221 28.607C12.0741 39.786 27.9865 46.3016 27.9865 46.3016V20.7267Z" fill="#FF625F"/>
</g>
<mask id="mask3_190_5944" style="mask-type:alpha" maskUnits="userSpaceOnUse" x="10" y="16" width="36" height="30">
<path d="M20.0458 16.8607C13.8249 16.9267 9.57696 22.2506 10.3955 28.4176C11.4991 36.7334 20.513 42.4985 25.1912 44.9612C26.9418 45.8826 29.0311 45.8826 30.7817 44.9612C35.4599 42.4984 44.4743 36.7331 45.5775 28.417C46.3956 22.25 42.1475 16.9265 35.9266 16.8607H20.0458Z" fill="#00FF67"/>
</mask>
<g mask="url(#mask3_190_5944)">
<path d="M27.9865 20.7267C26.144 18.3259 23.2235 16.7958 19.9482 16.8622C13.6855 16.9891 9.50637 22.4104 10.4221 28.607C12.0741 39.786 27.9865 46.3016 27.9865 46.3016V20.7267Z" fill="#FF8533"/>
</g>
<mask id="mask4_190_5944" style="mask-type:alpha" maskUnits="userSpaceOnUse" x="10" y="16" width="36" height="30">
<path d="M20.0458 16.8607C13.8249 16.9267 9.57696 22.2506 10.3955 28.4176C11.4991 36.7334 20.513 42.4985 25.1912 44.9612C26.9418 45.8826 29.0311 45.8826 30.7817 44.9612C35.4599 42.4984 44.4743 36.7331 45.5775 28.417C46.3956 22.25 42.1475 16.9265 35.9266 16.8607H20.0458Z" fill="#00FF67"/>
</mask>
<g mask="url(#mask4_190_5944)">
<path d="M27.9865 20.7267C26.144 18.3259 23.2235 16.7958 19.9482 16.8622C13.6855 16.9891 9.50637 22.4104 10.4221 28.607C12.0741 39.786 27.9865 46.3016 27.9865 46.3016V20.7267Z" fill="#FFAA3B"/>
</g>
<mask id="mask5_190_5944" style="mask-type:alpha" maskUnits="userSpaceOnUse" x="10" y="16" width="36" height="30">
<path d="M20.0458 16.8607C13.8249 16.9267 9.57696 22.2506 10.3955 28.4176C11.4991 36.7334 20.513 42.4985 25.1912 44.9612C26.9418 45.8826 29.0311 45.8826 30.7817 44.9612C35.4599 42.4984 44.4743 36.7331 45.5775 28.417C46.3956 22.25 42.1475 16.9265 35.9266 16.8607H20.0458Z" fill="#00FF67"/>
</mask>
<g mask="url(#mask5_190_5944)">
<path d="M27.9865 20.7267C26.144 18.3259 23.2235 16.7958 19.9482 16.8622C13.6855 16.9891 9.50637 22.4104 10.4221 28.607C12.0741 39.786 27.9865 46.3016 27.9865 46.3016V20.7267Z" fill="#FFD037"/>
</g>
<mask id="mask6_190_5944" style="mask-type:alpha" maskUnits="userSpaceOnUse" x="10" y="16" width="36" height="30">
<path d="M20.0458 16.8607C13.8249 16.9267 9.57696 22.2506 10.3955 28.4176C11.4991 36.7334 20.513 42.4985 25.1912 44.9612C26.9418 45.8826 29.0311 45.8826 30.7817 44.9612C35.4599 42.4984 44.4743 36.7331 45.5775 28.417C46.3956 22.25 42.1475 16.9265 35.9266 16.8607H20.0458Z" fill="#00FF67"/>
</mask>
<g mask="url(#mask6_190_5944)">
<path d="M27.9865 20.7267C26.144 18.3259 23.2235 16.7958 19.9482 16.8622C13.6855 16.9891 9.50637 22.4104 10.4221 28.607C12.0741 39.786 27.9865 46.3016 27.9865 46.3016V20.7267Z" fill="#FFAA3B"/>
</g>
<mask id="mask7_190_5944" style="mask-type:alpha" maskUnits="userSpaceOnUse" x="10" y="16" width="36" height="30">
<path d="M20.0458 16.8607C13.8249 16.9267 9.57696 22.2506 10.3955 28.4176C11.4991 36.7334 20.513 42.4985 25.1912 44.9612C26.9418 45.8826 29.0311 45.8826 30.7817 44.9612C35.4599 42.4984 44.4743 36.7331 45.5775 28.417C46.3956 22.25 42.1475 16.9265 35.9266 16.8607H20.0458Z" fill="#00FF67"/>
</mask>
<g mask="url(#mask7_190_5944)">
<path d="M27.9865 20.7267C26.144 18.3259 23.2235 16.7958 19.9482 16.8622C13.6855 16.9891 9.50637 22.4104 10.4221 28.607C12.0741 39.786 27.9865 46.3016 27.9865 46.3016V20.7267Z" fill="#FF615F"/>
</g>
</g>
</svg>
