<svg width="56" height="53" viewBox="0 0 56 53" fill="none" xmlns="http://www.w3.org/2000/svg">
<mask id="mask0_190_4210" style="mask-type:luminance" maskUnits="userSpaceOnUse" x="1" y="0" width="54" height="53">
<path d="M54.5 53H1.5V0H54.5V53Z" fill="white"/>
</mask>
<g mask="url(#mask0_190_4210)">
<path d="M31.3877 5.1795H24.6121C23.7805 5.1795 23.1064 5.85368 23.1064 6.68518V12.4256C23.1064 13.673 24.1177 14.6841 25.365 14.6841H30.6349C31.8822 14.6841 32.8934 13.673 32.8934 12.4256V6.68518C32.8934 5.85368 32.2192 5.1795 31.3877 5.1795Z" fill="#03C65A"/>
<mask id="mask1_190_4210" style="mask-type:alpha" maskUnits="userSpaceOnUse" x="14" y="10" width="28" height="29">
<path d="M38.9161 10.8259H27.9999H17.0837C16.46 10.8259 15.8954 11.0787 15.4867 11.4874C15.078 11.8961 14.8252 12.4608 14.8252 13.0844V19.1071V25.1298C14.8252 28.7679 16.2998 32.0615 18.684 34.4457C21.0681 36.8298 24.3618 38.3044 27.9999 38.3044C35.2761 38.3044 41.1746 32.406 41.1746 25.1298V13.0844C41.1746 11.8371 40.1634 10.8259 38.9161 10.8259Z" fill="#FF0000"/>
</mask>
<g mask="url(#mask1_190_4210)">
<path d="M41.1746 18.427H14.8252V30.3264H41.1746V18.427Z" fill="#FFD037"/>
<path d="M41.1746 10.8258H14.8252V19.8599H41.1746V10.8258Z" fill="#FF615F"/>
<path d="M41.1746 28.8941H14.8252V38.3044H41.1746V28.8941Z" fill="#0094FF"/>
</g>
</g>
</svg>
