<svg width="56" height="53" viewBox="0 0 56 53" fill="none" xmlns="http://www.w3.org/2000/svg">
<mask id="mask0_190_5526" style="mask-type:luminance" maskUnits="userSpaceOnUse" x="1" y="0" width="54" height="53">
<path d="M54.5 0H1.5V53H54.5V0Z" fill="white"/>
</mask>
<g mask="url(#mask0_190_5526)">
<path d="M31.3878 47.8205H24.6122C23.7806 47.8205 23.1066 47.1463 23.1066 46.3148V40.5744C23.1066 39.327 24.1178 38.3159 25.3651 38.3159H30.635C31.8823 38.3159 32.8935 39.327 32.8935 40.5744V46.3148C32.8935 47.1463 32.2193 47.8205 31.3878 47.8205Z" fill="#03C65A"/>
<mask id="mask1_190_5526" style="mask-type:alpha" maskUnits="userSpaceOnUse" x="14" y="14" width="28" height="29">
<path d="M38.9162 42.1741H28H17.0838C16.4601 42.1741 15.8956 41.9213 15.4869 41.5126C15.0782 41.1039 14.8253 40.5392 14.8253 39.9156V33.8929V27.8702C14.8253 24.2321 16.2999 20.9385 18.6841 18.5543C21.0682 16.1702 24.3619 14.6956 28 14.6956C35.2762 14.6956 41.1747 20.594 41.1747 27.8702V39.9156C41.1747 41.1629 40.1635 42.1741 38.9162 42.1741Z" fill="#FF0000"/>
</mask>
<g mask="url(#mask1_190_5526)">
<path d="M41.1747 34.573H14.8253V22.6736H41.1747V34.573Z" fill="#FFD037"/>
<path d="M41.1747 42.1742H14.8253V33.1401H41.1747V42.1742Z" fill="#FF615F"/>
<path d="M41.1747 24.1059H14.8253V14.6956H41.1747V24.1059Z" fill="#0094FF"/>
</g>
</g>
</svg>
