<svg width="56" height="53" viewBox="0 0 56 53" fill="none" xmlns="http://www.w3.org/2000/svg">
<mask id="mask0_190_4125" style="mask-type:luminance" maskUnits="userSpaceOnUse" x="1" y="0" width="54" height="53">
<path d="M54.5 53H1.5V0H54.5V53Z" fill="white"/>
</mask>
<g mask="url(#mask0_190_4125)">
<path d="M22.6971 30.6075L25.7529 32.1158L26.243 35.4882C26.3085 35.9398 26.8638 36.1201 27.1821 35.7934L29.561 33.3528L32.9199 33.929C33.3696 34.0061 33.7125 33.534 33.5002 33.13L31.9142 30.1137L33.5002 27.0974C33.7125 26.6934 33.3696 26.2212 32.9199 26.2982L29.561 26.8746L27.1821 24.4339C26.8638 24.1073 26.3085 24.2876 26.243 24.7391L25.7529 28.1115L22.6971 29.6199C22.2878 29.8219 22.2878 30.4055 22.6971 30.6075Z" fill="#FFD037"/>
<path d="M32.4524 39.5619C32.4524 37.4718 30.7579 35.7773 28.6679 35.7773C26.5778 35.7773 24.8833 37.4718 24.8833 39.5619C24.8833 41.652 26.5778 43.3464 28.6679 43.3464C30.7579 43.3464 32.4524 41.652 32.4524 39.5619Z" fill="#FF615F"/>
<path d="M33.7111 30.6453L30.4198 32.2695L29.892 35.9014C29.8216 36.3878 29.2239 36.5818 28.881 36.23L26.3191 33.6018L22.702 34.2223C22.2178 34.3054 21.8481 33.797 22.0767 33.3621L23.7848 30.1136L22.0767 26.8651C21.8481 26.43 22.2178 25.9216 22.702 26.0047L26.3191 26.6252L28.881 23.9971C29.2239 23.6452 29.8216 23.8394 29.892 24.3256L30.4198 27.9577L33.7111 29.5818C34.1518 29.7994 34.1518 30.4278 33.7111 30.6453Z" fill="#FFD037"/>
<path d="M37.4309 36.9269C37.4309 34.8368 35.7365 33.1423 33.6464 33.1423C31.5563 33.1423 29.8618 34.8368 29.8618 36.9269C29.8618 39.017 31.5563 40.7114 33.6464 40.7114C35.7365 40.7114 37.4309 39.017 37.4309 36.9269Z" fill="#00C3FF"/>
<path d="M26.1382 37.6798C26.1382 35.5897 24.4437 33.8952 22.3537 33.8952C20.2636 33.8952 18.5691 35.5897 18.5691 37.6798C18.5691 39.7699 20.2636 41.4644 22.3537 41.4644C24.4437 41.4644 26.1382 39.7699 26.1382 37.6798Z" fill="#03C65A"/>
<mask id="mask1_190_4125" style="mask-type:alpha" maskUnits="userSpaceOnUse" x="15" y="13" width="26" height="25">
<path d="M27.9999 13.4156C21.0023 13.4156 15.3296 19.0882 15.3296 26.0859V35.0297C15.3296 36.2645 16.3307 37.2656 17.5655 37.2656H38.4343C39.6691 37.2656 40.6702 36.2645 40.6702 35.0297V26.0859C40.6702 19.0882 34.9976 13.4156 27.9999 13.4156Z" fill="#FFD037"/>
</mask>
<g mask="url(#mask1_190_4125)">
<path d="M20.4717 19.318H16.7075C12.9654 19.318 9.93188 22.3515 9.93188 26.0936V29.4812C9.93188 30.7285 10.9431 31.7397 12.1904 31.7397H20.4717V19.318Z" fill="#FF615F"/>
</g>
<path d="M34.3991 6.14311H21.6008C20.3535 6.14311 19.3423 7.15433 19.3423 8.40163C19.3423 9.64894 20.3535 10.6602 21.6008 10.6602H34.3991C35.6464 10.6602 36.6576 9.64894 36.6576 8.40163C36.6576 7.15433 35.6464 6.14311 34.3991 6.14311Z" fill="#FFD037"/>
<path d="M31.3879 6.72156H24.6123V17.0869H31.3879V6.72156Z" fill="#FFD037"/>
<path d="M28 13.2951C20.9317 13.2951 15.2017 19.025 15.2017 26.0934V35.1275C15.2017 36.3748 16.2129 37.386 17.4602 37.386H38.5397C39.787 37.386 40.7983 36.3748 40.7983 35.1275V26.0934C40.7983 19.025 35.0683 13.2951 28 13.2951Z" fill="#FFD037"/>
<mask id="mask2_190_4125" style="mask-type:alpha" maskUnits="userSpaceOnUse" x="15" y="13" width="26" height="25">
<path d="M28 13.2951C20.9317 13.2951 15.2017 19.025 15.2017 26.0934V35.1275C15.2017 36.3748 16.2129 37.386 17.4602 37.386H38.5397C39.787 37.386 40.7983 36.3748 40.7983 35.1275V26.0934C40.7983 19.025 35.0683 13.2951 28 13.2951Z" fill="#FFD037"/>
</mask>
<g mask="url(#mask2_190_4125)">
<path d="M28.5323 31.6056L30.1584 28.3107L33.7946 27.7823C34.2814 27.7114 34.4761 27.1131 34.1238 26.7698L31.4923 24.205L32.1135 20.5834C32.1967 20.0985 31.6878 19.7287 31.2524 19.9577L27.9998 21.6675L24.7475 19.9577C24.312 19.7287 23.8031 20.0985 23.8862 20.5834L24.5074 24.205L21.8762 26.7698C21.5238 27.1131 21.7184 27.7114 22.2053 27.7823L25.8414 28.3107L27.4676 31.6056C27.6853 32.0468 28.3145 32.0468 28.5323 31.6056Z" fill="#FF8533"/>
</g>
<mask id="mask3_190_4125" style="mask-type:alpha" maskUnits="userSpaceOnUse" x="15" y="13" width="26" height="25">
<path d="M27.9999 13.4156C21.0023 13.4156 15.3296 19.0882 15.3296 26.0859V35.0297C15.3296 36.2645 16.3307 37.2656 17.5655 37.2656H38.4343C39.6691 37.2656 40.6702 36.2645 40.6702 35.0297V26.0859C40.6702 19.0882 34.9976 13.4156 27.9999 13.4156Z" fill="#FFD037"/>
</mask>
<g mask="url(#mask3_190_4125)">
<path d="M35.5283 19.318H39.2925C43.0346 19.318 46.0681 22.3515 46.0681 26.0936V29.4812C46.0681 30.7285 45.0569 31.7397 43.8096 31.7397H35.5283V19.318Z" fill="#03C65A"/>
</g>
</g>
</svg>
