<svg width="56" height="53" viewBox="0 0 56 53" fill="none" xmlns="http://www.w3.org/2000/svg">
<mask id="mask0_190_5150" style="mask-type:luminance" maskUnits="userSpaceOnUse" x="1" y="0" width="54" height="53">
<path d="M54.5 0H1.5V53H54.5V0Z" fill="white"/>
</mask>
<g mask="url(#mask0_190_5150)">
<path d="M31.3878 47.8204H24.6122C23.7806 47.8204 23.1066 47.1462 23.1066 46.3147V40.5743C23.1066 39.3269 24.1178 38.3158 25.3651 38.3158H30.635C31.8823 38.3158 32.8935 39.3269 32.8935 40.5743V46.3147C32.8935 47.1462 32.2193 47.8204 31.3878 47.8204Z" fill="#03C65A"/>
<mask id="mask1_190_5150" style="mask-type:alpha" maskUnits="userSpaceOnUse" x="14" y="14" width="28" height="29">
<path d="M38.9162 42.174H28H17.0838C16.4601 42.174 15.8956 41.9212 15.4869 41.5125C15.0782 41.1038 14.8253 40.5391 14.8253 39.9155V33.8928V27.87C14.8253 24.2319 16.2999 20.9384 18.6841 18.5542C21.0682 16.17 24.3619 14.6954 28 14.6954C35.2762 14.6954 41.1748 20.5939 41.1748 27.87V39.9155C41.1748 41.1628 40.1635 42.174 38.9162 42.174Z" fill="#FF0000"/>
</mask>
<g mask="url(#mask1_190_5150)">
<path d="M41.1748 34.5727H14.8253V22.6732H41.1748V34.5727Z" fill="#FFD037"/>
<path d="M41.1748 42.174H14.8253V33.1399H41.1748V42.174Z" fill="#FF615F"/>
<path d="M41.1748 24.1057H14.8253V14.6953H41.1748V24.1057Z" fill="#0094FF"/>
</g>
</g>
</svg>
