<svg width="56" height="53" viewBox="0 0 56 53" fill="none" xmlns="http://www.w3.org/2000/svg">
<mask id="mask0_190_4047" style="mask-type:luminance" maskUnits="userSpaceOnUse" x="1" y="0" width="54" height="53">
<path d="M54.5 0H1.5V53H54.5V0Z" fill="white"/>
</mask>
<g mask="url(#mask0_190_4047)">
<mask id="mask1_190_4047" style="mask-type:alpha" maskUnits="userSpaceOnUse" x="10" y="16" width="36" height="30">
<path d="M20.0456 16.8608C13.8248 16.9268 9.57681 22.2507 10.3953 28.4177C11.4989 36.7336 20.5129 42.4986 25.1911 44.9613C26.9417 45.8827 29.0309 45.8827 30.7815 44.9613C35.4597 42.4985 44.4742 36.7332 45.5773 28.4171C46.3954 22.2501 42.1474 16.9266 35.9265 16.8608H20.0456Z" fill="#00FF67"/>
</mask>
<g mask="url(#mask1_190_4047)">
<path d="M36.0264 16.8624C32.7511 16.7961 29.8305 18.3261 27.988 20.727C26.1455 18.3261 23.2249 16.7961 19.9496 16.8624C13.6872 16.9894 9.50786 22.4106 10.4236 28.6071C12.0757 39.7861 27.988 46.3019 27.988 46.3019C27.988 46.3019 43.9003 39.7861 45.5523 28.6071C46.4681 22.4106 42.2888 16.9894 36.0264 16.8624Z" fill="#FFD037"/>
</g>
<mask id="mask2_190_4047" style="mask-type:alpha" maskUnits="userSpaceOnUse" x="10" y="16" width="36" height="30">
<path d="M20.0456 16.8608C13.8248 16.9268 9.57681 22.2507 10.3953 28.4177C11.4989 36.7336 20.5129 42.4986 25.1911 44.9613C26.9417 45.8827 29.0309 45.8827 30.7815 44.9613C35.4597 42.4985 44.4742 36.7332 45.5773 28.4171C46.3954 22.2501 42.1474 16.9266 35.9265 16.8608H20.0456Z" fill="#00FF67"/>
</mask>
<g mask="url(#mask2_190_4047)">
<path d="M27.9865 20.727C26.1441 18.3262 23.2235 16.7961 19.9482 16.8624C13.6856 16.9894 9.5064 22.4107 10.4221 28.6072C12.0741 39.7863 27.9865 46.3019 27.9865 46.3019V20.727Z" fill="#FF625F"/>
</g>
<mask id="mask3_190_4047" style="mask-type:alpha" maskUnits="userSpaceOnUse" x="10" y="16" width="36" height="30">
<path d="M20.0456 16.8608C13.8248 16.9268 9.57681 22.2507 10.3953 28.4177C11.4989 36.7336 20.5129 42.4986 25.1911 44.9613C26.9417 45.8827 29.0309 45.8827 30.7815 44.9613C35.4597 42.4985 44.4742 36.7332 45.5773 28.4171C46.3954 22.2501 42.1474 16.9266 35.9265 16.8608H20.0456Z" fill="#00FF67"/>
</mask>
<g mask="url(#mask3_190_4047)">
<path d="M27.9865 20.727C26.1441 18.3262 23.2235 16.7961 19.9482 16.8624C13.6856 16.9894 9.5064 22.4107 10.4221 28.6072C12.0741 39.7863 27.9865 46.3019 27.9865 46.3019V20.727Z" fill="#FF8533"/>
</g>
<mask id="mask4_190_4047" style="mask-type:alpha" maskUnits="userSpaceOnUse" x="10" y="16" width="36" height="30">
<path d="M20.0456 16.8608C13.8248 16.9268 9.57681 22.2507 10.3953 28.4177C11.4989 36.7336 20.5129 42.4986 25.1911 44.9613C26.9417 45.8827 29.0309 45.8827 30.7815 44.9613C35.4597 42.4985 44.4742 36.7332 45.5773 28.4171C46.3954 22.2501 42.1474 16.9266 35.9265 16.8608H20.0456Z" fill="#00FF67"/>
</mask>
<g mask="url(#mask4_190_4047)">
<path d="M27.9865 20.727C26.1441 18.3262 23.2235 16.7961 19.9482 16.8624C13.6856 16.9894 9.5064 22.4107 10.4221 28.6072C12.0741 39.7863 27.9865 46.3019 27.9865 46.3019V20.727Z" fill="#FFAA3B"/>
</g>
<mask id="mask5_190_4047" style="mask-type:alpha" maskUnits="userSpaceOnUse" x="10" y="16" width="36" height="30">
<path d="M20.0456 16.8608C13.8248 16.9268 9.57681 22.2507 10.3953 28.4177C11.4989 36.7336 20.5129 42.4986 25.1911 44.9613C26.9417 45.8827 29.0309 45.8827 30.7815 44.9613C35.4597 42.4985 44.4742 36.7332 45.5773 28.4171C46.3954 22.2501 42.1474 16.9266 35.9265 16.8608H20.0456Z" fill="#00FF67"/>
</mask>
<g mask="url(#mask5_190_4047)">
<path d="M27.9865 20.727C26.1441 18.3262 23.2235 16.7961 19.9482 16.8624C13.6856 16.9894 9.5064 22.4107 10.4221 28.6072C12.0741 39.7863 27.9865 46.3019 27.9865 46.3019V20.727Z" fill="#FFD037"/>
</g>
<mask id="mask6_190_4047" style="mask-type:alpha" maskUnits="userSpaceOnUse" x="10" y="16" width="36" height="30">
<path d="M20.0456 16.8608C13.8248 16.9268 9.57681 22.2507 10.3953 28.4177C11.4989 36.7336 20.5129 42.4986 25.1911 44.9613C26.9417 45.8827 29.0309 45.8827 30.7815 44.9613C35.4597 42.4985 44.4742 36.7332 45.5773 28.4171C46.3954 22.2501 42.1474 16.9266 35.9265 16.8608H20.0456Z" fill="#00FF67"/>
</mask>
<g mask="url(#mask6_190_4047)">
<path d="M27.9865 20.727C26.1441 18.3262 23.2235 16.7961 19.9482 16.8624C13.6856 16.9894 9.5064 22.4107 10.4221 28.6072C12.0741 39.7863 27.9865 46.3019 27.9865 46.3019V20.727Z" fill="#FFAA3B"/>
</g>
<mask id="mask7_190_4047" style="mask-type:alpha" maskUnits="userSpaceOnUse" x="10" y="16" width="36" height="30">
<path d="M20.0456 16.8608C13.8248 16.9268 9.57681 22.2507 10.3953 28.4177C11.4989 36.7336 20.5129 42.4986 25.1911 44.9613C26.9417 45.8827 29.0309 45.8827 30.7815 44.9613C35.4597 42.4985 44.4742 36.7332 45.5773 28.4171C46.3954 22.2501 42.1474 16.9266 35.9265 16.8608H20.0456Z" fill="#00FF67"/>
</mask>
<g mask="url(#mask7_190_4047)">
<path d="M27.9865 20.727C26.1441 18.3262 23.2235 16.7961 19.9482 16.8624C13.6856 16.9894 9.5064 22.4107 10.4221 28.6072C12.0741 39.7863 27.9865 46.3019 27.9865 46.3019V20.727Z" fill="#FF615F"/>
</g>
</g>
</svg>
