<svg width="56" height="53" viewBox="0 0 56 53" fill="none" xmlns="http://www.w3.org/2000/svg">
<mask id="mask0_190_5551" style="mask-type:luminance" maskUnits="userSpaceOnUse" x="1" y="0" width="54" height="53">
<path d="M54.5 0H1.5V53H54.5V0Z" fill="white"/>
</mask>
<g mask="url(#mask0_190_5551)">
<mask id="mask1_190_5551" style="mask-type:alpha" maskUnits="userSpaceOnUse" x="10" y="16" width="36" height="30">
<path d="M20.0458 16.8608C13.8249 16.9268 9.57693 22.2507 10.3954 28.4177C11.499 36.7336 20.513 42.4986 25.1912 44.9613C26.9418 45.8827 29.0311 45.8827 30.7816 44.9613C35.4598 42.4985 44.4743 36.7332 45.5774 28.4171C46.3956 22.2501 42.1475 16.9266 35.9266 16.8608H20.0458Z" fill="#00FF67"/>
</mask>
<g mask="url(#mask1_190_5551)">
<path d="M36.0265 16.8624C32.7513 16.7961 29.8306 18.3261 27.9881 20.727C26.1456 18.3261 23.225 16.7961 19.9497 16.8624C13.6873 16.9894 9.50799 22.4106 10.4237 28.6071C12.0758 39.7861 27.9881 46.3019 27.9881 46.3019C27.9881 46.3019 43.9004 39.7861 45.5524 28.6071C46.4683 22.4106 42.289 16.9894 36.0265 16.8624Z" fill="#FFD037"/>
</g>
<mask id="mask2_190_5551" style="mask-type:alpha" maskUnits="userSpaceOnUse" x="10" y="16" width="36" height="30">
<path d="M20.0458 16.8608C13.8249 16.9268 9.57693 22.2507 10.3954 28.4177C11.499 36.7336 20.513 42.4986 25.1912 44.9613C26.9418 45.8827 29.0311 45.8827 30.7816 44.9613C35.4598 42.4985 44.4743 36.7332 45.5774 28.4171C46.3956 22.2501 42.1475 16.9266 35.9266 16.8608H20.0458Z" fill="#00FF67"/>
</mask>
<g mask="url(#mask2_190_5551)">
<path d="M27.9865 20.7267C26.1441 18.3259 23.2235 16.7958 19.9482 16.8622C13.6856 16.9891 9.5064 22.4104 10.4221 28.607C12.0741 39.786 27.9865 46.3016 27.9865 46.3016V20.7267Z" fill="#FF625F"/>
</g>
<mask id="mask3_190_5551" style="mask-type:alpha" maskUnits="userSpaceOnUse" x="10" y="16" width="36" height="30">
<path d="M20.0458 16.8608C13.8249 16.9268 9.57693 22.2507 10.3954 28.4177C11.499 36.7336 20.513 42.4986 25.1912 44.9613C26.9418 45.8827 29.0311 45.8827 30.7816 44.9613C35.4598 42.4985 44.4743 36.7332 45.5774 28.4171C46.3956 22.2501 42.1475 16.9266 35.9266 16.8608H20.0458Z" fill="#00FF67"/>
</mask>
<g mask="url(#mask3_190_5551)">
<path d="M27.9865 20.7267C26.1441 18.3259 23.2235 16.7958 19.9482 16.8622C13.6856 16.9891 9.5064 22.4104 10.4221 28.607C12.0741 39.786 27.9865 46.3016 27.9865 46.3016V20.7267Z" fill="#FF8533"/>
</g>
<mask id="mask4_190_5551" style="mask-type:alpha" maskUnits="userSpaceOnUse" x="10" y="16" width="36" height="30">
<path d="M20.0458 16.8608C13.8249 16.9268 9.57693 22.2507 10.3954 28.4177C11.499 36.7336 20.513 42.4986 25.1912 44.9613C26.9418 45.8827 29.0311 45.8827 30.7816 44.9613C35.4598 42.4985 44.4743 36.7332 45.5774 28.4171C46.3956 22.2501 42.1475 16.9266 35.9266 16.8608H20.0458Z" fill="#00FF67"/>
</mask>
<g mask="url(#mask4_190_5551)">
<path d="M27.9865 20.7267C26.1441 18.3259 23.2235 16.7958 19.9482 16.8622C13.6856 16.9891 9.5064 22.4104 10.4221 28.607C12.0741 39.786 27.9865 46.3016 27.9865 46.3016V20.7267Z" fill="#FFAA3B"/>
</g>
<mask id="mask5_190_5551" style="mask-type:alpha" maskUnits="userSpaceOnUse" x="10" y="16" width="36" height="30">
<path d="M20.0458 16.8608C13.8249 16.9268 9.57693 22.2507 10.3954 28.4177C11.499 36.7336 20.513 42.4986 25.1912 44.9613C26.9418 45.8827 29.0311 45.8827 30.7816 44.9613C35.4598 42.4985 44.4743 36.7332 45.5774 28.4171C46.3956 22.2501 42.1475 16.9266 35.9266 16.8608H20.0458Z" fill="#00FF67"/>
</mask>
<g mask="url(#mask5_190_5551)">
<path d="M27.9865 20.7267C26.1441 18.3259 23.2235 16.7958 19.9482 16.8622C13.6856 16.9891 9.5064 22.4104 10.4221 28.607C12.0741 39.786 27.9865 46.3016 27.9865 46.3016V20.7267Z" fill="#FFD037"/>
</g>
<mask id="mask6_190_5551" style="mask-type:alpha" maskUnits="userSpaceOnUse" x="10" y="16" width="36" height="30">
<path d="M20.0458 16.8608C13.8249 16.9268 9.57693 22.2507 10.3954 28.4177C11.499 36.7336 20.513 42.4986 25.1912 44.9613C26.9418 45.8827 29.0311 45.8827 30.7816 44.9613C35.4598 42.4985 44.4743 36.7332 45.5774 28.4171C46.3956 22.2501 42.1475 16.9266 35.9266 16.8608H20.0458Z" fill="#00FF67"/>
</mask>
<g mask="url(#mask6_190_5551)">
<path d="M27.9865 20.7267C26.1441 18.3259 23.2235 16.7958 19.9482 16.8622C13.6856 16.9891 9.5064 22.4104 10.4221 28.607C12.0741 39.786 27.9865 46.3016 27.9865 46.3016V20.7267Z" fill="#FFAA3B"/>
</g>
<mask id="mask7_190_5551" style="mask-type:alpha" maskUnits="userSpaceOnUse" x="10" y="16" width="36" height="30">
<path d="M20.0458 16.8608C13.8249 16.9268 9.57693 22.2507 10.3954 28.4177C11.499 36.7336 20.513 42.4986 25.1912 44.9613C26.9418 45.8827 29.0311 45.8827 30.7816 44.9613C35.4598 42.4985 44.4743 36.7332 45.5774 28.4171C46.3956 22.2501 42.1475 16.9266 35.9266 16.8608H20.0458Z" fill="#00FF67"/>
</mask>
<g mask="url(#mask7_190_5551)">
<path d="M27.9865 20.7267C26.1441 18.3259 23.2235 16.7958 19.9482 16.8622C13.6856 16.9891 9.5064 22.4104 10.4221 28.607C12.0741 39.786 27.9865 46.3016 27.9865 46.3016V20.7267Z" fill="#FF615F"/>
</g>
</g>
</svg>
