<svg width="56" height="53" viewBox="0 0 56 53" fill="none" xmlns="http://www.w3.org/2000/svg">
<mask id="mask0_190_4689" style="mask-type:luminance" maskUnits="userSpaceOnUse" x="1" y="0" width="54" height="53">
<path d="M54.5 0H1.5V53H54.5V0Z" fill="white"/>
</mask>
<g mask="url(#mask0_190_4689)">
<path d="M22.6969 22.3926L25.7528 20.8842L26.2428 17.5118C26.3084 17.0603 26.8637 16.8799 27.182 17.2066L29.5609 19.6473L32.9197 19.0711C33.3695 18.9939 33.7124 19.466 33.5001 19.8701L31.9141 22.8864L33.5001 25.9027C33.7124 26.3067 33.3695 26.7788 32.9197 26.7018L29.5609 26.1254L27.182 28.5661C26.8637 28.8928 26.3084 28.7124 26.2428 28.2609L25.7528 24.8885L22.6969 23.3802C22.2877 23.1782 22.2877 22.5946 22.6969 22.3926Z" fill="#FFD037"/>
<path d="M32.4524 13.4382C32.4524 15.5282 30.7579 17.2227 28.6679 17.2227C26.5778 17.2227 24.8833 15.5282 24.8833 13.4382C24.8833 11.3481 26.5778 9.65359 28.6679 9.65359C30.7579 9.65359 32.4524 11.3481 32.4524 13.4382Z" fill="#FF615F"/>
<path d="M33.711 22.3546L30.4197 20.7305L29.8919 17.0986C29.8215 16.6122 29.2238 16.4181 28.8808 16.7699L26.3189 19.3981L22.7019 18.7777C22.2176 18.6945 21.848 19.203 22.0765 19.6379L23.7847 22.8864L22.0765 26.1348C21.848 26.5699 22.2176 27.0784 22.7019 26.9952L26.3189 26.3748L28.8808 29.0028C29.2238 29.3548 29.8215 29.1605 29.8919 28.6743L30.4197 25.0423L33.711 23.4181C34.1517 23.2006 34.1517 22.5722 33.711 22.3546Z" fill="#FFD037"/>
<path d="M37.4308 16.0731C37.4308 18.1632 35.7363 19.8577 33.6463 19.8577C31.5562 19.8577 29.8617 18.1632 29.8617 16.0731C29.8617 13.983 31.5562 12.2885 33.6463 12.2885C35.7363 12.2885 37.4308 13.983 37.4308 16.0731Z" fill="#00C3FF"/>
<path d="M26.1382 15.3203C26.1382 17.4103 24.4437 19.1048 22.3537 19.1048C20.2636 19.1048 18.5691 17.4103 18.5691 15.3203C18.5691 13.2302 20.2636 11.5357 22.3537 11.5357C24.4437 11.5357 26.1382 13.2302 26.1382 15.3203Z" fill="#03C65A"/>
<mask id="mask1_190_4689" style="mask-type:alpha" maskUnits="userSpaceOnUse" x="15" y="15" width="26" height="25">
<path d="M28 39.5844C21.0024 39.5844 15.3297 33.9118 15.3297 26.9141V17.9704C15.3297 16.7355 16.3308 15.7344 17.5656 15.7344H38.4344C39.6692 15.7344 40.6703 16.7355 40.6703 17.9704V26.9141C40.6703 33.9118 34.9977 39.5844 28 39.5844Z" fill="#FFD037"/>
</mask>
<g mask="url(#mask1_190_4689)">
<path d="M20.4715 33.682H16.7073C12.9653 33.682 9.93176 30.6484 9.93176 26.9064V23.5187C9.93176 22.2714 10.943 21.2602 12.1903 21.2602H20.4715V33.682Z" fill="#FF615F"/>
</g>
<path d="M34.3991 46.8568H21.6008C20.3535 46.8568 19.3423 45.8456 19.3423 44.5983C19.3423 43.351 20.3535 42.3398 21.6008 42.3398H34.3991C35.6464 42.3398 36.6576 43.351 36.6576 44.5983C36.6576 45.8456 35.6464 46.8568 34.3991 46.8568Z" fill="#FFD037"/>
<path d="M31.3878 46.2784H24.6122V35.913H31.3878V46.2784Z" fill="#FFD037"/>
<path d="M28 39.7048C20.9317 39.7048 15.2017 33.9749 15.2017 26.9065V17.8724C15.2017 16.6251 16.2129 15.6139 17.4602 15.6139H38.5397C39.787 15.6139 40.7983 16.6251 40.7983 17.8724V26.9065C40.7983 33.9749 35.0683 39.7048 28 39.7048Z" fill="#FFD037"/>
<mask id="mask2_190_4689" style="mask-type:alpha" maskUnits="userSpaceOnUse" x="15" y="15" width="26" height="25">
<path d="M28 39.7048C20.9317 39.7048 15.2017 33.9749 15.2017 26.9065V17.8724C15.2017 16.6251 16.2129 15.6139 17.4602 15.6139H38.5397C39.787 15.6139 40.7983 16.6251 40.7983 17.8724V26.9065C40.7983 33.9749 35.0683 39.7048 28 39.7048Z" fill="#FFD037"/>
</mask>
<g mask="url(#mask2_190_4689)">
<path d="M28.5323 21.3943L30.1584 24.6892L33.7946 25.2176C34.2814 25.2885 34.4761 25.8868 34.1238 26.2301L31.4923 28.7949L32.1135 32.4165C32.1967 32.9014 31.6878 33.2712 31.2524 33.0422L27.9998 31.3324L24.7475 33.0422C24.312 33.2712 23.8031 32.9014 23.8862 32.4165L24.5074 28.7949L21.8762 26.2301C21.5238 25.8868 21.7184 25.2885 22.2053 25.2176L25.8414 24.6892L27.4676 21.3943C27.6853 20.9531 28.3145 20.9531 28.5323 21.3943Z" fill="#FF8533"/>
</g>
<mask id="mask3_190_4689" style="mask-type:alpha" maskUnits="userSpaceOnUse" x="15" y="15" width="26" height="25">
<path d="M28 39.5844C21.0024 39.5844 15.3297 33.9118 15.3297 26.9141V17.9704C15.3297 16.7355 16.3308 15.7344 17.5656 15.7344H38.4344C39.6692 15.7344 40.6703 16.7355 40.6703 17.9704V26.9141C40.6703 33.9118 34.9977 39.5844 28 39.5844Z" fill="#FFD037"/>
</mask>
<g mask="url(#mask3_190_4689)">
<path d="M35.5284 33.682H39.2926C43.0347 33.682 46.0682 30.6484 46.0682 26.9064V23.5187C46.0682 22.2714 45.057 21.2602 43.8097 21.2602H35.5284V33.682Z" fill="#03C65A"/>
</g>
</g>
</svg>
