<svg width="56" height="53" viewBox="0 0 56 53" fill="none" xmlns="http://www.w3.org/2000/svg">
<mask id="mask0_190_4877" style="mask-type:luminance" maskUnits="userSpaceOnUse" x="1" y="0" width="54" height="53">
<path d="M54.5 0H1.5V53H54.5V0Z" fill="white"/>
</mask>
<g mask="url(#mask0_190_4877)">
<path d="M22.6971 22.3926L25.7529 20.8842L26.243 17.5118C26.3085 17.0603 26.8638 16.8799 27.1821 17.2066L29.561 19.6473L32.9199 19.0711C33.3696 18.9939 33.7125 19.466 33.5002 19.8701L31.9142 22.8864L33.5002 25.9027C33.7125 26.3067 33.3696 26.7788 32.9199 26.7018L29.561 26.1254L27.1821 28.5661C26.8638 28.8928 26.3085 28.7124 26.243 28.2609L25.7529 24.8885L22.6971 23.3802C22.2878 23.1782 22.2878 22.5946 22.6971 22.3926Z" fill="#FFD037"/>
<path d="M32.4524 13.4382C32.4524 15.5282 30.7579 17.2227 28.6679 17.2227C26.5778 17.2227 24.8833 15.5282 24.8833 13.4382C24.8833 11.3481 26.5778 9.65359 28.6679 9.65359C30.7579 9.65359 32.4524 11.3481 32.4524 13.4382Z" fill="#FF615F"/>
<path d="M33.7111 22.3546L30.4198 20.7305L29.892 17.0986C29.8216 16.6122 29.2239 16.4181 28.881 16.7699L26.3191 19.3981L22.702 18.7777C22.2178 18.6945 21.8481 19.203 22.0767 19.6379L23.7848 22.8864L22.0767 26.1348C21.8481 26.5699 22.2178 27.0784 22.702 26.9952L26.3191 26.3748L28.881 29.0028C29.2239 29.3548 29.8216 29.1605 29.892 28.6743L30.4198 25.0423L33.7111 23.4181C34.1518 23.2006 34.1518 22.5722 33.7111 22.3546Z" fill="#FFD037"/>
<path d="M37.4309 16.0731C37.4309 18.1632 35.7365 19.8577 33.6464 19.8577C31.5563 19.8577 29.8618 18.1632 29.8618 16.0731C29.8618 13.983 31.5563 12.2885 33.6464 12.2885C35.7365 12.2885 37.4309 13.983 37.4309 16.0731Z" fill="#00C3FF"/>
<path d="M26.1382 15.3203C26.1382 17.4103 24.4437 19.1048 22.3537 19.1048C20.2636 19.1048 18.5691 17.4103 18.5691 15.3203C18.5691 13.2302 20.2636 11.5357 22.3537 11.5357C24.4437 11.5357 26.1382 13.2302 26.1382 15.3203Z" fill="#03C65A"/>
<mask id="mask1_190_4877" style="mask-type:alpha" maskUnits="userSpaceOnUse" x="15" y="15" width="26" height="25">
<path d="M27.9999 39.5844C21.0023 39.5844 15.3296 33.9118 15.3296 26.9141V17.9704C15.3296 16.7355 16.3307 15.7344 17.5655 15.7344H38.4343C39.6691 15.7344 40.6702 16.7355 40.6702 17.9704V26.9141C40.6702 33.9118 34.9976 39.5844 27.9999 39.5844Z" fill="#FFD037"/>
</mask>
<g mask="url(#mask1_190_4877)">
<path d="M20.4717 33.682H16.7075C12.9654 33.682 9.93188 30.6484 9.93188 26.9064V23.5187C9.93188 22.2714 10.9431 21.2602 12.1904 21.2602H20.4717V33.682Z" fill="#FF615F"/>
</g>
<path d="M34.3991 46.8568H21.6008C20.3535 46.8568 19.3423 45.8456 19.3423 44.5983C19.3423 43.351 20.3535 42.3398 21.6008 42.3398H34.3991C35.6464 42.3398 36.6576 43.351 36.6576 44.5983C36.6576 45.8456 35.6464 46.8568 34.3991 46.8568Z" fill="#FFD037"/>
<path d="M31.3879 46.2784H24.6123V35.913H31.3879V46.2784Z" fill="#FFD037"/>
<path d="M28 39.7048C20.9317 39.7048 15.2017 33.9749 15.2017 26.9065V17.8724C15.2017 16.6251 16.2129 15.6139 17.4602 15.6139H38.5397C39.787 15.6139 40.7983 16.6251 40.7983 17.8724V26.9065C40.7983 33.9749 35.0683 39.7048 28 39.7048Z" fill="#FFD037"/>
<mask id="mask2_190_4877" style="mask-type:alpha" maskUnits="userSpaceOnUse" x="15" y="15" width="26" height="25">
<path d="M28 39.7048C20.9317 39.7048 15.2017 33.9749 15.2017 26.9065V17.8724C15.2017 16.6251 16.2129 15.6139 17.4602 15.6139H38.5397C39.787 15.6139 40.7983 16.6251 40.7983 17.8724V26.9065C40.7983 33.9749 35.0683 39.7048 28 39.7048Z" fill="#FFD037"/>
</mask>
<g mask="url(#mask2_190_4877)">
<path d="M28.5323 21.3943L30.1584 24.6892L33.7946 25.2176C34.2814 25.2885 34.4761 25.8868 34.1238 26.2301L31.4923 28.7949L32.1135 32.4165C32.1967 32.9014 31.6878 33.2712 31.2524 33.0422L27.9998 31.3324L24.7475 33.0422C24.312 33.2712 23.8031 32.9014 23.8862 32.4165L24.5074 28.7949L21.8762 26.2301C21.5238 25.8868 21.7184 25.2885 22.2053 25.2176L25.8414 24.6892L27.4676 21.3943C27.6853 20.9531 28.3145 20.9531 28.5323 21.3943Z" fill="#FF8533"/>
</g>
<mask id="mask3_190_4877" style="mask-type:alpha" maskUnits="userSpaceOnUse" x="15" y="15" width="26" height="25">
<path d="M27.9999 39.5844C21.0023 39.5844 15.3296 33.9118 15.3296 26.9141V17.9704C15.3296 16.7355 16.3307 15.7344 17.5655 15.7344H38.4343C39.6691 15.7344 40.6702 16.7355 40.6702 17.9704V26.9141C40.6702 33.9118 34.9976 39.5844 27.9999 39.5844Z" fill="#FFD037"/>
</mask>
<g mask="url(#mask3_190_4877)">
<path d="M35.5283 33.682H39.2925C43.0346 33.682 46.0681 30.6484 46.0681 26.9064V23.5187C46.0681 22.2714 45.0569 21.2602 43.8096 21.2602H35.5283V33.682Z" fill="#03C65A"/>
</g>
</g>
</svg>
