<svg width="56" height="53" viewBox="0 0 56 53" fill="none" xmlns="http://www.w3.org/2000/svg">
<mask id="mask0_190_4313" style="mask-type:luminance" maskUnits="userSpaceOnUse" x="1" y="0" width="54" height="53">
<path d="M54.5 0H1.5V53H54.5V0Z" fill="white"/>
</mask>
<g mask="url(#mask0_190_4313)">
<path d="M22.697 22.3925L25.7529 20.8842L26.2429 17.5118C26.3085 17.0602 26.8637 16.8799 27.1821 17.2066L29.5609 19.6472L32.9198 19.071C33.3695 18.9939 33.7125 19.466 33.5002 19.87L31.9141 22.8863L33.5002 25.9026C33.7125 26.3066 33.3695 26.7788 32.9198 26.7018L29.5609 26.1254L27.1821 28.5661C26.8637 28.8927 26.3085 28.7124 26.2429 28.2609L25.7529 24.8885L22.697 23.3801C22.2878 23.1781 22.2878 22.5945 22.697 22.3925Z" fill="#FFD037"/>
<path d="M32.4525 13.4381C32.4525 15.5282 30.758 17.2227 28.6679 17.2227C26.5778 17.2227 24.8834 15.5282 24.8834 13.4381C24.8834 11.348 26.5778 9.65356 28.6679 9.65356C30.758 9.65356 32.4525 11.348 32.4525 13.4381Z" fill="#FF615F"/>
<path d="M33.7111 22.3547L30.4198 20.7305L29.892 17.0986C29.8215 16.6122 29.2238 16.4182 28.8809 16.77L26.319 19.3982L22.7019 18.7777C22.2177 18.6946 21.848 19.203 22.0766 19.6379L23.7848 22.8864L22.0766 26.1349C21.848 26.57 22.2177 27.0784 22.7019 26.9953L26.319 26.3748L28.8809 29.0029C29.2238 29.3548 29.8215 29.1606 29.892 28.6744L30.4198 25.0423L33.7111 23.4182C34.1517 23.2006 34.1517 22.5722 33.7111 22.3547Z" fill="#FFD037"/>
<path d="M37.4309 16.0731C37.4309 18.1632 35.7364 19.8577 33.6463 19.8577C31.5562 19.8577 29.8618 18.1632 29.8618 16.0731C29.8618 13.983 31.5562 12.2886 33.6463 12.2886C35.7364 12.2886 37.4309 13.983 37.4309 16.0731Z" fill="#00C3FF"/>
<path d="M26.1383 15.3202C26.1383 17.4103 24.4438 19.1048 22.3537 19.1048C20.2636 19.1048 18.5692 17.4103 18.5692 15.3202C18.5692 13.2301 20.2636 11.5356 22.3537 11.5356C24.4438 11.5356 26.1383 13.2301 26.1383 15.3202Z" fill="#03C65A"/>
<mask id="mask1_190_4313" style="mask-type:alpha" maskUnits="userSpaceOnUse" x="15" y="15" width="26" height="25">
<path d="M28 39.5844C21.0024 39.5844 15.3297 33.9118 15.3297 26.9141V17.9703C15.3297 16.7355 16.3308 15.7344 17.5656 15.7344H38.4344C39.6692 15.7344 40.6703 16.7355 40.6703 17.9703V26.9141C40.6703 33.9118 34.9977 39.5844 28 39.5844Z" fill="#FFD037"/>
</mask>
<g mask="url(#mask1_190_4313)">
<path d="M20.4716 33.682H16.7074C12.9654 33.682 9.93182 30.6485 9.93182 26.9064V23.5188C9.93182 22.2715 10.943 21.2603 12.1903 21.2603H20.4716V33.682Z" fill="#FF615F"/>
</g>
<path d="M34.3992 46.8569H21.6009C20.3536 46.8569 19.3423 45.8457 19.3423 44.5984C19.3423 43.3511 20.3536 42.3398 21.6009 42.3398H34.3992C35.6465 42.3398 36.6577 43.3511 36.6577 44.5984C36.6577 45.8457 35.6465 46.8569 34.3992 46.8569Z" fill="#FFD037"/>
<path d="M31.3878 46.2784H24.6122V35.9131H31.3878V46.2784Z" fill="#FFD037"/>
<path d="M28 39.7049C20.9317 39.7049 15.2017 33.975 15.2017 26.9066V17.8725C15.2017 16.6252 16.2129 15.614 17.4602 15.614H38.5398C39.7871 15.614 40.7983 16.6252 40.7983 17.8725V26.9066C40.7983 33.975 35.0684 39.7049 28 39.7049Z" fill="#FFD037"/>
<mask id="mask2_190_4313" style="mask-type:alpha" maskUnits="userSpaceOnUse" x="15" y="15" width="26" height="25">
<path d="M28 39.7049C20.9317 39.7049 15.2017 33.975 15.2017 26.9066V17.8725C15.2017 16.6252 16.2129 15.614 17.4602 15.614H38.5398C39.7871 15.614 40.7983 16.6252 40.7983 17.8725V26.9066C40.7983 33.975 35.0684 39.7049 28 39.7049Z" fill="#FFD037"/>
</mask>
<g mask="url(#mask2_190_4313)">
<path d="M28.5323 21.3944L30.1585 24.6893L33.7946 25.2177C34.2815 25.2886 34.4761 25.8869 34.1238 26.2302L31.4924 28.795L32.1135 32.4166C32.1968 32.9015 31.6879 33.2713 31.2524 33.0423L27.9999 31.3325L24.7475 33.0423C24.3121 33.2713 23.8031 32.9015 23.8863 32.4166L24.5074 28.795L21.8762 26.2302C21.5239 25.8869 21.7184 25.2886 22.2053 25.2177L25.8415 24.6893L27.4676 21.3944C27.6854 20.9532 28.3145 20.9532 28.5323 21.3944Z" fill="#FF8533"/>
</g>
<mask id="mask3_190_4313" style="mask-type:alpha" maskUnits="userSpaceOnUse" x="15" y="15" width="26" height="25">
<path d="M28 39.5844C21.0024 39.5844 15.3297 33.9118 15.3297 26.9141V17.9703C15.3297 16.7355 16.3308 15.7344 17.5656 15.7344H38.4344C39.6692 15.7344 40.6703 16.7355 40.6703 17.9703V26.9141C40.6703 33.9118 34.9977 39.5844 28 39.5844Z" fill="#FFD037"/>
</mask>
<g mask="url(#mask3_190_4313)">
<path d="M35.5284 33.682H39.2926C43.0347 33.682 46.0682 30.6485 46.0682 26.9064V23.5188C46.0682 22.2715 45.057 21.2603 43.8097 21.2603H35.5284V33.682Z" fill="#03C65A"/>
</g>
</g>
</svg>
