<svg width="56" height="53" viewBox="0 0 56 53" fill="none" xmlns="http://www.w3.org/2000/svg">
<mask id="mask0_190_3937" style="mask-type:luminance" maskUnits="userSpaceOnUse" x="1" y="0" width="54" height="53">
<path d="M54.5 0H1.5V53H54.5V0Z" fill="white"/>
</mask>
<g mask="url(#mask0_190_3937)">
<path d="M22.6971 22.3928L25.7529 20.8844L26.243 17.512C26.3085 17.0605 26.8638 16.8802 27.1821 17.2068L29.561 19.6475L32.9199 19.0713C33.3696 18.9941 33.7125 19.4663 33.5002 19.8703L31.9142 22.8866L33.5002 25.9029C33.7125 26.3069 33.3696 26.779 32.9199 26.702L29.561 26.1257L27.1821 28.5663C26.8638 28.893 26.3085 28.7127 26.243 28.2611L25.7529 24.8887L22.6971 23.3804C22.2878 23.1784 22.2878 22.5948 22.6971 22.3928Z" fill="#FFD037"/>
<path d="M32.4524 13.4384C32.4524 15.5285 30.7579 17.2229 28.6679 17.2229C26.5778 17.2229 24.8833 15.5285 24.8833 13.4384C24.8833 11.3483 26.5778 9.65381 28.6679 9.65381C30.7579 9.65381 32.4524 11.3483 32.4524 13.4384Z" fill="#FF615F"/>
<path d="M33.7111 22.3547L30.4198 20.7305L29.892 17.0986C29.8216 16.6122 29.2239 16.4182 28.881 16.77L26.3191 19.3982L22.702 18.7777C22.2178 18.6946 21.8481 19.203 22.0767 19.6379L23.7848 22.8864L22.0767 26.1349C21.8481 26.57 22.2178 27.0784 22.702 26.9953L26.3191 26.3748L28.881 29.0029C29.2239 29.3548 29.8216 29.1606 29.892 28.6744L30.4198 25.0423L33.7111 23.4182C34.1518 23.2006 34.1518 22.5722 33.7111 22.3547Z" fill="#FFD037"/>
<path d="M37.4309 16.0731C37.4309 18.1632 35.7365 19.8577 33.6464 19.8577C31.5563 19.8577 29.8618 18.1632 29.8618 16.0731C29.8618 13.983 31.5563 12.2886 33.6464 12.2886C35.7365 12.2886 37.4309 13.983 37.4309 16.0731Z" fill="#00C3FF"/>
<path d="M26.1385 15.3202C26.1385 17.4103 24.444 19.1048 22.3539 19.1048C20.2638 19.1048 18.5693 17.4103 18.5693 15.3202C18.5693 13.2301 20.2638 11.5356 22.3539 11.5356C24.444 11.5356 26.1385 13.2301 26.1385 15.3202Z" fill="#03C65A"/>
<mask id="mask1_190_3937" style="mask-type:alpha" maskUnits="userSpaceOnUse" x="15" y="15" width="26" height="25">
<path d="M27.9999 39.5844C21.0023 39.5844 15.3296 33.9118 15.3296 26.9141V17.9703C15.3296 16.7355 16.3307 15.7344 17.5655 15.7344H38.4343C39.6691 15.7344 40.6702 16.7355 40.6702 17.9703V26.9141C40.6702 33.9118 34.9976 39.5844 27.9999 39.5844Z" fill="#FFD037"/>
</mask>
<g mask="url(#mask1_190_3937)">
<path d="M20.4714 33.682H16.7072C12.9652 33.682 9.93164 30.6485 9.93164 26.9064V23.5188C9.93164 22.2715 10.9429 21.2603 12.1902 21.2603H20.4714V33.682Z" fill="#FF615F"/>
</g>
<path d="M34.3991 46.8569H21.6008C20.3535 46.8569 19.3423 45.8457 19.3423 44.5984C19.3423 43.3511 20.3535 42.3398 21.6008 42.3398H34.3991C35.6464 42.3398 36.6576 43.3511 36.6576 44.5984C36.6576 45.8457 35.6464 46.8569 34.3991 46.8569Z" fill="#FFD037"/>
<path d="M31.3879 46.2784H24.6123V35.9131H31.3879V46.2784Z" fill="#FFD037"/>
<path d="M28 39.7047C20.9317 39.7047 15.2017 33.9748 15.2017 26.9064V17.8723C15.2017 16.625 16.2129 15.6138 17.4602 15.6138H38.5397C39.787 15.6138 40.7983 16.625 40.7983 17.8723V26.9064C40.7983 33.9748 35.0683 39.7047 28 39.7047Z" fill="#FFD037"/>
<mask id="mask2_190_3937" style="mask-type:alpha" maskUnits="userSpaceOnUse" x="15" y="15" width="26" height="25">
<path d="M28 39.7047C20.9317 39.7047 15.2017 33.9748 15.2017 26.9064V17.8723C15.2017 16.625 16.2129 15.6138 17.4602 15.6138H38.5397C39.787 15.6138 40.7983 16.625 40.7983 17.8723V26.9064C40.7983 33.9748 35.0683 39.7047 28 39.7047Z" fill="#FFD037"/>
</mask>
<g mask="url(#mask2_190_3937)">
<path d="M28.5323 21.3939L30.1584 24.6888L33.7946 25.2173C34.2814 25.2881 34.4761 25.8864 34.1238 26.2297L31.4923 28.7945L32.1135 32.4161C32.1967 32.9011 31.6878 33.2708 31.2524 33.0419L27.9998 31.332L24.7475 33.0419C24.312 33.2708 23.8031 32.9011 23.8862 32.4161L24.5074 28.7945L21.8762 26.2297C21.5238 25.8864 21.7184 25.2881 22.2053 25.2173L25.8414 24.6888L27.4676 21.3939C27.6853 20.9527 28.3145 20.9527 28.5323 21.3939Z" fill="#FF8533"/>
</g>
<mask id="mask3_190_3937" style="mask-type:alpha" maskUnits="userSpaceOnUse" x="15" y="15" width="26" height="25">
<path d="M27.9999 39.5844C21.0023 39.5844 15.3296 33.9118 15.3296 26.9141V17.9703C15.3296 16.7355 16.3307 15.7344 17.5655 15.7344H38.4343C39.6691 15.7344 40.6702 16.7355 40.6702 17.9703V26.9141C40.6702 33.9118 34.9976 39.5844 27.9999 39.5844Z" fill="#FFD037"/>
</mask>
<g mask="url(#mask3_190_3937)">
<path d="M35.5283 33.682H39.2925C43.0346 33.682 46.0681 30.6485 46.0681 26.9064V23.5188C46.0681 22.2715 45.0569 21.2603 43.8096 21.2603H35.5283V33.682Z" fill="#03C65A"/>
</g>
</g>
</svg>
