<svg width="60" height="20" viewBox="0 0 60 20" fill="none" xmlns="http://www.w3.org/2000/svg">
<g clip-path="url(#clip0_166_11)">
<path fill-rule="evenodd" clip-rule="evenodd" d="M0 0.9C0 0.402944 0.402944 0 0.9 0H3.63176C4.32196 0 4.9165 0.486504 5.05308 1.16305L5.59042 3.82465H18.3395C19.2374 3.82465 19.9195 4.63249 19.769 5.51772L18.535 12.7749C18.4165 13.4719 17.8125 13.9818 17.1055 13.9818H6.99122C6.30102 13.9818 5.70648 13.4953 5.56989 12.8187L3.97546 4.92106C3.9729 4.90956 3.97056 4.89797 3.96844 4.88631L3.34536 1.8H0.9C0.402944 1.8 0 1.39706 0 0.9ZM5.95382 5.62465L7.27762 12.1818H16.81L17.925 5.62465H5.95382Z" fill="#191919"/>
<path d="M8.99121 16.8311C8.99121 17.7976 8.20771 18.5811 7.24121 18.5811C6.27471 18.5811 5.49121 17.7976 5.49121 16.8311C5.49121 15.8646 6.27471 15.0811 7.24121 15.0811C8.20771 15.0811 8.99121 15.8646 8.99121 16.8311Z" fill="#191919"/>
<path d="M18.4912 16.8311C18.4912 17.7976 17.7077 18.5811 16.7412 18.5811C15.7747 18.5811 14.9912 17.7976 14.9912 16.8311C14.9912 15.8646 15.7747 15.0811 16.7412 15.0811C17.7077 15.0811 18.4912 15.8646 18.4912 16.8311Z" fill="#191919"/>
</g>
<g clip-path="url(#clip1_166_11)">
<path fill-rule="evenodd" clip-rule="evenodd" d="M42.801 6.40151L50 1.95751L57.199 6.40151V18.0005H50.901V10.3735C50.901 9.87651 50.497 9.47351 50 9.47351C49.503 9.47351 49.1 9.87651 49.1 10.3735V18.0005H42.801V6.40151ZM41.901 19.7995H58.1C58.597 19.7995 59 19.3975 59 18.9005V5.89951C59 5.58751 58.838 5.29751 58.572 5.13351L50.473 0.134512C50.184 -0.0454884 49.817 -0.0454884 49.528 0.134512L41.428 5.13351C41.162 5.29751 41 5.58751 41 5.89951V18.9005C41 19.3975 41.404 19.7995 41.901 19.7995Z" fill="#191919"/>
</g>
<defs>
<clipPath id="clip0_166_11">
<rect width="20" height="19" fill="white"/>
</clipPath>
<clipPath id="clip1_166_11">
<rect width="20" height="20" fill="white" transform="translate(40)"/>
</clipPath>
</defs>
</svg>
