<svg width="65" height="65" viewBox="0 0 65 65" fill="none" xmlns="http://www.w3.org/2000/svg">
<g clip-path="url(#clip0_202_763)">
<path d="M57.915 31.6548C59.8 29.5098 60.97 26.7148 61.62 23.9198C61.88 22.8798 62.075 21.8398 62.79 21.0598C62.79 24.5048 62.075 28.0148 60.58 31.1348C59.02 34.4498 56.485 37.5698 53.04 38.6748C52 38.9998 50.765 39.1298 49.92 38.4798C47.84 36.9198 50.44 35.6848 51.74 35.3598C54.145 34.6448 56.16 33.6048 57.915 31.6548Z" fill="#4390FF"/>
<path d="M55.9 9.35978L54.86 15.1448L51.285 14.2348L53.365 8.77478L55.9 9.35978Z" fill="#4D96FF"/>
<path d="M6.04498 10.8549L12.35 62.0099C12.35 62.0099 12.48 62.8549 13.325 63.5049C14.17 64.1549 15.405 64.6749 15.405 64.6749L14.3 11.1799L6.04498 10.8549Z" fill="#4390FF"/>
<path d="M60.645 20.7348C60.515 20.5398 60.385 20.4098 60.385 20.1498C60.32 19.9548 60.45 19.6948 60.645 19.6298C60.84 19.5648 61.1 19.7598 61.165 19.9548C61.295 20.1498 61.36 20.3448 61.555 20.4748C61.555 19.6948 61.62 18.8498 61.75 18.0698C61.815 17.8748 61.88 17.6148 62.075 17.6148C62.205 17.6148 62.4 17.6798 62.465 17.8748C62.53 18.0048 62.53 18.1998 62.53 18.3298C62.66 18.1348 62.595 17.8748 62.66 17.6148C62.725 17.3548 62.985 17.1598 63.18 17.2898C63.31 17.3548 63.31 17.5498 63.31 17.6798C63.31 17.9398 63.31 18.1998 63.31 18.3948C63.31 18.2648 63.31 18.1998 63.375 18.1348C63.44 18.0698 63.505 18.0048 63.635 18.0048C63.7 18.0048 63.765 18.0698 63.765 18.1348C64.09 18.5898 64.025 19.2398 63.895 19.7598C63.57 21.5148 62.985 23.2698 62.14 24.8298C61.88 25.3498 61.75 24.8298 61.685 24.5048C61.62 24.0498 61.685 23.5948 61.62 23.1398C61.425 22.2948 61.1 21.4498 60.645 20.7348Z" fill="#4390FF"/>
<path d="M9.1 38.9998C6.89 40.8198 5.33 43.3548 4.16 46.0198C3.77 46.9948 3.38 47.9698 2.535 48.6198C3.055 45.1748 4.42 41.9248 6.37 39.0648C8.45 36.0098 11.44 33.4098 15.015 32.8898C16.12 32.6948 17.355 32.8248 18.07 33.6048C19.825 35.4898 17.095 36.2698 15.795 36.3998C13.325 36.6598 11.115 37.3748 9.1 38.9998Z" fill="#4390FF"/>
<path d="M4.61499 49.3348C4.67999 49.5298 4.80999 49.7248 4.80999 49.9198C4.80999 50.1148 4.67999 50.3748 4.48499 50.3748C4.28999 50.3748 4.09499 50.1798 3.96499 49.9848C3.89999 49.7898 3.83499 49.5298 3.70499 49.3998C3.57499 50.1798 3.37999 50.9598 3.11999 51.7398C3.05499 51.9348 2.92499 52.1298 2.72999 52.1298C2.59999 52.1298 2.46999 51.9998 2.40499 51.8698C2.33999 51.7398 2.40499 51.5448 2.40499 51.4148C2.27499 51.6098 2.27499 51.8698 2.20999 52.1298C2.14499 52.3898 1.81999 52.5198 1.62499 52.3898C1.49499 52.2598 1.55999 52.1298 1.55999 51.9998C1.62499 51.7398 1.62499 51.4798 1.68999 51.2848C1.68999 51.3498 1.62499 51.4798 1.55999 51.5448C1.49499 51.6098 1.36499 51.6748 1.29999 51.6098C1.23499 51.6098 1.23499 51.5448 1.16999 51.4798C0.909993 50.9598 1.10499 50.3748 1.29999 49.8548C1.88499 48.1648 2.79499 46.5398 3.89999 45.1098C4.28999 44.6548 4.28999 45.1748 4.28999 45.4998C4.28999 45.9548 4.15999 46.4098 4.15999 46.7998C4.09499 47.6448 4.28999 48.4898 4.61499 49.3348Z" fill="#4390FF"/>
<path d="M9.29498 14.2349L15.47 64.6749H52.26L58.11 14.2349H9.29498Z" fill="#5AB1FF"/>
<path d="M9.29501 14.2349C9.29501 14.2349 5.91501 13.1949 6.04501 10.9199C6.17501 8.64488 10.075 8.25488 10.075 8.25488H55.38L55.965 9.35988L54.925 9.48988L51.805 12.4799L57.265 12.9349L58.175 14.2349H9.29501Z" fill="#83C4FF"/>
<path d="M54.925 9.4248H9.87999L9.62 12.5448L56.745 12.8698C56.745 12.8698 55.705 12.0248 55.185 11.1148C54.47 9.9448 54.925 9.4248 54.925 9.4248Z" fill="#FFECBB"/>
<path d="M9.87999 9.42479C9.87999 9.42479 8.12499 9.22979 7.73499 10.5948C7.27999 12.4148 9.61999 12.5448 9.61999 12.5448L9.87999 9.42479Z" fill="#4D96FF"/>
<path d="M10.53 10.3998C11.895 10.4648 13.195 10.4648 14.56 10.4648C15.925 10.4648 17.225 10.4648 18.59 10.4648C21.255 10.4648 23.985 10.4648 26.65 10.4648C31.98 10.4648 37.375 10.5298 42.705 10.4648C44.2 10.4648 45.695 10.3998 47.255 10.3998C48.75 10.3998 50.245 10.3998 51.805 10.3998C51.87 10.3998 51.87 10.3348 51.805 10.3348C49.14 10.2698 46.41 10.3348 43.745 10.2698C41.08 10.2048 38.35 10.2048 35.685 10.2048C30.355 10.2048 24.96 10.2048 19.63 10.2048C18.135 10.2048 16.64 10.2048 15.08 10.2048C13.585 10.2698 12.09 10.2698 10.53 10.3998Z" fill="#FFCB92"/>
<path d="M10.53 11.5048C11.83 11.5698 13.195 11.5698 14.495 11.5698C15.795 11.5698 17.16 11.5698 18.46 11.5698C21.125 11.5698 23.725 11.5698 26.39 11.5698C27.105 11.5698 27.885 11.5698 28.6 11.5698C29.315 11.5698 30.095 11.5698 30.81 11.5698C30.875 11.5698 30.875 11.4398 30.81 11.4398C30.16 11.3748 29.445 11.4398 28.795 11.4398C28.145 11.4398 27.495 11.4398 26.845 11.4398C25.545 11.4398 24.18 11.4398 22.88 11.4398C20.215 11.4398 17.615 11.4398 14.95 11.4398C13.52 11.4398 12.025 11.3748 10.53 11.5048Z" fill="#FFCB92"/>
<path d="M14.17 10.9848C15.47 11.0498 16.77 10.9848 18.135 10.9848C19.435 10.9848 20.735 10.9848 22.1 10.9848C24.7 10.9848 27.365 10.9848 29.965 10.9848C35.165 10.9848 40.43 10.9848 45.63 10.9848C47.125 10.9848 48.555 10.9848 50.05 10.9848C51.545 10.9848 52.975 10.9848 54.47 10.9848C54.535 10.9848 54.535 10.8548 54.47 10.8548C51.87 10.7898 49.205 10.8548 46.605 10.8548C44.005 10.8548 41.34 10.8548 38.74 10.8548C33.54 10.8548 28.275 10.8548 23.075 10.8548C21.58 10.8548 20.15 10.8548 18.655 10.8548C17.095 10.9198 15.6 10.9198 14.17 10.9848C14.105 10.9848 14.105 10.9848 14.17 10.9848Z" fill="#FFCB92"/>
<path d="M12.935 12.2198C18.265 12.2848 23.66 12.2848 28.99 12.2848C34.32 12.2848 39.65 12.2848 44.98 12.2848C47.97 12.2848 50.96 12.2848 54.015 12.2848C54.145 12.2848 54.145 12.0898 54.015 12.0898C48.685 12.0248 43.29 12.0898 37.96 12.0898C32.63 12.0898 27.3 12.0898 21.97 12.0898C18.915 12.1548 15.925 12.1548 12.935 12.2198C12.87 12.2198 12.87 12.2198 12.935 12.2198Z" fill="#FFCB92"/>
<path d="M32.11 10.8548L30.94 6.75985L44.525 4.09485L45.955 10.8548H32.11Z" fill="#FFC043"/>
<path d="M41.535 10.9848C41.34 9.16483 41.47 7.21483 42.055 5.45983C42.64 3.70483 43.81 2.07983 45.37 1.10483C45.24 2.01483 45.175 2.92483 45.24 3.83483C45.695 2.66483 46.865 1.94983 47.97 1.29983C48.75 0.844829 49.53 0.389829 50.44 0.324829C49.14 1.88483 48.49 3.89983 48.035 5.91483C47.645 7.53983 47.32 9.35983 47.905 10.9198L41.535 10.9848Z" fill="#E86A43"/>
<path d="M12.415 11.5048L13.715 5.58984L24.57 8.57984L23.855 11.5048H12.415Z" fill="#7FC133"/>
<path d="M15.86 20.0848C15.6 20.4098 15.405 20.7998 15.34 21.2548C15.34 21.3198 15.34 21.3848 15.34 21.4498C15.405 21.5798 15.6 21.5148 15.73 21.4498C17.485 20.3448 19.24 19.3048 20.995 18.1998C21.19 18.0698 21.385 17.9398 21.515 17.7448C21.645 17.5498 21.71 17.2898 21.58 17.0948C21.515 16.9648 21.385 16.8998 21.19 16.8348C20.02 16.3798 19.305 17.0948 18.395 17.6798C17.42 18.2648 16.575 19.1098 15.86 20.0848Z" fill="#413E49"/>
<path d="M50.245 19.6948C50.505 20.0198 50.7 20.4098 50.765 20.8648C50.765 20.9298 50.765 20.9948 50.765 21.0598C50.7 21.1898 50.505 21.1248 50.375 21.0598C48.62 19.9548 46.865 18.9148 45.11 17.8098C44.915 17.6798 44.72 17.5498 44.59 17.3548C44.46 17.1598 44.395 16.8998 44.525 16.7048C44.59 16.5748 44.72 16.5098 44.915 16.4448C46.085 15.9898 46.8 16.7048 47.71 17.2898C48.685 17.9398 49.595 18.7198 50.245 19.6948Z" fill="#413E49"/>
<path d="M33.41 40.4947C33.345 40.4947 33.345 40.4947 33.41 40.4947C33.345 40.4947 33.28 40.4947 33.28 40.4947C30.225 40.5597 27.17 39.0647 25.285 36.7247C25.545 37.8297 25.87 38.8697 26.13 39.9747C26.585 41.6647 27.04 43.3547 27.885 44.8497C28.73 46.3447 30.095 47.6447 31.72 48.0997C32.24 48.2297 32.825 48.2947 33.345 48.2947C33.865 48.3597 34.45 48.2947 34.97 48.0997C36.595 47.6447 37.96 46.3447 38.805 44.8497C39.65 43.3547 40.105 41.6647 40.56 39.9747C40.82 38.9347 41.145 37.8297 41.405 36.7247C39.52 39.0647 36.4 40.5597 33.41 40.4947Z" fill="#413E49"/>
<path d="M33.345 40.4947C33.28 40.4947 33.215 40.4947 33.215 40.4947C30.875 40.5597 28.535 39.6497 26.715 38.2197C26.78 38.6747 26.78 39.1297 26.78 39.5847C26.78 39.7147 26.78 39.9097 26.845 40.0397C26.91 40.2347 27.04 40.4297 27.235 40.6247C28.34 41.8597 29.965 42.4447 31.59 42.7047C34.255 43.0947 37.05 42.4447 39.325 40.8847C39.455 40.8197 39.585 40.6897 39.715 40.4947C39.78 40.2997 39.78 40.0397 39.78 39.8447C39.715 39.3897 39.65 38.8697 39.585 38.4147C37.765 39.7797 35.555 40.5597 33.345 40.4947Z" fill="white"/>
<path d="M37.635 46.3448C37.635 46.2798 37.57 46.2148 37.505 46.0848C36.92 44.8498 35.49 44.0698 34.19 44.1998C33.605 44.2648 33.02 44.5248 32.89 45.0448C32.045 44.3948 30.81 44.3948 29.965 45.0448C29.38 45.4348 29.185 45.9548 29.12 46.4748C29.835 47.1898 30.68 47.7748 31.655 48.0348C32.175 48.1648 32.76 48.2298 33.28 48.2298C33.8 48.2948 34.385 48.2298 34.905 48.0348C35.945 47.7748 36.855 47.1898 37.635 46.3448Z" fill="#FF624D"/>
<path d="M24.635 37.1798C24.57 37.1148 24.57 36.9198 24.57 36.8548C24.57 36.7248 24.57 36.6598 24.57 36.5298C24.635 36.3348 24.7 36.1398 24.83 35.9448C24.96 35.8148 25.155 35.7498 25.35 35.7498C25.545 35.7498 25.74 35.9448 25.87 36.0098C25.935 36.0748 26 36.0098 25.935 35.9448C25.805 35.7498 25.675 35.6198 25.48 35.5548C25.285 35.4898 25.09 35.4898 24.895 35.6198C24.505 35.8148 24.31 36.2698 24.31 36.6598C24.31 36.7898 24.31 36.9198 24.375 36.9848C24.505 37.1798 24.57 37.1798 24.635 37.1798C24.7 37.2448 24.7 37.1798 24.635 37.1798Z" fill="#413E49"/>
<path d="M40.755 36.5948C40.885 36.3998 41.08 36.2048 41.34 36.0748C41.6 35.9448 41.86 35.9448 42.055 36.1398C42.51 36.5298 42.25 37.1798 42.12 37.6998C42.12 37.7648 42.185 37.7648 42.185 37.6998C42.445 37.2448 42.64 36.6598 42.38 36.2048C42.25 36.0098 42.12 35.8798 41.925 35.8148C41.665 35.7498 41.405 35.8148 41.21 35.9448C41.08 36.0098 41.015 36.0748 40.95 36.2048C40.755 36.3348 40.755 36.4648 40.755 36.5948C40.69 36.5948 40.69 36.5948 40.755 36.5948Z" fill="#413E49"/>
<path d="M18.72 59.0848C18.72 58.9548 18.785 58.8248 18.915 58.8248C18.98 58.8248 19.045 58.8248 19.175 58.8898C19.305 58.9548 19.37 58.9548 19.435 58.9548C19.5 58.9548 19.63 58.8898 19.695 58.8248C19.76 58.6948 19.825 58.6298 19.89 58.4348C20.02 58.1098 20.02 57.8498 20.02 57.5898C20.02 57.3298 19.955 57.0698 19.89 56.8098C19.825 56.5498 19.695 56.2898 19.565 56.0298C19.435 55.7698 19.305 55.5098 19.175 55.3148C18.85 54.7298 18.72 54.2098 18.72 53.6898C18.72 53.2348 18.85 52.8448 19.175 52.5848C19.305 52.4548 19.5 52.3898 19.695 52.3898C19.825 52.3898 19.89 52.3898 20.02 52.4548C20.15 52.5198 20.215 52.5848 20.215 52.7148L20.085 52.9098C19.955 52.9098 19.825 52.9098 19.76 52.8448C19.63 52.8448 19.565 52.9098 19.5 52.9748C19.37 53.1698 19.305 53.3648 19.305 53.6248C19.305 53.8848 19.305 54.1448 19.37 54.3398C19.435 54.5998 19.5 54.7948 19.63 54.9898C19.695 55.1848 19.825 55.3798 19.955 55.5748C20.085 55.7698 20.15 56.0298 20.28 56.2248C20.475 56.6798 20.605 57.1998 20.605 57.7198C20.605 58.1098 20.54 58.4348 20.345 58.8248C20.28 59.0198 20.15 59.1498 19.955 59.2148C19.825 59.3448 19.63 59.3448 19.435 59.3448C19.24 59.3448 19.045 59.3448 18.915 59.2798C18.785 59.2148 18.72 59.1498 18.72 59.0848Z" fill="#3972FF"/>
<path d="M22.165 54.0148V55.1848L22.23 57.1998L22.295 58.8248C22.295 59.0848 22.23 59.2798 22.035 59.2798C21.97 59.2798 21.84 59.2148 21.84 59.1498C21.775 59.0848 21.775 58.9548 21.775 58.8248L21.84 57.3948C21.84 57.0698 21.84 56.6148 21.775 56.0298C21.71 55.4448 21.71 54.9248 21.71 54.6648V53.8848C21.71 53.4298 21.71 53.1698 21.645 53.0398L21.19 53.1048C21.125 53.1048 21.06 53.1048 20.995 53.0398C20.93 52.9748 20.93 52.9098 20.93 52.8448C20.93 52.7798 20.995 52.7148 21.125 52.6498C21.255 52.5848 21.45 52.5848 21.645 52.5198C21.97 52.4548 22.295 52.4548 22.555 52.4548C22.62 52.4548 22.685 52.4548 22.75 52.5198C22.815 52.5848 22.815 52.6498 22.815 52.7148C22.815 52.7798 22.815 52.8448 22.75 52.9098C22.685 52.9748 22.62 52.9748 22.555 52.9748H22.23C22.165 52.9748 22.165 52.9748 22.165 52.9748C22.165 53.2998 22.165 53.6248 22.165 54.0148Z" fill="#3972FF"/>
<path d="M23.14 54.3398V52.9748C23.075 52.9098 23.075 52.8448 23.075 52.7798C23.075 52.7148 23.075 52.6498 23.14 52.5848C23.205 52.5198 23.27 52.5198 23.335 52.5198C23.53 52.5198 23.66 52.7148 23.66 53.1698L23.725 56.2248C23.79 56.2898 23.79 56.4848 23.79 56.6798C23.79 56.9398 23.855 57.0698 23.855 57.1998C23.855 57.3298 23.855 57.5248 23.92 57.6548C23.985 57.8498 24.05 58.0448 24.115 58.2398C24.18 58.4348 24.31 58.6298 24.44 58.7598C24.57 58.8898 24.7 58.9548 24.765 58.9548C24.895 58.9548 24.96 58.9548 25.025 58.8898C25.09 58.8248 25.09 58.7598 25.155 58.6948C25.155 58.5648 25.22 58.3698 25.22 58.1748V56.4198C25.22 56.2248 25.22 55.9648 25.155 55.5748C25.09 55.1848 25.09 54.9248 25.09 54.7298V54.6648V54.1448L25.025 52.6498C25.025 52.5848 25.09 52.5198 25.155 52.4548C25.22 52.3898 25.285 52.3898 25.35 52.3898L25.545 52.5848V52.7148L25.48 53.2348C25.48 53.7548 25.48 54.4698 25.545 55.4448C25.61 56.4198 25.61 57.1348 25.61 57.4598C25.61 57.7848 25.61 58.0448 25.61 58.1748C25.61 58.3048 25.61 58.4348 25.545 58.5648C25.48 58.6948 25.48 58.8248 25.415 58.8898C25.285 59.0848 25.09 59.2148 24.765 59.2148C24.44 59.2148 24.115 59.0848 23.92 58.7598C23.66 58.4348 23.53 58.0448 23.465 57.5248C23.335 57.0048 23.27 56.4848 23.27 56.0948C23.14 55.5748 23.14 54.9248 23.14 54.3398Z" fill="#3972FF"/>
<path d="M28.405 55.8998V56.0948C28.405 56.4848 28.275 57.0048 28.08 57.5898C27.82 58.2398 27.56 58.6948 27.17 58.9548C26.975 59.0848 26.78 59.2148 26.585 59.2148C26.455 59.2148 26.39 59.2148 26.26 59.1498C26.195 59.0848 26.13 59.0198 26.13 58.9548C26.26 58.8248 26.325 58.4998 26.325 57.9148C26.325 57.5898 26.325 57.0698 26.26 56.4198C26.195 55.7698 26.195 55.3148 26.195 54.9898V54.0148C26.195 53.8848 26.195 53.6248 26.13 53.3648C26.065 53.1048 26.065 52.9098 26.065 52.7798C26.065 52.5848 26.26 52.4548 26.715 52.4548H26.845C27.43 52.4548 27.885 52.7798 28.145 53.4948C28.34 53.9498 28.405 54.5998 28.405 55.4448V55.8348V55.8998ZM26.78 57.8498V58.6948C26.975 58.5648 27.17 58.3698 27.365 58.1098C27.495 57.8498 27.625 57.5898 27.755 57.2648C27.885 56.6798 28.015 56.0948 28.015 55.5098C28.015 54.8598 27.95 54.3398 27.755 53.9498C27.56 53.5598 27.365 53.2998 27.105 53.1698C26.975 53.1048 26.78 53.0398 26.585 53.0398C26.585 53.5598 26.65 54.4048 26.715 55.4448C26.78 56.4848 26.78 57.2648 26.78 57.8498Z" fill="#3972FF"/>
<path d="M29.965 55.8998H29.77C29.705 55.8998 29.64 55.8998 29.575 55.9648V58.6948C29.9 58.6948 30.03 58.6948 30.03 58.6948C30.355 58.6948 30.55 58.7598 30.55 58.9548C30.485 59.0198 30.42 59.0848 30.355 59.1498C30.29 59.2148 30.16 59.2148 30.095 59.2148C30.03 59.2148 29.9 59.2148 29.835 59.2148H29.575C29.38 59.2148 29.25 59.1498 29.185 59.0848C29.185 59.0198 29.12 59.0198 29.12 58.9548V53.8198C29.12 53.6898 29.12 53.5598 29.055 53.3648C28.99 53.1698 28.99 53.0398 28.99 52.9098C29.055 52.7798 29.185 52.6498 29.185 52.5848L29.835 52.5198C29.9 52.5198 30.03 52.5198 30.095 52.5848C30.16 52.6498 30.225 52.7148 30.225 52.7798C30.225 52.9748 30.095 53.0398 29.835 53.0398H29.575C29.51 53.0398 29.51 53.0398 29.51 53.0398L29.575 54.5348C29.575 54.6648 29.575 54.7948 29.575 55.0548C29.575 55.2498 29.575 55.4448 29.575 55.5748C29.575 55.5748 29.64 55.5748 29.705 55.5748C29.835 55.5748 29.9 55.5098 29.965 55.5098C30.03 55.5098 30.095 55.5098 30.16 55.5748C30.225 55.6398 30.225 55.7048 30.225 55.7698C30.225 55.8348 30.225 55.8998 30.16 55.9648C30.03 55.8998 30.03 55.8998 29.965 55.8998Z" fill="#3972FF"/>
<path d="M30.94 54.5348L31.005 52.9098V52.8448C31.005 52.5198 31.07 52.3898 31.2 52.3898C31.33 52.3898 31.46 52.6498 31.655 53.2348C32.045 54.2098 32.435 55.8998 32.955 58.1748V58.2398L33.02 55.1198V52.5198C33.085 52.3898 33.15 52.3248 33.28 52.3248C33.41 52.3248 33.54 52.4548 33.54 52.6498C33.475 52.7148 33.475 52.7798 33.475 52.9098L33.41 56.1598V58.8898C33.41 58.9548 33.41 59.0848 33.345 59.1498C33.28 59.2148 33.215 59.2798 33.15 59.2798C33.02 59.2798 32.76 58.6948 32.435 57.4598C32.11 56.2248 31.72 54.9248 31.395 53.5598V56.4848C31.395 56.7448 31.395 57.1998 31.46 57.7198C31.525 58.3048 31.525 58.6948 31.525 58.9548C31.525 59.0198 31.46 59.0848 31.395 59.0848C31.33 59.1498 31.265 59.1498 31.135 59.1498C31.005 59.1498 31.005 59.0848 31.005 59.0198L31.07 58.3698C31.07 58.0448 31.07 57.5898 31.005 56.8748C30.94 56.1598 30.94 55.7698 30.94 55.6398V54.5348Z" fill="#3972FF"/>
<path d="M35.165 54.0148V55.1848L35.23 57.1998L35.295 58.8248C35.295 59.0848 35.23 59.2798 35.035 59.2798C34.97 59.2798 34.84 59.2148 34.84 59.1498C34.775 59.0848 34.775 58.9548 34.775 58.8248L34.84 57.3948C34.84 57.0698 34.84 56.6148 34.775 56.0298C34.71 55.4448 34.71 54.9248 34.71 54.6648V53.8848C34.71 53.4298 34.71 53.1698 34.645 53.0398L34.19 53.1048C34.125 53.1048 34.06 53.1048 33.995 53.0398C33.93 52.9748 33.93 52.9098 33.93 52.8448C33.93 52.7798 33.995 52.7148 34.125 52.6498C34.255 52.5848 34.45 52.5848 34.645 52.5198C34.97 52.4548 35.295 52.4548 35.555 52.4548C35.62 52.4548 35.685 52.4548 35.75 52.5198C35.75 52.5848 35.75 52.6498 35.75 52.7148C35.75 52.7798 35.75 52.8448 35.685 52.9098C35.62 52.9748 35.555 52.9748 35.49 52.9748H35.165C35.1 52.9748 35.1 52.9748 35.1 52.9748C35.1 53.2998 35.165 53.6248 35.165 54.0148Z" fill="#3972FF"/>
<path d="M37.245 56.8098L37.18 53.2348V53.1698C37.18 52.8448 37.245 52.6498 37.31 52.5848C37.375 52.5198 37.44 52.5198 37.505 52.5198C37.895 52.5198 38.22 52.6498 38.48 52.9098C38.74 53.1698 38.805 53.5598 38.805 53.9498C38.805 54.2098 38.74 54.4698 38.61 54.7948C38.48 55.0548 38.285 55.3148 38.09 55.4448C38.415 55.7048 38.675 55.9648 38.87 56.3548C39 56.7448 39.13 57.1348 39.13 57.5248C39.13 57.7198 39.065 57.9798 39 58.1748C38.87 58.4348 38.805 58.5648 38.675 58.6948C38.545 58.8248 38.415 58.9548 38.285 59.0198C38.09 59.0848 37.895 59.1498 37.7 59.1498H37.635C37.375 59.1498 37.245 59.0848 37.245 58.9548V56.8098ZM37.765 53.0398C37.7 53.0398 37.635 53.1698 37.635 53.3648C37.635 53.5598 37.635 53.8848 37.635 54.3398C37.635 54.7948 37.635 55.1198 37.635 55.3148C37.765 55.2498 37.895 55.1848 38.025 54.9248C38.09 54.7298 38.155 54.5348 38.22 54.4048C38.285 54.2098 38.285 54.1448 38.35 54.0798V53.7548C38.35 53.5598 38.285 53.4298 38.155 53.2348C38.09 53.1048 37.96 53.0398 37.765 53.0398ZM38.415 58.3698C38.61 58.1748 38.675 57.9148 38.675 57.5898C38.675 57.2648 38.675 57.0048 38.61 56.8098C38.545 56.6148 38.48 56.4198 38.48 56.2898C38.415 56.1598 38.35 56.0948 38.285 56.0298C38.22 55.8998 38.09 55.8998 38.025 55.8348H37.7C37.7 56.6798 37.765 57.6548 37.765 58.7598C38.025 58.7598 38.285 58.5648 38.415 58.3698Z" fill="#3972FF"/>
<path d="M41.795 56.4848L41.73 57.5898V57.6548C41.665 57.8498 41.665 57.9798 41.665 58.1748C41.665 58.3698 41.6 58.5648 41.535 58.6948C41.47 58.8248 41.34 59.0198 41.21 59.1498C41.08 59.2798 40.95 59.3448 40.755 59.3448C40.625 59.3448 40.43 59.2798 40.3 59.1498C40.17 59.0198 40.04 58.8898 39.975 58.7598C39.91 58.5648 39.845 58.3698 39.78 58.1748C39.715 57.9148 39.65 57.7198 39.65 57.4598C39.65 57.2648 39.65 57.0698 39.65 56.8098C39.585 56.4198 39.585 56.1598 39.585 55.8998C39.585 55.7048 39.585 55.5098 39.585 55.3798C39.585 55.2498 39.585 55.1198 39.585 54.9898C39.585 54.9248 39.585 54.8598 39.585 54.7948C39.585 54.7298 39.585 54.6648 39.585 54.5348C39.585 54.3398 39.585 54.2098 39.585 54.0798C39.585 53.9498 39.585 53.8198 39.65 53.6248C39.65 53.4948 39.715 53.2998 39.715 53.2348C39.715 53.1048 39.78 52.9748 39.845 52.9098C39.91 52.7798 39.975 52.7148 40.04 52.6498C40.17 52.4548 40.365 52.3898 40.56 52.3898C40.755 52.3898 40.885 52.4548 41.015 52.5198C41.145 52.5848 41.275 52.7148 41.34 52.8448C41.405 52.9748 41.535 53.1698 41.6 53.2998C41.665 53.4298 41.73 53.6248 41.73 53.8848C41.795 54.1448 41.795 54.3398 41.795 54.4698C41.795 54.5998 41.86 54.8598 41.86 55.1198C41.86 55.5098 41.86 55.8348 41.86 56.0298V56.4848H41.795ZM41.015 53.2348C40.95 53.1048 40.885 52.9748 40.82 52.9098C40.755 52.8448 40.625 52.7798 40.56 52.7798C40.495 52.7798 40.43 52.7798 40.365 52.8448C40.3 52.9098 40.235 52.9748 40.235 53.1048C40.17 53.2348 40.17 53.3648 40.105 53.4298C40.105 53.5598 40.04 53.6898 40.04 53.8848C40.04 54.0798 40.04 54.2098 39.975 54.3398C39.975 54.4698 39.975 54.5998 39.975 54.7948C39.975 55.0548 39.975 55.2498 39.975 55.4448V55.5098C39.975 55.8998 39.975 56.3548 40.04 56.8098C40.105 57.2648 40.17 57.6548 40.235 57.9148C40.3 58.1748 40.365 58.4348 40.495 58.6298C40.625 58.8248 40.755 58.9548 40.885 58.9548C41.015 58.9548 41.08 58.8248 41.21 58.6298C41.275 58.4348 41.34 58.1098 41.405 57.7848C41.47 57.1998 41.47 56.8098 41.47 56.5498C41.47 56.2898 41.47 56.1598 41.47 56.0298C41.47 55.8998 41.47 55.7698 41.47 55.5748C41.47 55.3798 41.47 55.1848 41.405 54.9898C41.405 54.7948 41.34 54.5998 41.34 54.4048C41.34 54.2098 41.275 54.0148 41.21 53.8198C41.145 53.5598 41.08 53.4298 41.015 53.2348Z" fill="#3972FF"/>
<path d="M44.59 56.4848L44.525 57.5898V57.6548C44.46 57.8498 44.46 57.9798 44.46 58.1748C44.46 58.3698 44.395 58.5648 44.33 58.6948C44.265 58.8898 44.135 59.0198 44.005 59.1498C43.875 59.2798 43.745 59.3448 43.55 59.3448C43.42 59.3448 43.225 59.2798 43.095 59.1498C42.965 59.0198 42.835 58.8898 42.77 58.7598C42.705 58.5648 42.64 58.3698 42.575 58.1748C42.51 57.9148 42.445 57.7198 42.445 57.4598C42.38 57.2648 42.38 57.0048 42.38 56.7448C42.315 56.3548 42.315 56.0948 42.315 55.8348C42.315 55.6398 42.315 55.4448 42.315 55.3148C42.315 55.1848 42.315 55.0548 42.315 54.9248C42.315 54.8598 42.315 54.7948 42.315 54.7298C42.315 54.6648 42.315 54.5998 42.315 54.4698C42.315 54.2748 42.315 54.1448 42.315 54.0148C42.315 53.8848 42.315 53.7548 42.38 53.5598C42.38 53.4298 42.445 53.2348 42.445 53.1698C42.445 53.0398 42.51 52.9098 42.575 52.8448C42.64 52.7148 42.705 52.6498 42.77 52.5848C42.9 52.3898 43.095 52.3248 43.29 52.3248C43.485 52.3248 43.615 52.3898 43.745 52.4548C43.875 52.5198 44.005 52.6498 44.07 52.7798C44.135 52.9098 44.265 53.1048 44.33 53.2348C44.395 53.3648 44.46 53.5598 44.46 53.8198C44.525 54.0798 44.525 54.2748 44.525 54.4048C44.525 54.5348 44.59 54.7948 44.59 55.0548C44.59 55.4448 44.59 55.7698 44.59 55.9648V56.4848ZM43.81 53.2348C43.745 53.1048 43.68 52.9748 43.615 52.9098C43.55 52.8448 43.42 52.7798 43.355 52.7798C43.29 52.7798 43.225 52.7798 43.16 52.8448C43.095 52.9098 43.03 52.9748 43.03 53.1048C42.965 53.2348 42.965 53.3648 42.9 53.4298C42.9 53.5598 42.835 53.6898 42.835 53.8848C42.835 54.0798 42.835 54.2098 42.77 54.3398C42.77 54.4698 42.77 54.5998 42.77 54.7948C42.77 55.0548 42.77 55.2498 42.77 55.4448V55.5098C42.77 55.8998 42.77 56.3548 42.835 56.8098C42.9 57.2648 42.965 57.6548 43.03 57.9148C43.095 58.1748 43.16 58.4348 43.29 58.6298C43.42 58.8248 43.55 58.9548 43.68 58.9548C43.81 58.9548 43.875 58.8248 44.005 58.6298C44.07 58.4348 44.135 58.1098 44.2 57.7848C44.135 57.1998 44.2 56.7448 44.2 56.5498C44.2 56.2898 44.2 56.1598 44.2 56.0298C44.2 55.8998 44.2 55.7698 44.2 55.5748C44.2 55.3798 44.2 55.1848 44.135 54.9898C44.135 54.7948 44.07 54.5998 44.07 54.4048C44.07 54.2098 44.005 54.0148 43.94 53.8198C43.94 53.5598 43.875 53.4298 43.81 53.2348Z" fill="#3972FF"/>
<path d="M45.305 56.2898V54.5998C45.305 54.2748 45.305 53.9498 45.24 53.5598C45.175 53.1698 45.175 52.9098 45.175 52.7798C45.175 52.6498 45.175 52.5848 45.24 52.5198C45.305 52.4548 45.37 52.4548 45.435 52.4548C45.63 52.4548 45.76 52.7148 45.76 53.1698C45.76 53.1698 45.76 53.7548 45.695 54.9898C45.695 54.9248 45.76 54.7948 45.89 54.5348C45.955 54.2748 46.085 54.0798 46.15 53.8198C46.28 53.5598 46.345 53.2998 46.475 53.0398C46.735 52.4548 46.93 52.1948 46.995 52.1948C47.06 52.1948 47.125 52.1948 47.19 52.2598C47.255 52.3248 47.255 52.3898 47.255 52.3898C47.255 52.4548 47.125 52.8448 46.8 53.4948C46.475 54.1448 46.28 54.5998 46.28 54.7948V54.9248C46.345 55.1198 46.605 55.8348 46.995 57.0698C47.385 58.3048 47.58 58.9548 47.58 59.0198C47.58 59.0848 47.58 59.1498 47.515 59.2148C47.45 59.2798 47.385 59.2798 47.32 59.2798L47.125 59.2148C46.995 58.3698 46.8 57.6548 46.67 57.0048C46.54 56.3548 46.28 55.7698 46.085 55.2498C45.89 55.5748 45.825 55.7698 45.825 55.8348C45.825 56.0298 45.825 56.1598 45.825 56.2898L45.89 57.9148V58.6298C45.89 58.9548 45.76 59.0848 45.565 59.0848C45.37 59.0848 45.305 58.9548 45.305 58.6298C45.305 58.3048 45.305 57.9148 45.37 57.3948C45.24 57.0048 45.305 56.5498 45.305 56.2898Z" fill="#3972FF"/>
<path d="M17.485 24.0498C17.095 25.6098 17.42 27.2998 17.875 28.7948C18.395 30.4848 19.11 32.1098 20.345 33.2798C21.58 34.4498 23.53 34.9698 24.96 34.1248C25.675 33.6698 26.26 32.9548 26.585 32.1748C26.91 31.3298 27.04 30.4848 27.105 29.5748C27.235 27.8198 27.04 25.9998 26.52 24.2448C26.325 23.5298 26.065 22.8148 25.61 22.2298C24.57 20.7998 22.685 20.2798 21.125 20.8648C20.41 21.1248 19.565 21.2548 18.915 21.7098C18.2 22.2948 17.68 23.1398 17.485 24.0498Z" fill="#3B82FF"/>
<path d="M17.81 24.8948C17.42 26.3898 17.745 28.0148 18.2 29.5098C18.72 31.1348 19.37 32.7598 20.605 33.9298C21.84 35.0348 23.66 35.5548 25.025 34.7748C25.74 34.3848 26.26 33.6698 26.585 32.8898C26.91 32.1098 27.04 31.1998 27.105 30.3548C27.235 28.5998 27.04 26.8448 26.52 25.2198C26.325 24.5048 26.065 23.8548 25.61 23.2698C24.57 21.8398 22.815 21.3848 21.255 21.9048C20.54 22.1648 19.76 22.2298 19.11 22.7498C18.525 23.2698 18.005 24.0498 17.81 24.8948Z" fill="#FFF3E9"/>
<path d="M26.585 25.2199C26.39 24.5049 26.13 23.8549 25.675 23.2699C25.285 22.7499 24.83 22.3599 24.31 22.0999C24.44 22.2299 24.505 22.3599 24.635 22.4899C25.025 23.0749 25.285 23.7899 25.545 24.4399C26 26.1299 26.195 27.8849 26.13 29.5749C26.065 30.4199 25.935 31.3299 25.61 32.1099C25.285 32.8899 24.765 33.6049 24.05 33.9949C23.01 34.5799 21.71 34.4499 20.605 33.8649L20.67 33.9299C21.905 35.0349 23.725 35.5549 25.09 34.7749C25.805 34.3849 26.325 33.6699 26.65 32.8899C26.975 32.1099 27.105 31.1999 27.17 30.3549C27.235 28.6649 27.04 26.8449 26.585 25.2199Z" fill="#FFE7C0"/>
<path d="M20.02 27.7548C19.89 28.4048 19.955 29.1198 20.15 29.7698C20.345 30.6798 20.735 31.5248 21.45 32.1098C22.1 32.6948 23.14 32.8248 23.79 32.3048C23.985 32.1098 24.18 31.9148 24.31 31.6548C24.96 30.4848 25.025 28.9248 24.375 27.6248C24.115 27.0398 23.66 26.4548 23.075 26.1948C21.84 25.6098 20.28 26.3898 20.02 27.7548Z" fill="#413E49"/>
<path d="M20.735 28.8598C20.735 29.0548 20.8 29.2498 20.995 29.3148C21.06 29.3798 21.19 29.3798 21.32 29.3148C21.645 29.2498 21.905 28.9248 22.035 28.5998C22.23 28.2098 22.36 27.7548 22.36 27.2348C22.295 26.5198 21.58 26.1948 21.125 26.7148C20.67 27.2348 20.67 28.2748 20.735 28.8598Z" fill="white"/>
<path opacity="0.3" d="M18.46 28.5999C18.525 29.5749 18.85 30.4849 19.435 31.1999C19.5 31.2649 19.63 31.3949 19.695 31.2649C19.76 31.1999 19.695 31.1349 19.695 31.0699C19.24 29.3799 18.785 27.6249 19.11 25.9349C19.11 25.8049 19.175 25.6099 19.045 25.4799C18.59 25.7399 18.525 26.3899 18.46 26.8449C18.46 27.4949 18.46 28.0799 18.46 28.5999Z" fill="white"/>
<path d="M19.76 24.5048C20.41 24.1148 21.19 23.9198 21.97 23.8548C22.75 23.7898 23.53 23.7898 24.31 23.9848C25.09 24.1798 25.805 24.5698 26.325 25.0898C26.13 24.1148 25.415 23.2698 24.505 22.8148C23.595 22.3598 22.555 22.1648 21.58 22.2298C21.06 22.2298 20.605 22.3598 20.085 22.5548C19.175 22.9448 18.46 23.7248 18.07 24.5698C17.875 24.9598 17.745 25.4148 17.68 25.8048C17.615 26.0648 17.485 26.7148 17.745 26.9098C17.94 27.1048 18.07 26.4548 18.2 26.2598C18.395 25.9348 18.59 25.5448 18.785 25.2848C19.045 25.0248 19.37 24.6998 19.76 24.5048Z" fill="#FFE7C0"/>
<path d="M18.33 25.2198C18.915 24.2448 19.63 23.9198 20.41 23.6598C20.735 23.5948 21.06 23.5298 21.385 23.4648C22.425 23.3348 23.465 23.3348 24.505 23.5298C25.155 23.6598 26.13 24.2448 26.52 24.8298C26.26 24.3748 25.87 23.3998 25.61 22.8798C25.545 22.6848 25.415 22.4898 25.285 22.3598C25.155 22.1648 24.96 22.0998 24.765 21.9698C24.375 21.7098 23.92 21.5148 23.465 21.3848C23.01 21.2548 22.49 21.3198 22.035 21.3198C20.8 21.4498 19.565 21.7748 18.655 22.5548C18.005 23.1398 17.615 23.9198 17.485 24.7648C17.355 25.4798 17.29 27.1048 17.615 27.8198C17.745 27.7548 17.94 25.9348 18.33 25.2198Z" fill="#3B82FF"/>
<path opacity="0.34" d="M18.2 23.3348C17.745 23.9848 17.615 24.8298 17.745 25.6098C17.81 24.8298 18.2 24.1148 18.72 23.5948C19.24 23.0098 19.89 22.6198 20.605 22.3598C20.93 22.2298 21.255 22.1648 21.515 21.9048C21.515 21.9048 21.58 21.8398 21.58 21.7748C21.58 21.6448 21.45 21.6448 21.32 21.5798C20.15 21.5798 18.85 22.3598 18.2 23.3348Z" fill="white"/>
<path d="M41.34 22.3599C40.43 23.6599 40.105 25.3499 39.975 26.9749C39.845 28.7299 39.91 30.5499 40.625 32.1099C41.34 33.6699 42.965 34.8399 44.59 34.5799C45.435 34.4499 46.215 33.9949 46.8 33.3449C47.385 32.6949 47.905 31.9149 48.23 31.1349C49.01 29.5099 49.465 27.7549 49.66 25.9999C49.725 25.2849 49.725 24.5049 49.53 23.7899C49.075 22.0349 47.515 20.9299 45.825 20.8649C45.045 20.8649 44.265 20.6699 43.485 20.8649C42.705 21.0599 41.86 21.6449 41.34 22.3599Z" fill="#3B82FF"/>
<path d="M41.34 23.3348C40.43 24.5698 40.17 26.2598 40.04 27.8198C39.91 29.5098 39.975 31.2648 40.69 32.7598C41.405 34.2548 42.9 35.4248 44.525 35.1648C45.37 35.0348 46.085 34.5798 46.67 33.9948C47.255 33.4098 47.71 32.6298 48.1 31.8498C48.815 30.2898 49.335 28.5998 49.465 26.8448C49.53 26.1298 49.53 25.3498 49.4 24.6998C49.01 23.0098 47.45 21.9048 45.825 21.8398C45.045 21.8398 44.33 21.6448 43.55 21.8398C42.575 22.0348 41.86 22.5548 41.34 23.3348Z" fill="#FFF3E9"/>
<path d="M49.4 26.7799C49.465 26.0649 49.465 25.2849 49.335 24.6349C49.205 23.9849 48.88 23.4649 48.49 23.0099C48.555 23.1399 48.62 23.3349 48.62 23.4649C48.815 24.1799 48.75 24.8949 48.685 25.6099C48.555 27.3649 48.035 29.0549 47.32 30.6149C46.93 31.3949 46.475 32.1749 45.89 32.7599C45.305 33.3449 44.525 33.8649 43.745 33.9299C42.575 34.1249 41.405 33.4749 40.625 32.5649C40.625 32.6299 40.625 32.6299 40.69 32.6949C41.405 34.1899 42.9 35.3599 44.525 35.0999C45.37 34.9699 46.085 34.5149 46.67 33.9299C47.255 33.3449 47.71 32.5649 48.1 31.7849C48.75 30.2249 49.205 28.5349 49.4 26.7799Z" fill="#FFE7C0"/>
<path d="M42.38 26.7799C41.99 27.3649 41.86 28.0149 41.795 28.7299C41.665 29.6399 41.73 30.6149 42.12 31.3949C42.51 32.1749 43.42 32.6949 44.265 32.4349C44.525 32.3699 44.785 32.1749 44.98 32.0449C46.02 31.1999 46.605 29.7699 46.54 28.3399C46.475 27.6899 46.28 26.9749 45.825 26.5199C44.85 25.4799 43.095 25.6099 42.38 26.7799Z" fill="#413E49"/>
<path d="M42.64 28.0799C42.575 28.2749 42.575 28.4699 42.705 28.5999C42.77 28.6649 42.9 28.7299 42.965 28.7299C43.29 28.7949 43.615 28.5999 43.94 28.3399C44.265 28.0149 44.59 27.6249 44.72 27.2349C44.915 26.5199 44.395 25.9999 43.745 26.2599C43.095 26.5199 42.77 27.4949 42.64 28.0799Z" fill="white"/>
<path opacity="0.3" d="M40.625 27.0398C40.3 27.9498 40.3 28.9248 40.56 29.8348C40.56 29.9648 40.69 30.0948 40.755 30.0298C40.82 30.0298 40.82 29.9648 40.82 29.8998C41.015 28.2098 41.21 26.3898 42.185 24.9598C42.25 24.8298 42.38 24.6998 42.315 24.5698C41.795 24.6348 41.535 25.2198 41.275 25.6098C41.015 25.9998 40.755 26.5198 40.625 27.0398Z" fill="white"/>
<path d="M43.29 23.6599C44.07 23.5299 44.85 23.6598 45.565 23.9198C46.28 24.1148 47.06 24.4398 47.645 24.8948C48.295 25.3498 48.815 25.9348 49.14 26.6498C49.27 25.6748 48.945 24.6348 48.295 23.8548C47.645 23.0748 46.735 22.5548 45.76 22.2298C45.305 22.0998 44.785 21.9698 44.265 21.9698C43.29 21.9698 42.315 22.4248 41.665 23.1398C41.34 23.4648 41.08 23.7898 40.885 24.1798C40.755 24.3748 40.365 24.9598 40.495 25.2198C40.625 25.4798 41.015 24.8948 41.145 24.7648C41.405 24.5048 41.73 24.2448 42.055 24.0498C42.445 23.8548 42.835 23.7249 43.29 23.6599Z" fill="#FFE7C0"/>
<path d="M41.73 23.7899C42.64 23.0749 43.42 23.0099 44.2 23.0749C44.525 23.0749 44.85 23.1399 45.175 23.2699C46.215 23.5299 47.19 23.9199 48.1 24.4399C48.685 24.7649 49.335 25.6749 49.53 26.3899C49.465 25.8699 49.465 24.7649 49.4 24.2449C49.4 24.0499 49.335 23.8549 49.27 23.6599C49.205 23.4649 49.075 23.2699 48.88 23.1399C48.555 22.7499 48.295 22.4249 47.905 22.1649C47.515 21.9049 47.06 21.7099 46.605 21.5799C45.435 21.2549 44.135 21.0599 42.965 21.5149C42.185 21.8399 41.535 22.4249 41.08 23.0749C40.69 23.6599 40.04 25.2199 40.04 25.9349C40.235 25.9349 41.08 24.3099 41.73 23.7899Z" fill="#3B82FF"/>
<path opacity="0.34" d="M42.25 22.0349C41.6 22.4899 41.145 23.2049 40.95 23.9849C41.275 23.3349 41.925 22.8149 42.575 22.4899C43.29 22.1649 44.005 22.0349 44.785 22.0349C45.11 22.0349 45.5 22.0999 45.76 21.9049C45.825 21.9049 45.825 21.8399 45.825 21.8399C45.89 21.7749 45.76 21.6449 45.695 21.5799C44.72 21.0599 43.225 21.3199 42.25 22.0349Z" fill="white"/>
</g>
<defs>
<clipPath id="clip0_202_763">
<rect width="65" height="65" fill="white"/>
</clipPath>
</defs>
</svg>
