<svg width="88" height="86" viewBox="0 0 88 86" fill="none" xmlns="http://www.w3.org/2000/svg">
<g clip-path="url(#clip0_202_645)">
<path d="M59.887 28.2222C56.125 25.8284 51.6136 24.6883 47.196 24.8849C36.0648 25.3478 26.3399 33.7686 25.6158 45.8651C25.3764 50.2848 26.3878 54.8727 28.6457 58.7566C30.9322 62.5532 34.4064 65.5299 38.4275 67.4282C42.4192 69.2686 46.9578 70.0307 51.3438 69.34C55.7298 68.6494 59.8472 66.5648 63.0587 63.5545C66.2703 60.5442 68.692 56.5496 69.7169 52.2422C70.799 47.7601 70.3102 43.0533 68.5155 38.7892C66.8369 34.4663 63.795 30.7607 59.887 28.2222Z" fill="#FF986D"/>
<path d="M72.8893 29.872C71.8088 28.8891 70.3282 29.2744 69.139 29.8037C67.6019 30.509 66.1814 31.301 64.7618 32.2384C64.7038 32.2678 64.6458 32.2971 64.6458 32.2971C64.6751 32.3551 64.7339 32.4711 64.7632 32.5291C64.7926 32.5871 64.8799 32.6157 64.9093 32.6737C64.9387 32.7317 65.0554 32.8183 65.0847 32.8763C65.5773 32.5541 66.0992 32.2898 66.5918 31.9676C67.6642 31.3517 68.882 30.7352 70.0719 30.3513C70.5072 30.2037 71.0879 30.0555 71.5246 30.1986C71.9614 30.3418 72.2535 30.631 72.4591 31.0369C72.9288 31.9648 72.7306 33.0123 72.2116 33.8579C71.6354 34.8782 70.855 35.7833 70.0747 36.6884C69.2658 37.6808 68.4275 38.6152 67.5892 39.5496C65.9125 41.4185 64.1772 43.1714 62.3545 44.8956C58.7091 48.3441 54.7422 51.4454 50.6285 54.2567C46.4274 57.0394 41.9922 59.5035 37.4388 61.5903C35.1185 62.6194 32.8267 63.5611 30.4183 64.4162C29.3737 64.7994 28.3871 65.1532 27.2545 65.3624C26.4705 65.5407 25.4825 65.6038 24.7249 65.2588C24.4335 65.1149 24.2001 64.9417 24.0826 64.7097C23.8463 63.9551 23.8426 63.2284 24.1583 62.4129C24.4153 61.4813 24.8763 60.6651 25.3079 59.7908C25.5384 59.3827 25.7395 58.9166 25.9987 58.4211C26.1998 57.955 26.5177 57.5755 26.8062 57.138C27.066 56.7879 27.2679 56.4671 27.5278 56.117C27.4397 55.943 27.3222 55.711 27.2342 55.5371C27.1182 55.5958 27.0316 55.7125 26.9156 55.7712C26.3364 56.2102 25.8739 56.7357 25.3535 57.2907C24.833 57.8456 24.3126 58.4005 23.9382 59.1001C23.5344 59.7416 23.2474 60.4698 22.931 61.14C22.3562 62.451 21.8996 64.1393 23.0682 65.2962C23.3897 65.6434 23.8859 66.0479 24.41 66.2197C24.9341 66.3914 25.4868 66.4759 26.0389 66.415C27.2596 66.3798 28.4495 65.9959 29.5814 65.6414C31.0613 65.1107 32.5411 64.58 34.021 64.0493C36.864 62.9013 39.7063 61.608 42.4319 60.228C47.9697 57.3514 53.1852 53.9822 58.0491 50.0625C62.8551 46.1722 67.2808 41.8186 71.2397 37.1185C72.1352 36.0094 73.2341 34.8702 73.7216 33.5306C74.0351 32.279 73.853 30.7683 72.8893 29.872Z" fill="white"/>
<path d="M43.5873 29.8449C43.5286 29.7289 43.4118 29.6423 43.2951 29.5557C43.2078 29.5271 43.1204 29.4984 43.0037 29.4118C42.829 29.3546 42.5963 29.3267 42.4223 29.4147C42.3064 29.4735 42.2484 29.5028 42.103 29.5036C41.9291 29.5916 41.7844 29.7377 41.6398 29.8838C41.5818 29.9131 41.5532 30.0005 41.4952 30.0299C41.4086 30.1466 41.3513 30.3213 41.3227 30.4086C41.2654 30.5833 41.2662 30.7287 41.3249 30.8447C41.3256 30.99 41.4137 31.164 41.5304 31.2506C41.5891 31.3666 41.7059 31.4532 41.8226 31.5398C41.9099 31.5684 41.9973 31.5971 42.114 31.6837C42.2887 31.741 42.5214 31.7689 42.6954 31.6808C42.8113 31.6221 42.8693 31.5927 43.0147 31.592C43.1886 31.5039 43.3333 31.3578 43.4779 31.2117C43.5359 31.1824 43.5645 31.095 43.6225 31.0657C43.7091 30.9489 43.7664 30.7742 43.795 30.6869C43.8523 30.5122 43.8515 30.3668 43.7928 30.2509C43.7047 30.0769 43.646 29.9609 43.5873 29.8449Z" fill="#E6EAEC"/>
<path d="M41.633 40.0871C40.3572 40.733 41.3848 42.7627 42.6606 42.1168C43.9944 41.4415 42.9668 39.4118 41.633 40.0871Z" fill="#E6EAEC"/>
<path d="M51.8857 32.5648C50.7839 33.1226 51.6353 34.8044 52.7372 34.2465C53.8683 33.7466 52.9875 32.0069 51.8857 32.5648Z" fill="#E6EAEC"/>
<path d="M56.1129 40.7701C55.9081 40.5095 55.5873 40.3077 55.2673 40.2511C54.9179 40.1366 54.6272 40.1381 54.2785 40.1689C53.9592 40.2577 53.6113 40.4339 53.3507 40.6387L53.2927 40.668C53.0321 40.8728 52.8302 41.1936 52.7157 41.543C52.6012 41.8924 52.5446 42.2124 52.6628 42.5898C52.781 42.9671 52.9278 43.257 53.1619 43.5756C53.3667 43.8362 53.6875 44.0381 54.0369 44.1526C54.3863 44.2671 54.7064 44.3236 55.0837 44.2055C55.461 44.0873 55.7509 43.9405 56.0695 43.7063C56.3301 43.5015 56.532 43.1808 56.6465 42.8314C56.761 42.4819 56.8176 42.1619 56.6994 41.7846L56.67 41.7266C56.4939 41.3787 56.3177 41.0307 56.1129 40.7701Z" fill="#E6EAEC"/>
<path d="M46.766 49.2181C46.6199 49.0735 46.4159 48.9583 46.2412 48.901C46.1538 48.8724 46.0085 48.8731 45.9211 48.8445C45.6884 48.8166 45.4851 48.8467 45.2531 48.9641C45.0792 49.0522 44.9632 49.1109 44.9059 49.2856C44.8193 49.4023 44.7327 49.5191 44.6754 49.6938C44.6182 49.8685 44.6189 50.0138 44.6196 50.1591C44.6203 50.3045 44.6504 50.5078 44.7092 50.6238C44.7679 50.7398 44.7972 50.7978 44.914 50.8844C45.06 51.029 45.2641 51.1443 45.4388 51.2015C45.5261 51.2302 45.6715 51.2294 45.7588 51.258C45.9915 51.2859 46.1949 51.2559 46.4268 51.1384C46.6008 51.0503 46.7168 50.9916 46.774 50.8169C46.8607 50.7002 46.9473 50.5835 47.0046 50.4088C47.0618 50.2341 47.0611 50.0887 47.0604 49.9434C47.0596 49.798 47.0009 49.6821 46.9128 49.5081C46.8835 49.4501 46.8247 49.3341 46.766 49.2181Z" fill="#E6EAEC"/>
<path d="M63.7351 47.7666C60.7776 49.264 63.0971 53.8453 66.0546 52.3479C69.0122 50.8505 66.6927 46.2692 63.7351 47.7666Z" fill="#E6EAEC"/>
<path d="M56.9706 55.2714C56.8246 55.1268 56.7078 55.0402 56.5331 54.9829C56.4458 54.9543 56.3584 54.9257 56.2711 54.897C56.0678 54.9271 55.9224 54.9279 55.7484 55.0159C55.6325 55.0747 55.5165 55.1334 55.4299 55.2501C55.3432 55.3668 55.2566 55.4835 55.228 55.5709C55.1414 55.6876 55.1421 55.8329 55.2008 55.9489C55.2015 56.0942 55.2023 56.2396 55.319 56.3262C55.3483 56.3842 55.4071 56.5002 55.4944 56.5288C55.6405 56.6734 55.7572 56.76 55.9319 56.8173C56.0193 56.8459 56.1066 56.8746 56.194 56.9032C56.3973 56.8731 56.5426 56.8724 56.7166 56.7843C56.8326 56.7256 56.9486 56.6668 57.0352 56.5501C57.1218 56.4334 57.2084 56.3167 57.2371 56.2294C57.3237 56.1127 57.323 55.9673 57.2642 55.8513C57.2635 55.706 57.2628 55.5606 57.1461 55.474C57.0873 55.358 57.058 55.3 56.9706 55.2714Z" fill="#E6EAEC"/>
<path d="M62.8934 36.463C62.718 36.2604 62.5139 36.1451 62.2519 36.0592C62.1645 36.0306 62.0192 36.0313 61.9318 36.0027C61.6991 35.9748 61.4378 36.0342 61.2059 36.1517C61.0319 36.2398 60.8873 36.3858 60.8006 36.5025C60.656 36.6486 60.5694 36.7653 60.5415 36.998C60.4843 37.1727 60.427 37.3474 60.4571 37.5508C60.4872 37.7541 60.4879 37.8994 60.576 38.0734C60.6347 38.1894 60.7514 38.276 60.8101 38.392C60.9856 38.5946 61.1896 38.7098 61.4517 38.7957C61.5391 38.8244 61.6844 38.8236 61.7717 38.8523C62.0044 38.8802 62.2658 38.8207 62.4977 38.7033C62.6717 38.6152 62.8163 38.4691 62.9029 38.3524C63.0475 38.2063 63.1342 38.0896 63.1621 37.8569C63.2193 37.6822 63.2766 37.5075 63.2465 37.3042C63.2164 37.1009 63.1283 36.9269 63.0402 36.7529C62.9815 36.6369 62.9522 36.5789 62.8934 36.463Z" fill="#E6EAEC"/>
<path d="M35.6834 42.0064C34.8135 42.4468 35.4888 43.7806 36.3587 43.3402C37.2286 42.8997 36.5533 41.566 35.6834 42.0064Z" fill="#E6EAEC"/>
<path d="M46.4059 35.412C46.2892 35.3254 46.1725 35.2387 46.0851 35.2101C45.9978 35.1815 45.9398 35.2108 45.9104 35.1529C45.7651 35.1536 45.6197 35.1543 45.5038 35.213C45.3878 35.2718 45.3298 35.3011 45.2432 35.4178C45.1272 35.4766 45.0986 35.5639 45.0993 35.7092C45.0707 35.7966 45.042 35.884 45.0428 36.0293C45.0141 36.1166 45.0728 36.2326 45.1316 36.3486C45.1609 36.4066 45.1903 36.4646 45.2196 36.5226C45.3364 36.6092 45.4531 36.6958 45.5404 36.7245L45.7151 36.7817C45.8605 36.781 46.0058 36.7803 46.1218 36.7215C46.2378 36.6628 46.2958 36.6334 46.3824 36.5167C46.4984 36.458 46.527 36.3707 46.5263 36.2253C46.5549 36.138 46.5835 36.0506 46.5828 35.9053C46.6114 35.8179 46.5527 35.7019 46.494 35.586C46.4646 35.528 46.4353 35.47 46.4059 35.412Z" fill="#E6EAEC"/>
<path d="M52.4527 47.0675C51.4089 47.596 52.2016 49.1617 53.2455 48.6333C54.3187 48.1628 53.4966 46.539 52.4527 47.0675Z" fill="#E6EAEC"/>
<path d="M49.216 62.4032C48.8944 62.056 48.457 61.7675 48.0202 61.6243C47.7875 61.5964 47.5254 61.5105 47.2928 61.4826C46.7694 61.4562 46.3047 61.5458 45.8408 61.7806C45.4928 61.9568 45.1743 62.191 44.9724 62.5117C44.7412 62.7745 44.5393 63.0953 44.4248 63.4447C44.3102 63.7941 44.2831 64.1721 44.3139 64.5208C44.2867 64.8989 44.4049 65.2762 44.5811 65.6241C44.7565 65.8267 44.8739 66.0587 45.0494 66.2613C45.3709 66.6085 45.8084 66.897 46.2451 67.0401C46.4778 67.068 46.7399 67.1539 46.9726 67.1818C47.4959 67.2083 47.9606 67.1187 48.4245 66.8838C48.7725 66.7077 49.0911 66.4735 49.2929 66.1527C49.5242 65.89 49.726 65.5692 49.8406 65.2198C49.9551 64.8704 49.9822 64.4923 49.9514 64.1437C49.9786 63.7656 49.8604 63.3883 49.6843 63.0404C49.5088 62.8378 49.3334 62.6352 49.216 62.4032Z" fill="#E6EAEC"/>
<path d="M19.7624 49.5574L17.4992 50.4118L16.9296 52.7402L15.4666 50.858L13.0259 51.0738L14.3238 49.0324L13.4408 46.8567L15.7692 47.4263L17.6219 45.9054L17.7503 48.3175L19.7624 49.5574Z" fill="white"/>
<path d="M50.8129 15.768L47.8121 14.4459L45.1174 16.1745L45.392 12.9755L42.8816 10.8952L46.0755 10.1524L47.2522 7.15233L48.8942 9.9638L52.1219 10.1511L50.0121 12.6035L50.8129 15.768Z" fill="white"/>
<path d="M81.5235 47.3574L79.579 47.9776L79.0071 49.87L77.807 48.2191L75.8015 48.2873L77.0142 46.6534L76.336 44.7382L78.2577 45.3681L79.9086 44.1679L79.8895 46.1447L81.5235 47.3574Z" fill="white"/>
</g>
<defs>
<clipPath id="clip0_202_645">
<rect width="65" height="65" fill="white" transform="translate(0 27.3606) rotate(-26.853)"/>
</clipPath>
</defs>
</svg>
