<svg width="65" height="65" viewBox="0 0 65 65" fill="none" xmlns="http://www.w3.org/2000/svg">
<path d="M57.9149 31.6551C59.7999 29.5101 60.9699 26.7151 61.6199 23.9201C61.8799 22.8801 62.0749 21.8401 62.7899 21.0601C62.7899 24.5051 62.0749 28.0151 60.5799 31.1351C59.0199 34.4501 56.4849 37.5701 53.0399 38.6751C51.9999 39.0001 50.7649 39.1301 49.9199 38.4801C47.8399 36.9201 50.4399 35.6851 51.7399 35.3601C54.1449 34.6451 56.1599 33.6051 57.9149 31.6551Z" fill="#4390FF"/>
<path d="M55.8999 9.36039L54.8599 15.1454L51.2849 14.2354L53.3649 8.77539L55.8999 9.36039Z" fill="#4D96FF"/>
<path d="M6.04492 10.855L12.3499 62.01C12.3499 62.01 12.4799 62.855 13.3249 63.505C14.1699 64.155 15.4049 64.675 15.4049 64.675L14.2999 11.18L6.04492 10.855Z" fill="#4390FF"/>
<path d="M60.6451 20.7354C60.5151 20.5404 60.3851 20.4104 60.3851 20.1504C60.3201 19.9554 60.4501 19.6954 60.6451 19.6304C60.8401 19.5654 61.1001 19.7604 61.1651 19.9554C61.2951 20.1504 61.3601 20.3454 61.5551 20.4754C61.5551 19.6954 61.6201 18.8504 61.7501 18.0704C61.8151 17.8754 61.8801 17.6154 62.0751 17.6154C62.2051 17.6154 62.4001 17.6804 62.4651 17.8754C62.5301 18.0054 62.5301 18.2004 62.5301 18.3304C62.6601 18.1354 62.5951 17.8754 62.6601 17.6154C62.7251 17.3554 62.9851 17.1604 63.1801 17.2904C63.3101 17.3554 63.3101 17.5504 63.3101 17.6804C63.3101 17.9404 63.3101 18.2004 63.3101 18.3954C63.3101 18.2654 63.3101 18.2004 63.3751 18.1354C63.4401 18.0704 63.5051 18.0054 63.6351 18.0054C63.7001 18.0054 63.7651 18.0704 63.7651 18.1354C64.0901 18.5904 64.0251 19.2404 63.8951 19.7604C63.5701 21.5154 62.9851 23.2704 62.1401 24.8304C61.8801 25.3504 61.7501 24.8304 61.6851 24.5054C61.6201 24.0504 61.6851 23.5954 61.6201 23.1404C61.4251 22.2954 61.1001 21.4504 60.6451 20.7354Z" fill="#4390FF"/>
<path d="M9.09991 39.0001C6.88991 40.8201 5.32991 43.3551 4.15991 46.0201C3.76991 46.9951 3.37991 47.9701 2.53491 48.6201C3.05491 45.1751 4.41991 41.9251 6.36991 39.0651C8.44991 36.0101 11.4399 33.4101 15.0149 32.8901C16.1199 32.6951 17.3549 32.8251 18.0699 33.6051C19.8249 35.4901 17.0949 36.2701 15.7949 36.4001C13.3249 36.6601 11.1149 37.3751 9.09991 39.0001Z" fill="#4390FF"/>
<path d="M4.61499 49.3352C4.67999 49.5302 4.80999 49.7252 4.80999 49.9202C4.80999 50.1152 4.67999 50.3752 4.48499 50.3752C4.28999 50.3752 4.09499 50.1802 3.96499 49.9852C3.89999 49.7902 3.83499 49.5302 3.70499 49.4002C3.57499 50.1802 3.37999 50.9602 3.11999 51.7402C3.05499 51.9352 2.92499 52.1302 2.72999 52.1302C2.59999 52.1302 2.46999 52.0002 2.40499 51.8702C2.33999 51.7402 2.40499 51.5452 2.40499 51.4152C2.27499 51.6102 2.27499 51.8702 2.20999 52.1302C2.14499 52.3902 1.81999 52.5202 1.62499 52.3902C1.49499 52.2602 1.55999 52.1302 1.55999 52.0002C1.62499 51.7402 1.62499 51.4802 1.68999 51.2852C1.68999 51.3502 1.62499 51.4802 1.55999 51.5452C1.49499 51.6102 1.36499 51.6752 1.29999 51.6102C1.23499 51.6102 1.23499 51.5452 1.16999 51.4802C0.909993 50.9602 1.10499 50.3752 1.29999 49.8552C1.88499 48.1652 2.79499 46.5402 3.89999 45.1102C4.28999 44.6552 4.28999 45.1752 4.28999 45.5002C4.28999 45.9552 4.15999 46.4102 4.15999 46.8002C4.09499 47.6452 4.28999 48.4902 4.61499 49.3352Z" fill="#4390FF"/>
<path d="M9.29492 14.2354L15.4699 64.6753H52.2599L58.1099 14.2354H9.29492Z" fill="#5AB1FF"/>
<path d="M9.29492 14.2354C9.29492 14.2354 5.91492 13.1954 6.04492 10.9204C6.17492 8.64537 10.0749 8.25537 10.0749 8.25537H55.3799L55.9649 9.36037L54.9249 9.49037L51.8049 12.4804L57.2649 12.9354L58.1749 14.2354H9.29492Z" fill="#83C4FF"/>
<path d="M54.9249 9.42529H9.87987L9.61987 12.5453L56.7449 12.8703C56.7449 12.8703 55.7049 12.0253 55.1849 11.1153C54.4699 9.94529 54.9249 9.42529 54.9249 9.42529Z" fill="#FFECBB"/>
<path d="M9.87996 9.42516C9.87996 9.42516 8.12496 9.23016 7.73496 10.5952C7.27996 12.4152 9.61996 12.5452 9.61996 12.5452L9.87996 9.42516Z" fill="#4D96FF"/>
<path d="M10.53 10.4001C11.895 10.4651 13.195 10.4651 14.56 10.4651C15.925 10.4651 17.225 10.4651 18.59 10.4651C21.255 10.4651 23.985 10.4651 26.65 10.4651C31.98 10.4651 37.375 10.5301 42.705 10.4651C44.2 10.4651 45.695 10.4001 47.255 10.4001C48.75 10.4001 50.245 10.4001 51.805 10.4001C51.87 10.4001 51.87 10.3351 51.805 10.3351C49.14 10.2701 46.41 10.3351 43.745 10.2701C41.08 10.2051 38.35 10.2051 35.685 10.2051C30.355 10.2051 24.96 10.2051 19.63 10.2051C18.135 10.2051 16.64 10.2051 15.08 10.2051C13.585 10.2701 12.09 10.2701 10.53 10.4001Z" fill="#FFCB92"/>
<path d="M10.53 11.505C11.83 11.57 13.195 11.57 14.495 11.57C15.795 11.57 17.16 11.57 18.46 11.57C21.125 11.57 23.725 11.57 26.39 11.57C27.105 11.57 27.885 11.57 28.6 11.57C29.315 11.57 30.095 11.57 30.81 11.57C30.875 11.57 30.875 11.44 30.81 11.44C30.16 11.375 29.445 11.44 28.795 11.44C28.145 11.44 27.495 11.44 26.845 11.44C25.545 11.44 24.18 11.44 22.88 11.44C20.215 11.44 17.615 11.44 14.95 11.44C13.52 11.44 12.025 11.375 10.53 11.505Z" fill="#FFCB92"/>
<path d="M14.1701 10.9851C15.4701 11.0501 16.7701 10.9851 18.1351 10.9851C19.4351 10.9851 20.7351 10.9851 22.1001 10.9851C24.7001 10.9851 27.3651 10.9851 29.9651 10.9851C35.1651 10.9851 40.4301 10.9851 45.6301 10.9851C47.1251 10.9851 48.5551 10.9851 50.0501 10.9851C51.5451 10.9851 52.9751 10.9851 54.4701 10.9851C54.5351 10.9851 54.5351 10.8551 54.4701 10.8551C51.8701 10.7901 49.2051 10.8551 46.6051 10.8551C44.0051 10.8551 41.3401 10.8551 38.7401 10.8551C33.5401 10.8551 28.2751 10.8551 23.0751 10.8551C21.5801 10.8551 20.1501 10.8551 18.6551 10.8551C17.0951 10.9201 15.6001 10.9201 14.1701 10.9851C14.1051 10.9851 14.1051 10.9851 14.1701 10.9851Z" fill="#FFCB92"/>
<path d="M12.935 12.2204C18.265 12.2854 23.66 12.2854 28.99 12.2854C34.32 12.2854 39.65 12.2854 44.98 12.2854C47.97 12.2854 50.96 12.2854 54.015 12.2854C54.145 12.2854 54.145 12.0904 54.015 12.0904C48.685 12.0254 43.29 12.0904 37.96 12.0904C32.63 12.0904 27.3 12.0904 21.97 12.0904C18.915 12.1554 15.925 12.1554 12.935 12.2204C12.87 12.2204 12.87 12.2204 12.935 12.2204Z" fill="#FFCB92"/>
<path d="M32.1099 10.8552L30.9399 6.76021L44.5249 4.09521L45.9549 10.8552H32.1099Z" fill="#FFC043"/>
<path d="M41.535 10.9852C41.34 9.16519 41.47 7.21519 42.055 5.46019C42.64 3.70519 43.81 2.0802 45.37 1.1052C45.24 2.0152 45.175 2.9252 45.24 3.8352C45.695 2.6652 46.865 1.9502 47.97 1.3002C48.75 0.845195 49.53 0.390195 50.44 0.325195C49.14 1.8852 48.49 3.9002 48.035 5.9152C47.645 7.5402 47.32 9.36019 47.905 10.9202L41.535 10.9852Z" fill="#E86A43"/>
<path d="M12.415 11.5053L13.715 5.59033L24.57 8.58033L23.855 11.5053H12.415Z" fill="#7FC133"/>
<path d="M15.8601 20.0852C15.6001 20.4102 15.4051 20.8002 15.3401 21.2552C15.3401 21.3202 15.3401 21.3852 15.3401 21.4502C15.4051 21.5802 15.6001 21.5152 15.7301 21.4502C17.4851 20.3452 19.2401 19.3052 20.9951 18.2002C21.1901 18.0702 21.3851 17.9402 21.5151 17.7452C21.6451 17.5502 21.7101 17.2902 21.5801 17.0952C21.5151 16.9652 21.3851 16.9002 21.1901 16.8352C20.0201 16.3802 19.3051 17.0952 18.3951 17.6802C17.4201 18.2652 16.5751 19.1102 15.8601 20.0852Z" fill="#413E49"/>
<path d="M50.245 19.695C50.505 20.02 50.7 20.41 50.765 20.865C50.765 20.93 50.765 20.995 50.765 21.06C50.7 21.19 50.505 21.125 50.375 21.06C48.62 19.955 46.865 18.915 45.11 17.81C44.915 17.68 44.72 17.55 44.59 17.355C44.46 17.16 44.395 16.9 44.525 16.705C44.59 16.575 44.72 16.51 44.915 16.445C46.085 15.99 46.8 16.705 47.71 17.29C48.685 17.94 49.595 18.72 50.245 19.695Z" fill="#413E49"/>
<path d="M33.4102 40.4956C33.3452 40.4956 33.3452 40.4956 33.4102 40.4956C33.3452 40.4956 33.2802 40.4956 33.2802 40.4956C30.2252 40.5606 27.1702 39.0656 25.2852 36.7256C25.5452 37.8306 25.8702 38.8706 26.1302 39.9756C26.5852 41.6656 27.0402 43.3556 27.8852 44.8506C28.7302 46.3456 30.0952 47.6456 31.7202 48.1006C32.2402 48.2306 32.8252 48.2956 33.3452 48.2956C33.8652 48.3606 34.4502 48.2956 34.9702 48.1006C36.5952 47.6456 37.9602 46.3456 38.8052 44.8506C39.6502 43.3556 40.1052 41.6656 40.5602 39.9756C40.8202 38.9356 41.1452 37.8306 41.4052 36.7256C39.5202 39.0656 36.4002 40.5606 33.4102 40.4956Z" fill="#413E49"/>
<path d="M33.3451 40.4952C33.2801 40.4952 33.2151 40.4952 33.2151 40.4952C30.8751 40.5602 28.5351 39.6502 26.7151 38.2202C26.7801 38.6752 26.7801 39.1302 26.7801 39.5852C26.7801 39.7152 26.7801 39.9102 26.8451 40.0402C26.9101 40.2352 27.0401 40.4302 27.2351 40.6252C28.3401 41.8602 29.9651 42.4452 31.5901 42.7052C34.2551 43.0952 37.0501 42.4452 39.3251 40.8852C39.4551 40.8202 39.5851 40.6902 39.7151 40.4952C39.7801 40.3002 39.7801 40.0402 39.7801 39.8452C39.7151 39.3902 39.6501 38.8702 39.5851 38.4152C37.7651 39.7802 35.5551 40.5602 33.3451 40.4952Z" fill="white"/>
<path d="M37.6351 46.3456C37.6351 46.2806 37.5701 46.2156 37.5051 46.0856C36.9201 44.8506 35.4901 44.0706 34.1901 44.2006C33.6051 44.2656 33.0201 44.5256 32.8901 45.0456C32.0451 44.3956 30.8101 44.3956 29.9651 45.0456C29.3801 45.4356 29.1851 45.9556 29.1201 46.4756C29.8351 47.1906 30.6801 47.7756 31.6551 48.0356C32.1751 48.1656 32.7601 48.2306 33.2801 48.2306C33.8001 48.2956 34.3851 48.2306 34.9051 48.0356C35.9451 47.7756 36.8551 47.1906 37.6351 46.3456Z" fill="#FF624D"/>
<path d="M24.6351 37.1804C24.5701 37.1154 24.5701 36.9204 24.5701 36.8554C24.5701 36.7254 24.5701 36.6604 24.5701 36.5304C24.6351 36.3354 24.7001 36.1404 24.8301 35.9454C24.9601 35.8154 25.1551 35.7504 25.3501 35.7504C25.5451 35.7504 25.7401 35.9454 25.8701 36.0104C25.9351 36.0754 26.0001 36.0104 25.9351 35.9454C25.8051 35.7504 25.6751 35.6204 25.4801 35.5554C25.2851 35.4904 25.0901 35.4904 24.8951 35.6204C24.5051 35.8154 24.3101 36.2704 24.3101 36.6604C24.3101 36.7904 24.3101 36.9204 24.3751 36.9854C24.5051 37.1804 24.5701 37.1804 24.6351 37.1804C24.7001 37.2454 24.7001 37.1804 24.6351 37.1804Z" fill="#413E49"/>
<path d="M40.755 36.5955C40.885 36.4005 41.08 36.2055 41.34 36.0755C41.6 35.9455 41.86 35.9455 42.055 36.1405C42.51 36.5305 42.2501 37.1805 42.1201 37.7005C42.1201 37.7655 42.185 37.7655 42.185 37.7005C42.445 37.2455 42.64 36.6605 42.38 36.2055C42.25 36.0105 42.12 35.8805 41.925 35.8155C41.665 35.7505 41.405 35.8155 41.21 35.9455C41.08 36.0105 41.015 36.0755 40.95 36.2055C40.755 36.3355 40.755 36.4655 40.755 36.5955C40.69 36.5955 40.69 36.5955 40.755 36.5955Z" fill="#413E49"/>
<path d="M18.72 59.0851C18.72 58.9551 18.785 58.8251 18.915 58.8251C18.98 58.8251 19.045 58.8251 19.175 58.8901C19.305 58.9551 19.37 58.9551 19.435 58.9551C19.5 58.9551 19.63 58.8901 19.695 58.8251C19.76 58.6951 19.825 58.6301 19.89 58.4351C20.02 58.1101 20.02 57.8501 20.02 57.5901C20.02 57.3301 19.955 57.0701 19.89 56.8101C19.825 56.5501 19.695 56.2901 19.565 56.0301C19.435 55.7701 19.305 55.5101 19.175 55.3151C18.85 54.7301 18.72 54.2101 18.72 53.6901C18.72 53.2351 18.85 52.8451 19.175 52.5851C19.305 52.4551 19.5 52.3901 19.695 52.3901C19.825 52.3901 19.89 52.3901 20.02 52.4551C20.15 52.5201 20.215 52.5851 20.215 52.7151L20.085 52.9101C19.955 52.9101 19.825 52.9101 19.76 52.8451C19.63 52.8451 19.565 52.9101 19.5 52.9751C19.37 53.1701 19.305 53.3651 19.305 53.6251C19.305 53.8851 19.305 54.1451 19.37 54.3401C19.435 54.6001 19.5 54.7951 19.63 54.9901C19.695 55.1851 19.825 55.3801 19.955 55.5751C20.085 55.7701 20.15 56.0301 20.28 56.2251C20.475 56.6801 20.605 57.2001 20.605 57.7201C20.605 58.1101 20.54 58.4351 20.345 58.8251C20.28 59.0201 20.15 59.1501 19.955 59.2151C19.825 59.3451 19.63 59.3451 19.435 59.3451C19.24 59.3451 19.045 59.3451 18.915 59.2801C18.785 59.2151 18.72 59.1501 18.72 59.0851Z" fill="#3972FF"/>
<path d="M22.1649 54.0151V55.1851L22.2299 57.2001L22.2949 58.8251C22.2949 59.0851 22.2299 59.2801 22.0349 59.2801C21.9699 59.2801 21.8399 59.2151 21.8399 59.1501C21.7749 59.0851 21.7749 58.9551 21.7749 58.8251L21.8399 57.3951C21.8399 57.0701 21.8399 56.6151 21.7749 56.0301C21.7099 55.4451 21.7099 54.9251 21.7099 54.6651V53.8851C21.7099 53.4301 21.7099 53.1701 21.6449 53.0401L21.1899 53.1051C21.1249 53.1051 21.0599 53.1051 20.9949 53.0401C20.9299 52.9751 20.9299 52.9101 20.9299 52.8451C20.9299 52.7801 20.9949 52.7151 21.1249 52.6501C21.2549 52.5851 21.4499 52.5851 21.6449 52.5201C21.9699 52.4551 22.2949 52.4551 22.5549 52.4551C22.6199 52.4551 22.6849 52.4551 22.7499 52.5201C22.8149 52.5851 22.8149 52.6501 22.8149 52.7151C22.8149 52.7801 22.8149 52.8451 22.7499 52.9101C22.6849 52.9751 22.6199 52.9751 22.5549 52.9751H22.2299C22.1649 52.9751 22.1649 52.9751 22.1649 52.9751C22.1649 53.3001 22.1649 53.6251 22.1649 54.0151Z" fill="#3972FF"/>
<path d="M23.14 54.3401V52.9751C23.075 52.9101 23.075 52.8451 23.075 52.7801C23.075 52.7151 23.075 52.6501 23.14 52.5851C23.205 52.5201 23.27 52.5201 23.335 52.5201C23.53 52.5201 23.66 52.7151 23.66 53.1701L23.725 56.2251C23.79 56.2901 23.79 56.4851 23.79 56.6801C23.79 56.9401 23.855 57.0701 23.855 57.2001C23.855 57.3301 23.855 57.5251 23.92 57.6551C23.985 57.8501 24.05 58.0451 24.115 58.2401C24.18 58.4351 24.31 58.6301 24.44 58.7601C24.57 58.8901 24.7 58.9551 24.765 58.9551C24.895 58.9551 24.96 58.9551 25.025 58.8901C25.09 58.8251 25.09 58.7601 25.155 58.6951C25.155 58.5651 25.22 58.3701 25.22 58.1751V56.4201C25.22 56.2251 25.22 55.9651 25.155 55.5751C25.09 55.1851 25.09 54.9251 25.09 54.7301V54.6651V54.1451L25.025 52.6501C25.025 52.5851 25.09 52.5201 25.155 52.4551C25.22 52.3901 25.285 52.3901 25.35 52.3901L25.545 52.5851V52.7151L25.48 53.2351C25.48 53.7551 25.48 54.4701 25.545 55.4451C25.61 56.4201 25.61 57.1351 25.61 57.4601C25.61 57.7851 25.61 58.0451 25.61 58.1751C25.61 58.3051 25.61 58.4351 25.545 58.5651C25.48 58.6951 25.48 58.8251 25.415 58.8901C25.285 59.0851 25.09 59.2151 24.765 59.2151C24.44 59.2151 24.115 59.0851 23.92 58.7601C23.66 58.4351 23.53 58.0451 23.465 57.5251C23.335 57.0051 23.27 56.4851 23.27 56.0951C23.14 55.5751 23.14 54.9251 23.14 54.3401Z" fill="#3972FF"/>
<path d="M28.4049 55.9001V56.0951C28.4049 56.4851 28.2749 57.0051 28.0799 57.5901C27.8199 58.2401 27.5599 58.6951 27.1699 58.9551C26.9749 59.0851 26.7799 59.2151 26.5849 59.2151C26.4549 59.2151 26.3899 59.2151 26.2599 59.1501C26.1949 59.0851 26.1299 59.0201 26.1299 58.9551C26.2599 58.8251 26.3249 58.5001 26.3249 57.9151C26.3249 57.5901 26.3249 57.0701 26.2599 56.4201C26.1949 55.7701 26.1949 55.3151 26.1949 54.9901V54.0151C26.1949 53.8851 26.1949 53.6251 26.1299 53.3651C26.0649 53.1051 26.0649 52.9101 26.0649 52.7801C26.0649 52.5851 26.2599 52.4551 26.7149 52.4551H26.8449C27.4299 52.4551 27.8849 52.7801 28.1449 53.4951C28.3399 53.9501 28.4049 54.6001 28.4049 55.4451V55.8351V55.9001ZM26.7799 57.8501V58.6951C26.9749 58.5651 27.1699 58.3701 27.3649 58.1101C27.4949 57.8501 27.6249 57.5901 27.7549 57.2651C27.8849 56.6801 28.0149 56.0951 28.0149 55.5101C28.0149 54.8601 27.9499 54.3401 27.7549 53.9501C27.5599 53.5601 27.3649 53.3001 27.1049 53.1701C26.9749 53.1051 26.7799 53.0401 26.5849 53.0401C26.5849 53.5601 26.6499 54.4051 26.7149 55.4451C26.7799 56.4851 26.7799 57.2651 26.7799 57.8501Z" fill="#3972FF"/>
<path d="M29.965 55.9005H29.77C29.705 55.9005 29.64 55.9005 29.575 55.9655V58.6955C29.9 58.6955 30.03 58.6955 30.03 58.6955C30.355 58.6955 30.55 58.7605 30.55 58.9555C30.485 59.0205 30.42 59.0855 30.355 59.1505C30.29 59.2155 30.16 59.2155 30.095 59.2155C30.03 59.2155 29.9 59.2155 29.835 59.2155H29.575C29.38 59.2155 29.25 59.1505 29.185 59.0855C29.185 59.0205 29.12 59.0205 29.12 58.9555V53.8205C29.12 53.6905 29.12 53.5605 29.055 53.3655C28.99 53.1705 28.99 53.0405 28.99 52.9105C29.055 52.7805 29.185 52.6505 29.185 52.5855L29.835 52.5205C29.9 52.5205 30.03 52.5205 30.095 52.5855C30.16 52.6505 30.225 52.7155 30.225 52.7805C30.225 52.9755 30.095 53.0405 29.835 53.0405H29.575C29.51 53.0405 29.51 53.0405 29.51 53.0405L29.575 54.5355C29.575 54.6655 29.575 54.7955 29.575 55.0555C29.575 55.2505 29.575 55.4455 29.575 55.5755C29.575 55.5755 29.64 55.5755 29.705 55.5755C29.835 55.5755 29.9 55.5105 29.965 55.5105C30.03 55.5105 30.095 55.5105 30.16 55.5755C30.225 55.6405 30.225 55.7055 30.225 55.7705C30.225 55.8355 30.225 55.9005 30.16 55.9655C30.03 55.9005 30.03 55.9005 29.965 55.9005Z" fill="#3972FF"/>
<path d="M30.9399 54.5352L31.0049 52.9102V52.8452C31.0049 52.5202 31.0699 52.3902 31.1999 52.3902C31.3299 52.3902 31.4599 52.6502 31.6549 53.2352C32.0449 54.2102 32.4349 55.9002 32.9549 58.1752V58.2402L33.0199 55.1202V52.5202C33.0849 52.3902 33.1499 52.3252 33.2799 52.3252C33.4099 52.3252 33.5399 52.4552 33.5399 52.6502C33.4749 52.7152 33.4749 52.7802 33.4749 52.9102L33.4099 56.1602V58.8902C33.4099 58.9552 33.4099 59.0852 33.3449 59.1502C33.2799 59.2152 33.2149 59.2802 33.1499 59.2802C33.0199 59.2802 32.7599 58.6952 32.4349 57.4602C32.1099 56.2252 31.7199 54.9252 31.3949 53.5602V56.4852C31.3949 56.7452 31.3949 57.2002 31.4599 57.7202C31.5249 58.3052 31.5249 58.6952 31.5249 58.9552C31.5249 59.0202 31.4599 59.0852 31.3949 59.0852C31.3299 59.1502 31.2649 59.1502 31.1349 59.1502C31.0049 59.1502 31.0049 59.0852 31.0049 59.0202L31.0699 58.3702C31.0699 58.0452 31.0699 57.5902 31.0049 56.8752C30.9399 56.1602 30.9399 55.7702 30.9399 55.6402V54.5352Z" fill="#3972FF"/>
<path d="M35.1649 54.0151V55.1851L35.2299 57.2001L35.2949 58.8251C35.2949 59.0851 35.2299 59.2801 35.0349 59.2801C34.9699 59.2801 34.8399 59.2151 34.8399 59.1501C34.7749 59.0851 34.7749 58.9551 34.7749 58.8251L34.8399 57.3951C34.8399 57.0701 34.8399 56.6151 34.7749 56.0301C34.7099 55.4451 34.7099 54.9251 34.7099 54.6651V53.8851C34.7099 53.4301 34.7099 53.1701 34.6449 53.0401L34.1899 53.1051C34.1249 53.1051 34.0599 53.1051 33.9949 53.0401C33.9299 52.9751 33.9299 52.9101 33.9299 52.8451C33.9299 52.7801 33.9949 52.7151 34.1249 52.6501C34.2549 52.5851 34.4499 52.5851 34.6449 52.5201C34.9699 52.4551 35.2949 52.4551 35.5549 52.4551C35.6199 52.4551 35.6849 52.4551 35.7499 52.5201C35.7499 52.5851 35.7499 52.6501 35.7499 52.7151C35.7499 52.7801 35.7499 52.8451 35.6849 52.9101C35.6199 52.9751 35.5549 52.9751 35.4899 52.9751H35.1649C35.0999 52.9751 35.0999 52.9751 35.0999 52.9751C35.0999 53.3001 35.1649 53.6251 35.1649 54.0151Z" fill="#3972FF"/>
<path d="M37.2449 56.8105L37.1799 53.2355V53.1705C37.1799 52.8455 37.2449 52.6505 37.3099 52.5855C37.3749 52.5205 37.4399 52.5205 37.5049 52.5205C37.8949 52.5205 38.2199 52.6505 38.4799 52.9105C38.7399 53.1705 38.8049 53.5605 38.8049 53.9505C38.8049 54.2105 38.7399 54.4705 38.6099 54.7955C38.4799 55.0555 38.2849 55.3155 38.0899 55.4455C38.4149 55.7055 38.6749 55.9655 38.8699 56.3555C38.9999 56.7455 39.1299 57.1355 39.1299 57.5255C39.1299 57.7205 39.0649 57.9805 38.9999 58.1755C38.8699 58.4355 38.8049 58.5655 38.6749 58.6955C38.5449 58.8255 38.4149 58.9555 38.2849 59.0205C38.0899 59.0855 37.8949 59.1505 37.6999 59.1505H37.6349C37.3749 59.1505 37.2449 59.0855 37.2449 58.9555V56.8105ZM37.7649 53.0405C37.6999 53.0405 37.6349 53.1705 37.6349 53.3655C37.6349 53.5605 37.6349 53.8855 37.6349 54.3405C37.6349 54.7955 37.6349 55.1205 37.6349 55.3155C37.7649 55.2505 37.8949 55.1855 38.0249 54.9255C38.0899 54.7305 38.1549 54.5355 38.2199 54.4055C38.2849 54.2105 38.2849 54.1455 38.3499 54.0805V53.7555C38.3499 53.5605 38.2849 53.4305 38.1549 53.2355C38.0899 53.1055 37.9599 53.0405 37.7649 53.0405ZM38.4149 58.3705C38.6099 58.1755 38.6749 57.9155 38.6749 57.5905C38.6749 57.2655 38.6749 57.0055 38.6099 56.8105C38.5449 56.6155 38.4799 56.4205 38.4799 56.2905C38.4149 56.1605 38.3499 56.0955 38.2849 56.0305C38.2199 55.9005 38.0899 55.9005 38.0249 55.8355H37.6999C37.6999 56.6805 37.7649 57.6555 37.7649 58.7605C38.0249 58.7605 38.2849 58.5655 38.4149 58.3705Z" fill="#3972FF"/>
<path d="M41.795 56.4851L41.73 57.5901V57.6551C41.665 57.8501 41.665 57.9801 41.665 58.1751C41.665 58.3701 41.6 58.5651 41.535 58.6951C41.47 58.8251 41.34 59.0201 41.21 59.1501C41.08 59.2801 40.95 59.3451 40.755 59.3451C40.625 59.3451 40.43 59.2801 40.3 59.1501C40.17 59.0201 40.04 58.8901 39.975 58.7601C39.91 58.5651 39.845 58.3701 39.78 58.1751C39.715 57.9151 39.65 57.7201 39.65 57.4601C39.65 57.2651 39.65 57.0701 39.65 56.8101C39.585 56.4201 39.585 56.1601 39.585 55.9001C39.585 55.7051 39.585 55.5101 39.585 55.3801C39.585 55.2501 39.585 55.1201 39.585 54.9901C39.585 54.9251 39.585 54.8601 39.585 54.7951C39.585 54.7301 39.585 54.6651 39.585 54.5351C39.585 54.3401 39.585 54.2101 39.585 54.0801C39.585 53.9501 39.585 53.8201 39.65 53.6251C39.65 53.4951 39.715 53.3001 39.715 53.2351C39.715 53.1051 39.78 52.9751 39.845 52.9101C39.91 52.7801 39.975 52.7151 40.04 52.6501C40.17 52.4551 40.365 52.3901 40.56 52.3901C40.755 52.3901 40.885 52.4551 41.015 52.5201C41.145 52.5851 41.275 52.7151 41.34 52.8451C41.405 52.9751 41.535 53.1701 41.6 53.3001C41.665 53.4301 41.73 53.6251 41.73 53.8851C41.795 54.1451 41.795 54.3401 41.795 54.4701C41.795 54.6001 41.86 54.8601 41.86 55.1201C41.86 55.5101 41.86 55.8351 41.86 56.0301V56.4851H41.795ZM41.015 53.2351C40.95 53.1051 40.885 52.9751 40.82 52.9101C40.755 52.8451 40.625 52.7801 40.56 52.7801C40.495 52.7801 40.43 52.7801 40.365 52.8451C40.3 52.9101 40.235 52.9751 40.235 53.1051C40.17 53.2351 40.17 53.3651 40.105 53.4301C40.105 53.5601 40.04 53.6901 40.04 53.8851C40.04 54.0801 40.04 54.2101 39.975 54.3401C39.975 54.4701 39.975 54.6001 39.975 54.7951C39.975 55.0551 39.975 55.2501 39.975 55.4451V55.5101C39.975 55.9001 39.975 56.3551 40.04 56.8101C40.105 57.2651 40.17 57.6551 40.235 57.9151C40.3 58.1751 40.365 58.4351 40.495 58.6301C40.625 58.8251 40.755 58.9551 40.885 58.9551C41.015 58.9551 41.08 58.8251 41.21 58.6301C41.275 58.4351 41.34 58.1101 41.405 57.7851C41.47 57.2001 41.47 56.8101 41.47 56.5501C41.47 56.2901 41.47 56.1601 41.47 56.0301C41.47 55.9001 41.47 55.7701 41.47 55.5751C41.47 55.3801 41.47 55.1851 41.405 54.9901C41.405 54.7951 41.34 54.6001 41.34 54.4051C41.34 54.2101 41.275 54.0151 41.21 53.8201C41.145 53.5601 41.08 53.4301 41.015 53.2351Z" fill="#3972FF"/>
<path d="M44.5899 56.4852L44.5249 57.5902V57.6552C44.4599 57.8502 44.4599 57.9802 44.4599 58.1752C44.4599 58.3702 44.3949 58.5652 44.3299 58.6952C44.2649 58.8902 44.1349 59.0202 44.0049 59.1502C43.8749 59.2802 43.7449 59.3452 43.5499 59.3452C43.4199 59.3452 43.2249 59.2802 43.0949 59.1502C42.9649 59.0202 42.8349 58.8902 42.7699 58.7602C42.7049 58.5652 42.6399 58.3702 42.5749 58.1752C42.5099 57.9152 42.4449 57.7202 42.4449 57.4602C42.3799 57.2652 42.3799 57.0052 42.3799 56.7452C42.3149 56.3552 42.3149 56.0952 42.3149 55.8352C42.3149 55.6402 42.3149 55.4452 42.3149 55.3152C42.3149 55.1852 42.3149 55.0552 42.3149 54.9252C42.3149 54.8602 42.3149 54.7952 42.3149 54.7302C42.3149 54.6652 42.3149 54.6002 42.3149 54.4702C42.3149 54.2752 42.3149 54.1452 42.3149 54.0152C42.3149 53.8852 42.3149 53.7552 42.3799 53.5602C42.3799 53.4302 42.4449 53.2352 42.4449 53.1702C42.4449 53.0402 42.5099 52.9102 42.5749 52.8452C42.6399 52.7152 42.7049 52.6502 42.7699 52.5852C42.8999 52.3902 43.0949 52.3252 43.2899 52.3252C43.4849 52.3252 43.6149 52.3902 43.7449 52.4552C43.8749 52.5202 44.0049 52.6502 44.0699 52.7802C44.1349 52.9102 44.2649 53.1052 44.3299 53.2352C44.3949 53.3652 44.4599 53.5602 44.4599 53.8202C44.5249 54.0802 44.5249 54.2752 44.5249 54.4052C44.5249 54.5352 44.5899 54.7952 44.5899 55.0552C44.5899 55.4452 44.5899 55.7702 44.5899 55.9652V56.4852ZM43.8099 53.2352C43.7449 53.1052 43.6799 52.9752 43.6149 52.9102C43.5499 52.8452 43.4199 52.7802 43.3549 52.7802C43.2899 52.7802 43.2249 52.7802 43.1599 52.8452C43.0949 52.9102 43.0299 52.9752 43.0299 53.1052C42.9649 53.2352 42.9649 53.3652 42.8999 53.4302C42.8999 53.5602 42.8349 53.6902 42.8349 53.8852C42.8349 54.0802 42.8349 54.2102 42.7699 54.3402C42.7699 54.4702 42.7699 54.6002 42.7699 54.7952C42.7699 55.0552 42.7699 55.2502 42.7699 55.4452V55.5102C42.7699 55.9002 42.7699 56.3552 42.8349 56.8102C42.8999 57.2652 42.9649 57.6552 43.0299 57.9152C43.0949 58.1752 43.1599 58.4352 43.2899 58.6302C43.4199 58.8252 43.5499 58.9552 43.6799 58.9552C43.8099 58.9552 43.8749 58.8252 44.0049 58.6302C44.0699 58.4352 44.1349 58.1102 44.1999 57.7852C44.1349 57.2002 44.1999 56.7452 44.1999 56.5502C44.1999 56.2902 44.1999 56.1602 44.1999 56.0302C44.1999 55.9002 44.1999 55.7702 44.1999 55.5752C44.1999 55.3802 44.1999 55.1852 44.1349 54.9902C44.1349 54.7952 44.0699 54.6002 44.0699 54.4052C44.0699 54.2102 44.0049 54.0152 43.9399 53.8202C43.9399 53.5602 43.8749 53.4302 43.8099 53.2352Z" fill="#3972FF"/>
<path d="M45.305 56.2903V54.6003C45.305 54.2753 45.305 53.9503 45.24 53.5603C45.175 53.1703 45.175 52.9103 45.175 52.7803C45.175 52.6503 45.175 52.5853 45.24 52.5203C45.305 52.4553 45.37 52.4553 45.435 52.4553C45.63 52.4553 45.76 52.7153 45.76 53.1703C45.76 53.1703 45.7601 53.7553 45.6951 54.9903C45.6951 54.9253 45.76 54.7953 45.89 54.5353C45.955 54.2753 46.085 54.0803 46.15 53.8203C46.28 53.5603 46.345 53.3003 46.475 53.0403C46.735 52.4553 46.9301 52.1953 46.9951 52.1953C47.0601 52.1953 47.125 52.1953 47.19 52.2603C47.255 52.3253 47.255 52.3903 47.255 52.3903C47.255 52.4553 47.125 52.8453 46.8 53.4953C46.475 54.1453 46.28 54.6003 46.28 54.7953V54.9253C46.345 55.1203 46.6051 55.8353 46.9951 57.0703C47.3851 58.3053 47.58 58.9553 47.58 59.0203C47.58 59.0853 47.58 59.1503 47.515 59.2153C47.45 59.2803 47.3851 59.2803 47.3201 59.2803L47.125 59.2153C46.995 58.3703 46.8001 57.6553 46.6701 57.0053C46.5401 56.3553 46.28 55.7703 46.085 55.2503C45.89 55.5753 45.825 55.7703 45.825 55.8353C45.825 56.0303 45.825 56.1603 45.825 56.2903L45.89 57.9153V58.6303C45.89 58.9553 45.76 59.0853 45.565 59.0853C45.37 59.0853 45.305 58.9553 45.305 58.6303C45.305 58.3053 45.3051 57.9153 45.3701 57.3953C45.2401 57.0053 45.305 56.5503 45.305 56.2903Z" fill="#3972FF"/>
<path d="M17.485 24.0504C17.095 25.6104 17.42 27.3004 17.875 28.7954C18.395 30.4854 19.11 32.1104 20.345 33.2804C21.58 34.4504 23.53 34.9704 24.96 34.1254C25.675 33.6704 26.26 32.9554 26.585 32.1754C26.91 31.3304 27.04 30.4854 27.105 29.5754C27.235 27.8204 27.04 26.0004 26.52 24.2454C26.325 23.5304 26.065 22.8154 25.61 22.2304C24.57 20.8004 22.685 20.2804 21.125 20.8654C20.41 21.1254 19.565 21.2554 18.915 21.7104C18.2 22.2954 17.68 23.1404 17.485 24.0504Z" fill="#3B82FF"/>
<path d="M17.81 24.8953C17.42 26.3903 17.745 28.0153 18.2 29.5103C18.72 31.1353 19.37 32.7603 20.605 33.9303C21.84 35.0353 23.66 35.5553 25.025 34.7753C25.74 34.3853 26.26 33.6703 26.585 32.8903C26.91 32.1103 27.04 31.2003 27.105 30.3553C27.235 28.6003 27.04 26.8453 26.52 25.2203C26.325 24.5053 26.065 23.8553 25.61 23.2703C24.57 21.8403 22.815 21.3853 21.255 21.9053C20.54 22.1653 19.76 22.2303 19.11 22.7503C18.525 23.2703 18.005 24.0503 17.81 24.8953Z" fill="#FFF3E9"/>
<path d="M26.585 25.2206C26.39 24.5056 26.13 23.8556 25.675 23.2706C25.285 22.7506 24.83 22.3606 24.31 22.1006C24.44 22.2306 24.505 22.3606 24.635 22.4906C25.025 23.0756 25.285 23.7906 25.545 24.4406C26 26.1306 26.195 27.8856 26.13 29.5756C26.065 30.4206 25.935 31.3306 25.61 32.1106C25.285 32.8906 24.765 33.6056 24.05 33.9956C23.01 34.5806 21.71 34.4506 20.605 33.8656L20.67 33.9306C21.905 35.0356 23.725 35.5556 25.09 34.7756C25.805 34.3856 26.325 33.6706 26.65 32.8906C26.975 32.1106 27.105 31.2006 27.17 30.3556C27.235 28.6656 27.04 26.8456 26.585 25.2206Z" fill="#FFE7C0"/>
<path d="M20.02 27.7555C19.89 28.4055 19.955 29.1205 20.15 29.7705C20.345 30.6805 20.735 31.5255 21.45 32.1105C22.1 32.6955 23.14 32.8255 23.79 32.3055C23.985 32.1105 24.18 31.9155 24.31 31.6555C24.96 30.4855 25.025 28.9255 24.375 27.6255C24.115 27.0405 23.66 26.4555 23.075 26.1955C21.84 25.6105 20.28 26.3905 20.02 27.7555Z" fill="#413E49"/>
<path d="M20.7351 28.8602C20.7351 29.0552 20.8001 29.2502 20.9951 29.3152C21.0601 29.3802 21.1901 29.3802 21.3201 29.3152C21.6451 29.2502 21.9051 28.9252 22.0351 28.6002C22.2301 28.2102 22.3601 27.7552 22.3601 27.2352C22.2951 26.5202 21.5801 26.1952 21.1251 26.7152C20.6701 27.2352 20.6701 28.2752 20.7351 28.8602Z" fill="white"/>
<path opacity="0.3" d="M18.46 28.6005C18.525 29.5755 18.85 30.4855 19.435 31.2005C19.5 31.2655 19.63 31.3955 19.695 31.2655C19.76 31.2005 19.695 31.1355 19.695 31.0705C19.24 29.3805 18.785 27.6255 19.11 25.9355C19.11 25.8055 19.175 25.6105 19.045 25.4805C18.59 25.7405 18.525 26.3905 18.46 26.8455C18.46 27.4955 18.46 28.0805 18.46 28.6005Z" fill="white"/>
<path d="M19.7601 24.5054C20.4101 24.1154 21.1901 23.9204 21.9701 23.8554C22.7501 23.7904 23.5301 23.7904 24.3101 23.9854C25.0901 24.1804 25.8051 24.5704 26.3251 25.0904C26.1301 24.1154 25.4151 23.2704 24.5051 22.8154C23.5951 22.3604 22.5551 22.1654 21.5801 22.2304C21.0601 22.2304 20.6051 22.3604 20.0851 22.5554C19.1751 22.9454 18.4601 23.7254 18.0701 24.5704C17.8751 24.9604 17.7451 25.4154 17.6801 25.8054C17.6151 26.0654 17.4851 26.7154 17.7451 26.9104C17.9401 27.1054 18.0701 26.4554 18.2001 26.2604C18.3951 25.9354 18.5901 25.5454 18.7851 25.2854C19.0451 25.0254 19.3701 24.7004 19.7601 24.5054Z" fill="#FFE7C0"/>
<path d="M18.3299 25.2204C18.9149 24.2454 19.6299 23.9204 20.4099 23.6604C20.7349 23.5954 21.0599 23.5304 21.3849 23.4654C22.4249 23.3354 23.4649 23.3354 24.5049 23.5304C25.1549 23.6604 26.1299 24.2454 26.5199 24.8304C26.2599 24.3754 25.8699 23.4004 25.6099 22.8804C25.5449 22.6854 25.4149 22.4904 25.2849 22.3604C25.1549 22.1654 24.9599 22.1004 24.7649 21.9704C24.3749 21.7104 23.9199 21.5154 23.4649 21.3854C23.0099 21.2554 22.4899 21.3204 22.0349 21.3204C20.7999 21.4504 19.5649 21.7754 18.6549 22.5554C18.0049 23.1404 17.6149 23.9204 17.4849 24.7654C17.3549 25.4804 17.2899 27.1054 17.6149 27.8204C17.7449 27.7554 17.9399 25.9354 18.3299 25.2204Z" fill="#3B82FF"/>
<path opacity="0.34" d="M18.2 23.3356C17.745 23.9856 17.615 24.8306 17.745 25.6106C17.81 24.8306 18.2 24.1156 18.72 23.5956C19.24 23.0106 19.89 22.6206 20.605 22.3606C20.93 22.2306 21.255 22.1656 21.515 21.9056C21.515 21.9056 21.58 21.8406 21.58 21.7756C21.58 21.6456 21.45 21.6456 21.32 21.5806C20.15 21.5806 18.85 22.3606 18.2 23.3356Z" fill="white"/>
<path d="M41.34 22.36C40.43 23.66 40.105 25.35 39.975 26.975C39.845 28.73 39.91 30.55 40.625 32.11C41.34 33.67 42.965 34.84 44.59 34.58C45.435 34.45 46.215 33.995 46.8 33.345C47.385 32.695 47.905 31.915 48.23 31.135C49.01 29.51 49.465 27.755 49.66 26C49.725 25.285 49.725 24.505 49.53 23.79C49.075 22.035 47.515 20.93 45.825 20.865C45.045 20.865 44.265 20.67 43.485 20.865C42.705 21.06 41.86 21.645 41.34 22.36Z" fill="#3B82FF"/>
<path d="M41.34 23.3351C40.43 24.5701 40.17 26.2601 40.04 27.8201C39.91 29.5101 39.975 31.2651 40.69 32.7601C41.405 34.2551 42.9 35.4251 44.525 35.1651C45.37 35.0351 46.085 34.5801 46.67 33.9951C47.255 33.4101 47.71 32.6301 48.1 31.8501C48.815 30.2901 49.335 28.6001 49.465 26.8451C49.53 26.1301 49.53 25.3501 49.4 24.7001C49.01 23.0101 47.45 21.9051 45.825 21.8401C45.045 21.8401 44.33 21.6451 43.55 21.8401C42.575 22.0351 41.86 22.5551 41.34 23.3351Z" fill="#FFF3E9"/>
<path d="M49.4 26.7798C49.465 26.0648 49.465 25.2848 49.335 24.6348C49.205 23.9848 48.88 23.4648 48.49 23.0098C48.555 23.1398 48.62 23.3348 48.62 23.4648C48.815 24.1798 48.75 24.8948 48.685 25.6098C48.555 27.3648 48.035 29.0548 47.32 30.6148C46.93 31.3948 46.475 32.1748 45.89 32.7598C45.305 33.3448 44.525 33.8648 43.745 33.9298C42.575 34.1248 41.405 33.4748 40.625 32.5648C40.625 32.6298 40.625 32.6298 40.69 32.6948C41.405 34.1898 42.9 35.3598 44.525 35.0998C45.37 34.9698 46.085 34.5148 46.67 33.9298C47.255 33.3448 47.71 32.5648 48.1 31.7848C48.75 30.2248 49.205 28.5348 49.4 26.7798Z" fill="#FFE7C0"/>
<path d="M42.38 26.7801C41.99 27.3651 41.86 28.0151 41.795 28.7301C41.665 29.6401 41.73 30.6151 42.12 31.3951C42.51 32.1751 43.42 32.6951 44.265 32.4351C44.525 32.3701 44.785 32.1751 44.98 32.0451C46.02 31.2001 46.605 29.7701 46.54 28.3401C46.475 27.6901 46.28 26.9751 45.825 26.5201C44.85 25.4801 43.095 25.6101 42.38 26.7801Z" fill="#413E49"/>
<path d="M42.6401 28.0799C42.5751 28.2749 42.5751 28.4699 42.7051 28.5999C42.7701 28.6649 42.9001 28.7299 42.9651 28.7299C43.2901 28.7949 43.6151 28.5999 43.9401 28.3399C44.2651 28.0149 44.5901 27.6249 44.7201 27.2349C44.9151 26.5199 44.3951 25.9999 43.7451 26.2599C43.0951 26.5199 42.7701 27.4949 42.6401 28.0799Z" fill="white"/>
<path opacity="0.3" d="M40.6251 27.0398C40.3001 27.9498 40.3001 28.9248 40.5601 29.8348C40.5601 29.9648 40.6901 30.0948 40.7551 30.0298C40.8201 30.0298 40.8201 29.9648 40.8201 29.8998C41.0151 28.2098 41.2101 26.3898 42.1851 24.9598C42.2501 24.8298 42.3801 24.6998 42.3151 24.5698C41.7951 24.6348 41.5351 25.2198 41.2751 25.6098C41.0151 25.9998 40.7551 26.5198 40.6251 27.0398Z" fill="white"/>
<path d="M43.2899 23.6602C44.0699 23.5302 44.8499 23.6602 45.5649 23.9202C46.2799 24.1152 47.0599 24.4402 47.6449 24.8952C48.2949 25.3502 48.8149 25.9352 49.1399 26.6502C49.2699 25.6752 48.9449 24.6352 48.2949 23.8552C47.6449 23.0752 46.7349 22.5552 45.7599 22.2302C45.3049 22.1002 44.7849 21.9702 44.2649 21.9702C43.2899 21.9702 42.3149 22.4252 41.6649 23.1402C41.3399 23.4652 41.0799 23.7902 40.8849 24.1802C40.7549 24.3752 40.3649 24.9602 40.4949 25.2202C40.6249 25.4802 41.0149 24.8952 41.1449 24.7652C41.4049 24.5052 41.7299 24.2452 42.0549 24.0502C42.4449 23.8552 42.8349 23.7252 43.2899 23.6602Z" fill="#FFE7C0"/>
<path d="M41.73 23.7899C42.64 23.0749 43.42 23.0099 44.2 23.0749C44.525 23.0749 44.85 23.1399 45.175 23.2699C46.215 23.5299 47.19 23.9199 48.1 24.4399C48.685 24.7649 49.335 25.6749 49.53 26.3899C49.465 25.8699 49.465 24.7649 49.4 24.2449C49.4 24.0499 49.335 23.8549 49.27 23.6599C49.205 23.4649 49.075 23.2699 48.88 23.1399C48.555 22.7499 48.295 22.4249 47.905 22.1649C47.515 21.9049 47.06 21.7099 46.605 21.5799C45.435 21.2549 44.135 21.0599 42.965 21.5149C42.185 21.8399 41.535 22.4249 41.08 23.0749C40.69 23.6599 40.04 25.2199 40.04 25.9349C40.235 25.9349 41.08 24.3099 41.73 23.7899Z" fill="#3B82FF"/>
<path opacity="0.34" d="M42.25 22.0351C41.6 22.4901 41.145 23.2051 40.95 23.9851C41.275 23.3351 41.925 22.8151 42.575 22.4901C43.29 22.1651 44.005 22.0351 44.785 22.0351C45.11 22.0351 45.5 22.1001 45.76 21.9051C45.825 21.9051 45.825 21.8401 45.825 21.8401C45.89 21.7751 45.76 21.6451 45.695 21.5801C44.72 21.0601 43.225 21.3201 42.25 22.0351Z" fill="white"/>
</svg>
