<svg width="88" height="88" viewBox="0 0 88 88" fill="none" xmlns="http://www.w3.org/2000/svg">
<g clip-path="url(#clip0_202_1429)">
<path d="M59.887 30.2225C56.125 27.8286 51.6136 26.6885 47.196 26.8852C36.0648 27.3481 26.3399 35.7689 25.6158 47.8653C25.3764 52.2851 26.3878 56.8729 28.6457 60.7569C30.9322 64.5534 34.4064 67.5301 38.4275 69.4285C42.4192 71.2688 46.9578 72.0309 51.3438 71.3403C55.7298 70.6496 59.8472 68.565 63.0587 65.5548C66.2703 62.5445 68.692 58.5498 69.7169 54.2424C70.799 49.7603 70.3102 45.0536 68.5155 40.7894C66.8369 36.4665 63.795 32.7609 59.887 30.2225Z" fill="#FF986D"/>
<path d="M72.8893 31.8722C71.8088 30.8893 70.3282 31.2746 69.139 31.8039C67.6019 32.5093 66.1815 33.3013 64.7618 34.2386C64.7038 34.268 64.6458 34.2973 64.6458 34.2973C64.6752 34.3553 64.7339 34.4713 64.7633 34.5293C64.7926 34.5873 64.88 34.6159 64.9094 34.6739C64.9387 34.7319 65.0554 34.8185 65.0848 34.8765C65.5773 34.5543 66.0993 34.29 66.5918 33.9678C67.6643 33.3519 68.8821 32.7354 70.072 32.3515C70.5073 32.204 71.0879 32.0557 71.5247 32.1988C71.9615 32.342 72.2536 32.6312 72.4591 33.0372C72.9289 33.965 72.7307 35.0125 72.2117 35.8581C71.6354 36.8784 70.8551 37.7835 70.0748 38.6886C69.2658 39.681 68.4275 40.6154 67.5892 41.5499C65.9126 43.4187 64.1772 45.1716 62.3545 46.8958C58.7092 50.3443 54.7422 53.4456 50.6285 56.2569C46.4275 59.0396 41.9923 61.5037 37.4389 63.5905C35.1185 64.6196 32.8268 65.5613 30.4183 66.4165C29.3738 66.7996 28.3872 67.1534 27.2545 67.3626C26.4706 67.5409 25.4825 67.604 24.725 67.259C24.4336 67.1151 24.2002 66.9419 24.0827 66.7099C23.8464 65.9553 23.8427 65.2286 24.1584 64.4131C24.4153 63.4816 24.8763 62.6653 25.308 61.7911C25.5385 61.3829 25.7396 60.9168 25.9987 60.4213C26.1999 59.9552 26.5177 59.5757 26.8062 59.1382C27.0661 58.7881 27.268 58.4673 27.5278 58.1172C27.4398 57.9432 27.3223 57.7112 27.2342 57.5373C27.1182 57.596 27.0316 57.7127 26.9156 57.7714C26.3365 58.2104 25.874 58.7359 25.3535 59.2909C24.8331 59.8458 24.3126 60.4007 23.9382 61.1003C23.5345 61.7418 23.2475 62.47 22.9311 63.1402C22.3563 64.4512 21.8996 66.1395 23.0682 67.2964C23.3897 67.6436 23.8859 68.0481 24.4101 68.2199C24.9342 68.3917 25.4869 68.4761 26.0389 68.4152C27.2596 68.38 28.4496 67.9961 29.5815 67.6416C31.0613 67.1109 32.5412 66.5802 34.0211 66.0495C36.8641 64.9015 39.7064 63.6082 42.432 62.2282C47.9697 59.3516 53.1853 55.9825 58.0492 52.0627C62.8551 48.1724 67.2809 43.8188 71.2397 39.1188C72.1353 38.0096 73.2342 36.8704 73.7216 35.5308C74.0351 34.2792 73.8531 32.7685 72.8893 31.8722Z" fill="white"/>
<path d="M43.5873 31.8451C43.5286 31.7291 43.4119 31.6425 43.2952 31.5559C43.2078 31.5272 43.1205 31.4986 43.0038 31.412C42.8291 31.3547 42.5964 31.3268 42.4224 31.4149C42.3064 31.4736 42.2484 31.503 42.1031 31.5037C41.9291 31.5918 41.7845 31.7379 41.6399 31.8839C41.5819 31.9133 41.5533 32.0007 41.4953 32.03C41.4087 32.1467 41.3514 32.3214 41.3228 32.4088C41.2655 32.5835 41.2662 32.7288 41.325 32.8448C41.3257 32.9901 41.4138 33.1641 41.5305 33.2507C41.5892 33.3667 41.7059 33.4533 41.8226 33.54C41.91 33.5686 41.9973 33.5972 42.114 33.6838C42.2888 33.7411 42.5214 33.769 42.6954 33.6809C42.8114 33.6222 42.8694 33.5928 43.0147 33.5921C43.1887 33.504 43.3333 33.358 43.4779 33.2119C43.5359 33.1825 43.5646 33.0952 43.6225 33.0658C43.7092 32.9491 43.7664 32.7744 43.7951 32.687C43.8523 32.5123 43.8516 32.367 43.7929 32.251C43.7048 32.077 43.6461 31.9611 43.5873 31.8451Z" fill="#E6EAEC"/>
<path d="M41.633 42.0873C40.3572 42.7332 41.3848 44.7629 42.6606 44.117C43.9944 43.4417 42.9668 41.412 41.633 42.0873Z" fill="#E6EAEC"/>
<path d="M51.8857 34.5649C50.7839 35.1228 51.6353 36.8045 52.7372 36.2467C53.8683 35.7468 52.9875 34.0071 51.8857 34.5649Z" fill="#E6EAEC"/>
<path d="M56.113 42.7703C55.9082 42.5097 55.5874 42.3078 55.2673 42.2513C54.9179 42.1368 54.6273 42.1382 54.2786 42.1691C53.9593 42.2579 53.6113 42.434 53.3507 42.6388L53.2927 42.6682C53.0321 42.873 52.8303 43.1938 52.7157 43.5432C52.6012 43.8926 52.5447 44.2126 52.6629 44.5899C52.781 44.9672 52.9278 45.2572 53.162 45.5758C53.3668 45.8364 53.6876 46.0382 54.037 46.1528C54.3864 46.2673 54.7064 46.3238 55.0837 46.2056C55.461 46.0875 55.751 45.9407 56.0696 45.7065C56.3302 45.5017 56.532 45.1809 56.6466 44.8315C56.7611 44.4821 56.8176 44.1621 56.6994 43.7848L56.6701 43.7268C56.4939 43.3788 56.3178 43.0309 56.113 42.7703Z" fill="#E6EAEC"/>
<path d="M46.7661 51.2183C46.62 51.0737 46.4159 50.9584 46.2412 50.9012C46.1539 50.8725 46.0085 50.8733 45.9212 50.8446C45.6885 50.8167 45.4852 50.8468 45.2532 50.9643C45.0792 51.0524 44.9632 51.1111 44.906 51.2858C44.8194 51.4025 44.7327 51.5192 44.6755 51.6939C44.6182 51.8686 44.6189 52.014 44.6197 52.1593C44.6204 52.3046 44.6505 52.508 44.7092 52.624C44.7679 52.7399 44.7973 52.7979 44.914 52.8845C45.0601 53.0292 45.2642 53.1444 45.4389 53.2017C45.5262 53.2303 45.6715 53.2296 45.7589 53.2582C45.9916 53.2861 46.1949 53.256 46.4269 53.1386C46.6009 53.0505 46.7168 52.9918 46.7741 52.8171C46.8607 52.7003 46.9474 52.5836 47.0046 52.4089C47.0619 52.2342 47.0611 52.0889 47.0604 51.9435C47.0597 51.7982 47.001 51.6822 46.9129 51.5082C46.8835 51.4503 46.8248 51.3343 46.7661 51.2183Z" fill="#E6EAEC"/>
<path d="M63.7352 49.7668C60.7777 51.2641 63.0972 55.8454 66.0547 54.348C69.0123 52.8506 66.6928 48.2694 63.7352 49.7668Z" fill="#E6EAEC"/>
<path d="M56.9707 57.2715C56.8246 57.1269 56.7079 57.0403 56.5332 56.983C56.4459 56.9544 56.3585 56.9258 56.2711 56.8972C56.0678 56.9272 55.9225 56.928 55.7485 57.0161C55.6325 57.0748 55.5165 57.1335 55.4299 57.2502C55.3433 57.3669 55.2567 57.4836 55.228 57.571C55.1414 57.6877 55.1422 57.833 55.2009 57.949C55.2016 58.0944 55.2023 58.2397 55.319 58.3263C55.3484 58.3843 55.4071 58.5003 55.4945 58.5289C55.6406 58.6735 55.7573 58.7602 55.932 58.8174C56.0193 58.8461 56.1067 58.8747 56.194 58.9033C56.3974 58.8732 56.5427 58.8725 56.7167 58.7844C56.8327 58.7257 56.9486 58.667 57.0353 58.5503C57.1219 58.4335 57.2085 58.3168 57.2371 58.2295C57.3238 58.1128 57.323 57.9674 57.2643 57.8514C57.2636 57.7061 57.2628 57.5608 57.1461 57.4741C57.0874 57.3582 57.058 57.3002 56.9707 57.2715Z" fill="#E6EAEC"/>
<path d="M62.8936 38.463C62.7181 38.2604 62.5141 38.1452 62.252 38.0593C62.1647 38.0307 62.0193 38.0314 61.932 38.0028C61.6993 37.9749 61.4379 38.0343 61.206 38.1518C61.032 38.2398 60.8874 38.3859 60.8008 38.5026C60.6562 38.6487 60.5695 38.7654 60.5416 38.9981C60.4844 39.1728 60.4271 39.3475 60.4572 39.5509C60.4873 39.7542 60.488 39.8995 60.5761 40.0735C60.6348 40.1895 60.7515 40.2761 60.8103 40.3921C60.9857 40.5947 61.1898 40.7099 61.4518 40.7958C61.5392 40.8245 61.6845 40.8237 61.7719 40.8524C62.0046 40.8803 62.2659 40.8208 62.4979 40.7034C62.6718 40.6153 62.8164 40.4692 62.9031 40.3525C63.0477 40.2064 63.1343 40.0897 63.1622 39.857C63.2194 39.6823 63.2767 39.5076 63.2466 39.3043C63.2165 39.1009 63.1284 38.927 63.0404 38.753C62.9816 38.637 62.9523 38.579 62.8936 38.463Z" fill="#E6EAEC"/>
<path d="M35.6835 44.0067C34.8137 44.4471 35.489 45.7809 36.3588 45.3405C37.2287 44.9001 36.5534 43.5663 35.6835 44.0067Z" fill="#E6EAEC"/>
<path d="M46.406 37.4122C46.2893 37.3256 46.1726 37.239 46.0853 37.2103C45.9979 37.1817 45.9399 37.2111 45.9105 37.1531C45.7652 37.1538 45.6199 37.1545 45.5039 37.2133C45.3879 37.272 45.3299 37.3013 45.2433 37.4181C45.1273 37.4768 45.0987 37.5641 45.0994 37.7095C45.0708 37.7968 45.0421 37.8842 45.0429 38.0295C45.0142 38.1169 45.073 38.2329 45.1317 38.3488C45.161 38.4068 45.1904 38.4648 45.2198 38.5228C45.3365 38.6094 45.4532 38.6961 45.5405 38.7247L45.7153 38.7819C45.8606 38.7812 46.0059 38.7805 46.1219 38.7218C46.2379 38.663 46.2959 38.6337 46.3825 38.517C46.4985 38.4582 46.5271 38.3709 46.5264 38.2256C46.555 38.1382 46.5837 38.0508 46.5829 37.9055C46.6116 37.8182 46.5528 37.7022 46.4941 37.5862C46.4647 37.5282 46.4354 37.4702 46.406 37.4122Z" fill="#E6EAEC"/>
<path d="M52.4528 49.0677C51.409 49.5962 52.2017 51.1619 53.2455 50.6334C54.3187 50.1629 53.4966 48.5392 52.4528 49.0677Z" fill="#E6EAEC"/>
<path d="M49.216 64.4034C48.8944 64.0562 48.457 63.7677 48.0202 63.6246C47.7875 63.5967 47.5254 63.5108 47.2928 63.4829C46.7694 63.4564 46.3047 63.546 45.8408 63.7809C45.4928 63.957 45.1743 64.1912 44.9724 64.5119C44.7412 64.7747 44.5393 65.0955 44.4248 65.4449C44.3102 65.7943 44.2831 66.1724 44.3139 66.521C44.2867 66.8991 44.4049 67.2764 44.5811 67.6243C44.7565 67.8269 44.8739 68.0589 45.0494 68.2615C45.3709 68.6087 45.8084 68.8972 46.2451 69.0404C46.4778 69.0683 46.7399 69.1541 46.9726 69.182C47.4959 69.2085 47.9606 69.1189 48.4245 68.8841C48.7725 68.7079 49.0911 68.4737 49.2929 68.153C49.5242 67.8902 49.726 67.5694 49.8406 67.22C49.9551 66.8706 49.9822 66.4925 49.9514 66.1439C49.9786 65.7658 49.8604 65.3885 49.6843 65.0406C49.5088 64.838 49.3334 64.6354 49.216 64.4034Z" fill="#E6EAEC"/>
<path d="M19.7624 51.5575L17.4993 52.4119L16.9296 54.7403L15.4667 52.8581L13.026 53.0739L14.3238 51.0325L13.4408 48.8567L15.7692 49.4264L17.622 47.9055L17.7504 50.3176L19.7624 51.5575Z" fill="white"/>
<path d="M50.813 17.7683L47.8122 16.4462L45.1174 18.1748L45.392 14.9758L42.8816 12.8955L46.0755 12.1527L47.2523 9.15264L48.8943 11.9641L52.1219 12.1514L50.0122 14.6038L50.813 17.7683Z" fill="white"/>
<path d="M81.5235 49.3576L79.579 49.9778L79.0072 51.8702L77.807 50.2193L75.8016 50.2875L77.0143 48.6535L76.3361 46.7384L78.2578 47.3682L79.9087 46.1681L79.8896 48.1449L81.5235 49.3576Z" fill="white"/>
</g>
<defs>
<clipPath id="clip0_202_1429">
<rect width="65" height="65" fill="white" transform="translate(0 29.3607) rotate(-26.853)"/>
</clipPath>
</defs>
</svg>
