<svg width="65" height="65" viewBox="0 0 65 65" fill="none" xmlns="http://www.w3.org/2000/svg">
<g clip-path="url(#clip0_202_959)">
<path d="M57.915 31.6548C59.8 29.5098 60.97 26.7148 61.62 23.9198C61.88 22.8798 62.075 21.8398 62.79 21.0598C62.79 24.5048 62.075 28.0148 60.58 31.1348C59.02 34.4498 56.485 37.5698 53.04 38.6748C52 38.9998 50.765 39.1298 49.92 38.4798C47.84 36.9198 50.44 35.6848 51.74 35.3598C54.145 34.6448 56.16 33.6048 57.915 31.6548Z" fill="#4390FF"/>
<path d="M55.9 9.35984L54.86 15.1448L51.285 14.2348L53.365 8.77484L55.9 9.35984Z" fill="#4D96FF"/>
<path d="M6.04504 10.8548L12.35 62.0098C12.35 62.0098 12.48 62.8548 13.325 63.5048C14.17 64.1548 15.405 64.6748 15.405 64.6748L14.3 11.1798L6.04504 10.8548Z" fill="#4390FF"/>
<path d="M60.645 20.7348C60.515 20.5398 60.385 20.4098 60.385 20.1498C60.32 19.9548 60.45 19.6948 60.645 19.6298C60.84 19.5648 61.0999 19.7598 61.1649 19.9548C61.2949 20.1498 61.3599 20.3448 61.5549 20.4748C61.5549 19.6948 61.6199 18.8498 61.7499 18.0698C61.8149 17.8748 61.8799 17.6148 62.0749 17.6148C62.2049 17.6148 62.3999 17.6798 62.4649 17.8748C62.5299 18.0048 62.5299 18.1998 62.5299 18.3298C62.6599 18.1348 62.595 17.8748 62.66 17.6148C62.725 17.3548 62.9849 17.1598 63.1799 17.2898C63.3099 17.3548 63.31 17.5498 63.31 17.6798C63.31 17.9398 63.31 18.1998 63.31 18.3948C63.31 18.2648 63.3099 18.1998 63.3749 18.1348C63.4399 18.0698 63.505 18.0048 63.635 18.0048C63.7 18.0048 63.7649 18.0698 63.7649 18.1348C64.0899 18.5898 64.025 19.2398 63.895 19.7598C63.57 21.5148 62.9849 23.2698 62.1399 24.8298C61.8799 25.3498 61.75 24.8298 61.685 24.5048C61.62 24.0498 61.685 23.5948 61.62 23.1398C61.425 22.2948 61.1 21.4498 60.645 20.7348Z" fill="#4390FF"/>
<path d="M9.10003 38.9998C6.89003 40.8198 5.33003 43.3549 4.16003 46.0199C3.77003 46.9949 3.38003 47.9699 2.53503 48.6199C3.05503 45.1749 4.42003 41.9248 6.37003 39.0648C8.45003 36.0098 11.44 33.4098 15.015 32.8898C16.12 32.6948 17.355 32.8249 18.07 33.6049C19.825 35.4899 17.095 36.2698 15.795 36.3998C13.325 36.6598 11.115 37.3748 9.10003 38.9998Z" fill="#4390FF"/>
<path d="M4.61499 49.3348C4.67999 49.5298 4.80999 49.7248 4.80999 49.9198C4.80999 50.1148 4.67999 50.3748 4.48499 50.3748C4.28999 50.3748 4.09499 50.1798 3.96499 49.9848C3.89999 49.7898 3.83499 49.5298 3.70499 49.3998C3.57499 50.1798 3.37999 50.9598 3.11999 51.7398C3.05499 51.9348 2.92499 52.1298 2.72999 52.1298C2.59999 52.1298 2.46999 51.9998 2.40499 51.8698C2.33999 51.7398 2.40499 51.5448 2.40499 51.4148C2.27499 51.6098 2.27499 51.8698 2.20999 52.1298C2.14499 52.3898 1.81999 52.5198 1.62499 52.3898C1.49499 52.2598 1.55999 52.1298 1.55999 51.9998C1.62499 51.7398 1.62499 51.4798 1.68999 51.2848C1.68999 51.3498 1.62499 51.4798 1.55999 51.5448C1.49499 51.6098 1.36499 51.6748 1.29999 51.6098C1.23499 51.6098 1.23499 51.5448 1.16999 51.4798C0.909993 50.9598 1.10499 50.3748 1.29999 49.8548C1.88499 48.1648 2.79499 46.5398 3.89999 45.1098C4.28999 44.6548 4.28999 45.1748 4.28999 45.4998C4.28999 45.9548 4.15999 46.4098 4.15999 46.7998C4.09499 47.6448 4.28999 48.4898 4.61499 49.3348Z" fill="#4390FF"/>
<path d="M9.29504 14.2348L15.47 64.6748H52.26L58.11 14.2348H9.29504Z" fill="#5AB1FF"/>
<path d="M9.29504 14.2349C9.29504 14.2349 5.91504 13.1949 6.04504 10.9199C6.17504 8.64485 10.075 8.25485 10.075 8.25485H55.38L55.965 9.35985L54.925 9.48985L51.805 12.4799L57.265 12.9349L58.175 14.2349H9.29504Z" fill="#83C4FF"/>
<path d="M54.925 9.42485H9.87999L9.62 12.5448L56.745 12.8698C56.745 12.8698 55.705 12.0249 55.185 11.1149C54.47 9.94485 54.925 9.42485 54.925 9.42485Z" fill="#FFECBB"/>
<path d="M9.87996 9.42485C9.87996 9.42485 8.12496 9.22985 7.73496 10.5949C7.27996 12.4149 9.61996 12.5449 9.61996 12.5449L9.87996 9.42485Z" fill="#4D96FF"/>
<path d="M10.53 10.3998C11.895 10.4648 13.195 10.4648 14.56 10.4648C15.925 10.4648 17.225 10.4648 18.59 10.4648C21.255 10.4648 23.985 10.4648 26.65 10.4648C31.98 10.4648 37.375 10.5298 42.705 10.4648C44.2 10.4648 45.695 10.3998 47.255 10.3998C48.75 10.3998 50.245 10.3998 51.805 10.3998C51.87 10.3998 51.87 10.3348 51.805 10.3348C49.14 10.2698 46.41 10.3348 43.745 10.2698C41.08 10.2048 38.35 10.2048 35.685 10.2048C30.355 10.2048 24.96 10.2048 19.63 10.2048C18.135 10.2048 16.64 10.2048 15.08 10.2048C13.585 10.2698 12.09 10.2698 10.53 10.3998Z" fill="#FFCB92"/>
<path d="M10.53 11.5048C11.83 11.5698 13.195 11.5698 14.495 11.5698C15.795 11.5698 17.16 11.5698 18.46 11.5698C21.125 11.5698 23.725 11.5698 26.39 11.5698C27.105 11.5698 27.885 11.5698 28.6 11.5698C29.315 11.5698 30.095 11.5698 30.81 11.5698C30.875 11.5698 30.875 11.4398 30.81 11.4398C30.16 11.3748 29.445 11.4398 28.795 11.4398C28.145 11.4398 27.495 11.4398 26.845 11.4398C25.545 11.4398 24.18 11.4398 22.88 11.4398C20.215 11.4398 17.615 11.4398 14.95 11.4398C13.52 11.4398 12.025 11.3748 10.53 11.5048Z" fill="#FFCB92"/>
<path d="M14.17 10.9848C15.47 11.0498 16.77 10.9848 18.135 10.9848C19.435 10.9848 20.735 10.9848 22.1 10.9848C24.7 10.9848 27.365 10.9848 29.965 10.9848C35.165 10.9848 40.43 10.9848 45.63 10.9848C47.125 10.9848 48.555 10.9848 50.05 10.9848C51.545 10.9848 52.975 10.9848 54.47 10.9848C54.535 10.9848 54.535 10.8548 54.47 10.8548C51.87 10.7898 49.205 10.8548 46.605 10.8548C44.005 10.8548 41.34 10.8548 38.74 10.8548C33.54 10.8548 28.275 10.8548 23.075 10.8548C21.58 10.8548 20.15 10.8548 18.655 10.8548C17.095 10.9198 15.6 10.9198 14.17 10.9848C14.105 10.9848 14.105 10.9848 14.17 10.9848Z" fill="#FFCB92"/>
<path d="M12.935 12.2198C18.265 12.2848 23.66 12.2848 28.99 12.2848C34.32 12.2848 39.65 12.2848 44.98 12.2848C47.97 12.2848 50.96 12.2848 54.015 12.2848C54.145 12.2848 54.145 12.0898 54.015 12.0898C48.685 12.0248 43.29 12.0898 37.96 12.0898C32.63 12.0898 27.3 12.0898 21.97 12.0898C18.915 12.1548 15.925 12.1548 12.935 12.2198C12.87 12.2198 12.87 12.2198 12.935 12.2198Z" fill="#FFCB92"/>
<path d="M32.1099 10.8548L30.9399 6.75985L44.5249 4.09485L45.9549 10.8548H32.1099Z" fill="#FFC043"/>
<path d="M41.535 10.9848C41.34 9.16484 41.47 7.21484 42.055 5.45984C42.64 3.70484 43.81 2.07984 45.37 1.10484C45.24 2.01484 45.175 2.92484 45.24 3.83484C45.695 2.66484 46.865 1.94984 47.97 1.29984C48.75 0.844844 49.53 0.389844 50.44 0.324844C49.14 1.88484 48.49 3.89984 48.035 5.91484C47.645 7.53984 47.32 9.35984 47.905 10.9198L41.535 10.9848Z" fill="#E86A43"/>
<path d="M12.415 11.5048L13.715 5.58984L24.57 8.57984L23.855 11.5048H12.415Z" fill="#7FC133"/>
<path d="M15.86 20.0848C15.6 20.4098 15.405 20.7998 15.34 21.2548C15.34 21.3198 15.34 21.3848 15.34 21.4498C15.405 21.5798 15.6 21.5148 15.73 21.4498C17.485 20.3448 19.24 19.3048 20.995 18.1998C21.19 18.0698 21.385 17.9398 21.515 17.7448C21.645 17.5498 21.71 17.2898 21.58 17.0948C21.515 16.9648 21.385 16.8998 21.19 16.8348C20.02 16.3798 19.305 17.0948 18.395 17.6798C17.42 18.2648 16.575 19.1098 15.86 20.0848Z" fill="#413E49"/>
<path d="M50.245 19.6948C50.505 20.0198 50.7 20.4098 50.765 20.8648C50.765 20.9298 50.765 20.9949 50.765 21.0599C50.7 21.1899 50.505 21.1249 50.375 21.0599C48.62 19.9549 46.865 18.9148 45.11 17.8098C44.915 17.6798 44.72 17.5499 44.59 17.3549C44.46 17.1599 44.395 16.8999 44.525 16.7049C44.59 16.5749 44.72 16.5098 44.915 16.4448C46.085 15.9898 46.8 16.7049 47.71 17.2899C48.685 17.9399 49.595 18.7198 50.245 19.6948Z" fill="#413E49"/>
<path d="M33.4099 40.4948C33.3449 40.4948 33.3449 40.4948 33.4099 40.4948C33.3449 40.4948 33.2799 40.4948 33.2799 40.4948C30.2249 40.5598 27.1699 39.0648 25.2849 36.7248C25.5449 37.8298 25.8699 38.8698 26.1299 39.9748C26.5849 41.6648 27.0399 43.3548 27.8849 44.8498C28.7299 46.3448 30.0949 47.6448 31.7199 48.0998C32.2399 48.2298 32.8249 48.2948 33.3449 48.2948C33.8649 48.3598 34.4499 48.2948 34.9699 48.0998C36.5949 47.6448 37.9599 46.3448 38.8049 44.8498C39.6499 43.3548 40.1049 41.6648 40.5599 39.9748C40.8199 38.9348 41.1449 37.8298 41.4049 36.7248C39.5199 39.0648 36.3999 40.5598 33.4099 40.4948Z" fill="#413E49"/>
<path d="M33.345 40.4948C33.28 40.4948 33.215 40.4948 33.215 40.4948C30.875 40.5598 28.535 39.6498 26.715 38.2198C26.78 38.6748 26.78 39.1298 26.78 39.5848C26.78 39.7148 26.78 39.9098 26.845 40.0398C26.91 40.2348 27.04 40.4298 27.235 40.6248C28.34 41.8598 29.965 42.4448 31.59 42.7048C34.255 43.0948 37.05 42.4448 39.325 40.8848C39.455 40.8198 39.585 40.6898 39.715 40.4948C39.78 40.2998 39.78 40.0398 39.78 39.8448C39.715 39.3898 39.65 38.8698 39.585 38.4148C37.765 39.7798 35.555 40.5598 33.345 40.4948Z" fill="white"/>
<path d="M37.635 46.3448C37.635 46.2798 37.57 46.2148 37.505 46.0848C36.92 44.8498 35.49 44.0698 34.19 44.1998C33.605 44.2648 33.02 44.5248 32.89 45.0448C32.045 44.3948 30.81 44.3948 29.965 45.0448C29.38 45.4348 29.185 45.9548 29.12 46.4748C29.835 47.1898 30.68 47.7748 31.655 48.0348C32.175 48.1648 32.76 48.2298 33.28 48.2298C33.8 48.2948 34.385 48.2298 34.905 48.0348C35.945 47.7748 36.855 47.1898 37.635 46.3448Z" fill="#FF624D"/>
<path d="M24.6349 37.1798C24.5699 37.1148 24.5699 36.9198 24.5699 36.8548C24.5699 36.7248 24.5699 36.6598 24.5699 36.5298C24.6349 36.3348 24.6999 36.1398 24.8299 35.9448C24.9599 35.8148 25.1549 35.7498 25.3499 35.7498C25.5449 35.7498 25.7399 35.9448 25.8699 36.0098C25.9349 36.0748 25.9999 36.0098 25.9349 35.9448C25.8049 35.7498 25.6749 35.6198 25.4799 35.5548C25.2849 35.4898 25.0899 35.4898 24.8949 35.6198C24.5049 35.8148 24.3099 36.2698 24.3099 36.6598C24.3099 36.7898 24.3099 36.9198 24.3749 36.9848C24.5049 37.1798 24.5699 37.1798 24.6349 37.1798C24.6999 37.2448 24.6999 37.1798 24.6349 37.1798Z" fill="#413E49"/>
<path d="M40.7549 36.5948C40.8849 36.3998 41.0799 36.2048 41.3399 36.0748C41.5999 35.9448 41.8599 35.9448 42.0549 36.1398C42.5099 36.5298 42.2499 37.1798 42.1199 37.6998C42.1199 37.7648 42.1849 37.7648 42.1849 37.6998C42.4449 37.2448 42.6399 36.6598 42.3799 36.2048C42.2499 36.0098 42.1199 35.8798 41.9249 35.8148C41.6649 35.7498 41.4049 35.8148 41.2099 35.9448C41.0799 36.0098 41.0149 36.0748 40.9499 36.2048C40.7549 36.3348 40.7549 36.4648 40.7549 36.5948C40.6899 36.5948 40.6899 36.5948 40.7549 36.5948Z" fill="#413E49"/>
<path d="M18.72 59.0848C18.72 58.9548 18.785 58.8248 18.915 58.8248C18.98 58.8248 19.045 58.8248 19.175 58.8898C19.305 58.9548 19.37 58.9548 19.435 58.9548C19.5 58.9548 19.63 58.8898 19.695 58.8248C19.76 58.6948 19.825 58.6298 19.89 58.4348C20.02 58.1098 20.02 57.8498 20.02 57.5898C20.02 57.3298 19.955 57.0698 19.89 56.8098C19.825 56.5498 19.695 56.2898 19.565 56.0298C19.435 55.7698 19.305 55.5098 19.175 55.3148C18.85 54.7298 18.72 54.2098 18.72 53.6898C18.72 53.2348 18.85 52.8448 19.175 52.5848C19.305 52.4548 19.5 52.3898 19.695 52.3898C19.825 52.3898 19.89 52.3898 20.02 52.4548C20.15 52.5198 20.215 52.5848 20.215 52.7148L20.085 52.9098C19.955 52.9098 19.825 52.9098 19.76 52.8448C19.63 52.8448 19.565 52.9098 19.5 52.9748C19.37 53.1698 19.305 53.3648 19.305 53.6248C19.305 53.8848 19.305 54.1448 19.37 54.3398C19.435 54.5998 19.5 54.7948 19.63 54.9898C19.695 55.1848 19.825 55.3798 19.955 55.5748C20.085 55.7698 20.15 56.0298 20.28 56.2248C20.475 56.6798 20.605 57.1999 20.605 57.7199C20.605 58.1098 20.54 58.4348 20.345 58.8248C20.28 59.0198 20.15 59.1498 19.955 59.2148C19.825 59.3448 19.63 59.3449 19.435 59.3449C19.24 59.3449 19.045 59.3448 18.915 59.2798C18.785 59.2148 18.72 59.1498 18.72 59.0848Z" fill="#3972FF"/>
<path d="M22.1649 54.0149V55.1849L22.2299 57.1999L22.2949 58.8249C22.2949 59.0849 22.2299 59.2798 22.0349 59.2798C21.9699 59.2798 21.8399 59.2149 21.8399 59.1499C21.7749 59.0849 21.7749 58.9549 21.7749 58.8249L21.8399 57.3949C21.8399 57.0699 21.8399 56.6148 21.7749 56.0298C21.7099 55.4448 21.7099 54.9249 21.7099 54.6649V53.8849C21.7099 53.4299 21.7099 53.1699 21.6449 53.0399L21.1899 53.1048C21.1249 53.1048 21.0599 53.1049 20.9949 53.0399C20.9299 52.9749 20.9299 52.9099 20.9299 52.8449C20.9299 52.7799 20.9949 52.7149 21.1249 52.6499C21.2549 52.5849 21.4499 52.5849 21.6449 52.5199C21.9699 52.4549 22.2949 52.4548 22.5549 52.4548C22.6199 52.4548 22.6849 52.4549 22.7499 52.5199C22.8149 52.5849 22.8149 52.6499 22.8149 52.7149C22.8149 52.7799 22.8149 52.8449 22.7499 52.9099C22.6849 52.9749 22.6199 52.9749 22.5549 52.9749H22.2299C22.1649 52.9749 22.1649 52.9749 22.1649 52.9749C22.1649 53.2999 22.1649 53.6249 22.1649 54.0149Z" fill="#3972FF"/>
<path d="M23.14 54.3398V52.9748C23.075 52.9098 23.075 52.8448 23.075 52.7798C23.075 52.7148 23.075 52.6498 23.14 52.5848C23.205 52.5198 23.27 52.5198 23.335 52.5198C23.53 52.5198 23.66 52.7148 23.66 53.1698L23.725 56.2248C23.79 56.2898 23.79 56.4848 23.79 56.6798C23.79 56.9398 23.855 57.0698 23.855 57.1998C23.855 57.3298 23.855 57.5248 23.92 57.6548C23.985 57.8498 24.05 58.0448 24.115 58.2398C24.18 58.4348 24.31 58.6298 24.44 58.7598C24.57 58.8898 24.7 58.9548 24.765 58.9548C24.895 58.9548 24.96 58.9548 25.025 58.8898C25.09 58.8248 25.09 58.7599 25.155 58.6948C25.155 58.5649 25.22 58.3698 25.22 58.1748V56.4198C25.22 56.2248 25.22 55.9648 25.155 55.5748C25.09 55.1848 25.09 54.9248 25.09 54.7298V54.6648V54.1448L25.025 52.6498C25.025 52.5848 25.09 52.5198 25.155 52.4548C25.22 52.3898 25.285 52.3898 25.35 52.3898L25.545 52.5848V52.7148L25.48 53.2348C25.48 53.7548 25.48 54.4698 25.545 55.4448C25.61 56.4198 25.61 57.1348 25.61 57.4598C25.61 57.7848 25.61 58.0448 25.61 58.1748C25.61 58.3048 25.61 58.4348 25.545 58.5648C25.48 58.6948 25.48 58.8248 25.415 58.8898C25.285 59.0848 25.09 59.2148 24.765 59.2148C24.44 59.2148 24.115 59.0848 23.92 58.7598C23.66 58.4348 23.53 58.0448 23.465 57.5248C23.335 57.0048 23.27 56.4848 23.27 56.0949C23.14 55.5748 23.14 54.9248 23.14 54.3398Z" fill="#3972FF"/>
<path d="M28.4049 55.8999V56.0949C28.4049 56.4849 28.2749 57.0049 28.0799 57.5899C27.8199 58.2399 27.5599 58.6948 27.1699 58.9548C26.9749 59.0848 26.7799 59.2149 26.5849 59.2149C26.4549 59.2149 26.3899 59.2149 26.2599 59.1499C26.1949 59.0849 26.1299 59.0198 26.1299 58.9548C26.2599 58.8248 26.3249 58.4999 26.3249 57.9149C26.3249 57.5899 26.3249 57.0699 26.2599 56.4199C26.1949 55.7699 26.1949 55.3149 26.1949 54.9899V54.0149C26.1949 53.8849 26.1949 53.6249 26.1299 53.3649C26.0649 53.1049 26.0649 52.9098 26.0649 52.7798C26.0649 52.5848 26.2599 52.4548 26.7149 52.4548H26.8449C27.4299 52.4548 27.8849 52.7799 28.1449 53.4949C28.3399 53.9499 28.4049 54.5999 28.4049 55.4449V55.8349V55.8999ZM26.7799 57.8499V58.6949C26.9749 58.5649 27.1699 58.3699 27.3649 58.1099C27.4949 57.8499 27.6249 57.5899 27.7549 57.2649C27.8849 56.6799 28.0149 56.0949 28.0149 55.5099C28.0149 54.8599 27.9499 54.3399 27.7549 53.9499C27.5599 53.5599 27.3649 53.2999 27.1049 53.1699C26.9749 53.1049 26.7799 53.0399 26.5849 53.0399C26.5849 53.5599 26.6499 54.4049 26.7149 55.4449C26.7799 56.4849 26.7799 57.2649 26.7799 57.8499Z" fill="#3972FF"/>
<path d="M29.965 55.8998H29.77C29.705 55.8998 29.64 55.8998 29.575 55.9648V58.6949C29.9 58.6949 30.03 58.6949 30.03 58.6949C30.355 58.6949 30.55 58.7598 30.55 58.9548C30.485 59.0198 30.42 59.0848 30.355 59.1498C30.29 59.2148 30.16 59.2148 30.095 59.2148C30.03 59.2148 29.9 59.2148 29.835 59.2148H29.575C29.38 59.2148 29.25 59.1499 29.185 59.0849C29.185 59.0199 29.12 59.0198 29.12 58.9548V53.8199C29.12 53.6899 29.12 53.5598 29.055 53.3648C28.99 53.1698 28.99 53.0399 28.99 52.9099C29.055 52.7799 29.185 52.6499 29.185 52.5849L29.835 52.5199C29.9 52.5199 30.03 52.5199 30.095 52.5849C30.16 52.6499 30.225 52.7148 30.225 52.7798C30.225 52.9748 30.095 53.0398 29.835 53.0398H29.575C29.51 53.0398 29.51 53.0398 29.51 53.0398L29.575 54.5349C29.575 54.6649 29.575 54.7948 29.575 55.0548C29.575 55.2498 29.575 55.4448 29.575 55.5748C29.575 55.5748 29.64 55.5748 29.705 55.5748C29.835 55.5748 29.9 55.5099 29.965 55.5099C30.03 55.5099 30.095 55.5098 30.16 55.5748C30.225 55.6398 30.225 55.7049 30.225 55.7699C30.225 55.8349 30.225 55.8998 30.16 55.9648C30.03 55.8998 30.03 55.8998 29.965 55.8998Z" fill="#3972FF"/>
<path d="M30.9399 54.5348L31.0049 52.9098V52.8448C31.0049 52.5198 31.0699 52.3898 31.1999 52.3898C31.3299 52.3898 31.4599 52.6498 31.6549 53.2348C32.0449 54.2098 32.4349 55.8998 32.9549 58.1748V58.2398L33.0199 55.1198V52.5198C33.0849 52.3898 33.1499 52.3248 33.2799 52.3248C33.4099 52.3248 33.5399 52.4548 33.5399 52.6498C33.4749 52.7148 33.4749 52.7798 33.4749 52.9098L33.4099 56.1598V58.8898C33.4099 58.9548 33.4099 59.0848 33.3449 59.1498C33.2799 59.2148 33.2149 59.2798 33.1499 59.2798C33.0199 59.2798 32.7599 58.6948 32.4349 57.4598C32.1099 56.2248 31.7199 54.9248 31.3949 53.5598V56.4848C31.3949 56.7448 31.3949 57.1998 31.4599 57.7198C31.5249 58.3048 31.5249 58.6948 31.5249 58.9548C31.5249 59.0198 31.4599 59.0848 31.3949 59.0848C31.3299 59.1498 31.2649 59.1498 31.1349 59.1498C31.0049 59.1498 31.0049 59.0848 31.0049 59.0198L31.0699 58.3698C31.0699 58.0448 31.0699 57.5898 31.0049 56.8748C30.9399 56.1598 30.9399 55.7698 30.9399 55.6398V54.5348Z" fill="#3972FF"/>
<path d="M35.1649 54.0149V55.1849L35.2299 57.1999L35.2949 58.8249C35.2949 59.0849 35.2299 59.2798 35.0349 59.2798C34.9699 59.2798 34.8399 59.2149 34.8399 59.1499C34.7749 59.0849 34.7749 58.9549 34.7749 58.8249L34.8399 57.3949C34.8399 57.0699 34.8399 56.6148 34.7749 56.0298C34.7099 55.4448 34.7099 54.9249 34.7099 54.6649V53.8849C34.7099 53.4299 34.7099 53.1699 34.6449 53.0399L34.1899 53.1048C34.1249 53.1048 34.0599 53.1049 33.9949 53.0399C33.9299 52.9749 33.9299 52.9099 33.9299 52.8449C33.9299 52.7799 33.9949 52.7149 34.1249 52.6499C34.2549 52.5849 34.4499 52.5849 34.6449 52.5199C34.9699 52.4549 35.2949 52.4548 35.5549 52.4548C35.6199 52.4548 35.6849 52.4549 35.7499 52.5199C35.7499 52.5849 35.7499 52.6499 35.7499 52.7149C35.7499 52.7799 35.7499 52.8449 35.6849 52.9099C35.6199 52.9749 35.5549 52.9749 35.4899 52.9749H35.1649C35.0999 52.9749 35.0999 52.9749 35.0999 52.9749C35.0999 53.2999 35.1649 53.6249 35.1649 54.0149Z" fill="#3972FF"/>
<path d="M37.2449 56.8099L37.1799 53.2349V53.1699C37.1799 52.8449 37.2449 52.6499 37.3099 52.5849C37.3749 52.5199 37.4399 52.5199 37.5049 52.5199C37.8949 52.5199 38.2199 52.6499 38.4799 52.9099C38.7399 53.1699 38.8049 53.5598 38.8049 53.9498C38.8049 54.2098 38.7399 54.4699 38.6099 54.7949C38.4799 55.0549 38.2849 55.3149 38.0899 55.4449C38.4149 55.7049 38.6749 55.9648 38.8699 56.3548C38.9999 56.7448 39.1299 57.1348 39.1299 57.5248C39.1299 57.7198 39.0649 57.9798 38.9999 58.1748C38.8699 58.4348 38.8049 58.5649 38.6749 58.6949C38.5449 58.8249 38.4149 58.9549 38.2849 59.0199C38.0899 59.0849 37.8949 59.1498 37.6999 59.1498H37.6349C37.3749 59.1498 37.2449 59.0848 37.2449 58.9548V56.8099ZM37.7649 53.0398C37.6999 53.0398 37.6349 53.1698 37.6349 53.3648C37.6349 53.5598 37.6349 53.8848 37.6349 54.3398C37.6349 54.7948 37.6349 55.1198 37.6349 55.3148C37.7649 55.2498 37.8949 55.1848 38.0249 54.9248C38.0899 54.7298 38.1549 54.5348 38.2199 54.4048C38.2849 54.2098 38.2849 54.1448 38.3499 54.0798V53.7548C38.3499 53.5598 38.2849 53.4299 38.1549 53.2349C38.0899 53.1049 37.9599 53.0398 37.7649 53.0398ZM38.4149 58.3699C38.6099 58.1749 38.6749 57.9148 38.6749 57.5898C38.6749 57.2648 38.6749 57.0049 38.6099 56.8099C38.5449 56.6149 38.4799 56.4198 38.4799 56.2898C38.4149 56.1598 38.3499 56.0948 38.2849 56.0298C38.2199 55.8998 38.0899 55.8999 38.0249 55.8349H37.6999C37.6999 56.6799 37.7649 57.6549 37.7649 58.7599C38.0249 58.7599 38.2849 58.5649 38.4149 58.3699Z" fill="#3972FF"/>
<path d="M41.795 56.4848L41.73 57.5898V57.6548C41.665 57.8498 41.665 57.9798 41.665 58.1748C41.665 58.3698 41.6 58.5649 41.535 58.6948C41.47 58.8249 41.34 59.0198 41.21 59.1498C41.08 59.2798 40.95 59.3449 40.755 59.3449C40.625 59.3449 40.43 59.2798 40.3 59.1498C40.17 59.0198 40.04 58.8898 39.975 58.7598C39.91 58.5648 39.845 58.3698 39.78 58.1748C39.715 57.9148 39.65 57.7198 39.65 57.4598C39.65 57.2648 39.65 57.0698 39.65 56.8098C39.585 56.4198 39.585 56.1598 39.585 55.8998C39.585 55.7048 39.585 55.5098 39.585 55.3798C39.585 55.2498 39.585 55.1198 39.585 54.9898C39.585 54.9248 39.585 54.8598 39.585 54.7948C39.585 54.7298 39.585 54.6648 39.585 54.5348C39.585 54.3398 39.585 54.2098 39.585 54.0798C39.585 53.9498 39.585 53.8198 39.65 53.6248C39.65 53.4948 39.715 53.2998 39.715 53.2348C39.715 53.1048 39.78 52.9748 39.845 52.9098C39.91 52.7798 39.975 52.7148 40.04 52.6498C40.17 52.4548 40.365 52.3898 40.56 52.3898C40.755 52.3898 40.885 52.4548 41.015 52.5198C41.145 52.5848 41.275 52.7148 41.34 52.8448C41.405 52.9748 41.535 53.1698 41.6 53.2998C41.665 53.4298 41.73 53.6248 41.73 53.8848C41.795 54.1448 41.795 54.3398 41.795 54.4698C41.795 54.5998 41.86 54.8598 41.86 55.1198C41.86 55.5099 41.86 55.8348 41.86 56.0298V56.4848H41.795ZM41.015 53.2348C40.95 53.1048 40.885 52.9748 40.82 52.9098C40.755 52.8448 40.625 52.7798 40.56 52.7798C40.495 52.7798 40.43 52.7798 40.365 52.8448C40.3 52.9098 40.235 52.9748 40.235 53.1048C40.17 53.2348 40.17 53.3648 40.105 53.4298C40.105 53.5598 40.04 53.6898 40.04 53.8848C40.04 54.0798 40.04 54.2098 39.975 54.3398C39.975 54.4698 39.975 54.5998 39.975 54.7948C39.975 55.0548 39.975 55.2499 39.975 55.4448V55.5098C39.975 55.8998 39.975 56.3548 40.04 56.8098C40.105 57.2648 40.17 57.6548 40.235 57.9148C40.3 58.1748 40.365 58.4348 40.495 58.6298C40.625 58.8248 40.755 58.9548 40.885 58.9548C41.015 58.9548 41.08 58.8248 41.21 58.6298C41.275 58.4348 41.34 58.1098 41.405 57.7848C41.47 57.1998 41.47 56.8098 41.47 56.5498C41.47 56.2898 41.47 56.1598 41.47 56.0298C41.47 55.8998 41.47 55.7698 41.47 55.5748C41.47 55.3798 41.47 55.1848 41.405 54.9898C41.405 54.7948 41.34 54.5998 41.34 54.4048C41.34 54.2098 41.275 54.0148 41.21 53.8198C41.145 53.5598 41.08 53.4298 41.015 53.2348Z" fill="#3972FF"/>
<path d="M44.5899 56.4848L44.5249 57.5898V57.6548C44.4599 57.8498 44.4599 57.9798 44.4599 58.1748C44.4599 58.3698 44.3949 58.5648 44.3299 58.6948C44.2649 58.8898 44.1349 59.0198 44.0049 59.1498C43.8749 59.2798 43.7449 59.3448 43.5499 59.3448C43.4199 59.3448 43.2249 59.2798 43.0949 59.1498C42.9649 59.0198 42.8349 58.8898 42.7699 58.7598C42.7049 58.5648 42.6399 58.3698 42.5749 58.1748C42.5099 57.9148 42.4449 57.7198 42.4449 57.4598C42.3799 57.2648 42.3799 57.0048 42.3799 56.7448C42.3149 56.3548 42.3149 56.0948 42.3149 55.8348C42.3149 55.6398 42.3149 55.4448 42.3149 55.3148C42.3149 55.1848 42.3149 55.0548 42.3149 54.9248C42.3149 54.8598 42.3149 54.7948 42.3149 54.7298C42.3149 54.6648 42.3149 54.5998 42.3149 54.4698C42.3149 54.2748 42.3149 54.1448 42.3149 54.0148C42.3149 53.8848 42.3149 53.7548 42.3799 53.5598C42.3799 53.4298 42.4449 53.2348 42.4449 53.1698C42.4449 53.0398 42.5099 52.9098 42.5749 52.8448C42.6399 52.7148 42.7049 52.6498 42.7699 52.5848C42.8999 52.3898 43.0949 52.3248 43.2899 52.3248C43.4849 52.3248 43.6149 52.3898 43.7449 52.4548C43.8749 52.5198 44.0049 52.6498 44.0699 52.7798C44.1349 52.9098 44.2649 53.1048 44.3299 53.2348C44.3949 53.3648 44.4599 53.5598 44.4599 53.8198C44.5249 54.0798 44.5249 54.2748 44.5249 54.4048C44.5249 54.5348 44.5899 54.7948 44.5899 55.0548C44.5899 55.4448 44.5899 55.7698 44.5899 55.9648V56.4848ZM43.8099 53.2348C43.7449 53.1048 43.6799 52.9748 43.6149 52.9098C43.5499 52.8448 43.4199 52.7798 43.3549 52.7798C43.2899 52.7798 43.2249 52.7798 43.1599 52.8448C43.0949 52.9098 43.0299 52.9748 43.0299 53.1048C42.9649 53.2348 42.9649 53.3648 42.8999 53.4298C42.8999 53.5598 42.8349 53.6898 42.8349 53.8848C42.8349 54.0798 42.8349 54.2098 42.7699 54.3398C42.7699 54.4698 42.7699 54.5998 42.7699 54.7948C42.7699 55.0548 42.7699 55.2498 42.7699 55.4448V55.5098C42.7699 55.8998 42.7699 56.3548 42.8349 56.8098C42.8999 57.2648 42.9649 57.6548 43.0299 57.9148C43.0949 58.1748 43.1599 58.4348 43.2899 58.6298C43.4199 58.8248 43.5499 58.9548 43.6799 58.9548C43.8099 58.9548 43.8749 58.8248 44.0049 58.6298C44.0699 58.4348 44.1349 58.1098 44.1999 57.7848C44.1349 57.1998 44.1999 56.7448 44.1999 56.5498C44.1999 56.2898 44.1999 56.1598 44.1999 56.0298C44.1999 55.8998 44.1999 55.7698 44.1999 55.5748C44.1999 55.3798 44.1999 55.1848 44.1349 54.9898C44.1349 54.7948 44.0699 54.5998 44.0699 54.4048C44.0699 54.2098 44.0049 54.0148 43.9399 53.8198C43.9399 53.5598 43.8749 53.4298 43.8099 53.2348Z" fill="#3972FF"/>
<path d="M45.3049 56.2899V54.5999C45.3049 54.2749 45.3049 53.9499 45.2399 53.5599C45.1749 53.1699 45.1749 52.9099 45.1749 52.7799C45.1749 52.6499 45.1749 52.5849 45.2399 52.5199C45.3049 52.4549 45.3699 52.4549 45.4349 52.4549C45.6299 52.4549 45.7599 52.7149 45.7599 53.1699C45.7599 53.1699 45.7599 53.7549 45.6949 54.9899C45.6949 54.9249 45.7599 54.7949 45.8899 54.5349C45.9549 54.2749 46.0849 54.0799 46.1499 53.8199C46.2799 53.5599 46.3449 53.2999 46.4749 53.0399C46.7349 52.4549 46.9299 52.1949 46.9949 52.1949C47.0599 52.1949 47.1249 52.1949 47.1899 52.2599C47.2549 52.3249 47.2549 52.3899 47.2549 52.3899C47.2549 52.4549 47.1249 52.8449 46.7999 53.4949C46.4749 54.1449 46.2799 54.5999 46.2799 54.7949V54.9249C46.3449 55.1199 46.6049 55.8349 46.9949 57.0699C47.3849 58.3049 47.5799 58.9549 47.5799 59.0199C47.5799 59.0849 47.5799 59.1499 47.5149 59.2149C47.4499 59.2799 47.3849 59.2799 47.3199 59.2799L47.1249 59.2149C46.9949 58.3699 46.7999 57.6549 46.6699 57.0049C46.5399 56.3549 46.2799 55.7699 46.0849 55.2499C45.8899 55.5749 45.8249 55.7699 45.8249 55.8349C45.8249 56.0299 45.8249 56.1599 45.8249 56.2899L45.8899 57.9149V58.6299C45.8899 58.9549 45.7599 59.0849 45.5649 59.0849C45.3699 59.0849 45.3049 58.9549 45.3049 58.6299C45.3049 58.3049 45.3049 57.9149 45.3699 57.3949C45.2399 57.0049 45.3049 56.5499 45.3049 56.2899Z" fill="#3972FF"/>
<path d="M17.485 24.0498C17.095 25.6098 17.42 27.2998 17.875 28.7948C18.395 30.4848 19.11 32.1098 20.345 33.2798C21.58 34.4498 23.53 34.9698 24.96 34.1248C25.675 33.6698 26.26 32.9548 26.585 32.1748C26.91 31.3298 27.04 30.4848 27.105 29.5748C27.235 27.8198 27.04 25.9998 26.52 24.2448C26.325 23.5298 26.065 22.8148 25.61 22.2298C24.57 20.7998 22.685 20.2798 21.125 20.8648C20.41 21.1248 19.565 21.2548 18.915 21.7098C18.2 22.2948 17.68 23.1398 17.485 24.0498Z" fill="#3B82FF"/>
<path d="M17.81 24.8948C17.42 26.3898 17.745 28.0148 18.2 29.5098C18.72 31.1348 19.37 32.7598 20.605 33.9298C21.84 35.0348 23.66 35.5548 25.025 34.7748C25.74 34.3848 26.26 33.6698 26.585 32.8898C26.91 32.1098 27.04 31.1998 27.105 30.3548C27.235 28.5998 27.04 26.8448 26.52 25.2198C26.325 24.5048 26.065 23.8548 25.61 23.2698C24.57 21.8398 22.815 21.3848 21.255 21.9048C20.54 22.1648 19.76 22.2298 19.11 22.7498C18.525 23.2698 18.005 24.0498 17.81 24.8948Z" fill="#FFF3E9"/>
<path d="M26.585 25.2198C26.39 24.5048 26.13 23.8548 25.675 23.2698C25.285 22.7498 24.83 22.3598 24.31 22.0998C24.44 22.2298 24.505 22.3598 24.635 22.4898C25.025 23.0748 25.285 23.7898 25.545 24.4398C26 26.1298 26.195 27.8848 26.13 29.5748C26.065 30.4198 25.935 31.3298 25.61 32.1098C25.285 32.8898 24.765 33.6048 24.05 33.9948C23.01 34.5798 21.71 34.4498 20.605 33.8648L20.67 33.9298C21.905 35.0348 23.725 35.5548 25.09 34.7748C25.805 34.3848 26.325 33.6698 26.65 32.8898C26.975 32.1098 27.105 31.1998 27.17 30.3548C27.235 28.6648 27.04 26.8448 26.585 25.2198Z" fill="#FFE7C0"/>
<path d="M20.02 27.7548C19.89 28.4048 19.955 29.1198 20.15 29.7698C20.345 30.6798 20.735 31.5248 21.45 32.1098C22.1 32.6948 23.14 32.8248 23.79 32.3048C23.985 32.1098 24.18 31.9148 24.31 31.6548C24.96 30.4848 25.025 28.9248 24.375 27.6248C24.115 27.0398 23.66 26.4548 23.075 26.1948C21.84 25.6098 20.28 26.3898 20.02 27.7548Z" fill="#413E49"/>
<path d="M20.735 28.8599C20.735 29.0549 20.8 29.2499 20.995 29.3149C21.06 29.3799 21.19 29.3799 21.32 29.3149C21.645 29.2499 21.905 28.9249 22.035 28.5999C22.23 28.2099 22.36 27.7549 22.36 27.2349C22.295 26.5199 21.58 26.1949 21.125 26.7149C20.67 27.2349 20.67 28.2749 20.735 28.8599Z" fill="white"/>
<path opacity="0.3" d="M18.4601 28.5998C18.5251 29.5748 18.8501 30.4848 19.4351 31.1998C19.5001 31.2648 19.6301 31.3948 19.6951 31.2648C19.7601 31.1998 19.6951 31.1348 19.6951 31.0698C19.2401 29.3798 18.7851 27.6248 19.1101 25.9348C19.1101 25.8048 19.1751 25.6098 19.0451 25.4798C18.5901 25.7398 18.5251 26.3898 18.4601 26.8448C18.4601 27.4948 18.4601 28.0798 18.4601 28.5998Z" fill="white"/>
<path d="M19.76 24.5048C20.41 24.1148 21.19 23.9198 21.97 23.8548C22.75 23.7898 23.53 23.7898 24.31 23.9848C25.09 24.1798 25.805 24.5698 26.325 25.0898C26.13 24.1148 25.415 23.2698 24.505 22.8148C23.595 22.3598 22.555 22.1648 21.58 22.2298C21.06 22.2298 20.605 22.3598 20.085 22.5548C19.175 22.9448 18.46 23.7248 18.07 24.5698C17.875 24.9598 17.745 25.4148 17.68 25.8048C17.615 26.0648 17.485 26.7148 17.745 26.9098C17.94 27.1048 18.07 26.4548 18.2 26.2598C18.395 25.9348 18.59 25.5448 18.785 25.2848C19.045 25.0248 19.37 24.6998 19.76 24.5048Z" fill="#FFE7C0"/>
<path d="M18.3301 25.2198C18.9151 24.2448 19.6301 23.9198 20.4101 23.6598C20.7351 23.5948 21.0601 23.5298 21.3851 23.4648C22.4251 23.3348 23.4651 23.3348 24.5051 23.5298C25.1551 23.6598 26.1301 24.2448 26.5201 24.8298C26.2601 24.3748 25.8701 23.3998 25.6101 22.8798C25.5451 22.6848 25.4151 22.4898 25.2851 22.3598C25.1551 22.1648 24.9601 22.0998 24.765 21.9698C24.3751 21.7098 23.9201 21.5148 23.4651 21.3848C23.0101 21.2548 22.4901 21.3198 22.0351 21.3198C20.8001 21.4498 19.5651 21.7748 18.6551 22.5548C18.0051 23.1398 17.6151 23.9198 17.4851 24.7648C17.3551 25.4798 17.2901 27.1048 17.6151 27.8198C17.7451 27.7548 17.9401 25.9348 18.3301 25.2198Z" fill="#3B82FF"/>
<path opacity="0.34" d="M18.2 23.3348C17.745 23.9848 17.615 24.8298 17.745 25.6098C17.81 24.8298 18.2 24.1148 18.72 23.5948C19.24 23.0098 19.89 22.6198 20.605 22.3598C20.93 22.2298 21.255 22.1648 21.515 21.9048C21.515 21.9048 21.58 21.8398 21.58 21.7748C21.58 21.6448 21.45 21.6448 21.32 21.5798C20.15 21.5798 18.85 22.3598 18.2 23.3348Z" fill="white"/>
<path d="M41.34 22.3598C40.43 23.6598 40.105 25.3498 39.975 26.9748C39.845 28.7298 39.91 30.5498 40.625 32.1098C41.34 33.6698 42.965 34.8398 44.59 34.5798C45.435 34.4498 46.215 33.9948 46.8 33.3448C47.385 32.6948 47.905 31.9148 48.23 31.1348C49.01 29.5098 49.465 27.7548 49.66 25.9998C49.725 25.2848 49.725 24.5048 49.53 23.7898C49.075 22.0348 47.515 20.9298 45.825 20.8648C45.045 20.8648 44.265 20.6698 43.485 20.8648C42.705 21.0598 41.86 21.6448 41.34 22.3598Z" fill="#3B82FF"/>
<path d="M41.34 23.3348C40.43 24.5698 40.17 26.2598 40.04 27.8198C39.91 29.5098 39.975 31.2648 40.69 32.7598C41.405 34.2548 42.9 35.4248 44.525 35.1648C45.37 35.0348 46.085 34.5798 46.67 33.9948C47.255 33.4098 47.71 32.6298 48.1 31.8498C48.815 30.2898 49.335 28.5998 49.465 26.8448C49.53 26.1298 49.53 25.3498 49.4 24.6998C49.01 23.0098 47.45 21.9048 45.825 21.8398C45.045 21.8398 44.33 21.6448 43.55 21.8398C42.575 22.0348 41.86 22.5548 41.34 23.3348Z" fill="#FFF3E9"/>
<path d="M49.4 26.7798C49.465 26.0648 49.465 25.2848 49.335 24.6348C49.205 23.9848 48.88 23.4648 48.49 23.0098C48.555 23.1398 48.62 23.3348 48.62 23.4648C48.815 24.1798 48.75 24.8948 48.685 25.6098C48.555 27.3648 48.035 29.0548 47.32 30.6148C46.93 31.3948 46.475 32.1748 45.89 32.7598C45.305 33.3448 44.525 33.8648 43.745 33.9298C42.575 34.1248 41.405 33.4748 40.625 32.5648C40.625 32.6298 40.625 32.6298 40.69 32.6948C41.405 34.1898 42.9 35.3598 44.525 35.0998C45.37 34.9698 46.085 34.5148 46.67 33.9298C47.255 33.3448 47.71 32.5648 48.1 31.7848C48.75 30.2248 49.205 28.5348 49.4 26.7798Z" fill="#FFE7C0"/>
<path d="M42.38 26.7798C41.99 27.3648 41.86 28.0148 41.795 28.7298C41.665 29.6398 41.73 30.6148 42.12 31.3948C42.51 32.1748 43.42 32.6948 44.265 32.4348C44.525 32.3698 44.785 32.1748 44.98 32.0448C46.02 31.1998 46.605 29.7698 46.54 28.3398C46.475 27.6898 46.28 26.9748 45.825 26.5198C44.85 25.4798 43.095 25.6098 42.38 26.7798Z" fill="#413E49"/>
<path d="M42.64 28.0798C42.575 28.2748 42.575 28.4698 42.705 28.5998C42.77 28.6648 42.9 28.7298 42.965 28.7298C43.29 28.7948 43.615 28.5998 43.94 28.3398C44.265 28.0148 44.59 27.6248 44.72 27.2348C44.915 26.5198 44.395 25.9998 43.745 26.2598C43.095 26.5198 42.77 27.4948 42.64 28.0798Z" fill="white"/>
<path opacity="0.3" d="M40.625 27.0398C40.3 27.9498 40.3 28.9248 40.56 29.8348C40.56 29.9648 40.69 30.0948 40.755 30.0298C40.82 30.0298 40.82 29.9648 40.82 29.8998C41.015 28.2098 41.21 26.3898 42.185 24.9598C42.25 24.8298 42.38 24.6998 42.315 24.5698C41.795 24.6348 41.535 25.2198 41.275 25.6098C41.015 25.9998 40.755 26.5198 40.625 27.0398Z" fill="white"/>
<path d="M43.29 23.6598C44.07 23.5298 44.85 23.6598 45.565 23.9198C46.28 24.1148 47.06 24.4398 47.645 24.8948C48.295 25.3498 48.815 25.9348 49.14 26.6498C49.27 25.6748 48.945 24.6348 48.295 23.8548C47.645 23.0748 46.735 22.5548 45.76 22.2298C45.305 22.0998 44.785 21.9698 44.265 21.9698C43.29 21.9698 42.315 22.4248 41.665 23.1398C41.34 23.4648 41.08 23.7898 40.885 24.1798C40.755 24.3748 40.365 24.9598 40.495 25.2198C40.625 25.4798 41.015 24.8948 41.145 24.7648C41.405 24.5048 41.73 24.2448 42.055 24.0498C42.445 23.8548 42.835 23.7248 43.29 23.6598Z" fill="#FFE7C0"/>
<path d="M41.73 23.7898C42.64 23.0748 43.42 23.0098 44.2 23.0748C44.525 23.0748 44.85 23.1398 45.175 23.2698C46.215 23.5298 47.19 23.9198 48.1 24.4398C48.685 24.7648 49.335 25.6748 49.53 26.3898C49.465 25.8698 49.465 24.7648 49.4 24.2448C49.4 24.0498 49.335 23.8548 49.27 23.6598C49.205 23.4648 49.075 23.2698 48.88 23.1398C48.555 22.7498 48.295 22.4248 47.905 22.1648C47.515 21.9048 47.06 21.7098 46.605 21.5798C45.435 21.2548 44.135 21.0598 42.965 21.5148C42.185 21.8398 41.535 22.4248 41.08 23.0748C40.69 23.6598 40.04 25.2198 40.04 25.9348C40.235 25.9348 41.08 24.3098 41.73 23.7898Z" fill="#3B82FF"/>
<path opacity="0.34" d="M42.25 22.0348C41.6 22.4898 41.145 23.2048 40.95 23.9848C41.275 23.3348 41.925 22.8148 42.575 22.4898C43.29 22.1648 44.005 22.0348 44.785 22.0348C45.11 22.0348 45.5 22.0998 45.76 21.9048C45.825 21.9048 45.825 21.8398 45.825 21.8398C45.89 21.7748 45.76 21.6448 45.695 21.5798C44.72 21.0598 43.225 21.3198 42.25 22.0348Z" fill="white"/>
</g>
<defs>
<clipPath id="clip0_202_959">
<rect width="65" height="65" fill="white"/>
</clipPath>
</defs>
</svg>
