<svg width="88" height="86" viewBox="0 0 88 86" fill="none" xmlns="http://www.w3.org/2000/svg">
<g clip-path="url(#clip0_202_1135)">
<path d="M59.887 28.2222C56.125 25.8284 51.6136 24.6883 47.196 24.8849C36.0648 25.3478 26.3399 33.7686 25.6158 45.8651C25.3764 50.2848 26.3878 54.8727 28.6457 58.7566C30.9322 62.5532 34.4064 65.5299 38.4275 67.4282C42.4192 69.2686 46.9578 70.0307 51.3438 69.34C55.7298 68.6494 59.8472 66.5648 63.0587 63.5545C66.2703 60.5442 68.692 56.5496 69.7169 52.2422C70.799 47.7601 70.3102 43.0533 68.5155 38.7892C66.8369 34.4663 63.795 30.7607 59.887 28.2222Z" fill="#FF986D"/>
<path d="M72.8893 29.872C71.8088 28.8891 70.3282 29.2744 69.139 29.8037C67.6019 30.509 66.1815 31.301 64.7618 32.2384C64.7038 32.2678 64.6458 32.2971 64.6458 32.2971C64.6752 32.3551 64.7339 32.4711 64.7633 32.5291C64.7926 32.5871 64.88 32.6157 64.9094 32.6737C64.9387 32.7317 65.0554 32.8183 65.0848 32.8763C65.5773 32.5541 66.0993 32.2898 66.5918 31.9676C67.6643 31.3517 68.8821 30.7352 70.072 30.3513C70.5073 30.2037 71.0879 30.0555 71.5247 30.1986C71.9615 30.3418 72.2536 30.631 72.4591 31.0369C72.9289 31.9648 72.7307 33.0123 72.2117 33.8579C71.6354 34.8782 70.8551 35.7833 70.0748 36.6884C69.2658 37.6808 68.4275 38.6152 67.5892 39.5496C65.9126 41.4185 64.1772 43.1714 62.3545 44.8956C58.7092 48.3441 54.7422 51.4454 50.6285 54.2567C46.4275 57.0394 41.9923 59.5035 37.4389 61.5903C35.1185 62.6194 32.8268 63.5611 30.4183 64.4162C29.3738 64.7994 28.3872 65.1532 27.2545 65.3624C26.4706 65.5407 25.4825 65.6038 24.725 65.2588C24.4336 65.1149 24.2002 64.9417 24.0827 64.7097C23.8464 63.9551 23.8427 63.2284 24.1584 62.4129C24.4153 61.4813 24.8763 60.6651 25.308 59.7908C25.5385 59.3827 25.7396 58.9166 25.9987 58.4211C26.1999 57.955 26.5177 57.5755 26.8062 57.138C27.0661 56.7879 27.268 56.4671 27.5278 56.117C27.4398 55.943 27.3223 55.711 27.2342 55.5371C27.1182 55.5958 27.0316 55.7125 26.9156 55.7712C26.3365 56.2102 25.874 56.7357 25.3535 57.2907C24.8331 57.8456 24.3126 58.4005 23.9382 59.1001C23.5345 59.7416 23.2475 60.4698 22.9311 61.14C22.3563 62.451 21.8996 64.1393 23.0682 65.2962C23.3897 65.6434 23.8859 66.0479 24.4101 66.2197C24.9342 66.3914 25.4869 66.4759 26.0389 66.415C27.2596 66.3798 28.4496 65.9959 29.5815 65.6414C31.0613 65.1107 32.5412 64.58 34.0211 64.0493C36.8641 62.9013 39.7064 61.608 42.432 60.228C47.9697 57.3514 53.1853 53.9822 58.0492 50.0625C62.8551 46.1722 67.2809 41.8186 71.2397 37.1185C72.1353 36.0094 73.2342 34.8702 73.7216 33.5306C74.0351 32.279 73.8531 30.7683 72.8893 29.872Z" fill="white"/>
<path d="M43.5873 29.8449C43.5286 29.7289 43.4119 29.6423 43.2952 29.5557C43.2078 29.5271 43.1205 29.4984 43.0038 29.4118C42.8291 29.3546 42.5964 29.3267 42.4224 29.4147C42.3064 29.4735 42.2484 29.5028 42.1031 29.5036C41.9291 29.5916 41.7845 29.7377 41.6399 29.8838C41.5819 29.9131 41.5533 30.0005 41.4953 30.0299C41.4087 30.1466 41.3514 30.3213 41.3228 30.4086C41.2655 30.5833 41.2662 30.7287 41.325 30.8447C41.3257 30.99 41.4138 31.164 41.5305 31.2506C41.5892 31.3666 41.7059 31.4532 41.8226 31.5398C41.91 31.5684 41.9973 31.5971 42.114 31.6837C42.2888 31.741 42.5214 31.7689 42.6954 31.6808C42.8114 31.6221 42.8694 31.5927 43.0147 31.592C43.1887 31.5039 43.3333 31.3578 43.4779 31.2117C43.5359 31.1824 43.5646 31.095 43.6225 31.0657C43.7092 30.9489 43.7664 30.7742 43.7951 30.6869C43.8523 30.5122 43.8516 30.3668 43.7929 30.2509C43.7048 30.0769 43.6461 29.9609 43.5873 29.8449Z" fill="#E6EAEC"/>
<path d="M41.633 40.0871C40.3572 40.733 41.3848 42.7627 42.6606 42.1168C43.9944 41.4415 42.9668 39.4118 41.633 40.0871Z" fill="#E6EAEC"/>
<path d="M51.8857 32.5648C50.7839 33.1226 51.6353 34.8044 52.7372 34.2465C53.8683 33.7466 52.9875 32.0069 51.8857 32.5648Z" fill="#E6EAEC"/>
<path d="M56.113 40.7701C55.9082 40.5095 55.5874 40.3077 55.2673 40.2511C54.9179 40.1366 54.6273 40.1381 54.2786 40.1689C53.9593 40.2577 53.6113 40.4339 53.3507 40.6387L53.2927 40.668C53.0321 40.8728 52.8303 41.1936 52.7157 41.543C52.6012 41.8924 52.5447 42.2124 52.6629 42.5898C52.781 42.9671 52.9278 43.257 53.162 43.5756C53.3668 43.8362 53.6876 44.0381 54.037 44.1526C54.3864 44.2671 54.7064 44.3236 55.0837 44.2055C55.461 44.0873 55.751 43.9405 56.0696 43.7063C56.3302 43.5015 56.532 43.1808 56.6466 42.8314C56.7611 42.4819 56.8176 42.1619 56.6994 41.7846L56.6701 41.7266C56.4939 41.3787 56.3178 41.0307 56.113 40.7701Z" fill="#E6EAEC"/>
<path d="M46.7661 49.2181C46.62 49.0735 46.4159 48.9583 46.2412 48.901C46.1539 48.8724 46.0085 48.8731 45.9212 48.8445C45.6885 48.8166 45.4852 48.8467 45.2532 48.9641C45.0792 49.0522 44.9632 49.1109 44.906 49.2856C44.8194 49.4023 44.7327 49.5191 44.6755 49.6938C44.6182 49.8685 44.6189 50.0138 44.6197 50.1591C44.6204 50.3045 44.6505 50.5078 44.7092 50.6238C44.7679 50.7398 44.7973 50.7978 44.914 50.8844C45.0601 51.029 45.2642 51.1443 45.4389 51.2015C45.5262 51.2302 45.6715 51.2294 45.7589 51.258C45.9916 51.2859 46.1949 51.2559 46.4269 51.1384C46.6009 51.0503 46.7168 50.9916 46.7741 50.8169C46.8607 50.7002 46.9474 50.5835 47.0046 50.4088C47.0619 50.2341 47.0611 50.0887 47.0604 49.9434C47.0597 49.798 47.001 49.6821 46.9129 49.5081C46.8835 49.4501 46.8248 49.3341 46.7661 49.2181Z" fill="#E6EAEC"/>
<path d="M63.7352 47.7666C60.7777 49.264 63.0972 53.8453 66.0547 52.3479C69.0123 50.8505 66.6928 46.2692 63.7352 47.7666Z" fill="#E6EAEC"/>
<path d="M56.9707 55.2714C56.8246 55.1268 56.7079 55.0402 56.5332 54.9829C56.4459 54.9543 56.3585 54.9257 56.2711 54.897C56.0678 54.9271 55.9225 54.9279 55.7485 55.0159C55.6325 55.0747 55.5165 55.1334 55.4299 55.2501C55.3433 55.3668 55.2567 55.4835 55.228 55.5709C55.1414 55.6876 55.1422 55.8329 55.2009 55.9489C55.2016 56.0942 55.2023 56.2396 55.319 56.3262C55.3484 56.3842 55.4071 56.5002 55.4945 56.5288C55.6406 56.6734 55.7573 56.76 55.932 56.8173C56.0193 56.8459 56.1067 56.8746 56.194 56.9032C56.3974 56.8731 56.5427 56.8724 56.7167 56.7843C56.8327 56.7256 56.9486 56.6668 57.0353 56.5501C57.1219 56.4334 57.2085 56.3167 57.2371 56.2294C57.3238 56.1127 57.323 55.9673 57.2643 55.8513C57.2636 55.706 57.2628 55.5606 57.1461 55.474C57.0874 55.358 57.058 55.3 56.9707 55.2714Z" fill="#E6EAEC"/>
<path d="M62.8936 36.463C62.7181 36.2604 62.5141 36.1451 62.252 36.0592C62.1647 36.0306 62.0193 36.0313 61.932 36.0027C61.6993 35.9748 61.4379 36.0342 61.206 36.1517C61.032 36.2398 60.8874 36.3858 60.8008 36.5025C60.6562 36.6486 60.5695 36.7653 60.5416 36.998C60.4844 37.1727 60.4271 37.3474 60.4572 37.5508C60.4873 37.7541 60.488 37.8994 60.5761 38.0734C60.6348 38.1894 60.7515 38.276 60.8103 38.392C60.9857 38.5946 61.1898 38.7098 61.4518 38.7957C61.5392 38.8244 61.6845 38.8236 61.7719 38.8523C62.0046 38.8802 62.2659 38.8207 62.4979 38.7033C62.6718 38.6152 62.8164 38.4691 62.9031 38.3524C63.0477 38.2063 63.1343 38.0896 63.1622 37.8569C63.2194 37.6822 63.2767 37.5075 63.2466 37.3042C63.2165 37.1009 63.1284 36.9269 63.0404 36.7529C62.9816 36.6369 62.9523 36.5789 62.8936 36.463Z" fill="#E6EAEC"/>
<path d="M35.6835 42.0064C34.8137 42.4468 35.489 43.7806 36.3588 43.3402C37.2287 42.8997 36.5534 41.566 35.6835 42.0064Z" fill="#E6EAEC"/>
<path d="M46.406 35.412C46.2893 35.3254 46.1726 35.2387 46.0853 35.2101C45.9979 35.1815 45.9399 35.2108 45.9105 35.1529C45.7652 35.1536 45.6199 35.1543 45.5039 35.213C45.3879 35.2718 45.3299 35.3011 45.2433 35.4178C45.1273 35.4766 45.0987 35.5639 45.0994 35.7092C45.0708 35.7966 45.0421 35.884 45.0429 36.0293C45.0142 36.1166 45.073 36.2326 45.1317 36.3486C45.161 36.4066 45.1904 36.4646 45.2198 36.5226C45.3365 36.6092 45.4532 36.6958 45.5405 36.7245L45.7153 36.7817C45.8606 36.781 46.0059 36.7803 46.1219 36.7215C46.2379 36.6628 46.2959 36.6334 46.3825 36.5167C46.4985 36.458 46.5271 36.3707 46.5264 36.2253C46.555 36.138 46.5837 36.0506 46.5829 35.9053C46.6116 35.8179 46.5528 35.7019 46.4941 35.586C46.4647 35.528 46.4354 35.47 46.406 35.412Z" fill="#E6EAEC"/>
<path d="M52.4528 47.0675C51.409 47.596 52.2017 49.1617 53.2455 48.6333C54.3187 48.1628 53.4966 46.539 52.4528 47.0675Z" fill="#E6EAEC"/>
<path d="M49.216 62.4032C48.8944 62.056 48.457 61.7675 48.0202 61.6243C47.7875 61.5964 47.5254 61.5105 47.2928 61.4826C46.7694 61.4562 46.3047 61.5458 45.8408 61.7806C45.4928 61.9568 45.1743 62.191 44.9724 62.5117C44.7412 62.7745 44.5393 63.0953 44.4248 63.4447C44.3102 63.7941 44.2831 64.1721 44.3139 64.5208C44.2867 64.8989 44.4049 65.2762 44.5811 65.6241C44.7565 65.8267 44.8739 66.0587 45.0494 66.2613C45.3709 66.6085 45.8084 66.897 46.2451 67.0401C46.4778 67.068 46.7399 67.1539 46.9726 67.1818C47.4959 67.2083 47.9606 67.1187 48.4245 66.8838C48.7725 66.7077 49.0911 66.4735 49.2929 66.1527C49.5242 65.89 49.726 65.5692 49.8406 65.2198C49.9551 64.8704 49.9822 64.4923 49.9514 64.1437C49.9786 63.7656 49.8604 63.3883 49.6843 63.0404C49.5088 62.8378 49.3334 62.6352 49.216 62.4032Z" fill="#E6EAEC"/>
<path d="M19.7624 49.5574L17.4993 50.4118L16.9296 52.7402L15.4667 50.858L13.026 51.0738L14.3238 49.0324L13.4408 46.8567L15.7692 47.4263L17.622 45.9054L17.7504 48.3175L19.7624 49.5574Z" fill="white"/>
<path d="M50.813 15.768L47.8122 14.4459L45.1174 16.1745L45.392 12.9755L42.8816 10.8952L46.0755 10.1524L47.2523 7.15233L48.8943 9.9638L52.1219 10.1511L50.0122 12.6035L50.813 15.768Z" fill="white"/>
<path d="M81.5235 47.3574L79.579 47.9776L79.0072 49.87L77.807 48.2191L75.8016 48.2873L77.0143 46.6534L76.3361 44.7382L78.2578 45.3681L79.9087 44.1679L79.8896 46.1447L81.5235 47.3574Z" fill="white"/>
</g>
<defs>
<clipPath id="clip0_202_1135">
<rect width="65" height="65" fill="white" transform="translate(0 27.3606) rotate(-26.853)"/>
</clipPath>
</defs>
</svg>
