<svg width="88" height="88" viewBox="0 0 88 88" fill="none" xmlns="http://www.w3.org/2000/svg">
<g clip-path="url(#clip0_202_841)">
<path d="M59.887 30.2225C56.125 27.8286 51.6136 26.6885 47.196 26.8852C36.0648 27.3481 26.3399 35.7689 25.6158 47.8653C25.3764 52.2851 26.3878 56.8729 28.6457 60.7569C30.9322 64.5534 34.4064 67.5301 38.4275 69.4285C42.4192 71.2688 46.9578 72.0309 51.3438 71.3403C55.7298 70.6496 59.8472 68.565 63.0587 65.5548C66.2703 62.5445 68.692 58.5498 69.7169 54.2424C70.799 49.7603 70.3102 45.0536 68.5155 40.7894C66.8369 36.4665 63.795 32.7609 59.887 30.2225Z" fill="#FF986D"/>
<path d="M72.8892 31.8723C71.8087 30.8893 70.3281 31.2747 69.1389 31.8039C67.6018 32.5093 66.1814 33.3013 64.7617 34.2386C64.7037 34.268 64.6457 34.2974 64.6457 34.2974C64.6751 34.3554 64.7338 34.4713 64.7632 34.5293C64.7925 34.5873 64.8799 34.6159 64.9092 34.6739C64.9386 34.7319 65.0553 34.8185 65.0847 34.8765C65.5772 34.5543 66.0991 34.2901 66.5917 33.9678C67.6642 33.352 68.882 32.7354 70.0719 32.3515C70.5072 32.204 71.0878 32.0557 71.5246 32.1989C71.9613 32.342 72.2535 32.6313 72.459 33.0372C72.9288 33.965 72.7306 35.0125 72.2116 35.8581C71.6353 36.8785 70.855 37.7835 70.0747 38.6886C69.2657 39.681 68.4274 40.6155 67.5891 41.5499C65.9125 43.4187 64.1771 45.1716 62.3544 46.8959C58.709 50.3444 54.7421 53.4456 50.6284 56.257C46.4274 59.0396 41.9921 61.5038 37.4388 63.5906C35.1184 64.6196 32.8267 65.5614 30.4182 66.4165C29.3736 66.7996 28.3871 67.1534 27.2544 67.3626C26.4704 67.541 25.4824 67.6041 24.7249 67.259C24.4335 67.1152 24.2 66.9419 24.0826 66.71C23.8462 65.9553 23.8426 65.2286 24.1583 64.4131C24.4152 63.4816 24.8762 62.6653 25.3078 61.7911C25.5383 61.383 25.7395 60.9168 25.9986 60.4214C26.1998 59.9552 26.5176 59.5757 26.8061 59.1383C27.066 58.7881 27.2678 58.4673 27.5277 58.1172C27.4396 57.9432 27.3222 57.7113 27.2341 57.5373C27.1181 57.596 27.0315 57.7127 26.9155 57.7715C26.3363 58.2104 25.8739 58.736 25.3534 59.2909C24.833 59.8458 24.3125 60.4008 23.9381 61.1003C23.5344 61.7419 23.2473 62.47 22.9309 63.1402C22.3561 64.4512 21.8995 66.1395 23.0681 67.2964C23.3896 67.6436 23.8858 68.0481 24.4099 68.2199C24.934 68.3917 25.4868 68.4761 26.0388 68.4152C27.2595 68.38 28.4494 67.9961 29.5814 67.6416C31.0612 67.1109 32.5411 66.5802 34.021 66.0496C36.864 64.9016 39.7063 63.6082 42.4318 62.2283C47.9696 59.3517 53.1851 55.9825 58.0491 52.0628C62.855 48.1724 67.2807 43.8188 71.2396 39.1188C72.1352 38.0097 73.2341 36.8704 73.7215 35.5308C74.035 34.2792 73.853 32.7686 72.8892 31.8723Z" fill="white"/>
<path d="M43.5875 31.8452C43.5287 31.7292 43.412 31.6426 43.2953 31.5559C43.208 31.5273 43.1206 31.4987 43.0039 31.4121C42.8292 31.3548 42.5965 31.3269 42.4225 31.415C42.3065 31.4737 42.2486 31.5031 42.1032 31.5038C41.9292 31.5919 41.7846 31.738 41.64 31.884C41.582 31.9134 41.5534 32.0007 41.4954 32.0301C41.4088 32.1468 41.3515 32.3215 41.3229 32.4089C41.2656 32.5836 41.2664 32.7289 41.3251 32.8449C41.3258 32.9902 41.4139 33.1642 41.5306 33.2508C41.5893 33.3668 41.706 33.4534 41.8228 33.5401C41.9101 33.5687 41.9975 33.5973 42.1142 33.6839C42.2889 33.7412 42.5216 33.7691 42.6955 33.681C42.8115 33.6223 42.8695 33.5929 43.0149 33.5922C43.1888 33.5041 43.3334 33.3581 43.4781 33.212C43.536 33.1826 43.5647 33.0953 43.6227 33.0659C43.7093 32.9492 43.7665 32.7745 43.7952 32.6871C43.8524 32.5124 43.8517 32.3671 43.793 32.2511C43.7049 32.0771 43.6462 31.9612 43.5875 31.8452Z" fill="#E6EAEC"/>
<path d="M41.6331 42.0873C40.3573 42.7333 41.3849 44.7629 42.6607 44.117C43.9945 43.4417 42.9669 41.412 41.6331 42.0873Z" fill="#E6EAEC"/>
<path d="M51.8857 34.565C50.7839 35.1229 51.6353 36.8046 52.7372 36.2467C53.8683 35.7469 52.9875 34.0072 51.8857 34.565Z" fill="#E6EAEC"/>
<path d="M56.113 42.7704C55.9082 42.5098 55.5874 42.3079 55.2673 42.2514C54.9179 42.1368 54.6273 42.1383 54.2786 42.1691C53.9593 42.2579 53.6113 42.4341 53.3507 42.6389L53.2927 42.6683C53.0321 42.8731 52.8303 43.1938 52.7157 43.5432C52.6012 43.8926 52.5447 44.2127 52.6629 44.59C52.781 44.9673 52.9278 45.2573 53.162 45.5758C53.3668 45.8364 53.6876 46.0383 54.037 46.1528C54.3864 46.2674 54.7064 46.3239 55.0837 46.2057C55.461 46.0875 55.751 45.9407 56.0696 45.7066C56.3302 45.5018 56.532 45.181 56.6466 44.8316C56.7611 44.4822 56.8176 44.1621 56.6994 43.7848L56.6701 43.7268C56.4939 43.3789 56.3178 43.031 56.113 42.7704Z" fill="#E6EAEC"/>
<path d="M46.7661 51.2184C46.62 51.0738 46.4159 50.9585 46.2412 50.9013C46.1539 50.8726 46.0085 50.8734 45.9212 50.8447C45.6885 50.8168 45.4852 50.8469 45.2532 50.9644C45.0792 51.0524 44.9632 51.1112 44.906 51.2859C44.8194 51.4026 44.7327 51.5193 44.6755 51.694C44.6182 51.8687 44.6189 52.014 44.6197 52.1594C44.6204 52.3047 44.6505 52.5081 44.7092 52.624C44.7679 52.74 44.7973 52.798 44.914 52.8846C45.0601 53.0293 45.2642 53.1445 45.4389 53.2018C45.5262 53.2304 45.6715 53.2297 45.7589 53.2583C45.9916 53.2862 46.1949 53.2561 46.4269 53.1387C46.6009 53.0506 46.7168 52.9919 46.7741 52.8172C46.8607 52.7004 46.9474 52.5837 47.0046 52.409C47.0619 52.2343 47.0611 52.089 47.0604 51.9436C47.0597 51.7983 47.001 51.6823 46.9129 51.5083C46.8835 51.4503 46.8248 51.3344 46.7661 51.2184Z" fill="#E6EAEC"/>
<path d="M63.7352 49.7668C60.7777 51.2642 63.0972 55.8455 66.0547 54.3481C69.0123 52.8507 66.6928 48.2695 63.7352 49.7668Z" fill="#E6EAEC"/>
<path d="M56.9708 57.2715C56.8247 57.1269 56.708 57.0403 56.5333 56.983C56.446 56.9544 56.3586 56.9258 56.2713 56.8972C56.0679 56.9272 55.9226 56.928 55.7486 57.0161C55.6326 57.0748 55.5167 57.1335 55.43 57.2502C55.3434 57.3669 55.2568 57.4836 55.2282 57.571C55.1415 57.6877 55.1423 57.833 55.201 57.949C55.2017 58.0944 55.2025 58.2397 55.3192 58.3263C55.3485 58.3843 55.4073 58.5003 55.4946 58.5289C55.6407 58.6735 55.7574 58.7602 55.9321 58.8174C56.0194 58.8461 56.1068 58.8747 56.1941 58.9033C56.3975 58.8732 56.5428 58.8725 56.7168 58.7844C56.8328 58.7257 56.9488 58.667 57.0354 58.5503C57.122 58.4335 57.2086 58.3168 57.2373 58.2295C57.3239 58.1128 57.3231 57.9674 57.2644 57.8514C57.2637 57.7061 57.263 57.5608 57.1463 57.4741C57.0875 57.3582 57.0582 57.3002 56.9708 57.2715Z" fill="#E6EAEC"/>
<path d="M62.8936 38.4631C62.7181 38.2605 62.5141 38.1452 62.252 38.0593C62.1647 38.0307 62.0193 38.0314 61.932 38.0028C61.6993 37.9749 61.4379 38.0344 61.206 38.1518C61.032 38.2399 60.8874 38.3859 60.8008 38.5027C60.6562 38.6487 60.5695 38.7654 60.5416 38.9981C60.4844 39.1728 60.4271 39.3475 60.4572 39.5509C60.4873 39.7542 60.488 39.8996 60.5761 40.0735C60.6348 40.1895 60.7515 40.2761 60.8103 40.3921C60.9857 40.5947 61.1898 40.71 61.4518 40.7959C61.5392 40.8245 61.6845 40.8238 61.7719 40.8524C62.0046 40.8803 62.2659 40.8208 62.4979 40.7034C62.6718 40.6153 62.8164 40.4692 62.9031 40.3525C63.0477 40.2065 63.1343 40.0897 63.1622 39.857C63.2194 39.6823 63.2767 39.5076 63.2466 39.3043C63.2165 39.101 63.1284 38.927 63.0404 38.753C62.9816 38.637 62.9523 38.5791 62.8936 38.4631Z" fill="#E6EAEC"/>
<path d="M35.6834 44.0067C34.8135 44.4471 35.4888 45.7809 36.3587 45.3405C37.2286 44.9001 36.5533 43.5663 35.6834 44.0067Z" fill="#E6EAEC"/>
<path d="M46.406 37.4122C46.2893 37.3256 46.1726 37.239 46.0853 37.2104C45.9979 37.1817 45.9399 37.2111 45.9105 37.1531C45.7652 37.1538 45.6199 37.1546 45.5039 37.2133C45.3879 37.272 45.3299 37.3014 45.2433 37.4181C45.1273 37.4768 45.0987 37.5641 45.0994 37.7095C45.0708 37.7968 45.0421 37.8842 45.0429 38.0295C45.0142 38.1169 45.073 38.2329 45.1317 38.3489C45.161 38.4068 45.1904 38.4648 45.2198 38.5228C45.3365 38.6094 45.4532 38.6961 45.5405 38.7247L45.7153 38.782C45.8606 38.7812 46.0059 38.7805 46.1219 38.7218C46.2379 38.6631 46.2959 38.6337 46.3825 38.517C46.4985 38.4583 46.5271 38.3709 46.5264 38.2256C46.555 38.1382 46.5837 38.0509 46.5829 37.9055C46.6116 37.8182 46.5528 37.7022 46.4941 37.5862C46.4647 37.5282 46.4354 37.4702 46.406 37.4122Z" fill="#E6EAEC"/>
<path d="M52.4528 49.0677C51.409 49.5962 52.2017 51.162 53.2455 50.6335C54.3187 50.163 53.4966 48.5392 52.4528 49.0677Z" fill="#E6EAEC"/>
<path d="M49.2161 64.4034C48.8946 64.0562 48.4571 63.7677 48.0203 63.6246C47.7876 63.5967 47.5256 63.5108 47.2929 63.4829C46.7695 63.4565 46.3048 63.546 45.8409 63.7809C45.493 63.957 45.1744 64.1912 44.9725 64.512C44.7413 64.7748 44.5394 65.0955 44.4249 65.4449C44.3104 65.7944 44.2832 66.1724 44.314 66.5211C44.2868 66.8991 44.405 67.2764 44.5812 67.6244C44.7566 67.827 44.8741 68.0589 45.0495 68.2615C45.371 68.6087 45.8085 68.8972 46.2452 69.0404C46.4779 69.0683 46.74 69.1542 46.9727 69.1821C47.4961 69.2085 47.9607 69.119 48.4247 68.8841C48.7726 68.7079 49.0912 68.4738 49.2931 68.153C49.5243 67.8902 49.7262 67.5694 49.8407 67.22C49.9552 66.8706 49.9824 66.4926 49.9515 66.1439C49.9787 65.7659 49.8605 65.3886 49.6844 65.0406C49.5089 64.838 49.3335 64.6354 49.2161 64.4034Z" fill="#E6EAEC"/>
<path d="M19.7624 51.5575L17.4993 52.4119L16.9296 54.7403L15.4667 52.8582L13.026 53.0739L14.3238 51.0325L13.4408 48.8568L15.7692 49.4265L17.622 47.9055L17.7504 50.3176L19.7624 51.5575Z" fill="white"/>
<path d="M50.8131 17.7684L47.8123 16.4463L45.1176 18.1749L45.3922 14.9759L42.8818 12.8955L46.0756 12.1527L47.2524 9.1527L48.8944 11.9642L52.122 12.1514L50.0123 14.6038L50.8131 17.7684Z" fill="white"/>
<path d="M81.5234 49.3577L79.5789 49.9779L79.007 51.8703L77.8069 50.2194L75.8015 50.2876L77.0142 48.6536L76.3359 46.7384L78.2577 47.3683L79.9086 46.1682L79.8895 48.145L81.5234 49.3577Z" fill="white"/>
</g>
<defs>
<clipPath id="clip0_202_841">
<rect width="65" height="65" fill="white" transform="translate(0 29.3607) rotate(-26.853)"/>
</clipPath>
</defs>
</svg>
