<svg width="88" height="88" viewBox="0 0 88 88" fill="none" xmlns="http://www.w3.org/2000/svg">
<g clip-path="url(#clip0_202_547)">
<path d="M59.887 30.2222C56.125 27.8284 51.6136 26.6883 47.196 26.8849C36.0648 27.3478 26.3399 35.7686 25.6158 47.8651C25.3764 52.2848 26.3878 56.8727 28.6457 60.7566C30.9322 64.5532 34.4064 67.5299 38.4275 69.4282C42.4192 71.2686 46.9578 72.0307 51.3438 71.34C55.7298 70.6494 59.8472 68.5648 63.0587 65.5545C66.2703 62.5442 68.692 58.5496 69.7169 54.2422C70.799 49.7601 70.3102 45.0533 68.5155 40.7892C66.8369 36.4663 63.795 32.7607 59.887 30.2222Z" fill="#FF986D"/>
<path d="M72.8892 31.872C71.8087 30.8891 70.3281 31.2744 69.1389 31.8037C67.6018 32.509 66.1814 33.301 64.7617 34.2384C64.7037 34.2678 64.6457 34.2971 64.6457 34.2971C64.6751 34.3551 64.7338 34.4711 64.7632 34.5291C64.7925 34.5871 64.8799 34.6157 64.9092 34.6737C64.9386 34.7317 65.0553 34.8183 65.0847 34.8763C65.5772 34.5541 66.0991 34.2898 66.5917 33.9676C67.6642 33.3517 68.882 32.7352 70.0719 32.3513C70.5072 32.2037 71.0878 32.0555 71.5246 32.1986C71.9613 32.3418 72.2535 32.631 72.459 33.0369C72.9288 33.9648 72.7306 35.0123 72.2116 35.8579C71.6353 36.8782 70.855 37.7833 70.0747 38.6884C69.2657 39.6808 68.4274 40.6152 67.5891 41.5496C65.9125 43.4185 64.1771 45.1714 62.3544 46.8956C58.709 50.3441 54.7421 53.4454 50.6284 56.2567C46.4274 59.0394 41.9921 61.5035 37.4388 63.5903C35.1184 64.6194 32.8267 65.5611 30.4182 66.4162C29.3736 66.7994 28.3871 67.1532 27.2544 67.3624C26.4704 67.5407 25.4824 67.6038 24.7249 67.2588C24.4335 67.1149 24.2 66.9417 24.0826 66.7097C23.8462 65.9551 23.8426 65.2284 24.1583 64.4129C24.4152 63.4813 24.8762 62.6651 25.3078 61.7908C25.5383 61.3827 25.7395 60.9166 25.9986 60.4211C26.1998 59.955 26.5176 59.5755 26.8061 59.138C27.066 58.7879 27.2678 58.4671 27.5277 58.117C27.4396 57.943 27.3222 57.711 27.2341 57.5371C27.1181 57.5958 27.0315 57.7125 26.9155 57.7712C26.3363 58.2102 25.8739 58.7357 25.3534 59.2907C24.833 59.8456 24.3125 60.4005 23.9381 61.1001C23.5344 61.7416 23.2473 62.4698 22.9309 63.14C22.3561 64.451 21.8995 66.1393 23.0681 67.2962C23.3896 67.6434 23.8858 68.0479 24.4099 68.2197C24.934 68.3914 25.4868 68.4759 26.0388 68.415C27.2595 68.3798 28.4494 67.9959 29.5814 67.6414C31.0612 67.1107 32.5411 66.58 34.021 66.0493C36.864 64.9013 39.7063 63.608 42.4318 62.228C47.9696 59.3514 53.1851 55.9822 58.0491 52.0625C62.855 48.1722 67.2807 43.8186 71.2396 39.1185C72.1352 38.0094 73.2341 36.8702 73.7215 35.5306C74.035 34.279 73.853 32.7683 72.8892 31.872Z" fill="white"/>
<path d="M43.5875 31.8449C43.5287 31.7289 43.412 31.6423 43.2953 31.5557C43.208 31.5271 43.1206 31.4984 43.0039 31.4118C42.8292 31.3546 42.5965 31.3267 42.4225 31.4147C42.3065 31.4735 42.2486 31.5028 42.1032 31.5036C41.9292 31.5916 41.7846 31.7377 41.64 31.8838C41.582 31.9131 41.5534 32.0005 41.4954 32.0299C41.4088 32.1466 41.3515 32.3213 41.3229 32.4086C41.2656 32.5833 41.2664 32.7287 41.3251 32.8447C41.3258 32.99 41.4139 33.164 41.5306 33.2506C41.5893 33.3666 41.706 33.4532 41.8228 33.5398C41.9101 33.5684 41.9975 33.5971 42.1142 33.6837C42.2889 33.741 42.5216 33.7689 42.6955 33.6808C42.8115 33.6221 42.8695 33.5927 43.0149 33.592C43.1888 33.5039 43.3334 33.3578 43.4781 33.2117C43.536 33.1824 43.5647 33.095 43.6227 33.0657C43.7093 32.9489 43.7665 32.7742 43.7952 32.6869C43.8524 32.5122 43.8517 32.3668 43.793 32.2509C43.7049 32.0769 43.6462 31.9609 43.5875 31.8449Z" fill="#E6EAEC"/>
<path d="M41.6331 42.0871C40.3573 42.733 41.3849 44.7627 42.6607 44.1168C43.9945 43.4415 42.9669 41.4118 41.6331 42.0871Z" fill="#E6EAEC"/>
<path d="M51.8857 34.5648C50.7839 35.1226 51.6353 36.8044 52.7372 36.2465C53.8683 35.7466 52.9875 34.0069 51.8857 34.5648Z" fill="#E6EAEC"/>
<path d="M56.113 42.7701C55.9082 42.5095 55.5874 42.3077 55.2673 42.2511C54.9179 42.1366 54.6273 42.1381 54.2786 42.1689C53.9593 42.2577 53.6113 42.4339 53.3507 42.6387L53.2927 42.668C53.0321 42.8728 52.8303 43.1936 52.7157 43.543C52.6012 43.8924 52.5447 44.2124 52.6629 44.5898C52.781 44.9671 52.9278 45.257 53.162 45.5756C53.3668 45.8362 53.6876 46.0381 54.037 46.1526C54.3864 46.2671 54.7064 46.3236 55.0837 46.2055C55.461 46.0873 55.751 45.9405 56.0696 45.7063C56.3302 45.5015 56.532 45.1808 56.6466 44.8314C56.7611 44.4819 56.8176 44.1619 56.6994 43.7846L56.6701 43.7266C56.4939 43.3787 56.3178 43.0307 56.113 42.7701Z" fill="#E6EAEC"/>
<path d="M46.7661 51.2181C46.62 51.0735 46.4159 50.9583 46.2412 50.901C46.1539 50.8724 46.0085 50.8731 45.9212 50.8445C45.6885 50.8166 45.4852 50.8467 45.2532 50.9641C45.0792 51.0522 44.9632 51.1109 44.906 51.2856C44.8194 51.4023 44.7327 51.5191 44.6755 51.6938C44.6182 51.8685 44.6189 52.0138 44.6197 52.1591C44.6204 52.3045 44.6505 52.5078 44.7092 52.6238C44.7679 52.7398 44.7973 52.7978 44.914 52.8844C45.0601 53.029 45.2642 53.1443 45.4389 53.2015C45.5262 53.2302 45.6715 53.2294 45.7589 53.258C45.9916 53.2859 46.1949 53.2559 46.4269 53.1384C46.6009 53.0503 46.7168 52.9916 46.7741 52.8169C46.8607 52.7002 46.9474 52.5835 47.0046 52.4088C47.0619 52.2341 47.0611 52.0887 47.0604 51.9434C47.0597 51.798 47.001 51.6821 46.9129 51.5081C46.8835 51.4501 46.8248 51.3341 46.7661 51.2181Z" fill="#E6EAEC"/>
<path d="M63.7352 49.7666C60.7777 51.264 63.0972 55.8453 66.0547 54.3479C69.0123 52.8505 66.6928 48.2692 63.7352 49.7666Z" fill="#E6EAEC"/>
<path d="M56.9708 57.2714C56.8247 57.1268 56.708 57.0402 56.5333 56.9829C56.446 56.9543 56.3586 56.9257 56.2713 56.897C56.0679 56.9271 55.9226 56.9279 55.7486 57.0159C55.6326 57.0747 55.5167 57.1334 55.43 57.2501C55.3434 57.3668 55.2568 57.4835 55.2282 57.5709C55.1415 57.6876 55.1423 57.8329 55.201 57.9489C55.2017 58.0942 55.2025 58.2396 55.3192 58.3262C55.3485 58.3842 55.4073 58.5002 55.4946 58.5288C55.6407 58.6734 55.7574 58.76 55.9321 58.8173C56.0194 58.8459 56.1068 58.8746 56.1941 58.9032C56.3975 58.8731 56.5428 58.8724 56.7168 58.7843C56.8328 58.7256 56.9488 58.6668 57.0354 58.5501C57.122 58.4334 57.2086 58.3167 57.2373 58.2294C57.3239 58.1127 57.3231 57.9673 57.2644 57.8513C57.2637 57.706 57.263 57.5606 57.1463 57.474C57.0875 57.358 57.0582 57.3 56.9708 57.2714Z" fill="#E6EAEC"/>
<path d="M62.8936 38.463C62.7181 38.2604 62.5141 38.1451 62.252 38.0592C62.1647 38.0306 62.0193 38.0313 61.932 38.0027C61.6993 37.9748 61.4379 38.0342 61.206 38.1517C61.032 38.2398 60.8874 38.3858 60.8008 38.5025C60.6562 38.6486 60.5695 38.7653 60.5416 38.998C60.4844 39.1727 60.4271 39.3474 60.4572 39.5508C60.4873 39.7541 60.488 39.8994 60.5761 40.0734C60.6348 40.1894 60.7515 40.276 60.8103 40.392C60.9857 40.5946 61.1898 40.7098 61.4518 40.7957C61.5392 40.8244 61.6845 40.8236 61.7719 40.8523C62.0046 40.8802 62.2659 40.8207 62.4979 40.7033C62.6718 40.6152 62.8164 40.4691 62.9031 40.3524C63.0477 40.2063 63.1343 40.0896 63.1622 39.8569C63.2194 39.6822 63.2767 39.5075 63.2466 39.3042C63.2165 39.1009 63.1284 38.9269 63.0404 38.7529C62.9816 38.6369 62.9523 38.5789 62.8936 38.463Z" fill="#E6EAEC"/>
<path d="M35.6834 44.0064C34.8135 44.4468 35.4888 45.7806 36.3587 45.3402C37.2286 44.8997 36.5533 43.566 35.6834 44.0064Z" fill="#E6EAEC"/>
<path d="M46.406 37.412C46.2893 37.3254 46.1726 37.2387 46.0853 37.2101C45.9979 37.1815 45.9399 37.2108 45.9105 37.1529C45.7652 37.1536 45.6199 37.1543 45.5039 37.213C45.3879 37.2718 45.3299 37.3011 45.2433 37.4178C45.1273 37.4766 45.0987 37.5639 45.0994 37.7092C45.0708 37.7966 45.0421 37.884 45.0429 38.0293C45.0142 38.1166 45.073 38.2326 45.1317 38.3486C45.161 38.4066 45.1904 38.4646 45.2198 38.5226C45.3365 38.6092 45.4532 38.6958 45.5405 38.7245L45.7153 38.7817C45.8606 38.781 46.0059 38.7803 46.1219 38.7215C46.2379 38.6628 46.2959 38.6334 46.3825 38.5167C46.4985 38.458 46.5271 38.3707 46.5264 38.2253C46.555 38.138 46.5837 38.0506 46.5829 37.9053C46.6116 37.8179 46.5528 37.7019 46.4941 37.586C46.4647 37.528 46.4354 37.47 46.406 37.412Z" fill="#E6EAEC"/>
<path d="M52.4528 49.0675C51.409 49.596 52.2017 51.1617 53.2455 50.6333C54.3187 50.1628 53.4966 48.539 52.4528 49.0675Z" fill="#E6EAEC"/>
<path d="M49.2161 64.4032C48.8946 64.056 48.4571 63.7675 48.0203 63.6243C47.7876 63.5964 47.5256 63.5105 47.2929 63.4826C46.7695 63.4562 46.3048 63.5458 45.8409 63.7806C45.493 63.9568 45.1744 64.191 44.9725 64.5117C44.7413 64.7745 44.5394 65.0953 44.4249 65.4447C44.3104 65.7941 44.2832 66.1721 44.314 66.5208C44.2868 66.8989 44.405 67.2762 44.5812 67.6241C44.7566 67.8267 44.8741 68.0587 45.0495 68.2613C45.371 68.6085 45.8085 68.897 46.2452 69.0401C46.4779 69.068 46.74 69.1539 46.9727 69.1818C47.4961 69.2083 47.9607 69.1187 48.4247 68.8838C48.7726 68.7077 49.0912 68.4735 49.2931 68.1527C49.5243 67.89 49.7262 67.5692 49.8407 67.2198C49.9552 66.8704 49.9824 66.4923 49.9515 66.1437C49.9787 65.7656 49.8605 65.3883 49.6844 65.0404C49.5089 64.8378 49.3335 64.6352 49.2161 64.4032Z" fill="#E6EAEC"/>
<path d="M19.7624 51.5574L17.4993 52.4118L16.9296 54.7402L15.4667 52.858L13.026 53.0738L14.3238 51.0324L13.4408 48.8567L15.7692 49.4263L17.622 47.9054L17.7504 50.3175L19.7624 51.5574Z" fill="white"/>
<path d="M50.8131 17.768L47.8123 16.4459L45.1176 18.1745L45.3922 14.9755L42.8818 12.8952L46.0756 12.1524L47.2524 9.15233L48.8944 11.9638L52.122 12.1511L50.0123 14.6035L50.8131 17.768Z" fill="white"/>
<path d="M81.5234 49.3574L79.5789 49.9776L79.007 51.87L77.8069 50.2191L75.8015 50.2873L77.0142 48.6534L76.3359 46.7382L78.2577 47.3681L79.9086 46.1679L79.8895 48.1447L81.5234 49.3574Z" fill="white"/>
</g>
<defs>
<clipPath id="clip0_202_547">
<rect width="65" height="65" fill="white" transform="translate(0 29.3606) rotate(-26.853)"/>
</clipPath>
</defs>
</svg>
