<svg width="88" height="86" viewBox="0 0 88 86" fill="none" xmlns="http://www.w3.org/2000/svg">
<g clip-path="url(#clip0_202_1233)">
<path d="M59.887 28.2222C56.125 25.8284 51.6136 24.6883 47.196 24.8849C36.0648 25.3478 26.3399 33.7686 25.6158 45.8651C25.3764 50.2848 26.3878 54.8727 28.6457 58.7566C30.9322 62.5532 34.4064 65.5299 38.4275 67.4282C42.4192 69.2686 46.9578 70.0307 51.3438 69.34C55.7298 68.6494 59.8472 66.5648 63.0587 63.5545C66.2703 60.5442 68.692 56.5496 69.7169 52.2422C70.799 47.7601 70.3102 43.0533 68.5155 38.7892C66.8369 34.4663 63.795 30.7607 59.887 28.2222Z" fill="#FF986D"/>
<path d="M72.8892 29.872C71.8087 28.8891 70.3281 29.2744 69.1389 29.8037C67.6018 30.509 66.1814 31.301 64.7617 32.2384C64.7037 32.2678 64.6457 32.2971 64.6457 32.2971C64.6751 32.3551 64.7338 32.4711 64.7632 32.5291C64.7925 32.5871 64.8799 32.6157 64.9092 32.6737C64.9386 32.7317 65.0553 32.8183 65.0847 32.8763C65.5772 32.5541 66.0991 32.2898 66.5917 31.9676C67.6642 31.3517 68.882 30.7352 70.0719 30.3513C70.5072 30.2037 71.0878 30.0555 71.5246 30.1986C71.9613 30.3418 72.2535 30.631 72.459 31.0369C72.9288 31.9648 72.7306 33.0123 72.2116 33.8579C71.6353 34.8782 70.855 35.7833 70.0747 36.6884C69.2657 37.6808 68.4274 38.6152 67.5891 39.5496C65.9125 41.4185 64.1771 43.1714 62.3544 44.8956C58.709 48.3441 54.7421 51.4454 50.6284 54.2567C46.4274 57.0394 41.9921 59.5035 37.4388 61.5903C35.1184 62.6194 32.8267 63.5611 30.4182 64.4162C29.3736 64.7994 28.3871 65.1532 27.2544 65.3624C26.4704 65.5407 25.4824 65.6038 24.7249 65.2588C24.4335 65.1149 24.2 64.9417 24.0826 64.7097C23.8462 63.9551 23.8426 63.2284 24.1583 62.4129C24.4152 61.4813 24.8762 60.6651 25.3078 59.7908C25.5383 59.3827 25.7395 58.9166 25.9986 58.4211C26.1998 57.955 26.5176 57.5755 26.8061 57.138C27.066 56.7879 27.2678 56.4671 27.5277 56.117C27.4396 55.943 27.3222 55.711 27.2341 55.5371C27.1181 55.5958 27.0315 55.7125 26.9155 55.7712C26.3363 56.2102 25.8739 56.7357 25.3534 57.2907C24.833 57.8456 24.3125 58.4005 23.9381 59.1001C23.5344 59.7416 23.2473 60.4698 22.9309 61.14C22.3561 62.451 21.8995 64.1393 23.0681 65.2962C23.3896 65.6434 23.8858 66.0479 24.4099 66.2197C24.934 66.3914 25.4868 66.4759 26.0388 66.415C27.2595 66.3798 28.4494 65.9959 29.5814 65.6414C31.0612 65.1107 32.5411 64.58 34.021 64.0493C36.864 62.9013 39.7063 61.608 42.4318 60.228C47.9696 57.3514 53.1851 53.9822 58.0491 50.0625C62.855 46.1722 67.2807 41.8186 71.2396 37.1185C72.1352 36.0094 73.2341 34.8702 73.7215 33.5306C74.035 32.279 73.853 30.7683 72.8892 29.872Z" fill="white"/>
<path d="M43.5875 29.8449C43.5287 29.7289 43.412 29.6423 43.2953 29.5557C43.208 29.5271 43.1206 29.4984 43.0039 29.4118C42.8292 29.3546 42.5965 29.3267 42.4225 29.4147C42.3065 29.4735 42.2486 29.5028 42.1032 29.5036C41.9292 29.5916 41.7846 29.7377 41.64 29.8838C41.582 29.9131 41.5534 30.0005 41.4954 30.0299C41.4088 30.1466 41.3515 30.3213 41.3229 30.4086C41.2656 30.5833 41.2664 30.7287 41.3251 30.8447C41.3258 30.99 41.4139 31.164 41.5306 31.2506C41.5893 31.3666 41.706 31.4532 41.8228 31.5398C41.9101 31.5684 41.9975 31.5971 42.1142 31.6837C42.2889 31.741 42.5216 31.7689 42.6955 31.6808C42.8115 31.6221 42.8695 31.5927 43.0149 31.592C43.1888 31.5039 43.3334 31.3578 43.4781 31.2117C43.536 31.1824 43.5647 31.095 43.6227 31.0657C43.7093 30.9489 43.7665 30.7742 43.7952 30.6869C43.8524 30.5122 43.8517 30.3668 43.793 30.2509C43.7049 30.0769 43.6462 29.9609 43.5875 29.8449Z" fill="#E6EAEC"/>
<path d="M41.6331 40.0871C40.3573 40.733 41.3849 42.7627 42.6607 42.1168C43.9945 41.4415 42.9669 39.4118 41.6331 40.0871Z" fill="#E6EAEC"/>
<path d="M51.8857 32.5648C50.7839 33.1226 51.6353 34.8044 52.7372 34.2465C53.8683 33.7466 52.9875 32.0069 51.8857 32.5648Z" fill="#E6EAEC"/>
<path d="M56.113 40.7701C55.9082 40.5095 55.5874 40.3077 55.2673 40.2511C54.9179 40.1366 54.6273 40.1381 54.2786 40.1689C53.9593 40.2577 53.6113 40.4339 53.3507 40.6387L53.2927 40.668C53.0321 40.8728 52.8303 41.1936 52.7157 41.543C52.6012 41.8924 52.5447 42.2124 52.6629 42.5898C52.781 42.9671 52.9278 43.257 53.162 43.5756C53.3668 43.8362 53.6876 44.0381 54.037 44.1526C54.3864 44.2671 54.7064 44.3236 55.0837 44.2055C55.461 44.0873 55.751 43.9405 56.0696 43.7063C56.3302 43.5015 56.532 43.1808 56.6466 42.8314C56.7611 42.4819 56.8176 42.1619 56.6994 41.7846L56.6701 41.7266C56.4939 41.3787 56.3178 41.0307 56.113 40.7701Z" fill="#E6EAEC"/>
<path d="M46.7661 49.2181C46.62 49.0735 46.4159 48.9583 46.2412 48.901C46.1539 48.8724 46.0085 48.8731 45.9212 48.8445C45.6885 48.8166 45.4852 48.8467 45.2532 48.9641C45.0792 49.0522 44.9632 49.1109 44.906 49.2856C44.8194 49.4023 44.7327 49.5191 44.6755 49.6938C44.6182 49.8685 44.6189 50.0138 44.6197 50.1591C44.6204 50.3045 44.6505 50.5078 44.7092 50.6238C44.7679 50.7398 44.7973 50.7978 44.914 50.8844C45.0601 51.029 45.2642 51.1443 45.4389 51.2015C45.5262 51.2302 45.6715 51.2294 45.7589 51.258C45.9916 51.2859 46.1949 51.2559 46.4269 51.1384C46.6009 51.0503 46.7168 50.9916 46.7741 50.8169C46.8607 50.7002 46.9474 50.5835 47.0046 50.4088C47.0619 50.2341 47.0611 50.0887 47.0604 49.9434C47.0597 49.798 47.001 49.6821 46.9129 49.5081C46.8835 49.4501 46.8248 49.3341 46.7661 49.2181Z" fill="#E6EAEC"/>
<path d="M63.7352 47.7666C60.7777 49.264 63.0972 53.8453 66.0547 52.3479C69.0123 50.8505 66.6928 46.2692 63.7352 47.7666Z" fill="#E6EAEC"/>
<path d="M56.9708 55.2714C56.8247 55.1268 56.708 55.0402 56.5333 54.9829C56.446 54.9543 56.3586 54.9257 56.2713 54.897C56.0679 54.9271 55.9226 54.9279 55.7486 55.0159C55.6326 55.0747 55.5167 55.1334 55.43 55.2501C55.3434 55.3668 55.2568 55.4835 55.2282 55.5709C55.1415 55.6876 55.1423 55.8329 55.201 55.9489C55.2017 56.0942 55.2025 56.2396 55.3192 56.3262C55.3485 56.3842 55.4073 56.5002 55.4946 56.5288C55.6407 56.6734 55.7574 56.76 55.9321 56.8173C56.0194 56.8459 56.1068 56.8746 56.1941 56.9032C56.3975 56.8731 56.5428 56.8724 56.7168 56.7843C56.8328 56.7256 56.9488 56.6668 57.0354 56.5501C57.122 56.4334 57.2086 56.3167 57.2373 56.2294C57.3239 56.1127 57.3231 55.9673 57.2644 55.8513C57.2637 55.706 57.263 55.5606 57.1463 55.474C57.0875 55.358 57.0582 55.3 56.9708 55.2714Z" fill="#E6EAEC"/>
<path d="M62.8936 36.463C62.7181 36.2604 62.5141 36.1451 62.252 36.0592C62.1647 36.0306 62.0193 36.0313 61.932 36.0027C61.6993 35.9748 61.4379 36.0342 61.206 36.1517C61.032 36.2398 60.8874 36.3858 60.8008 36.5025C60.6562 36.6486 60.5695 36.7653 60.5416 36.998C60.4844 37.1727 60.4271 37.3474 60.4572 37.5508C60.4873 37.7541 60.488 37.8994 60.5761 38.0734C60.6348 38.1894 60.7515 38.276 60.8103 38.392C60.9857 38.5946 61.1898 38.7098 61.4518 38.7957C61.5392 38.8244 61.6845 38.8236 61.7719 38.8523C62.0046 38.8802 62.2659 38.8207 62.4979 38.7033C62.6718 38.6152 62.8164 38.4691 62.9031 38.3524C63.0477 38.2063 63.1343 38.0896 63.1622 37.8569C63.2194 37.6822 63.2767 37.5075 63.2466 37.3042C63.2165 37.1009 63.1284 36.9269 63.0404 36.7529C62.9816 36.6369 62.9523 36.5789 62.8936 36.463Z" fill="#E6EAEC"/>
<path d="M35.6834 42.0064C34.8135 42.4468 35.4888 43.7806 36.3587 43.3402C37.2286 42.8997 36.5533 41.566 35.6834 42.0064Z" fill="#E6EAEC"/>
<path d="M46.406 35.412C46.2893 35.3254 46.1726 35.2387 46.0853 35.2101C45.9979 35.1815 45.9399 35.2108 45.9105 35.1529C45.7652 35.1536 45.6199 35.1543 45.5039 35.213C45.3879 35.2718 45.3299 35.3011 45.2433 35.4178C45.1273 35.4766 45.0987 35.5639 45.0994 35.7092C45.0708 35.7966 45.0421 35.884 45.0429 36.0293C45.0142 36.1166 45.073 36.2326 45.1317 36.3486C45.161 36.4066 45.1904 36.4646 45.2198 36.5226C45.3365 36.6092 45.4532 36.6958 45.5405 36.7245L45.7153 36.7817C45.8606 36.781 46.0059 36.7803 46.1219 36.7215C46.2379 36.6628 46.2959 36.6334 46.3825 36.5167C46.4985 36.458 46.5271 36.3707 46.5264 36.2253C46.555 36.138 46.5837 36.0506 46.5829 35.9053C46.6116 35.8179 46.5528 35.7019 46.4941 35.586C46.4647 35.528 46.4354 35.47 46.406 35.412Z" fill="#E6EAEC"/>
<path d="M52.4528 47.0675C51.409 47.596 52.2017 49.1617 53.2455 48.6333C54.3187 48.1628 53.4966 46.539 52.4528 47.0675Z" fill="#E6EAEC"/>
<path d="M49.2161 62.4032C48.8946 62.056 48.4571 61.7675 48.0203 61.6243C47.7876 61.5964 47.5256 61.5105 47.2929 61.4826C46.7695 61.4562 46.3048 61.5458 45.8409 61.7806C45.493 61.9568 45.1744 62.191 44.9725 62.5117C44.7413 62.7745 44.5394 63.0953 44.4249 63.4447C44.3104 63.7941 44.2832 64.1721 44.314 64.5208C44.2868 64.8989 44.405 65.2762 44.5812 65.6241C44.7566 65.8267 44.8741 66.0587 45.0495 66.2613C45.371 66.6085 45.8085 66.897 46.2452 67.0401C46.4779 67.068 46.74 67.1539 46.9727 67.1818C47.4961 67.2083 47.9607 67.1187 48.4247 66.8838C48.7726 66.7077 49.0912 66.4735 49.2931 66.1527C49.5243 65.89 49.7262 65.5692 49.8407 65.2198C49.9552 64.8704 49.9824 64.4923 49.9515 64.1437C49.9787 63.7656 49.8605 63.3883 49.6844 63.0404C49.5089 62.8378 49.3335 62.6352 49.2161 62.4032Z" fill="#E6EAEC"/>
<path d="M19.7624 49.5574L17.4993 50.4118L16.9296 52.7402L15.4667 50.858L13.026 51.0738L14.3238 49.0324L13.4408 46.8567L15.7692 47.4263L17.622 45.9054L17.7504 48.3175L19.7624 49.5574Z" fill="white"/>
<path d="M50.8131 15.768L47.8123 14.4459L45.1176 16.1745L45.3922 12.9755L42.8818 10.8952L46.0756 10.1524L47.2524 7.15233L48.8944 9.9638L52.122 10.1511L50.0123 12.6035L50.8131 15.768Z" fill="white"/>
<path d="M81.5234 47.3574L79.5789 47.9776L79.007 49.87L77.8069 48.2191L75.8015 48.2873L77.0142 46.6534L76.3359 44.7382L78.2577 45.3681L79.9086 44.1679L79.8895 46.1447L81.5234 47.3574Z" fill="white"/>
</g>
<defs>
<clipPath id="clip0_202_1233">
<rect width="65" height="65" fill="white" transform="translate(0 27.3606) rotate(-26.853)"/>
</clipPath>
</defs>
</svg>
