<svg width="88" height="88" viewBox="0 0 88 88" fill="none" xmlns="http://www.w3.org/2000/svg">
<g clip-path="url(#clip0_279_2973)">
<path d="M59.8875 30.2227C56.1255 27.8289 51.6141 26.6888 47.1965 26.8854C36.0653 27.3483 26.3404 35.7691 25.6163 47.8656C25.3769 52.2853 26.3883 56.8732 28.6462 60.7571C30.9326 64.5537 34.4068 67.5304 38.4279 69.4287C42.4197 71.2691 46.9583 72.0312 51.3443 71.3405C55.7303 70.6499 59.8476 68.5653 63.0592 65.555C66.2708 62.5447 68.6925 58.5501 69.7173 54.2427C70.7995 49.7606 70.3107 45.0538 68.516 40.7896C66.8374 36.4668 63.7955 32.7612 59.8875 30.2227Z" fill="#FF986D"/>
<path d="M72.8899 31.8725C71.8094 30.8896 70.3288 31.2749 69.1396 31.8041C67.6025 32.5095 66.1821 33.3015 64.7624 34.2389C64.7044 34.2682 64.6465 34.2976 64.6465 34.2976C64.6758 34.3556 64.7345 34.4716 64.7639 34.5296C64.7933 34.5876 64.8806 34.6162 64.91 34.6742C64.9393 34.7322 65.056 34.8188 65.0854 34.8768C65.578 34.5545 66.0999 34.2903 66.5924 33.9681C67.6649 33.3522 68.8827 32.7356 70.0726 32.3518C70.5079 32.2042 71.0886 32.056 71.5253 32.1991C71.9621 32.3423 72.2542 32.6315 72.4597 33.0374C72.9295 33.9653 72.7313 35.0128 72.2123 35.8584C71.636 36.8787 70.8557 37.7838 70.0754 38.6888C69.2664 39.6813 68.4281 40.6157 67.5898 41.5501C65.9132 43.419 64.1779 45.1719 62.3552 46.8961C58.7098 50.3446 54.7429 53.4459 50.6292 56.2572C46.4281 59.0399 41.9929 61.504 37.4395 63.5908C35.1191 64.6199 32.8274 65.5616 30.4189 66.4167C29.3744 66.7999 28.3878 67.1537 27.2551 67.3628C26.4712 67.5412 25.4831 67.6043 24.7256 67.2593C24.4342 67.1154 24.2008 66.9422 24.0833 66.7102C23.847 65.9556 23.8433 65.2289 24.159 64.4133C24.4159 63.4818 24.8769 62.6656 25.3086 61.7913C25.5391 61.3832 25.7402 60.9171 25.9994 60.4216C26.2005 59.9555 26.5184 59.576 26.8068 59.1385C27.0667 58.7884 27.2686 58.4676 27.5284 58.1175C27.4404 57.9435 27.3229 57.7115 27.2348 57.5375C27.1189 57.5963 27.0322 57.713 26.9163 57.7717C26.3371 58.2106 25.8746 58.7362 25.3541 59.2911C24.8337 59.8461 24.3132 60.401 23.9388 61.1006C23.5351 61.7421 23.2481 62.4703 22.9317 63.1405C22.3569 64.4515 21.9003 66.1398 23.0688 67.2967C23.3903 67.6439 23.8866 68.0484 24.4107 68.2202C24.9348 68.3919 25.4875 68.4764 26.0395 68.4154C27.2603 68.3802 28.4502 67.9964 29.5821 67.6418C31.062 67.1112 32.5418 66.5805 34.0217 66.0498C36.8647 64.9018 39.707 63.6085 42.4326 62.2285C47.9703 59.3519 53.1859 55.9827 58.0498 52.063C62.8557 48.1726 67.2815 43.8191 71.2403 39.119C72.1359 38.0099 73.2348 36.8707 73.7223 35.531C74.0357 34.2795 73.8537 32.7688 72.8899 31.8725Z" fill="white"/>
<path d="M43.5879 31.8449C43.5292 31.7289 43.4125 31.6423 43.2958 31.5557C43.2085 31.5271 43.1211 31.4984 43.0044 31.4118C42.8297 31.3546 42.597 31.3267 42.423 31.4147C42.307 31.4735 42.249 31.5028 42.1037 31.5036C41.9297 31.5916 41.7851 31.7377 41.6405 31.8838C41.5825 31.9131 41.5539 32.0005 41.4959 32.0299C41.4093 32.1466 41.352 32.3213 41.3234 32.4086C41.2661 32.5833 41.2669 32.7287 41.3256 32.8447C41.3263 32.99 41.4144 33.164 41.5311 33.2506C41.5898 33.3666 41.7065 33.4532 41.8232 33.5398C41.9106 33.5684 41.9979 33.5971 42.1147 33.6837C42.2894 33.741 42.5221 33.7689 42.696 33.6808C42.812 33.6221 42.87 33.5927 43.0153 33.592C43.1893 33.5039 43.3339 33.3578 43.4785 33.2117C43.5365 33.1824 43.5652 33.095 43.6232 33.0657C43.7098 32.9489 43.767 32.7742 43.7957 32.6869C43.8529 32.5122 43.8522 32.3668 43.7935 32.2509C43.7054 32.0769 43.6467 31.9609 43.5879 31.8449Z" fill="#E6EAEC"/>
<path d="M41.6336 42.0873C40.3578 42.7333 41.3854 44.7629 42.6612 44.117C43.995 43.4417 42.9674 41.412 41.6336 42.0873Z" fill="#E6EAEC"/>
<path d="M51.8859 34.565C50.7841 35.1229 51.6356 36.8046 52.7374 36.2467C53.8686 35.7469 52.9878 34.0072 51.8859 34.565Z" fill="#E6EAEC"/>
<path d="M56.1137 42.7701C55.9089 42.5095 55.5881 42.3077 55.2681 42.2511C54.9187 42.1366 54.628 42.1381 54.2793 42.1689C53.96 42.2577 53.612 42.4339 53.3515 42.6387L53.2935 42.668C53.0329 42.8728 52.831 43.1936 52.7165 43.543C52.602 43.8924 52.5454 44.2124 52.6636 44.5898C52.7818 44.9671 52.9286 45.257 53.1627 45.5756C53.3675 45.8362 53.6883 46.0381 54.0377 46.1526C54.3871 46.2671 54.7072 46.3236 55.0845 46.2055C55.4618 46.0873 55.7517 45.9405 56.0703 45.7063C56.3309 45.5015 56.5328 45.1808 56.6473 44.8314C56.7618 44.4819 56.8184 44.1619 56.7002 43.7846L56.6708 43.7266C56.4947 43.3787 56.3185 43.0307 56.1137 42.7701Z" fill="#E6EAEC"/>
<path d="M46.7661 51.2181C46.62 51.0735 46.4159 50.9583 46.2412 50.901C46.1539 50.8724 46.0085 50.8731 45.9212 50.8445C45.6885 50.8166 45.4852 50.8467 45.2532 50.9641C45.0792 51.0522 44.9632 51.1109 44.906 51.2856C44.8194 51.4023 44.7327 51.5191 44.6755 51.6938C44.6182 51.8685 44.6189 52.0138 44.6197 52.1591C44.6204 52.3045 44.6505 52.5078 44.7092 52.6238C44.7679 52.7398 44.7973 52.7978 44.914 52.8844C45.0601 53.029 45.2642 53.1443 45.4389 53.2015C45.5262 53.2302 45.6715 53.2294 45.7589 53.258C45.9916 53.2859 46.1949 53.2559 46.4269 53.1384C46.6009 53.0503 46.7168 52.9916 46.7741 52.8169C46.8607 52.7002 46.9474 52.5835 47.0046 52.4088C47.0619 52.2341 47.0611 52.0887 47.0604 51.9434C47.0597 51.798 47.001 51.6821 46.9129 51.5081C46.8835 51.4501 46.8248 51.3341 46.7661 51.2181Z" fill="#E6EAEC"/>
<path d="M63.7357 49.7666C60.7782 51.264 63.0977 55.8453 66.0552 54.3479C69.0128 52.8505 66.6933 48.2692 63.7357 49.7666Z" fill="#E6EAEC"/>
<path d="M56.9706 57.2717C56.8245 57.127 56.7078 57.0404 56.5331 56.9832C56.4457 56.9545 56.3584 56.9259 56.271 56.8973C56.0677 56.9274 55.9223 56.9281 55.7484 57.0162C55.6324 57.0749 55.5164 57.1336 55.4298 57.2503C55.3432 57.367 55.2566 57.4838 55.2279 57.5711C55.1413 57.6878 55.142 57.8332 55.2008 57.9491C55.2015 58.0945 55.2022 58.2398 55.3189 58.3265C55.3483 58.3844 55.407 58.5004 55.4944 58.5291C55.6404 58.6737 55.7571 58.7603 55.9318 58.8176C56.0192 58.8462 56.1065 58.8748 56.1939 58.9034C56.3972 58.8734 56.5426 58.8726 56.7166 58.7845C56.8325 58.7258 56.9485 58.6671 57.0351 58.5504C57.1218 58.4337 57.2084 58.317 57.237 58.2296C57.3236 58.1129 57.3229 57.9676 57.2642 57.8516C57.2634 57.7062 57.2627 57.5609 57.146 57.4743C57.0873 57.3583 57.0579 57.3003 56.9706 57.2717Z" fill="#E6EAEC"/>
<path d="M62.894 38.4632C62.7186 38.2606 62.5146 38.1453 62.2525 38.0595C62.1651 38.0308 62.0198 38.0316 61.9324 38.0029C61.6998 37.975 61.4384 38.0345 61.2065 38.1519C61.0325 38.24 60.8879 38.3861 60.8013 38.5028C60.6566 38.6489 60.57 38.7656 60.5421 38.9983C60.4849 39.173 60.4276 39.3477 60.4577 39.551C60.4878 39.7543 60.4885 39.8997 60.5766 40.0737C60.6353 40.1896 60.752 40.2763 60.8108 40.3922C60.9862 40.5948 61.1903 40.7101 61.4523 40.796C61.5397 40.8246 61.685 40.8239 61.7724 40.8525C62.0051 40.8804 62.2664 40.821 62.4983 40.7035C62.6723 40.6154 62.8169 40.4694 62.9035 40.3527C63.0482 40.2066 63.1348 40.0899 63.1627 39.8572C63.2199 39.6825 63.2772 39.5078 63.2471 39.3044C63.217 39.1011 63.1289 38.9271 63.0409 38.7532C62.9821 38.6372 62.9528 38.5792 62.894 38.4632Z" fill="#E6EAEC"/>
<path d="M35.6836 44.0066C34.8138 44.447 35.4891 45.7808 36.3589 45.3404C37.2288 44.9 36.5535 43.5662 35.6836 44.0066Z" fill="#E6EAEC"/>
<path d="M46.406 37.4125C46.2893 37.3259 46.1726 37.2392 46.0853 37.2106C45.9979 37.182 45.9399 37.2113 45.9105 37.1533C45.7652 37.1541 45.6199 37.1548 45.5039 37.2135C45.3879 37.2722 45.3299 37.3016 45.2433 37.4183C45.1273 37.477 45.0987 37.5644 45.0994 37.7097C45.0708 37.7971 45.0421 37.8844 45.0429 38.0298C45.0142 38.1171 45.073 38.2331 45.1317 38.3491C45.161 38.4071 45.1904 38.4651 45.2198 38.5231C45.3365 38.6097 45.4532 38.6963 45.5405 38.7249L45.7153 38.7822C45.8606 38.7815 46.0059 38.7807 46.1219 38.722C46.2379 38.6633 46.2959 38.6339 46.3825 38.5172C46.4985 38.4585 46.5271 38.3712 46.5264 38.2258C46.555 38.1385 46.5837 38.0511 46.5829 37.9058C46.6116 37.8184 46.5528 37.7024 46.4941 37.5864C46.4647 37.5285 46.4354 37.4705 46.406 37.4125Z" fill="#E6EAEC"/>
<path d="M52.4528 49.0675C51.409 49.596 52.2017 51.1617 53.2455 50.6333C54.3187 50.1628 53.4966 48.539 52.4528 49.0675Z" fill="#E6EAEC"/>
<path d="M49.2158 64.4034C48.8943 64.0562 48.4568 63.7677 48.0201 63.6246C47.7874 63.5967 47.5253 63.5108 47.2926 63.4829C46.7693 63.4565 46.3046 63.546 45.8407 63.7809C45.4927 63.957 45.1741 64.1912 44.9723 64.512C44.741 64.7748 44.5392 65.0955 44.4246 65.4449C44.3101 65.7944 44.2829 66.1724 44.3138 66.5211C44.2866 66.8991 44.4048 67.2764 44.5809 67.6244C44.7564 67.827 44.8738 68.0589 45.0492 68.2615C45.3707 68.6087 45.8082 68.8972 46.245 69.0404C46.4777 69.0683 46.7397 69.1542 46.9724 69.1821C47.4958 69.2085 47.9605 69.119 48.4244 68.8841C48.7724 68.7079 49.0909 68.4738 49.2928 68.153C49.524 67.8902 49.7259 67.5694 49.8404 67.22C49.955 66.8706 49.9821 66.4926 49.9513 66.1439C49.9785 65.7659 49.8603 65.3886 49.6841 65.0406C49.5087 64.838 49.3333 64.6354 49.2158 64.4034Z" fill="#E6EAEC"/>
<path d="M19.7624 51.5574L17.4993 52.4118L16.9296 54.7402L15.4667 52.858L13.026 53.0738L14.3238 51.0324L13.4408 48.8567L15.7692 49.4263L17.622 47.9054L17.7504 50.3175L19.7624 51.5574Z" fill="white"/>
<path d="M50.8128 17.7685L47.8121 16.4464L45.1173 18.175L45.3919 14.976L42.8815 12.8956L46.0754 12.1529L47.2522 9.15282L48.8942 11.9643L52.1218 12.1515L50.0121 14.604L50.8128 17.7685Z" fill="white"/>
<path d="M81.5237 49.3574L79.5791 49.9776L79.0073 51.87L77.8071 50.2191L75.8017 50.2873L77.0144 48.6534L76.3362 46.7382L78.2579 47.3681L79.9088 46.1679L79.8897 48.1447L81.5237 49.3574Z" fill="white"/>
</g>
<defs>
<clipPath id="clip0_279_2973">
<rect width="65" height="65" fill="white" transform="translate(0 29.3608) rotate(-26.853)"/>
</clipPath>
</defs>
</svg>
