<svg width="88" height="86" viewBox="0 0 88 86" fill="none" xmlns="http://www.w3.org/2000/svg">
<g clip-path="url(#clip0_202_743)">
<path d="M59.887 28.2225C56.125 25.8286 51.6136 24.6885 47.196 24.8852C36.0648 25.3481 26.3399 33.7689 25.6158 45.8653C25.3764 50.2851 26.3878 54.8729 28.6457 58.7569C30.9322 62.5534 34.4064 65.5301 38.4275 67.4285C42.4192 69.2688 46.9578 70.0309 51.3438 69.3403C55.7298 68.6496 59.8472 66.565 63.0587 63.5548C66.2703 60.5445 68.692 56.5498 69.7169 52.2424C70.799 47.7603 70.3102 43.0536 68.5155 38.7894C66.8369 34.4665 63.795 30.7609 59.887 28.2225Z" fill="#FF986D"/>
<path d="M72.8893 29.8723C71.8088 28.8893 70.3282 29.2747 69.139 29.8039C67.6019 30.5093 66.1814 31.3013 64.7618 32.2386C64.7038 32.268 64.6458 32.2974 64.6458 32.2974C64.6751 32.3554 64.7339 32.4713 64.7632 32.5293C64.7926 32.5873 64.8799 32.6159 64.9093 32.6739C64.9387 32.7319 65.0554 32.8185 65.0847 32.8765C65.5773 32.5543 66.0992 32.2901 66.5918 31.9678C67.6642 31.352 68.882 30.7354 70.0719 30.3515C70.5072 30.204 71.0879 30.0557 71.5246 30.1989C71.9614 30.342 72.2535 30.6312 72.4591 31.0372C72.9288 31.965 72.7306 33.0125 72.2116 33.8581C71.6354 34.8785 70.855 35.7835 70.0747 36.6886C69.2658 37.681 68.4275 38.6155 67.5892 39.5499C65.9125 41.4187 64.1772 43.1716 62.3545 44.8959C58.7091 48.3444 54.7422 51.4456 50.6285 54.257C46.4274 57.0396 41.9922 59.5038 37.4388 61.5906C35.1185 62.6196 32.8267 63.5614 30.4183 64.4165C29.3737 64.7996 28.3871 65.1534 27.2545 65.3626C26.4705 65.541 25.4825 65.6041 24.7249 65.259C24.4335 65.1152 24.2001 64.9419 24.0826 64.71C23.8463 63.9553 23.8426 63.2286 24.1583 62.4131C24.4153 61.4816 24.8763 60.6653 25.3079 59.7911C25.5384 59.383 25.7395 58.9168 25.9987 58.4214C26.1998 57.9552 26.5177 57.5757 26.8062 57.1383C27.066 56.7881 27.2679 56.4673 27.5278 56.1172C27.4397 55.9432 27.3222 55.7113 27.2342 55.5373C27.1182 55.596 27.0316 55.7127 26.9156 55.7715C26.3364 56.2104 25.8739 56.736 25.3535 57.2909C24.833 57.8458 24.3126 58.4008 23.9382 59.1003C23.5344 59.7419 23.2474 60.47 22.931 61.1402C22.3562 62.4512 21.8996 64.1395 23.0682 65.2964C23.3897 65.6436 23.8859 66.0481 24.41 66.2199C24.9341 66.3917 25.4868 66.4761 26.0389 66.4152C27.2596 66.38 28.4495 65.9961 29.5814 65.6416C31.0613 65.1109 32.5411 64.5802 34.021 64.0496C36.864 62.9016 39.7063 61.6082 42.4319 60.2283C47.9697 57.3517 53.1852 53.9825 58.0491 50.0628C62.8551 46.1724 67.2808 41.8188 71.2397 37.1188C72.1352 36.0097 73.2341 34.8704 73.7216 33.5308C74.0351 32.2792 73.853 30.7686 72.8893 29.8723Z" fill="white"/>
<path d="M43.5873 29.8452C43.5286 29.7292 43.4118 29.6426 43.2951 29.5559C43.2078 29.5273 43.1204 29.4987 43.0037 29.4121C42.829 29.3548 42.5963 29.3269 42.4223 29.415C42.3064 29.4737 42.2484 29.5031 42.103 29.5038C41.9291 29.5919 41.7844 29.738 41.6398 29.884C41.5818 29.9134 41.5532 30.0007 41.4952 30.0301C41.4086 30.1468 41.3513 30.3215 41.3227 30.4089C41.2654 30.5836 41.2662 30.7289 41.3249 30.8449C41.3256 30.9902 41.4137 31.1642 41.5304 31.2508C41.5891 31.3668 41.7059 31.4534 41.8226 31.5401C41.9099 31.5687 41.9973 31.5973 42.114 31.6839C42.2887 31.7412 42.5214 31.7691 42.6954 31.681C42.8113 31.6223 42.8693 31.5929 43.0147 31.5922C43.1886 31.5041 43.3333 31.3581 43.4779 31.212C43.5359 31.1826 43.5645 31.0953 43.6225 31.0659C43.7091 30.9492 43.7664 30.7745 43.795 30.6871C43.8523 30.5124 43.8515 30.3671 43.7928 30.2511C43.7047 30.0771 43.646 29.9612 43.5873 29.8452Z" fill="#E6EAEC"/>
<path d="M41.633 40.0873C40.3572 40.7333 41.3848 42.7629 42.6606 42.117C43.9944 41.4417 42.9668 39.412 41.633 40.0873Z" fill="#E6EAEC"/>
<path d="M51.8857 32.565C50.7839 33.1229 51.6353 34.8046 52.7372 34.2467C53.8683 33.7469 52.9875 32.0072 51.8857 32.565Z" fill="#E6EAEC"/>
<path d="M56.1129 40.7704C55.9081 40.5098 55.5873 40.3079 55.2673 40.2514C54.9179 40.1368 54.6272 40.1383 54.2785 40.1691C53.9592 40.2579 53.6113 40.4341 53.3507 40.6389L53.2927 40.6683C53.0321 40.8731 52.8302 41.1938 52.7157 41.5432C52.6012 41.8926 52.5446 42.2127 52.6628 42.59C52.781 42.9673 52.9278 43.2573 53.1619 43.5758C53.3667 43.8364 53.6875 44.0383 54.0369 44.1528C54.3863 44.2674 54.7064 44.3239 55.0837 44.2057C55.461 44.0875 55.7509 43.9407 56.0695 43.7066C56.3301 43.5018 56.532 43.181 56.6465 42.8316C56.761 42.4822 56.8176 42.1621 56.6994 41.7848L56.67 41.7268C56.4939 41.3789 56.3177 41.031 56.1129 40.7704Z" fill="#E6EAEC"/>
<path d="M46.766 49.2184C46.6199 49.0738 46.4158 48.9585 46.2411 48.9013C46.1538 48.8726 46.0084 48.8734 45.9211 48.8447C45.6884 48.8168 45.4851 48.8469 45.2531 48.9644C45.0791 49.0524 44.9631 49.1112 44.9059 49.2859C44.8193 49.4026 44.7326 49.5193 44.6754 49.694C44.6181 49.8687 44.6189 50.014 44.6196 50.1594C44.6203 50.3047 44.6504 50.5081 44.7091 50.624C44.7679 50.74 44.7972 50.798 44.9139 50.8846C45.06 51.0293 45.2641 51.1445 45.4388 51.2018C45.5261 51.2304 45.6715 51.2297 45.7588 51.2583C45.9915 51.2862 46.1948 51.2561 46.4268 51.1387C46.6008 51.0506 46.7168 50.9919 46.774 50.8172C46.8606 50.7004 46.9473 50.5837 47.0045 50.409C47.0618 50.2343 47.0611 50.089 47.0603 49.9436C47.0596 49.7983 47.0009 49.6823 46.9128 49.5083C46.8834 49.4503 46.8247 49.3344 46.766 49.2184Z" fill="#E6EAEC"/>
<path d="M63.7352 47.7668C60.7776 49.2642 63.0971 53.8455 66.0546 52.3481C69.0122 50.8507 66.6927 46.2695 63.7352 47.7668Z" fill="#E6EAEC"/>
<path d="M56.9707 55.2715C56.8246 55.1269 56.7079 55.0403 56.5332 54.983C56.4458 54.9544 56.3585 54.9258 56.2711 54.8972C56.0678 54.9272 55.9224 54.928 55.7485 55.0161C55.6325 55.0748 55.5165 55.1335 55.4299 55.2502C55.3433 55.3669 55.2566 55.4836 55.228 55.571C55.1414 55.6877 55.1421 55.833 55.2008 55.949C55.2016 56.0944 55.2023 56.2397 55.319 56.3263C55.3484 56.3843 55.4071 56.5003 55.4944 56.5289C55.6405 56.6735 55.7572 56.7602 55.9319 56.8174C56.0193 56.8461 56.1066 56.8747 56.194 56.9033C56.3973 56.8732 56.5427 56.8725 56.7166 56.7844C56.8326 56.7257 56.9486 56.667 57.0352 56.5503C57.1218 56.4335 57.2085 56.3168 57.2371 56.2295C57.3237 56.1128 57.323 55.9674 57.2643 55.8514C57.2635 55.7061 57.2628 55.5608 57.1461 55.4741C57.0874 55.3582 57.058 55.3002 56.9707 55.2715Z" fill="#E6EAEC"/>
<path d="M62.8935 36.4631C62.718 36.2605 62.514 36.1452 62.2519 36.0593C62.1646 36.0307 62.0192 36.0314 61.9319 36.0028C61.6992 35.9749 61.4379 36.0344 61.2059 36.1518C61.0319 36.2399 60.8873 36.3859 60.8007 36.5027C60.6561 36.6487 60.5694 36.7654 60.5415 36.9981C60.4843 37.1728 60.427 37.3475 60.4571 37.5509C60.4872 37.7542 60.4879 37.8996 60.576 38.0735C60.6347 38.1895 60.7515 38.2761 60.8102 38.3921C60.9856 38.5947 61.1897 38.71 61.4517 38.7959C61.5391 38.8245 61.6844 38.8238 61.7718 38.8524C62.0045 38.8803 62.2658 38.8208 62.4978 38.7034C62.6717 38.6153 62.8163 38.4692 62.903 38.3525C63.0476 38.2065 63.1342 38.0897 63.1621 37.857C63.2194 37.6823 63.2766 37.5076 63.2465 37.3043C63.2164 37.101 63.1284 36.927 63.0403 36.753C62.9816 36.637 62.9522 36.5791 62.8935 36.4631Z" fill="#E6EAEC"/>
<path d="M35.6834 42.0067C34.8136 42.4471 35.4889 43.7809 36.3587 43.3405C37.2286 42.9001 36.5533 41.5663 35.6834 42.0067Z" fill="#E6EAEC"/>
<path d="M46.4059 35.4122C46.2892 35.3256 46.1725 35.239 46.0851 35.2104C45.9978 35.1817 45.9398 35.2111 45.9104 35.1531C45.7651 35.1538 45.6197 35.1546 45.5038 35.2133C45.3878 35.272 45.3298 35.3014 45.2432 35.4181C45.1272 35.4768 45.0986 35.5641 45.0993 35.7095C45.0707 35.7968 45.042 35.8842 45.0428 36.0295C45.0141 36.1169 45.0728 36.2329 45.1316 36.3489C45.1609 36.4068 45.1903 36.4648 45.2196 36.5228C45.3364 36.6094 45.4531 36.6961 45.5404 36.7247L45.7151 36.782C45.8605 36.7812 46.0058 36.7805 46.1218 36.7218C46.2378 36.6631 46.2958 36.6337 46.3824 36.517C46.4984 36.4583 46.527 36.3709 46.5263 36.2256C46.5549 36.1382 46.5835 36.0509 46.5828 35.9055C46.6114 35.8182 46.5527 35.7022 46.494 35.5862C46.4646 35.5282 46.4353 35.4702 46.4059 35.4122Z" fill="#E6EAEC"/>
<path d="M52.4528 47.0677C51.4089 47.5962 52.2017 49.162 53.2455 48.6335C54.3187 48.163 53.4966 46.5392 52.4528 47.0677Z" fill="#E6EAEC"/>
<path d="M49.216 62.4034C48.8944 62.0562 48.457 61.7677 48.0202 61.6246C47.7875 61.5967 47.5254 61.5108 47.2928 61.4829C46.7694 61.4565 46.3047 61.546 45.8408 61.7809C45.4928 61.957 45.1743 62.1912 44.9724 62.512C44.7412 62.7748 44.5393 63.0955 44.4248 63.4449C44.3102 63.7944 44.2831 64.1724 44.3139 64.5211C44.2867 64.8991 44.4049 65.2764 44.5811 65.6244C44.7565 65.827 44.8739 66.0589 45.0494 66.2615C45.3709 66.6087 45.8084 66.8972 46.2451 67.0404C46.4778 67.0683 46.7399 67.1542 46.9726 67.1821C47.4959 67.2085 47.9606 67.119 48.4245 66.8841C48.7725 66.7079 49.0911 66.4738 49.2929 66.153C49.5242 65.8902 49.726 65.5694 49.8406 65.22C49.9551 64.8706 49.9822 64.4926 49.9514 64.1439C49.9786 63.7659 49.8604 63.3886 49.6843 63.0406C49.5088 62.838 49.3334 62.6354 49.216 62.4034Z" fill="#E6EAEC"/>
<path d="M19.7624 49.5575L17.4992 50.4119L16.9296 52.7403L15.4666 50.8582L13.0259 51.0739L14.3238 49.0325L13.4408 46.8568L15.7692 47.4265L17.6219 45.9055L17.7503 48.3176L19.7624 49.5575Z" fill="white"/>
<path d="M50.8129 15.7684L47.8122 14.4463L45.1174 16.1749L45.392 12.9759L42.8816 10.8955L46.0755 10.1527L47.2523 7.1527L48.8943 9.96416L52.1219 10.1514L50.0122 12.6038L50.8129 15.7684Z" fill="white"/>
<path d="M81.5235 47.3577L79.5789 47.9779L79.0071 49.8703L77.8069 48.2194L75.8015 48.2876L77.0142 46.6536L76.336 44.7384L78.2577 45.3683L79.9086 44.1682L79.8895 46.145L81.5235 47.3577Z" fill="white"/>
</g>
<defs>
<clipPath id="clip0_202_743">
<rect width="65" height="65" fill="white" transform="translate(0 27.3607) rotate(-26.853)"/>
</clipPath>
</defs>
</svg>
