<svg width="65" height="65" viewBox="0 0 65 65" fill="none" xmlns="http://www.w3.org/2000/svg">
<g clip-path="url(#clip0_202_567)">
<path d="M57.915 31.6548C59.8 29.5098 60.97 26.7148 61.62 23.9198C61.88 22.8798 62.075 21.8398 62.79 21.0598C62.79 24.5048 62.075 28.0148 60.58 31.1348C59.02 34.4498 56.485 37.5698 53.04 38.6748C52 38.9998 50.765 39.1298 49.92 38.4798C47.84 36.9198 50.44 35.6848 51.74 35.3598C54.145 34.6448 56.16 33.6048 57.915 31.6548Z" fill="#4390FF"/>
<path d="M55.9 9.35966L54.86 15.1447L51.285 14.2347L53.365 8.77466L55.9 9.35966Z" fill="#4D96FF"/>
<path d="M6.04504 10.8547L12.35 62.0097C12.35 62.0097 12.48 62.8547 13.325 63.5047C14.17 64.1547 15.405 64.6747 15.405 64.6747L14.3 11.1797L6.04504 10.8547Z" fill="#4390FF"/>
<path d="M60.645 20.7347C60.515 20.5397 60.385 20.4097 60.385 20.1497C60.32 19.9547 60.45 19.6947 60.645 19.6297C60.84 19.5647 61.0999 19.7597 61.1649 19.9547C61.2949 20.1497 61.3599 20.3447 61.5549 20.4747C61.5549 19.6947 61.6199 18.8497 61.7499 18.0697C61.8149 17.8747 61.8799 17.6147 62.0749 17.6147C62.2049 17.6147 62.3999 17.6797 62.4649 17.8747C62.5299 18.0047 62.5299 18.1997 62.5299 18.3297C62.6599 18.1347 62.595 17.8747 62.66 17.6147C62.725 17.3547 62.9849 17.1597 63.1799 17.2897C63.3099 17.3547 63.31 17.5497 63.31 17.6797C63.31 17.9397 63.31 18.1997 63.31 18.3947C63.31 18.2647 63.3099 18.1997 63.3749 18.1347C63.4399 18.0697 63.505 18.0047 63.635 18.0047C63.7 18.0047 63.7649 18.0697 63.7649 18.1347C64.0899 18.5897 64.025 19.2397 63.895 19.7597C63.57 21.5147 62.9849 23.2697 62.1399 24.8297C61.8799 25.3497 61.75 24.8297 61.685 24.5047C61.62 24.0497 61.685 23.5947 61.62 23.1397C61.425 22.2947 61.1 21.4497 60.645 20.7347Z" fill="#4390FF"/>
<path d="M9.10003 38.9996C6.89003 40.8196 5.33003 43.3546 4.16003 46.0196C3.77003 46.9946 3.38003 47.9696 2.53503 48.6196C3.05503 45.1746 4.42003 41.9246 6.37003 39.0646C8.45003 36.0096 11.44 33.4096 15.015 32.8896C16.12 32.6946 17.355 32.8246 18.07 33.6046C19.825 35.4896 17.095 36.2696 15.795 36.3996C13.325 36.6596 11.115 37.3746 9.10003 38.9996Z" fill="#4390FF"/>
<path d="M4.61499 49.3347C4.67999 49.5297 4.80999 49.7247 4.80999 49.9197C4.80999 50.1147 4.67999 50.3747 4.48499 50.3747C4.28999 50.3747 4.09499 50.1797 3.96499 49.9847C3.89999 49.7897 3.83499 49.5297 3.70499 49.3997C3.57499 50.1797 3.37999 50.9597 3.11999 51.7397C3.05499 51.9347 2.92499 52.1297 2.72999 52.1297C2.59999 52.1297 2.46999 51.9997 2.40499 51.8697C2.33999 51.7397 2.40499 51.5447 2.40499 51.4147C2.27499 51.6097 2.27499 51.8697 2.20999 52.1297C2.14499 52.3897 1.81999 52.5197 1.62499 52.3897C1.49499 52.2597 1.55999 52.1297 1.55999 51.9997C1.62499 51.7397 1.62499 51.4797 1.68999 51.2847C1.68999 51.3497 1.62499 51.4797 1.55999 51.5447C1.49499 51.6097 1.36499 51.6747 1.29999 51.6097C1.23499 51.6097 1.23499 51.5447 1.16999 51.4797C0.909993 50.9597 1.10499 50.3747 1.29999 49.8547C1.88499 48.1647 2.79499 46.5397 3.89999 45.1097C4.28999 44.6547 4.28999 45.1747 4.28999 45.4997C4.28999 45.9547 4.15999 46.4097 4.15999 46.7997C4.09499 47.6447 4.28999 48.4897 4.61499 49.3347Z" fill="#4390FF"/>
<path d="M9.29504 14.2346L15.47 64.6746H52.26L58.11 14.2346H9.29504Z" fill="#5AB1FF"/>
<path d="M9.29504 14.2346C9.29504 14.2346 5.91504 13.1946 6.04504 10.9196C6.17504 8.64464 10.075 8.25464 10.075 8.25464H55.38L55.965 9.35964L54.925 9.48964L51.805 12.4796L57.265 12.9346L58.175 14.2346H9.29504Z" fill="#83C4FF"/>
<path d="M54.925 9.4248H9.87999L9.62 12.5448L56.745 12.8698C56.745 12.8698 55.705 12.0248 55.185 11.1148C54.47 9.9448 54.925 9.4248 54.925 9.4248Z" fill="#FFECBB"/>
<path d="M9.87996 9.42467C9.87996 9.42467 8.12496 9.22967 7.73496 10.5947C7.27996 12.4147 9.61996 12.5447 9.61996 12.5447L9.87996 9.42467Z" fill="#4D96FF"/>
<path d="M10.53 10.3996C11.895 10.4646 13.195 10.4646 14.56 10.4646C15.925 10.4646 17.225 10.4646 18.59 10.4646C21.255 10.4646 23.985 10.4646 26.65 10.4646C31.98 10.4646 37.375 10.5296 42.705 10.4646C44.2 10.4646 45.695 10.3996 47.255 10.3996C48.75 10.3996 50.245 10.3996 51.805 10.3996C51.87 10.3996 51.87 10.3346 51.805 10.3346C49.14 10.2696 46.41 10.3346 43.745 10.2696C41.08 10.2046 38.35 10.2046 35.685 10.2046C30.355 10.2046 24.96 10.2046 19.63 10.2046C18.135 10.2046 16.64 10.2046 15.08 10.2046C13.585 10.2696 12.09 10.2696 10.53 10.3996Z" fill="#FFCB92"/>
<path d="M10.53 11.5048C11.83 11.5698 13.195 11.5698 14.495 11.5698C15.795 11.5698 17.16 11.5698 18.46 11.5698C21.125 11.5698 23.725 11.5698 26.39 11.5698C27.105 11.5698 27.885 11.5698 28.6 11.5698C29.315 11.5698 30.095 11.5698 30.81 11.5698C30.875 11.5698 30.875 11.4398 30.81 11.4398C30.16 11.3748 29.445 11.4398 28.795 11.4398C28.145 11.4398 27.495 11.4398 26.845 11.4398C25.545 11.4398 24.18 11.4398 22.88 11.4398C20.215 11.4398 17.615 11.4398 14.95 11.4398C13.52 11.4398 12.025 11.3748 10.53 11.5048Z" fill="#FFCB92"/>
<path d="M14.17 10.9848C15.47 11.0498 16.77 10.9848 18.135 10.9848C19.435 10.9848 20.735 10.9848 22.1 10.9848C24.7 10.9848 27.365 10.9848 29.965 10.9848C35.165 10.9848 40.43 10.9848 45.63 10.9848C47.125 10.9848 48.555 10.9848 50.05 10.9848C51.545 10.9848 52.975 10.9848 54.47 10.9848C54.535 10.9848 54.535 10.8548 54.47 10.8548C51.87 10.7898 49.205 10.8548 46.605 10.8548C44.005 10.8548 41.34 10.8548 38.74 10.8548C33.54 10.8548 28.275 10.8548 23.075 10.8548C21.58 10.8548 20.15 10.8548 18.655 10.8548C17.095 10.9198 15.6 10.9198 14.17 10.9848C14.105 10.9848 14.105 10.9848 14.17 10.9848Z" fill="#FFCB92"/>
<path d="M12.935 12.2197C18.265 12.2847 23.66 12.2847 28.99 12.2847C34.32 12.2847 39.65 12.2847 44.98 12.2847C47.97 12.2847 50.96 12.2847 54.015 12.2847C54.145 12.2847 54.145 12.0897 54.015 12.0897C48.685 12.0247 43.29 12.0897 37.96 12.0897C32.63 12.0897 27.3 12.0897 21.97 12.0897C18.915 12.1547 15.925 12.1547 12.935 12.2197C12.87 12.2197 12.87 12.2197 12.935 12.2197Z" fill="#FFCB92"/>
<path d="M32.1099 10.8547L30.9399 6.75973L44.5249 4.09473L45.9549 10.8547H32.1099Z" fill="#FFC043"/>
<path d="M41.535 10.9847C41.34 9.16471 41.47 7.21471 42.055 5.45971C42.64 3.70471 43.81 2.07971 45.37 1.10471C45.24 2.01471 45.175 2.92471 45.24 3.83471C45.695 2.66471 46.865 1.94971 47.97 1.29971C48.75 0.844707 49.53 0.389707 50.44 0.324707C49.14 1.88471 48.49 3.89971 48.035 5.91471C47.645 7.53971 47.32 9.35971 47.905 10.9197L41.535 10.9847Z" fill="#E86A43"/>
<path d="M12.415 11.5046L13.715 5.5896L24.57 8.5796L23.855 11.5046H12.415Z" fill="#7FC133"/>
<path d="M15.86 20.0847C15.6 20.4097 15.405 20.7997 15.34 21.2547C15.34 21.3197 15.34 21.3847 15.34 21.4497C15.405 21.5797 15.6 21.5147 15.73 21.4497C17.485 20.3447 19.24 19.3047 20.995 18.1997C21.19 18.0697 21.385 17.9397 21.515 17.7447C21.645 17.5497 21.71 17.2897 21.58 17.0947C21.515 16.9647 21.385 16.8997 21.19 16.8347C20.02 16.3797 19.305 17.0947 18.395 17.6797C17.42 18.2647 16.575 19.1097 15.86 20.0847Z" fill="#413E49"/>
<path d="M50.245 19.6948C50.505 20.0198 50.7 20.4098 50.765 20.8648C50.765 20.9298 50.765 20.9948 50.765 21.0598C50.7 21.1898 50.505 21.1248 50.375 21.0598C48.62 19.9548 46.865 18.9148 45.11 17.8098C44.915 17.6798 44.72 17.5498 44.59 17.3548C44.46 17.1598 44.395 16.8998 44.525 16.7048C44.59 16.5748 44.72 16.5098 44.915 16.4448C46.085 15.9898 46.8 16.7048 47.71 17.2898C48.685 17.9398 49.595 18.7198 50.245 19.6948Z" fill="#413E49"/>
<path d="M33.4099 40.4946C33.3449 40.4946 33.3449 40.4946 33.4099 40.4946C33.3449 40.4946 33.2799 40.4946 33.2799 40.4946C30.2249 40.5596 27.1699 39.0646 25.2849 36.7246C25.5449 37.8296 25.8699 38.8696 26.1299 39.9746C26.5849 41.6646 27.0399 43.3546 27.8849 44.8496C28.7299 46.3446 30.0949 47.6446 31.7199 48.0996C32.2399 48.2296 32.8249 48.2946 33.3449 48.2946C33.8649 48.3596 34.4499 48.2946 34.9699 48.0996C36.5949 47.6446 37.9599 46.3446 38.8049 44.8496C39.6499 43.3546 40.1049 41.6646 40.5599 39.9746C40.8199 38.9346 41.1449 37.8296 41.4049 36.7246C39.5199 39.0646 36.3999 40.5596 33.4099 40.4946Z" fill="#413E49"/>
<path d="M33.345 40.4947C33.28 40.4947 33.215 40.4947 33.215 40.4947C30.875 40.5597 28.535 39.6497 26.715 38.2197C26.78 38.6747 26.78 39.1297 26.78 39.5847C26.78 39.7147 26.78 39.9097 26.845 40.0397C26.91 40.2347 27.04 40.4297 27.235 40.6247C28.34 41.8597 29.965 42.4447 31.59 42.7047C34.255 43.0947 37.05 42.4447 39.325 40.8847C39.455 40.8197 39.585 40.6897 39.715 40.4947C39.78 40.2997 39.78 40.0397 39.78 39.8447C39.715 39.3897 39.65 38.8697 39.585 38.4147C37.765 39.7797 35.555 40.5597 33.345 40.4947Z" fill="white"/>
<path d="M37.635 46.3446C37.635 46.2796 37.57 46.2146 37.505 46.0846C36.92 44.8496 35.49 44.0696 34.19 44.1996C33.605 44.2646 33.02 44.5246 32.89 45.0446C32.045 44.3946 30.81 44.3946 29.965 45.0446C29.38 45.4346 29.185 45.9546 29.12 46.4746C29.835 47.1896 30.68 47.7746 31.655 48.0346C32.175 48.1646 32.76 48.2296 33.28 48.2296C33.8 48.2946 34.385 48.2296 34.905 48.0346C35.945 47.7746 36.855 47.1896 37.635 46.3446Z" fill="#FF624D"/>
<path d="M24.6349 37.1797C24.5699 37.1147 24.5699 36.9197 24.5699 36.8547C24.5699 36.7247 24.5699 36.6597 24.5699 36.5297C24.6349 36.3347 24.6999 36.1397 24.8299 35.9447C24.9599 35.8147 25.1549 35.7497 25.3499 35.7497C25.5449 35.7497 25.7399 35.9447 25.8699 36.0097C25.9349 36.0747 25.9999 36.0097 25.9349 35.9447C25.8049 35.7497 25.6749 35.6197 25.4799 35.5547C25.2849 35.4897 25.0899 35.4897 24.8949 35.6197C24.5049 35.8147 24.3099 36.2697 24.3099 36.6597C24.3099 36.7897 24.3099 36.9197 24.3749 36.9847C24.5049 37.1797 24.5699 37.1797 24.6349 37.1797C24.6999 37.2447 24.6999 37.1797 24.6349 37.1797Z" fill="#413E49"/>
<path d="M40.7549 36.5946C40.8849 36.3996 41.0799 36.2046 41.3399 36.0746C41.5999 35.9446 41.8599 35.9446 42.0549 36.1396C42.5099 36.5296 42.2499 37.1796 42.1199 37.6996C42.1199 37.7646 42.1849 37.7646 42.1849 37.6996C42.4449 37.2446 42.6399 36.6596 42.3799 36.2046C42.2499 36.0096 42.1199 35.8796 41.9249 35.8146C41.6649 35.7496 41.4049 35.8146 41.2099 35.9446C41.0799 36.0096 41.0149 36.0746 40.9499 36.2046C40.7549 36.3346 40.7549 36.4646 40.7549 36.5946C40.6899 36.5946 40.6899 36.5946 40.7549 36.5946Z" fill="#413E49"/>
<path d="M18.72 59.0849C18.72 58.9549 18.785 58.8249 18.915 58.8249C18.98 58.8249 19.045 58.8249 19.175 58.8899C19.305 58.9549 19.37 58.9549 19.435 58.9549C19.5 58.9549 19.63 58.8899 19.695 58.8249C19.76 58.6949 19.825 58.6299 19.89 58.4349C20.02 58.1099 20.02 57.8499 20.02 57.5899C20.02 57.3299 19.955 57.0699 19.89 56.8099C19.825 56.5499 19.695 56.2899 19.565 56.0299C19.435 55.7699 19.305 55.5099 19.175 55.3149C18.85 54.7299 18.72 54.2099 18.72 53.6899C18.72 53.2349 18.85 52.8449 19.175 52.5849C19.305 52.4549 19.5 52.3899 19.695 52.3899C19.825 52.3899 19.89 52.3899 20.02 52.4549C20.15 52.5199 20.215 52.5849 20.215 52.7149L20.085 52.9099C19.955 52.9099 19.825 52.9099 19.76 52.8449C19.63 52.8449 19.565 52.9099 19.5 52.9749C19.37 53.1699 19.305 53.3649 19.305 53.6249C19.305 53.8849 19.305 54.1449 19.37 54.3399C19.435 54.5999 19.5 54.7949 19.63 54.9899C19.695 55.1849 19.825 55.3799 19.955 55.5749C20.085 55.7699 20.15 56.0299 20.28 56.2249C20.475 56.6799 20.605 57.1999 20.605 57.7199C20.605 58.1099 20.54 58.4349 20.345 58.8249C20.28 59.0199 20.15 59.1499 19.955 59.2149C19.825 59.3449 19.63 59.3449 19.435 59.3449C19.24 59.3449 19.045 59.3449 18.915 59.2799C18.785 59.2149 18.72 59.1499 18.72 59.0849Z" fill="#3972FF"/>
<path d="M22.1649 54.0148V55.1848L22.2299 57.1998L22.2949 58.8248C22.2949 59.0848 22.2299 59.2798 22.0349 59.2798C21.9699 59.2798 21.8399 59.2148 21.8399 59.1498C21.7749 59.0848 21.7749 58.9548 21.7749 58.8248L21.8399 57.3948C21.8399 57.0698 21.8399 56.6148 21.7749 56.0298C21.7099 55.4448 21.7099 54.9248 21.7099 54.6648V53.8848C21.7099 53.4298 21.7099 53.1698 21.6449 53.0398L21.1899 53.1048C21.1249 53.1048 21.0599 53.1048 20.9949 53.0398C20.9299 52.9748 20.9299 52.9098 20.9299 52.8448C20.9299 52.7798 20.9949 52.7148 21.1249 52.6498C21.2549 52.5848 21.4499 52.5848 21.6449 52.5198C21.9699 52.4548 22.2949 52.4548 22.5549 52.4548C22.6199 52.4548 22.6849 52.4548 22.7499 52.5198C22.8149 52.5848 22.8149 52.6498 22.8149 52.7148C22.8149 52.7798 22.8149 52.8448 22.7499 52.9098C22.6849 52.9748 22.6199 52.9748 22.5549 52.9748H22.2299C22.1649 52.9748 22.1649 52.9748 22.1649 52.9748C22.1649 53.2998 22.1649 53.6248 22.1649 54.0148Z" fill="#3972FF"/>
<path d="M23.14 54.3399V52.9749C23.075 52.9099 23.075 52.8449 23.075 52.7799C23.075 52.7149 23.075 52.6499 23.14 52.5849C23.205 52.5199 23.27 52.5199 23.335 52.5199C23.53 52.5199 23.66 52.7149 23.66 53.1699L23.725 56.2249C23.79 56.2899 23.79 56.4849 23.79 56.6799C23.79 56.9399 23.855 57.0699 23.855 57.1999C23.855 57.3299 23.855 57.5249 23.92 57.6549C23.985 57.8499 24.05 58.0449 24.115 58.2399C24.18 58.4349 24.31 58.6299 24.44 58.7599C24.57 58.8899 24.7 58.9549 24.765 58.9549C24.895 58.9549 24.96 58.9549 25.025 58.8899C25.09 58.8249 25.09 58.7599 25.155 58.6949C25.155 58.5649 25.22 58.3699 25.22 58.1749V56.4199C25.22 56.2249 25.22 55.9649 25.155 55.5749C25.09 55.1849 25.09 54.9249 25.09 54.7299V54.6649V54.1449L25.025 52.6499C25.025 52.5849 25.09 52.5199 25.155 52.4549C25.22 52.3899 25.285 52.3899 25.35 52.3899L25.545 52.5849V52.7149L25.48 53.2349C25.48 53.7549 25.48 54.4699 25.545 55.4449C25.61 56.4199 25.61 57.1349 25.61 57.4599C25.61 57.7849 25.61 58.0449 25.61 58.1749C25.61 58.3049 25.61 58.4349 25.545 58.5649C25.48 58.6949 25.48 58.8249 25.415 58.8899C25.285 59.0849 25.09 59.2149 24.765 59.2149C24.44 59.2149 24.115 59.0849 23.92 58.7599C23.66 58.4349 23.53 58.0449 23.465 57.5249C23.335 57.0049 23.27 56.4849 23.27 56.0949C23.14 55.5749 23.14 54.9249 23.14 54.3399Z" fill="#3972FF"/>
<path d="M28.4049 55.8998V56.0948C28.4049 56.4848 28.2749 57.0048 28.0799 57.5898C27.8199 58.2398 27.5599 58.6948 27.1699 58.9548C26.9749 59.0848 26.7799 59.2148 26.5849 59.2148C26.4549 59.2148 26.3899 59.2148 26.2599 59.1498C26.1949 59.0848 26.1299 59.0198 26.1299 58.9548C26.2599 58.8248 26.3249 58.4998 26.3249 57.9148C26.3249 57.5898 26.3249 57.0698 26.2599 56.4198C26.1949 55.7698 26.1949 55.3148 26.1949 54.9898V54.0148C26.1949 53.8848 26.1949 53.6248 26.1299 53.3648C26.0649 53.1048 26.0649 52.9098 26.0649 52.7798C26.0649 52.5848 26.2599 52.4548 26.7149 52.4548H26.8449C27.4299 52.4548 27.8849 52.7798 28.1449 53.4948C28.3399 53.9498 28.4049 54.5998 28.4049 55.4448V55.8348V55.8998ZM26.7799 57.8498V58.6948C26.9749 58.5648 27.1699 58.3698 27.3649 58.1098C27.4949 57.8498 27.6249 57.5898 27.7549 57.2648C27.8849 56.6798 28.0149 56.0948 28.0149 55.5098C28.0149 54.8598 27.9499 54.3398 27.7549 53.9498C27.5599 53.5598 27.3649 53.2998 27.1049 53.1698C26.9749 53.1048 26.7799 53.0398 26.5849 53.0398C26.5849 53.5598 26.6499 54.4048 26.7149 55.4448C26.7799 56.4848 26.7799 57.2648 26.7799 57.8498Z" fill="#3972FF"/>
<path d="M29.965 55.8998H29.77C29.705 55.8998 29.64 55.8998 29.575 55.9648V58.6948C29.9 58.6948 30.03 58.6948 30.03 58.6948C30.355 58.6948 30.55 58.7598 30.55 58.9548C30.485 59.0198 30.42 59.0848 30.355 59.1498C30.29 59.2148 30.16 59.2148 30.095 59.2148C30.03 59.2148 29.9 59.2148 29.835 59.2148H29.575C29.38 59.2148 29.25 59.1498 29.185 59.0848C29.185 59.0198 29.12 59.0198 29.12 58.9548V53.8198C29.12 53.6898 29.12 53.5598 29.055 53.3648C28.99 53.1698 28.99 53.0398 28.99 52.9098C29.055 52.7798 29.185 52.6498 29.185 52.5848L29.835 52.5198C29.9 52.5198 30.03 52.5198 30.095 52.5848C30.16 52.6498 30.225 52.7148 30.225 52.7798C30.225 52.9748 30.095 53.0398 29.835 53.0398H29.575C29.51 53.0398 29.51 53.0398 29.51 53.0398L29.575 54.5348C29.575 54.6648 29.575 54.7948 29.575 55.0548C29.575 55.2498 29.575 55.4448 29.575 55.5748C29.575 55.5748 29.64 55.5748 29.705 55.5748C29.835 55.5748 29.9 55.5098 29.965 55.5098C30.03 55.5098 30.095 55.5098 30.16 55.5748C30.225 55.6398 30.225 55.7048 30.225 55.7698C30.225 55.8348 30.225 55.8998 30.16 55.9648C30.03 55.8998 30.03 55.8998 29.965 55.8998Z" fill="#3972FF"/>
<path d="M30.9399 54.5347L31.0049 52.9097V52.8447C31.0049 52.5197 31.0699 52.3897 31.1999 52.3897C31.3299 52.3897 31.4599 52.6497 31.6549 53.2347C32.0449 54.2097 32.4349 55.8997 32.9549 58.1747V58.2397L33.0199 55.1197V52.5197C33.0849 52.3897 33.1499 52.3247 33.2799 52.3247C33.4099 52.3247 33.5399 52.4547 33.5399 52.6497C33.4749 52.7147 33.4749 52.7797 33.4749 52.9097L33.4099 56.1597V58.8897C33.4099 58.9547 33.4099 59.0847 33.3449 59.1497C33.2799 59.2147 33.2149 59.2797 33.1499 59.2797C33.0199 59.2797 32.7599 58.6947 32.4349 57.4597C32.1099 56.2247 31.7199 54.9247 31.3949 53.5597V56.4847C31.3949 56.7447 31.3949 57.1997 31.4599 57.7197C31.5249 58.3047 31.5249 58.6947 31.5249 58.9547C31.5249 59.0197 31.4599 59.0847 31.3949 59.0847C31.3299 59.1497 31.2649 59.1497 31.1349 59.1497C31.0049 59.1497 31.0049 59.0847 31.0049 59.0197L31.0699 58.3697C31.0699 58.0447 31.0699 57.5897 31.0049 56.8747C30.9399 56.1597 30.9399 55.7697 30.9399 55.6397V54.5347Z" fill="#3972FF"/>
<path d="M35.1649 54.0148V55.1848L35.2299 57.1998L35.2949 58.8248C35.2949 59.0848 35.2299 59.2798 35.0349 59.2798C34.9699 59.2798 34.8399 59.2148 34.8399 59.1498C34.7749 59.0848 34.7749 58.9548 34.7749 58.8248L34.8399 57.3948C34.8399 57.0698 34.8399 56.6148 34.7749 56.0298C34.7099 55.4448 34.7099 54.9248 34.7099 54.6648V53.8848C34.7099 53.4298 34.7099 53.1698 34.6449 53.0398L34.1899 53.1048C34.1249 53.1048 34.0599 53.1048 33.9949 53.0398C33.9299 52.9748 33.9299 52.9098 33.9299 52.8448C33.9299 52.7798 33.9949 52.7148 34.1249 52.6498C34.2549 52.5848 34.4499 52.5848 34.6449 52.5198C34.9699 52.4548 35.2949 52.4548 35.5549 52.4548C35.6199 52.4548 35.6849 52.4548 35.7499 52.5198C35.7499 52.5848 35.7499 52.6498 35.7499 52.7148C35.7499 52.7798 35.7499 52.8448 35.6849 52.9098C35.6199 52.9748 35.5549 52.9748 35.4899 52.9748H35.1649C35.0999 52.9748 35.0999 52.9748 35.0999 52.9748C35.0999 53.2998 35.1649 53.6248 35.1649 54.0148Z" fill="#3972FF"/>
<path d="M37.2449 56.8098L37.1799 53.2348V53.1698C37.1799 52.8448 37.2449 52.6498 37.3099 52.5848C37.3749 52.5198 37.4399 52.5198 37.5049 52.5198C37.8949 52.5198 38.2199 52.6498 38.4799 52.9098C38.7399 53.1698 38.8049 53.5598 38.8049 53.9498C38.8049 54.2098 38.7399 54.4698 38.6099 54.7948C38.4799 55.0548 38.2849 55.3148 38.0899 55.4448C38.4149 55.7048 38.6749 55.9648 38.8699 56.3548C38.9999 56.7448 39.1299 57.1348 39.1299 57.5248C39.1299 57.7198 39.0649 57.9798 38.9999 58.1748C38.8699 58.4348 38.8049 58.5648 38.6749 58.6948C38.5449 58.8248 38.4149 58.9548 38.2849 59.0198C38.0899 59.0848 37.8949 59.1498 37.6999 59.1498H37.6349C37.3749 59.1498 37.2449 59.0848 37.2449 58.9548V56.8098ZM37.7649 53.0398C37.6999 53.0398 37.6349 53.1698 37.6349 53.3648C37.6349 53.5598 37.6349 53.8848 37.6349 54.3398C37.6349 54.7948 37.6349 55.1198 37.6349 55.3148C37.7649 55.2498 37.8949 55.1848 38.0249 54.9248C38.0899 54.7298 38.1549 54.5348 38.2199 54.4048C38.2849 54.2098 38.2849 54.1448 38.3499 54.0798V53.7548C38.3499 53.5598 38.2849 53.4298 38.1549 53.2348C38.0899 53.1048 37.9599 53.0398 37.7649 53.0398ZM38.4149 58.3698C38.6099 58.1748 38.6749 57.9148 38.6749 57.5898C38.6749 57.2648 38.6749 57.0048 38.6099 56.8098C38.5449 56.6148 38.4799 56.4198 38.4799 56.2898C38.4149 56.1598 38.3499 56.0948 38.2849 56.0298C38.2199 55.8998 38.0899 55.8998 38.0249 55.8348H37.6999C37.6999 56.6798 37.7649 57.6548 37.7649 58.7598C38.0249 58.7598 38.2849 58.5648 38.4149 58.3698Z" fill="#3972FF"/>
<path d="M41.795 56.4849L41.73 57.5899V57.6549C41.665 57.8499 41.665 57.9799 41.665 58.1749C41.665 58.3699 41.6 58.5649 41.535 58.6949C41.47 58.8249 41.34 59.0199 41.21 59.1499C41.08 59.2799 40.95 59.3449 40.755 59.3449C40.625 59.3449 40.43 59.2799 40.3 59.1499C40.17 59.0199 40.04 58.8899 39.975 58.7599C39.91 58.5649 39.845 58.3699 39.78 58.1749C39.715 57.9149 39.65 57.7199 39.65 57.4599C39.65 57.2649 39.65 57.0699 39.65 56.8099C39.585 56.4199 39.585 56.1599 39.585 55.8999C39.585 55.7049 39.585 55.5099 39.585 55.3799C39.585 55.2499 39.585 55.1199 39.585 54.9899C39.585 54.9249 39.585 54.8599 39.585 54.7949C39.585 54.7299 39.585 54.6649 39.585 54.5349C39.585 54.3399 39.585 54.2099 39.585 54.0799C39.585 53.9499 39.585 53.8199 39.65 53.6249C39.65 53.4949 39.715 53.2999 39.715 53.2349C39.715 53.1049 39.78 52.9749 39.845 52.9099C39.91 52.7799 39.975 52.7149 40.04 52.6499C40.17 52.4549 40.365 52.3899 40.56 52.3899C40.755 52.3899 40.885 52.4549 41.015 52.5199C41.145 52.5849 41.275 52.7149 41.34 52.8449C41.405 52.9749 41.535 53.1699 41.6 53.2999C41.665 53.4299 41.73 53.6249 41.73 53.8849C41.795 54.1449 41.795 54.3399 41.795 54.4699C41.795 54.5999 41.86 54.8599 41.86 55.1199C41.86 55.5099 41.86 55.8349 41.86 56.0299V56.4849H41.795ZM41.015 53.2349C40.95 53.1049 40.885 52.9749 40.82 52.9099C40.755 52.8449 40.625 52.7799 40.56 52.7799C40.495 52.7799 40.43 52.7799 40.365 52.8449C40.3 52.9099 40.235 52.9749 40.235 53.1049C40.17 53.2349 40.17 53.3649 40.105 53.4299C40.105 53.5599 40.04 53.6899 40.04 53.8849C40.04 54.0799 40.04 54.2099 39.975 54.3399C39.975 54.4699 39.975 54.5999 39.975 54.7949C39.975 55.0549 39.975 55.2499 39.975 55.4449V55.5099C39.975 55.8999 39.975 56.3549 40.04 56.8099C40.105 57.2649 40.17 57.6549 40.235 57.9149C40.3 58.1749 40.365 58.4349 40.495 58.6299C40.625 58.8249 40.755 58.9549 40.885 58.9549C41.015 58.9549 41.08 58.8249 41.21 58.6299C41.275 58.4349 41.34 58.1099 41.405 57.7849C41.47 57.1999 41.47 56.8099 41.47 56.5499C41.47 56.2899 41.47 56.1599 41.47 56.0299C41.47 55.8999 41.47 55.7699 41.47 55.5749C41.47 55.3799 41.47 55.1849 41.405 54.9899C41.405 54.7949 41.34 54.5999 41.34 54.4049C41.34 54.2099 41.275 54.0149 41.21 53.8199C41.145 53.5599 41.08 53.4299 41.015 53.2349Z" fill="#3972FF"/>
<path d="M44.5899 56.4847L44.5249 57.5897V57.6547C44.4599 57.8497 44.4599 57.9797 44.4599 58.1747C44.4599 58.3697 44.3949 58.5647 44.3299 58.6947C44.2649 58.8897 44.1349 59.0197 44.0049 59.1497C43.8749 59.2797 43.7449 59.3447 43.5499 59.3447C43.4199 59.3447 43.2249 59.2797 43.0949 59.1497C42.9649 59.0197 42.8349 58.8897 42.7699 58.7597C42.7049 58.5647 42.6399 58.3697 42.5749 58.1747C42.5099 57.9147 42.4449 57.7197 42.4449 57.4597C42.3799 57.2647 42.3799 57.0047 42.3799 56.7447C42.3149 56.3547 42.3149 56.0947 42.3149 55.8347C42.3149 55.6397 42.3149 55.4447 42.3149 55.3147C42.3149 55.1847 42.3149 55.0547 42.3149 54.9247C42.3149 54.8597 42.3149 54.7947 42.3149 54.7297C42.3149 54.6647 42.3149 54.5997 42.3149 54.4697C42.3149 54.2747 42.3149 54.1447 42.3149 54.0147C42.3149 53.8847 42.3149 53.7547 42.3799 53.5597C42.3799 53.4297 42.4449 53.2347 42.4449 53.1697C42.4449 53.0397 42.5099 52.9097 42.5749 52.8447C42.6399 52.7147 42.7049 52.6497 42.7699 52.5847C42.8999 52.3897 43.0949 52.3247 43.2899 52.3247C43.4849 52.3247 43.6149 52.3897 43.7449 52.4547C43.8749 52.5197 44.0049 52.6497 44.0699 52.7797C44.1349 52.9097 44.2649 53.1047 44.3299 53.2347C44.3949 53.3647 44.4599 53.5597 44.4599 53.8197C44.5249 54.0797 44.5249 54.2747 44.5249 54.4047C44.5249 54.5347 44.5899 54.7947 44.5899 55.0547C44.5899 55.4447 44.5899 55.7697 44.5899 55.9647V56.4847ZM43.8099 53.2347C43.7449 53.1047 43.6799 52.9747 43.6149 52.9097C43.5499 52.8447 43.4199 52.7797 43.3549 52.7797C43.2899 52.7797 43.2249 52.7797 43.1599 52.8447C43.0949 52.9097 43.0299 52.9747 43.0299 53.1047C42.9649 53.2347 42.9649 53.3647 42.8999 53.4297C42.8999 53.5597 42.8349 53.6897 42.8349 53.8847C42.8349 54.0797 42.8349 54.2097 42.7699 54.3397C42.7699 54.4697 42.7699 54.5997 42.7699 54.7947C42.7699 55.0547 42.7699 55.2497 42.7699 55.4447V55.5097C42.7699 55.8997 42.7699 56.3547 42.8349 56.8097C42.8999 57.2647 42.9649 57.6547 43.0299 57.9147C43.0949 58.1747 43.1599 58.4347 43.2899 58.6297C43.4199 58.8247 43.5499 58.9547 43.6799 58.9547C43.8099 58.9547 43.8749 58.8247 44.0049 58.6297C44.0699 58.4347 44.1349 58.1097 44.1999 57.7847C44.1349 57.1997 44.1999 56.7447 44.1999 56.5497C44.1999 56.2897 44.1999 56.1597 44.1999 56.0297C44.1999 55.8997 44.1999 55.7697 44.1999 55.5747C44.1999 55.3797 44.1999 55.1847 44.1349 54.9897C44.1349 54.7947 44.0699 54.5997 44.0699 54.4047C44.0699 54.2097 44.0049 54.0147 43.9399 53.8197C43.9399 53.5597 43.8749 53.4297 43.8099 53.2347Z" fill="#3972FF"/>
<path d="M45.3049 56.2898V54.5998C45.3049 54.2748 45.3049 53.9498 45.2399 53.5598C45.1749 53.1698 45.1749 52.9098 45.1749 52.7798C45.1749 52.6498 45.1749 52.5848 45.2399 52.5198C45.3049 52.4548 45.3699 52.4548 45.4349 52.4548C45.6299 52.4548 45.7599 52.7148 45.7599 53.1698C45.7599 53.1698 45.7599 53.7548 45.6949 54.9898C45.6949 54.9248 45.7599 54.7948 45.8899 54.5348C45.9549 54.2748 46.0849 54.0798 46.1499 53.8198C46.2799 53.5598 46.3449 53.2998 46.4749 53.0398C46.7349 52.4548 46.9299 52.1948 46.9949 52.1948C47.0599 52.1948 47.1249 52.1948 47.1899 52.2598C47.2549 52.3248 47.2549 52.3898 47.2549 52.3898C47.2549 52.4548 47.1249 52.8448 46.7999 53.4948C46.4749 54.1448 46.2799 54.5998 46.2799 54.7948V54.9248C46.3449 55.1198 46.6049 55.8348 46.9949 57.0698C47.3849 58.3048 47.5799 58.9548 47.5799 59.0198C47.5799 59.0848 47.5799 59.1498 47.5149 59.2148C47.4499 59.2798 47.3849 59.2798 47.3199 59.2798L47.1249 59.2148C46.9949 58.3698 46.7999 57.6548 46.6699 57.0048C46.5399 56.3548 46.2799 55.7698 46.0849 55.2498C45.8899 55.5748 45.8249 55.7698 45.8249 55.8348C45.8249 56.0298 45.8249 56.1598 45.8249 56.2898L45.8899 57.9148V58.6298C45.8899 58.9548 45.7599 59.0848 45.5649 59.0848C45.3699 59.0848 45.3049 58.9548 45.3049 58.6298C45.3049 58.3048 45.3049 57.9148 45.3699 57.3948C45.2399 57.0048 45.3049 56.5498 45.3049 56.2898Z" fill="#3972FF"/>
<path d="M17.485 24.0497C17.095 25.6097 17.42 27.2997 17.875 28.7947C18.395 30.4847 19.11 32.1097 20.345 33.2797C21.58 34.4497 23.53 34.9697 24.96 34.1247C25.675 33.6697 26.26 32.9547 26.585 32.1747C26.91 31.3297 27.04 30.4847 27.105 29.5747C27.235 27.8197 27.04 25.9997 26.52 24.2447C26.325 23.5297 26.065 22.8147 25.61 22.2297C24.57 20.7997 22.685 20.2797 21.125 20.8647C20.41 21.1247 19.565 21.2547 18.915 21.7097C18.2 22.2947 17.68 23.1397 17.485 24.0497Z" fill="#3B82FF"/>
<path d="M17.81 24.8948C17.42 26.3898 17.745 28.0148 18.2 29.5098C18.72 31.1348 19.37 32.7598 20.605 33.9298C21.84 35.0348 23.66 35.5548 25.025 34.7748C25.74 34.3848 26.26 33.6698 26.585 32.8898C26.91 32.1098 27.04 31.1998 27.105 30.3548C27.235 28.5998 27.04 26.8448 26.52 25.2198C26.325 24.5048 26.065 23.8548 25.61 23.2698C24.57 21.8398 22.815 21.3848 21.255 21.9048C20.54 22.1648 19.76 22.2298 19.11 22.7498C18.525 23.2698 18.005 24.0498 17.81 24.8948Z" fill="#FFF3E9"/>
<path d="M26.585 25.2196C26.39 24.5046 26.13 23.8546 25.675 23.2696C25.285 22.7496 24.83 22.3596 24.31 22.0996C24.44 22.2296 24.505 22.3596 24.635 22.4896C25.025 23.0746 25.285 23.7896 25.545 24.4396C26 26.1296 26.195 27.8846 26.13 29.5746C26.065 30.4196 25.935 31.3296 25.61 32.1096C25.285 32.8896 24.765 33.6046 24.05 33.9946C23.01 34.5796 21.71 34.4496 20.605 33.8646L20.67 33.9296C21.905 35.0346 23.725 35.5546 25.09 34.7746C25.805 34.3846 26.325 33.6696 26.65 32.8896C26.975 32.1096 27.105 31.1996 27.17 30.3546C27.235 28.6646 27.04 26.8446 26.585 25.2196Z" fill="#FFE7C0"/>
<path d="M20.02 27.7548C19.89 28.4048 19.955 29.1198 20.15 29.7698C20.345 30.6798 20.735 31.5248 21.45 32.1098C22.1 32.6948 23.14 32.8248 23.79 32.3048C23.985 32.1098 24.18 31.9148 24.31 31.6548C24.96 30.4848 25.025 28.9248 24.375 27.6248C24.115 27.0398 23.66 26.4548 23.075 26.1948C21.84 25.6098 20.28 26.3898 20.02 27.7548Z" fill="#413E49"/>
<path d="M20.735 28.8597C20.735 29.0547 20.8 29.2497 20.995 29.3147C21.06 29.3797 21.19 29.3797 21.32 29.3147C21.645 29.2497 21.905 28.9247 22.035 28.5997C22.23 28.2097 22.36 27.7547 22.36 27.2347C22.295 26.5197 21.58 26.1947 21.125 26.7147C20.67 27.2347 20.67 28.2747 20.735 28.8597Z" fill="white"/>
<path opacity="0.3" d="M18.4601 28.5997C18.5251 29.5747 18.8501 30.4847 19.4351 31.1997C19.5001 31.2647 19.6301 31.3947 19.6951 31.2647C19.7601 31.1997 19.6951 31.1347 19.6951 31.0697C19.2401 29.3797 18.7851 27.6247 19.1101 25.9347C19.1101 25.8047 19.1751 25.6097 19.0451 25.4797C18.5901 25.7397 18.5251 26.3897 18.4601 26.8447C18.4601 27.4947 18.4601 28.0797 18.4601 28.5997Z" fill="white"/>
<path d="M19.76 24.5047C20.41 24.1147 21.19 23.9197 21.97 23.8547C22.75 23.7897 23.53 23.7897 24.31 23.9847C25.09 24.1797 25.805 24.5697 26.325 25.0897C26.13 24.1147 25.415 23.2697 24.505 22.8147C23.595 22.3597 22.555 22.1647 21.58 22.2297C21.06 22.2297 20.605 22.3597 20.085 22.5547C19.175 22.9447 18.46 23.7247 18.07 24.5697C17.875 24.9597 17.745 25.4147 17.68 25.8047C17.615 26.0647 17.485 26.7147 17.745 26.9097C17.94 27.1047 18.07 26.4547 18.2 26.2597C18.395 25.9347 18.59 25.5447 18.785 25.2847C19.045 25.0247 19.37 24.6997 19.76 24.5047Z" fill="#FFE7C0"/>
<path d="M18.3301 25.2197C18.9151 24.2447 19.6301 23.9197 20.4101 23.6597C20.7351 23.5947 21.0601 23.5297 21.3851 23.4647C22.4251 23.3347 23.4651 23.3347 24.5051 23.5297C25.1551 23.6597 26.1301 24.2447 26.5201 24.8297C26.2601 24.3747 25.8701 23.3997 25.6101 22.8797C25.5451 22.6847 25.4151 22.4897 25.2851 22.3597C25.1551 22.1647 24.9601 22.0997 24.7651 21.9697C24.3751 21.7097 23.9201 21.5147 23.4651 21.3847C23.0101 21.2547 22.4901 21.3197 22.0351 21.3197C20.8001 21.4497 19.5651 21.7747 18.6551 22.5547C18.0051 23.1397 17.6151 23.9197 17.4851 24.7647C17.3551 25.4797 17.2901 27.1047 17.6151 27.8197C17.7451 27.7547 17.9401 25.9347 18.3301 25.2197Z" fill="#3B82FF"/>
<path opacity="0.34" d="M18.2 23.3346C17.745 23.9846 17.615 24.8296 17.745 25.6096C17.81 24.8296 18.2 24.1146 18.72 23.5946C19.24 23.0096 19.89 22.6196 20.605 22.3596C20.93 22.2296 21.255 22.1646 21.515 21.9046C21.515 21.9046 21.58 21.8396 21.58 21.7746C21.58 21.6446 21.45 21.6446 21.32 21.5796C20.15 21.5796 18.85 22.3596 18.2 23.3346Z" fill="white"/>
<path d="M41.34 22.3597C40.43 23.6597 40.105 25.3497 39.975 26.9747C39.845 28.7297 39.91 30.5497 40.625 32.1097C41.34 33.6697 42.965 34.8397 44.59 34.5797C45.435 34.4497 46.215 33.9947 46.8 33.3447C47.385 32.6947 47.905 31.9147 48.23 31.1347C49.01 29.5097 49.465 27.7547 49.66 25.9997C49.725 25.2847 49.725 24.5047 49.53 23.7897C49.075 22.0347 47.515 20.9297 45.825 20.8647C45.045 20.8647 44.265 20.6697 43.485 20.8647C42.705 21.0597 41.86 21.6447 41.34 22.3597Z" fill="#3B82FF"/>
<path d="M41.34 23.3348C40.43 24.5698 40.17 26.2598 40.04 27.8198C39.91 29.5098 39.975 31.2648 40.69 32.7598C41.405 34.2548 42.9 35.4248 44.525 35.1648C45.37 35.0348 46.085 34.5798 46.67 33.9948C47.255 33.4098 47.71 32.6298 48.1 31.8498C48.815 30.2898 49.335 28.5998 49.465 26.8448C49.53 26.1298 49.53 25.3498 49.4 24.6998C49.01 23.0098 47.45 21.9048 45.825 21.8398C45.045 21.8398 44.33 21.6448 43.55 21.8398C42.575 22.0348 41.86 22.5548 41.34 23.3348Z" fill="#FFF3E9"/>
<path d="M49.4 26.7798C49.465 26.0648 49.465 25.2848 49.335 24.6348C49.205 23.9848 48.88 23.4648 48.49 23.0098C48.555 23.1398 48.62 23.3348 48.62 23.4648C48.815 24.1798 48.75 24.8948 48.685 25.6098C48.555 27.3648 48.035 29.0548 47.32 30.6148C46.93 31.3948 46.475 32.1748 45.89 32.7598C45.305 33.3448 44.525 33.8648 43.745 33.9298C42.575 34.1248 41.405 33.4748 40.625 32.5648C40.625 32.6298 40.625 32.6298 40.69 32.6948C41.405 34.1898 42.9 35.3598 44.525 35.0998C45.37 34.9698 46.085 34.5148 46.67 33.9298C47.255 33.3448 47.71 32.5648 48.1 31.7848C48.75 30.2248 49.205 28.5348 49.4 26.7798Z" fill="#FFE7C0"/>
<path d="M42.38 26.7796C41.99 27.3646 41.86 28.0146 41.795 28.7296C41.665 29.6396 41.73 30.6146 42.12 31.3946C42.51 32.1746 43.42 32.6946 44.265 32.4346C44.525 32.3696 44.785 32.1746 44.98 32.0446C46.02 31.1996 46.605 29.7696 46.54 28.3396C46.475 27.6896 46.28 26.9746 45.825 26.5196C44.85 25.4796 43.095 25.6096 42.38 26.7796Z" fill="#413E49"/>
<path d="M42.64 28.0796C42.575 28.2746 42.575 28.4696 42.705 28.5996C42.77 28.6646 42.9 28.7296 42.965 28.7296C43.29 28.7946 43.615 28.5996 43.94 28.3396C44.265 28.0146 44.59 27.6246 44.72 27.2346C44.915 26.5196 44.395 25.9996 43.745 26.2596C43.095 26.5196 42.77 27.4946 42.64 28.0796Z" fill="white"/>
<path opacity="0.3" d="M40.625 27.0398C40.3 27.9498 40.3 28.9248 40.56 29.8348C40.56 29.9648 40.69 30.0948 40.755 30.0298C40.82 30.0298 40.82 29.9648 40.82 29.8998C41.015 28.2098 41.21 26.3898 42.185 24.9598C42.25 24.8298 42.38 24.6998 42.315 24.5698C41.795 24.6348 41.535 25.2198 41.275 25.6098C41.015 25.9998 40.755 26.5198 40.625 27.0398Z" fill="white"/>
<path d="M43.29 23.6597C44.07 23.5297 44.85 23.6597 45.565 23.9197C46.28 24.1147 47.06 24.4397 47.645 24.8947C48.295 25.3497 48.815 25.9347 49.14 26.6497C49.27 25.6747 48.945 24.6347 48.295 23.8547C47.645 23.0747 46.735 22.5547 45.76 22.2297C45.305 22.0997 44.785 21.9697 44.265 21.9697C43.29 21.9697 42.315 22.4247 41.665 23.1397C41.34 23.4647 41.08 23.7897 40.885 24.1797C40.755 24.3747 40.365 24.9597 40.495 25.2197C40.625 25.4797 41.015 24.8947 41.145 24.7647C41.405 24.5047 41.73 24.2447 42.055 24.0497C42.445 23.8547 42.835 23.7247 43.29 23.6597Z" fill="#FFE7C0"/>
<path d="M41.73 23.7897C42.64 23.0747 43.42 23.0097 44.2 23.0747C44.525 23.0747 44.85 23.1397 45.175 23.2697C46.215 23.5297 47.19 23.9197 48.1 24.4397C48.685 24.7647 49.335 25.6747 49.53 26.3897C49.465 25.8697 49.465 24.7647 49.4 24.2447C49.4 24.0497 49.335 23.8547 49.27 23.6597C49.205 23.4647 49.075 23.2697 48.88 23.1397C48.555 22.7497 48.295 22.4247 47.905 22.1647C47.515 21.9047 47.06 21.7097 46.605 21.5797C45.435 21.2547 44.135 21.0597 42.965 21.5147C42.185 21.8397 41.535 22.4247 41.08 23.0747C40.69 23.6597 40.04 25.2197 40.04 25.9347C40.235 25.9347 41.08 24.3097 41.73 23.7897Z" fill="#3B82FF"/>
<path opacity="0.34" d="M42.25 22.0347C41.6 22.4897 41.145 23.2047 40.95 23.9847C41.275 23.3347 41.925 22.8147 42.575 22.4897C43.29 22.1647 44.005 22.0347 44.785 22.0347C45.11 22.0347 45.5 22.0997 45.76 21.9047C45.825 21.9047 45.825 21.8397 45.825 21.8397C45.89 21.7747 45.76 21.6447 45.695 21.5797C44.72 21.0597 43.225 21.3197 42.25 22.0347Z" fill="white"/>
</g>
<defs>
<clipPath id="clip0_202_567">
<rect width="65" height="65" fill="white" transform="translate(0 -0.000244141)"/>
</clipPath>
</defs>
</svg>
