<svg width="65" height="65" viewBox="0 0 65 65" fill="none" xmlns="http://www.w3.org/2000/svg">
<path d="M57.9156 31.6551C59.8006 29.5101 60.9706 26.7151 61.6206 23.9201C61.8806 22.8801 62.0756 21.8401 62.7906 21.0601C62.7906 24.5051 62.0756 28.0151 60.5806 31.1351C59.0206 34.4501 56.4856 37.5701 53.0406 38.6751C52.0006 39.0001 50.7656 39.1301 49.9206 38.4801C47.8406 36.9201 50.4406 35.6851 51.7406 35.3601C54.1456 34.6451 56.1606 33.6051 57.9156 31.6551Z" fill="#4390FF"/>
<path d="M55.9002 9.36039L54.8602 15.1454L51.2852 14.2354L53.3652 8.77539L55.9002 9.36039Z" fill="#4D96FF"/>
<path d="M6.04492 10.855L12.3499 62.01C12.3499 62.01 12.4799 62.855 13.3249 63.505C14.1699 64.155 15.4049 64.675 15.4049 64.675L14.2999 11.18L6.04492 10.855Z" fill="#4390FF"/>
<path d="M60.6451 20.7354C60.5151 20.5404 60.3851 20.4104 60.3851 20.1504C60.3201 19.9554 60.4501 19.6954 60.6451 19.6304C60.8401 19.5654 61.1001 19.7604 61.1651 19.9554C61.2951 20.1504 61.3601 20.3454 61.5551 20.4754C61.5551 19.6954 61.6201 18.8504 61.7501 18.0704C61.8151 17.8754 61.8801 17.6154 62.0751 17.6154C62.2051 17.6154 62.4001 17.6804 62.4651 17.8754C62.5301 18.0054 62.5301 18.2004 62.5301 18.3304C62.6601 18.1354 62.5951 17.8754 62.6601 17.6154C62.7251 17.3554 62.9851 17.1604 63.1801 17.2904C63.3101 17.3554 63.3101 17.5504 63.3101 17.6804C63.3101 17.9404 63.3101 18.2004 63.3101 18.3954C63.3101 18.2654 63.3101 18.2004 63.3751 18.1354C63.4401 18.0704 63.5051 18.0054 63.6351 18.0054C63.7001 18.0054 63.7651 18.0704 63.7651 18.1354C64.0901 18.5904 64.0251 19.2404 63.8951 19.7604C63.5701 21.5154 62.9851 23.2704 62.1401 24.8304C61.8801 25.3504 61.7501 24.8304 61.6851 24.5054C61.6201 24.0504 61.6851 23.5954 61.6201 23.1404C61.4251 22.2954 61.1001 21.4504 60.6451 20.7354Z" fill="#4390FF"/>
<path d="M9.10016 39.0001C6.89016 40.8201 5.33016 43.3551 4.16016 46.0201C3.77016 46.9951 3.38016 47.9701 2.53516 48.6201C3.05516 45.1751 4.42016 41.9251 6.37016 39.0651C8.45016 36.0101 11.4402 33.4101 15.0152 32.8901C16.1202 32.6951 17.3552 32.8251 18.0702 33.6051C19.8252 35.4901 17.0952 36.2701 15.7952 36.4001C13.3252 36.6601 11.1152 37.3751 9.10016 39.0001Z" fill="#4390FF"/>
<path d="M4.61524 49.3352C4.68024 49.5302 4.81024 49.7252 4.81024 49.9202C4.81024 50.1152 4.68024 50.3752 4.48524 50.3752C4.29024 50.3752 4.09524 50.1802 3.96524 49.9852C3.90024 49.7902 3.83524 49.5302 3.70524 49.4002C3.57524 50.1802 3.38024 50.9602 3.12024 51.7402C3.05524 51.9352 2.92524 52.1302 2.73024 52.1302C2.60024 52.1302 2.47024 52.0002 2.40524 51.8702C2.34024 51.7402 2.40524 51.5452 2.40524 51.4152C2.27524 51.6102 2.27524 51.8702 2.21024 52.1302C2.14524 52.3902 1.82024 52.5202 1.62524 52.3902C1.49524 52.2602 1.56024 52.1302 1.56024 52.0002C1.62524 51.7402 1.62524 51.4802 1.69024 51.2852C1.69024 51.3502 1.62524 51.4802 1.56024 51.5452C1.49524 51.6102 1.36524 51.6752 1.30024 51.6102C1.23524 51.6102 1.23524 51.5452 1.17024 51.4802C0.910237 50.9602 1.10524 50.3752 1.30024 49.8552C1.88524 48.1652 2.79524 46.5402 3.90024 45.1102C4.29024 44.6552 4.29024 45.1752 4.29024 45.5002C4.29024 45.9552 4.16024 46.4102 4.16024 46.8002C4.09524 47.6452 4.29024 48.4902 4.61524 49.3352Z" fill="#4390FF"/>
<path d="M9.29492 14.2354L15.4699 64.6754H52.2599L58.1099 14.2354H9.29492Z" fill="#5AB1FF"/>
<path d="M9.29565 14.2354C9.29565 14.2354 5.91565 13.1954 6.04565 10.9204C6.17565 8.64537 10.0756 8.25537 10.0756 8.25537H55.3806L55.9657 9.36037L54.9257 9.49037L51.8056 12.4804L57.2657 12.9354L58.1757 14.2354H9.29565Z" fill="#83C4FF"/>
<path d="M54.9251 9.42529H9.88012L9.62012 12.5453L56.7451 12.8703C56.7451 12.8703 55.7051 12.0253 55.1851 11.1153C54.4701 9.94529 54.9251 9.42529 54.9251 9.42529Z" fill="#FFECBB"/>
<path d="M9.88045 9.42516C9.88045 9.42516 8.12545 9.23016 7.73545 10.5952C7.28045 12.4152 9.62045 12.5452 9.62045 12.5452L9.88045 9.42516Z" fill="#4D96FF"/>
<path d="M10.5303 10.4001C11.8953 10.4651 13.1953 10.4651 14.5603 10.4651C15.9253 10.4651 17.2253 10.4651 18.5903 10.4651C21.2553 10.4651 23.9853 10.4651 26.6503 10.4651C31.9803 10.4651 37.3753 10.5301 42.7053 10.4651C44.2003 10.4651 45.6953 10.4001 47.2553 10.4001C48.7503 10.4001 50.2453 10.4001 51.8053 10.4001C51.8703 10.4001 51.8703 10.3351 51.8053 10.3351C49.1403 10.2701 46.4103 10.3351 43.7453 10.2701C41.0803 10.2051 38.3503 10.2051 35.6853 10.2051C30.3553 10.2051 24.9603 10.2051 19.6303 10.2051C18.1353 10.2051 16.6403 10.2051 15.0803 10.2051C13.5853 10.2701 12.0903 10.2701 10.5303 10.4001Z" fill="#FFCB92"/>
<path d="M10.5303 11.505C11.8303 11.57 13.1953 11.57 14.4953 11.57C15.7953 11.57 17.1603 11.57 18.4603 11.57C21.1253 11.57 23.7253 11.57 26.3903 11.57C27.1053 11.57 27.8853 11.57 28.6003 11.57C29.3153 11.57 30.0953 11.57 30.8103 11.57C30.8753 11.57 30.8753 11.44 30.8103 11.44C30.1603 11.375 29.4453 11.44 28.7953 11.44C28.1453 11.44 27.4953 11.44 26.8453 11.44C25.5453 11.44 24.1803 11.44 22.8803 11.44C20.2153 11.44 17.6153 11.44 14.9503 11.44C13.5203 11.44 12.0253 11.375 10.5303 11.505Z" fill="#FFCB92"/>
<path d="M14.1698 10.9851C15.4698 11.0501 16.7698 10.9851 18.1348 10.9851C19.4348 10.9851 20.7348 10.9851 22.0998 10.9851C24.6998 10.9851 27.3648 10.9851 29.9648 10.9851C35.1648 10.9851 40.4298 10.9851 45.6298 10.9851C47.1248 10.9851 48.5548 10.9851 50.0498 10.9851C51.5448 10.9851 52.9748 10.9851 54.4698 10.9851C54.5348 10.9851 54.5348 10.8551 54.4698 10.8551C51.8698 10.7901 49.2048 10.8551 46.6048 10.8551C44.0048 10.8551 41.3398 10.8551 38.7398 10.8551C33.5398 10.8551 28.2748 10.8551 23.0748 10.8551C21.5798 10.8551 20.1498 10.8551 18.6548 10.8551C17.0948 10.9201 15.5998 10.9201 14.1698 10.9851C14.1048 10.9851 14.1048 10.9851 14.1698 10.9851Z" fill="#FFCB92"/>
<path d="M12.9355 12.2204C18.2655 12.2854 23.6605 12.2854 28.9905 12.2854C34.3205 12.2854 39.6505 12.2854 44.9805 12.2854C47.9705 12.2854 50.9605 12.2854 54.0155 12.2854C54.1455 12.2854 54.1455 12.0904 54.0155 12.0904C48.6855 12.0254 43.2905 12.0904 37.9605 12.0904C32.6305 12.0904 27.3005 12.0904 21.9705 12.0904C18.9155 12.1554 15.9255 12.1554 12.9355 12.2204C12.8705 12.2204 12.8705 12.2204 12.9355 12.2204Z" fill="#FFCB92"/>
<path d="M32.1104 10.8552L30.9404 6.76021L44.5254 4.09521L45.9554 10.8552H32.1104Z" fill="#FFC043"/>
<path d="M41.5357 10.9852C41.3407 9.16519 41.4707 7.21519 42.0557 5.4602C42.6407 3.70519 43.8107 2.0802 45.3707 1.1052C45.2407 2.0152 45.1757 2.9252 45.2407 3.8352C45.6957 2.6652 46.8657 1.9502 47.9707 1.3002C48.7507 0.845195 49.5307 0.390195 50.4407 0.325195C49.1407 1.8852 48.4907 3.9002 48.0357 5.9152C47.6457 7.5402 47.3207 9.36019 47.9057 10.9202L41.5357 10.9852Z" fill="#E86A43"/>
<path d="M12.415 11.5053L13.715 5.59033L24.57 8.58033L23.855 11.5053H12.415Z" fill="#7FC133"/>
<path d="M15.8598 20.0852C15.5998 20.4102 15.4048 20.8002 15.3398 21.2552C15.3398 21.3202 15.3398 21.3852 15.3398 21.4502C15.4048 21.5802 15.5998 21.5152 15.7298 21.4502C17.4848 20.3452 19.2398 19.3052 20.9948 18.2002C21.1898 18.0702 21.3848 17.9402 21.5148 17.7452C21.6448 17.5502 21.7098 17.2902 21.5798 17.0952C21.5148 16.9652 21.3848 16.9002 21.1898 16.8352C20.0198 16.3802 19.3048 17.0952 18.3948 17.6802C17.4198 18.2652 16.5748 19.1102 15.8598 20.0852Z" fill="#413E49"/>
<path d="M50.245 19.695C50.505 20.02 50.7 20.41 50.765 20.865C50.765 20.93 50.765 20.995 50.765 21.06C50.7 21.19 50.505 21.125 50.375 21.06C48.62 19.955 46.865 18.915 45.11 17.81C44.915 17.68 44.72 17.55 44.59 17.355C44.46 17.16 44.395 16.9 44.525 16.705C44.59 16.575 44.72 16.51 44.915 16.445C46.085 15.99 46.8 16.705 47.71 17.29C48.685 17.94 49.595 18.72 50.245 19.695Z" fill="#413E49"/>
<path d="M33.4102 40.4956C33.3452 40.4956 33.3452 40.4956 33.4102 40.4956C33.3452 40.4956 33.2802 40.4956 33.2802 40.4956C30.2252 40.5606 27.1702 39.0656 25.2852 36.7256C25.5452 37.8306 25.8702 38.8706 26.1302 39.9756C26.5852 41.6656 27.0402 43.3556 27.8852 44.8506C28.7302 46.3456 30.0952 47.6456 31.7202 48.1006C32.2402 48.2306 32.8252 48.2956 33.3452 48.2956C33.8652 48.3606 34.4502 48.2956 34.9702 48.1006C36.5952 47.6456 37.9602 46.3456 38.8052 44.8506C39.6502 43.3556 40.1052 41.6656 40.5602 39.9756C40.8202 38.9356 41.1452 37.8306 41.4052 36.7256C39.5202 39.0656 36.4002 40.5606 33.4102 40.4956Z" fill="#413E49"/>
<path d="M33.3458 40.4952C33.2808 40.4952 33.2158 40.4952 33.2158 40.4952C30.8758 40.5602 28.5358 39.6502 26.7158 38.2202C26.7808 38.6752 26.7808 39.1302 26.7808 39.5852C26.7808 39.7152 26.7808 39.9102 26.8458 40.0402C26.9108 40.2352 27.0408 40.4302 27.2358 40.6252C28.3408 41.8602 29.9658 42.4452 31.5908 42.7052C34.2558 43.0952 37.0508 42.4452 39.3258 40.8852C39.4558 40.8202 39.5858 40.6902 39.7158 40.4952C39.7808 40.3002 39.7808 40.0402 39.7808 39.8452C39.7158 39.3902 39.6508 38.8702 39.5858 38.4152C37.7658 39.7802 35.5558 40.5602 33.3458 40.4952Z" fill="white"/>
<path d="M37.6351 46.3456C37.6351 46.2806 37.5701 46.2156 37.5051 46.0856C36.9201 44.8506 35.4901 44.0706 34.1901 44.2006C33.6051 44.2656 33.0201 44.5256 32.8901 45.0456C32.0451 44.3956 30.8101 44.3956 29.9651 45.0456C29.3801 45.4356 29.1851 45.9556 29.1201 46.4756C29.8351 47.1906 30.6801 47.7756 31.6551 48.0356C32.1751 48.1656 32.7601 48.2306 33.2801 48.2306C33.8001 48.2956 34.3851 48.2306 34.9051 48.0356C35.9451 47.7756 36.8551 47.1906 37.6351 46.3456Z" fill="#FF624D"/>
<path d="M24.6355 37.1804C24.5705 37.1154 24.5705 36.9204 24.5705 36.8554C24.5705 36.7254 24.5705 36.6604 24.5705 36.5304C24.6355 36.3354 24.7005 36.1404 24.8305 35.9454C24.9605 35.8154 25.1555 35.7504 25.3505 35.7504C25.5455 35.7504 25.7405 35.9454 25.8705 36.0104C25.9355 36.0754 26.0005 36.0104 25.9355 35.9454C25.8055 35.7504 25.6755 35.6204 25.4805 35.5554C25.2855 35.4904 25.0905 35.4904 24.8955 35.6204C24.5055 35.8154 24.3105 36.2704 24.3105 36.6604C24.3105 36.7904 24.3105 36.9204 24.3755 36.9854C24.5055 37.1804 24.5705 37.1804 24.6355 37.1804C24.7005 37.2454 24.7005 37.1804 24.6355 37.1804Z" fill="#413E49"/>
<path d="M40.7558 36.5955C40.8858 36.4005 41.0808 36.2055 41.3408 36.0755C41.6008 35.9455 41.8608 35.9455 42.0558 36.1405C42.5108 36.5305 42.2508 37.1805 42.1208 37.7005C42.1208 37.7655 42.1858 37.7655 42.1858 37.7005C42.4458 37.2455 42.6408 36.6605 42.3808 36.2055C42.2508 36.0105 42.1208 35.8805 41.9258 35.8155C41.6658 35.7505 41.4058 35.8155 41.2108 35.9455C41.0808 36.0105 41.0158 36.0755 40.9508 36.2055C40.7558 36.3355 40.7558 36.4655 40.7558 36.5955C40.6908 36.5955 40.6908 36.5955 40.7558 36.5955Z" fill="#413E49"/>
<path d="M18.7207 59.0851C18.7207 58.9551 18.7857 58.8251 18.9157 58.8251C18.9807 58.8251 19.0457 58.8251 19.1757 58.8901C19.3057 58.9551 19.3707 58.9551 19.4357 58.9551C19.5007 58.9551 19.6307 58.8901 19.6957 58.8251C19.7607 58.6951 19.8257 58.6301 19.8907 58.4351C20.0207 58.1101 20.0207 57.8501 20.0207 57.5901C20.0207 57.3301 19.9557 57.0701 19.8907 56.8101C19.8257 56.5501 19.6957 56.2901 19.5657 56.0301C19.4357 55.7701 19.3057 55.5101 19.1757 55.3151C18.8507 54.7301 18.7207 54.2101 18.7207 53.6901C18.7207 53.2351 18.8507 52.8451 19.1757 52.5851C19.3057 52.4551 19.5007 52.3901 19.6957 52.3901C19.8257 52.3901 19.8907 52.3901 20.0207 52.4551C20.1507 52.5201 20.2157 52.5851 20.2157 52.7151L20.0857 52.9101C19.9557 52.9101 19.8257 52.9101 19.7607 52.8451C19.6307 52.8451 19.5657 52.9101 19.5007 52.9751C19.3707 53.1701 19.3057 53.3651 19.3057 53.6251C19.3057 53.8851 19.3057 54.1451 19.3707 54.3401C19.4357 54.6001 19.5007 54.7951 19.6307 54.9901C19.6957 55.1851 19.8257 55.3801 19.9557 55.5751C20.0857 55.7701 20.1507 56.0301 20.2807 56.2251C20.4757 56.6801 20.6057 57.2001 20.6057 57.7201C20.6057 58.1101 20.5407 58.4351 20.3457 58.8251C20.2807 59.0201 20.1507 59.1501 19.9557 59.2151C19.8257 59.3451 19.6307 59.3451 19.4357 59.3451C19.2407 59.3451 19.0457 59.3451 18.9157 59.2801C18.7857 59.2151 18.7207 59.1501 18.7207 59.0851Z" fill="#3972FF"/>
<path d="M22.1657 54.0151V55.1851L22.2307 57.2001L22.2957 58.8251C22.2957 59.0851 22.2307 59.2801 22.0357 59.2801C21.9707 59.2801 21.8407 59.2151 21.8407 59.1501C21.7757 59.0851 21.7757 58.9551 21.7757 58.8251L21.8407 57.3951C21.8407 57.0701 21.8407 56.6151 21.7757 56.0301C21.7107 55.4451 21.7107 54.9251 21.7107 54.6651V53.8851C21.7107 53.4301 21.7107 53.1701 21.6457 53.0401L21.1907 53.1051C21.1257 53.1051 21.0607 53.1051 20.9957 53.0401C20.9307 52.9751 20.9307 52.9101 20.9307 52.8451C20.9307 52.7801 20.9957 52.7151 21.1257 52.6501C21.2557 52.5851 21.4507 52.5851 21.6457 52.5201C21.9707 52.4551 22.2957 52.4551 22.5557 52.4551C22.6207 52.4551 22.6857 52.4551 22.7507 52.5201C22.8157 52.5851 22.8157 52.6501 22.8157 52.7151C22.8157 52.7801 22.8157 52.8451 22.7507 52.9101C22.6857 52.9751 22.6207 52.9751 22.5557 52.9751H22.2307C22.1657 52.9751 22.1657 52.9751 22.1657 52.9751C22.1657 53.3001 22.1657 53.6251 22.1657 54.0151Z" fill="#3972FF"/>
<path d="M23.1412 54.3401V52.9751C23.0762 52.9101 23.0762 52.8451 23.0762 52.7801C23.0762 52.7151 23.0762 52.6501 23.1412 52.5851C23.2062 52.5201 23.2712 52.5201 23.3362 52.5201C23.5312 52.5201 23.6612 52.7151 23.6612 53.1701L23.7262 56.2251C23.7912 56.2901 23.7912 56.4851 23.7912 56.6801C23.7912 56.9401 23.8562 57.0701 23.8562 57.2001C23.8562 57.3301 23.8562 57.5251 23.9212 57.6551C23.9862 57.8501 24.0512 58.0451 24.1162 58.2401C24.1812 58.4351 24.3112 58.6301 24.4412 58.7601C24.5712 58.8901 24.7012 58.9551 24.7662 58.9551C24.8962 58.9551 24.9612 58.9551 25.0262 58.8901C25.0912 58.8251 25.0912 58.7601 25.1562 58.6951C25.1562 58.5651 25.2212 58.3701 25.2212 58.1751V56.4201C25.2212 56.2251 25.2212 55.9651 25.1562 55.5751C25.0912 55.1851 25.0912 54.9251 25.0912 54.7301V54.6651V54.1451L25.0262 52.6501C25.0262 52.5851 25.0912 52.5201 25.1562 52.4551C25.2212 52.3901 25.2862 52.3901 25.3512 52.3901L25.5462 52.5851V52.7151L25.4812 53.2351C25.4812 53.7551 25.4812 54.4701 25.5462 55.4451C25.6112 56.4201 25.6112 57.1351 25.6112 57.4601C25.6112 57.7851 25.6112 58.0451 25.6112 58.1751C25.6112 58.3051 25.6112 58.4351 25.5462 58.5651C25.4812 58.6951 25.4812 58.8251 25.4162 58.8901C25.2862 59.0851 25.0912 59.2151 24.7662 59.2151C24.4412 59.2151 24.1162 59.0851 23.9212 58.7601C23.6612 58.4351 23.5312 58.0451 23.4662 57.5251C23.3362 57.0051 23.2712 56.4851 23.2712 56.0951C23.1412 55.5751 23.1412 54.9251 23.1412 54.3401Z" fill="#3972FF"/>
<path d="M28.4054 55.9001V56.0951C28.4054 56.4851 28.2754 57.0051 28.0804 57.5901C27.8204 58.2401 27.5604 58.6951 27.1704 58.9551C26.9754 59.0851 26.7804 59.2151 26.5854 59.2151C26.4554 59.2151 26.3904 59.2151 26.2604 59.1501C26.1954 59.0851 26.1304 59.0201 26.1304 58.9551C26.2604 58.8251 26.3254 58.5001 26.3254 57.9151C26.3254 57.5901 26.3254 57.0701 26.2604 56.4201C26.1954 55.7701 26.1954 55.3151 26.1954 54.9901V54.0151C26.1954 53.8851 26.1954 53.6251 26.1304 53.3651C26.0654 53.1051 26.0654 52.9101 26.0654 52.7801C26.0654 52.5851 26.2604 52.4551 26.7154 52.4551H26.8454C27.4304 52.4551 27.8854 52.7801 28.1454 53.4951C28.3404 53.9501 28.4054 54.6001 28.4054 55.4451V55.8351V55.9001ZM26.7804 57.8501V58.6951C26.9754 58.5651 27.1704 58.3701 27.3654 58.1101C27.4954 57.8501 27.6254 57.5901 27.7554 57.2651C27.8854 56.6801 28.0154 56.0951 28.0154 55.5101C28.0154 54.8601 27.9504 54.3401 27.7554 53.9501C27.5604 53.5601 27.3654 53.3001 27.1054 53.1701C26.9754 53.1051 26.7804 53.0401 26.5854 53.0401C26.5854 53.5601 26.6504 54.4051 26.7154 55.4451C26.7804 56.4851 26.7804 57.2651 26.7804 57.8501Z" fill="#3972FF"/>
<path d="M29.9652 55.9005H29.7702C29.7052 55.9005 29.6402 55.9005 29.5752 55.9655V58.6955C29.9002 58.6955 30.0302 58.6955 30.0302 58.6955C30.3552 58.6955 30.5502 58.7605 30.5502 58.9555C30.4852 59.0205 30.4202 59.0855 30.3552 59.1505C30.2902 59.2155 30.1602 59.2155 30.0952 59.2155C30.0302 59.2155 29.9002 59.2155 29.8352 59.2155H29.5752C29.3802 59.2155 29.2502 59.1505 29.1852 59.0855C29.1852 59.0205 29.1202 59.0205 29.1202 58.9555V53.8205C29.1202 53.6905 29.1202 53.5605 29.0552 53.3655C28.9902 53.1705 28.9902 53.0405 28.9902 52.9105C29.0552 52.7805 29.1852 52.6505 29.1852 52.5855L29.8352 52.5205C29.9002 52.5205 30.0302 52.5205 30.0952 52.5855C30.1602 52.6505 30.2252 52.7155 30.2252 52.7805C30.2252 52.9755 30.0952 53.0405 29.8352 53.0405H29.5752C29.5102 53.0405 29.5102 53.0405 29.5102 53.0405L29.5752 54.5355C29.5752 54.6655 29.5752 54.7955 29.5752 55.0555C29.5752 55.2505 29.5752 55.4455 29.5752 55.5755C29.5752 55.5755 29.6402 55.5755 29.7052 55.5755C29.8352 55.5755 29.9002 55.5105 29.9652 55.5105C30.0302 55.5105 30.0952 55.5105 30.1602 55.5755C30.2252 55.6405 30.2252 55.7055 30.2252 55.7705C30.2252 55.8355 30.2252 55.9005 30.1602 55.9655C30.0302 55.9005 30.0302 55.9005 29.9652 55.9005Z" fill="#3972FF"/>
<path d="M30.9404 54.5352L31.0054 52.9102V52.8452C31.0054 52.5202 31.0704 52.3902 31.2004 52.3902C31.3304 52.3902 31.4604 52.6502 31.6554 53.2352C32.0454 54.2102 32.4354 55.9002 32.9554 58.1752V58.2402L33.0204 55.1202V52.5202C33.0854 52.3902 33.1504 52.3252 33.2804 52.3252C33.4104 52.3252 33.5404 52.4552 33.5404 52.6502C33.4754 52.7152 33.4754 52.7802 33.4754 52.9102L33.4104 56.1602V58.8902C33.4104 58.9552 33.4104 59.0852 33.3454 59.1502C33.2804 59.2152 33.2154 59.2802 33.1504 59.2802C33.0204 59.2802 32.7604 58.6952 32.4354 57.4602C32.1104 56.2252 31.7204 54.9252 31.3954 53.5602V56.4852C31.3954 56.7452 31.3954 57.2002 31.4604 57.7202C31.5254 58.3052 31.5254 58.6952 31.5254 58.9552C31.5254 59.0202 31.4604 59.0852 31.3954 59.0852C31.3304 59.1502 31.2654 59.1502 31.1354 59.1502C31.0054 59.1502 31.0054 59.0852 31.0054 59.0202L31.0704 58.3702C31.0704 58.0452 31.0704 57.5902 31.0054 56.8752C30.9404 56.1602 30.9404 55.7702 30.9404 55.6402V54.5352Z" fill="#3972FF"/>
<path d="M35.1657 54.0151V55.1851L35.2307 57.2001L35.2957 58.8251C35.2957 59.0851 35.2307 59.2801 35.0357 59.2801C34.9707 59.2801 34.8407 59.2151 34.8407 59.1501C34.7757 59.0851 34.7757 58.9551 34.7757 58.8251L34.8407 57.3951C34.8407 57.0701 34.8407 56.6151 34.7757 56.0301C34.7107 55.4451 34.7107 54.9251 34.7107 54.6651V53.8851C34.7107 53.4301 34.7107 53.1701 34.6457 53.0401L34.1907 53.1051C34.1257 53.1051 34.0607 53.1051 33.9957 53.0401C33.9307 52.9751 33.9307 52.9101 33.9307 52.8451C33.9307 52.7801 33.9957 52.7151 34.1257 52.6501C34.2557 52.5851 34.4507 52.5851 34.6457 52.5201C34.9707 52.4551 35.2957 52.4551 35.5557 52.4551C35.6207 52.4551 35.6857 52.4551 35.7507 52.5201C35.7507 52.5851 35.7507 52.6501 35.7507 52.7151C35.7507 52.7801 35.7507 52.8451 35.6857 52.9101C35.6207 52.9751 35.5557 52.9751 35.4907 52.9751H35.1657C35.1007 52.9751 35.1007 52.9751 35.1007 52.9751C35.1007 53.3001 35.1657 53.6251 35.1657 54.0151Z" fill="#3972FF"/>
<path d="M37.2457 56.8105L37.1807 53.2355V53.1705C37.1807 52.8455 37.2457 52.6505 37.3107 52.5855C37.3757 52.5205 37.4407 52.5205 37.5057 52.5205C37.8957 52.5205 38.2207 52.6505 38.4807 52.9105C38.7407 53.1705 38.8057 53.5605 38.8057 53.9505C38.8057 54.2105 38.7407 54.4705 38.6107 54.7955C38.4807 55.0555 38.2857 55.3155 38.0907 55.4455C38.4157 55.7055 38.6757 55.9655 38.8707 56.3555C39.0007 56.7455 39.1307 57.1355 39.1307 57.5255C39.1307 57.7205 39.0657 57.9805 39.0007 58.1755C38.8707 58.4355 38.8057 58.5655 38.6757 58.6955C38.5457 58.8255 38.4157 58.9555 38.2857 59.0205C38.0907 59.0855 37.8957 59.1505 37.7007 59.1505H37.6357C37.3757 59.1505 37.2457 59.0855 37.2457 58.9555V56.8105ZM37.7657 53.0405C37.7007 53.0405 37.6357 53.1705 37.6357 53.3655C37.6357 53.5605 37.6357 53.8855 37.6357 54.3405C37.6357 54.7955 37.6357 55.1205 37.6357 55.3155C37.7657 55.2505 37.8957 55.1855 38.0257 54.9255C38.0907 54.7305 38.1557 54.5355 38.2207 54.4055C38.2857 54.2105 38.2857 54.1455 38.3507 54.0805V53.7555C38.3507 53.5605 38.2857 53.4305 38.1557 53.2355C38.0907 53.1055 37.9607 53.0405 37.7657 53.0405ZM38.4157 58.3705C38.6107 58.1755 38.6757 57.9155 38.6757 57.5905C38.6757 57.2655 38.6757 57.0055 38.6107 56.8105C38.5457 56.6155 38.4807 56.4205 38.4807 56.2905C38.4157 56.1605 38.3507 56.0955 38.2857 56.0305C38.2207 55.9005 38.0907 55.9005 38.0257 55.8355H37.7007C37.7007 56.6805 37.7657 57.6555 37.7657 58.7605C38.0257 58.7605 38.2857 58.5655 38.4157 58.3705Z" fill="#3972FF"/>
<path d="M41.7959 56.4851L41.7309 57.5901V57.6551C41.6659 57.8501 41.6659 57.9801 41.6659 58.1751C41.6659 58.3701 41.6009 58.5651 41.5359 58.6951C41.4709 58.8251 41.3409 59.0201 41.2109 59.1501C41.0809 59.2801 40.9509 59.3451 40.7559 59.3451C40.6259 59.3451 40.4309 59.2801 40.3009 59.1501C40.1709 59.0201 40.0409 58.8901 39.9759 58.7601C39.9109 58.5651 39.8459 58.3701 39.7809 58.1751C39.7159 57.9151 39.6509 57.7201 39.6509 57.4601C39.6509 57.2651 39.6509 57.0701 39.6509 56.8101C39.5859 56.4201 39.5859 56.1601 39.5859 55.9001C39.5859 55.7051 39.5859 55.5101 39.5859 55.3801C39.5859 55.2501 39.5859 55.1201 39.5859 54.9901C39.5859 54.9251 39.5859 54.8601 39.5859 54.7951C39.5859 54.7301 39.5859 54.6651 39.5859 54.5351C39.5859 54.3401 39.5859 54.2101 39.5859 54.0801C39.5859 53.9501 39.5859 53.8201 39.6509 53.6251C39.6509 53.4951 39.7159 53.3001 39.7159 53.2351C39.7159 53.1051 39.7809 52.9751 39.8459 52.9101C39.9109 52.7801 39.9759 52.7151 40.0409 52.6501C40.1709 52.4551 40.3659 52.3901 40.5609 52.3901C40.7559 52.3901 40.8859 52.4551 41.0159 52.5201C41.1459 52.5851 41.2759 52.7151 41.3409 52.8451C41.4059 52.9751 41.5359 53.1701 41.6009 53.3001C41.6659 53.4301 41.7309 53.6251 41.7309 53.8851C41.7959 54.1451 41.7959 54.3401 41.7959 54.4701C41.7959 54.6001 41.8609 54.8601 41.8609 55.1201C41.8609 55.5101 41.8609 55.8351 41.8609 56.0301V56.4851H41.7959ZM41.0159 53.2351C40.9509 53.1051 40.8859 52.9751 40.8209 52.9101C40.7559 52.8451 40.6259 52.7801 40.5609 52.7801C40.4959 52.7801 40.4309 52.7801 40.3659 52.8451C40.3009 52.9101 40.2359 52.9751 40.2359 53.1051C40.1709 53.2351 40.1709 53.3651 40.1059 53.4301C40.1059 53.5601 40.0409 53.6901 40.0409 53.8851C40.0409 54.0801 40.0409 54.2101 39.9759 54.3401C39.9759 54.4701 39.9759 54.6001 39.9759 54.7951C39.9759 55.0551 39.9759 55.2501 39.9759 55.4451V55.5101C39.9759 55.9001 39.9759 56.3551 40.0409 56.8101C40.1059 57.2651 40.1709 57.6551 40.2359 57.9151C40.3009 58.1751 40.3659 58.4351 40.4959 58.6301C40.6259 58.8251 40.7559 58.9551 40.8859 58.9551C41.0159 58.9551 41.0809 58.8251 41.2109 58.6301C41.2759 58.4351 41.3409 58.1101 41.4059 57.7851C41.4709 57.2001 41.4709 56.8101 41.4709 56.5501C41.4709 56.2901 41.4709 56.1601 41.4709 56.0301C41.4709 55.9001 41.4709 55.7701 41.4709 55.5751C41.4709 55.3801 41.4709 55.1851 41.4059 54.9901C41.4059 54.7951 41.3409 54.6001 41.3409 54.4051C41.3409 54.2101 41.2759 54.0151 41.2109 53.8201C41.1459 53.5601 41.0809 53.4301 41.0159 53.2351Z" fill="#3972FF"/>
<path d="M44.5904 56.4852L44.5254 57.5902V57.6552C44.4604 57.8502 44.4604 57.9802 44.4604 58.1752C44.4604 58.3702 44.3954 58.5652 44.3304 58.6952C44.2654 58.8902 44.1354 59.0202 44.0054 59.1502C43.8754 59.2802 43.7454 59.3452 43.5504 59.3452C43.4204 59.3452 43.2254 59.2802 43.0954 59.1502C42.9654 59.0202 42.8354 58.8902 42.7704 58.7602C42.7054 58.5652 42.6404 58.3702 42.5754 58.1752C42.5104 57.9152 42.4454 57.7202 42.4454 57.4602C42.3804 57.2652 42.3804 57.0052 42.3804 56.7452C42.3154 56.3552 42.3154 56.0952 42.3154 55.8352C42.3154 55.6402 42.3154 55.4452 42.3154 55.3152C42.3154 55.1852 42.3154 55.0552 42.3154 54.9252C42.3154 54.8602 42.3154 54.7952 42.3154 54.7302C42.3154 54.6652 42.3154 54.6002 42.3154 54.4702C42.3154 54.2752 42.3154 54.1452 42.3154 54.0152C42.3154 53.8852 42.3154 53.7552 42.3804 53.5602C42.3804 53.4302 42.4454 53.2352 42.4454 53.1702C42.4454 53.0402 42.5104 52.9102 42.5754 52.8452C42.6404 52.7152 42.7054 52.6502 42.7704 52.5852C42.9004 52.3902 43.0954 52.3252 43.2904 52.3252C43.4854 52.3252 43.6154 52.3902 43.7454 52.4552C43.8754 52.5202 44.0054 52.6502 44.0704 52.7802C44.1354 52.9102 44.2654 53.1052 44.3304 53.2352C44.3954 53.3652 44.4604 53.5602 44.4604 53.8202C44.5254 54.0802 44.5254 54.2752 44.5254 54.4052C44.5254 54.5352 44.5904 54.7952 44.5904 55.0552C44.5904 55.4452 44.5904 55.7702 44.5904 55.9652V56.4852ZM43.8104 53.2352C43.7454 53.1052 43.6804 52.9752 43.6154 52.9102C43.5504 52.8452 43.4204 52.7802 43.3554 52.7802C43.2904 52.7802 43.2254 52.7802 43.1604 52.8452C43.0954 52.9102 43.0304 52.9752 43.0304 53.1052C42.9654 53.2352 42.9654 53.3652 42.9004 53.4302C42.9004 53.5602 42.8354 53.6902 42.8354 53.8852C42.8354 54.0802 42.8354 54.2102 42.7704 54.3402C42.7704 54.4702 42.7704 54.6002 42.7704 54.7952C42.7704 55.0552 42.7704 55.2502 42.7704 55.4452V55.5102C42.7704 55.9002 42.7704 56.3552 42.8354 56.8102C42.9004 57.2652 42.9654 57.6552 43.0304 57.9152C43.0954 58.1752 43.1604 58.4352 43.2904 58.6302C43.4204 58.8252 43.5504 58.9552 43.6804 58.9552C43.8104 58.9552 43.8754 58.8252 44.0054 58.6302C44.0704 58.4352 44.1354 58.1102 44.2004 57.7852C44.1354 57.2002 44.2004 56.7452 44.2004 56.5502C44.2004 56.2902 44.2004 56.1602 44.2004 56.0302C44.2004 55.9002 44.2004 55.7702 44.2004 55.5752C44.2004 55.3802 44.2004 55.1852 44.1354 54.9902C44.1354 54.7952 44.0704 54.6002 44.0704 54.4052C44.0704 54.2102 44.0054 54.0152 43.9404 53.8202C43.9404 53.5602 43.8754 53.4302 43.8104 53.2352Z" fill="#3972FF"/>
<path d="M45.3058 56.2903V54.6003C45.3058 54.2753 45.3058 53.9503 45.2408 53.5603C45.1758 53.1703 45.1758 52.9103 45.1758 52.7803C45.1758 52.6503 45.1758 52.5853 45.2408 52.5203C45.3058 52.4553 45.3708 52.4553 45.4358 52.4553C45.6308 52.4553 45.7608 52.7153 45.7608 53.1703C45.7608 53.1703 45.7608 53.7553 45.6958 54.9903C45.6958 54.9253 45.7608 54.7953 45.8908 54.5353C45.9558 54.2753 46.0858 54.0803 46.1508 53.8203C46.2808 53.5603 46.3458 53.3003 46.4758 53.0403C46.7358 52.4553 46.9308 52.1953 46.9958 52.1953C47.0608 52.1953 47.1258 52.1953 47.1908 52.2603C47.2558 52.3253 47.2558 52.3903 47.2558 52.3903C47.2558 52.4553 47.1258 52.8453 46.8008 53.4953C46.4758 54.1453 46.2808 54.6003 46.2808 54.7953V54.9253C46.3458 55.1203 46.6058 55.8353 46.9958 57.0703C47.3858 58.3053 47.5808 58.9553 47.5808 59.0203C47.5808 59.0853 47.5808 59.1503 47.5158 59.2153C47.4508 59.2803 47.3858 59.2803 47.3208 59.2803L47.1258 59.2153C46.9958 58.3703 46.8008 57.6553 46.6708 57.0053C46.5408 56.3553 46.2808 55.7703 46.0858 55.2503C45.8908 55.5753 45.8258 55.7703 45.8258 55.8353C45.8258 56.0303 45.8258 56.1603 45.8258 56.2903L45.8908 57.9153V58.6303C45.8908 58.9553 45.7608 59.0853 45.5658 59.0853C45.3708 59.0853 45.3058 58.9553 45.3058 58.6303C45.3058 58.3053 45.3058 57.9153 45.3708 57.3953C45.2408 57.0053 45.3058 56.5503 45.3058 56.2903Z" fill="#3972FF"/>
<path d="M17.4855 24.0504C17.0955 25.6104 17.4205 27.3004 17.8755 28.7954C18.3955 30.4854 19.1105 32.1104 20.3455 33.2804C21.5805 34.4504 23.5305 34.9704 24.9605 34.1254C25.6755 33.6704 26.2605 32.9554 26.5855 32.1754C26.9105 31.3304 27.0405 30.4854 27.1055 29.5754C27.2355 27.8204 27.0405 26.0004 26.5205 24.2454C26.3255 23.5304 26.0655 22.8154 25.6105 22.2304C24.5705 20.8004 22.6855 20.2804 21.1255 20.8654C20.4105 21.1254 19.5655 21.2554 18.9155 21.7104C18.2005 22.2954 17.6805 23.1404 17.4855 24.0504Z" fill="#3B82FF"/>
<path d="M17.8107 24.8953C17.4207 26.3903 17.7457 28.0153 18.2007 29.5103C18.7207 31.1353 19.3707 32.7603 20.6057 33.9303C21.8407 35.0353 23.6607 35.5553 25.0257 34.7753C25.7407 34.3853 26.2607 33.6703 26.5857 32.8903C26.9107 32.1103 27.0407 31.2003 27.1057 30.3553C27.2357 28.6003 27.0407 26.8453 26.5207 25.2203C26.3257 24.5053 26.0657 23.8553 25.6107 23.2703C24.5707 21.8403 22.8157 21.3853 21.2557 21.9053C20.5407 22.1653 19.7607 22.2303 19.1107 22.7503C18.5257 23.2703 18.0057 24.0503 17.8107 24.8953Z" fill="#FFF3E9"/>
<path d="M26.5855 25.2206C26.3905 24.5056 26.1305 23.8556 25.6755 23.2706C25.2855 22.7506 24.8305 22.3606 24.3105 22.1006C24.4405 22.2306 24.5055 22.3606 24.6355 22.4906C25.0255 23.0756 25.2855 23.7906 25.5455 24.4406C26.0005 26.1306 26.1955 27.8856 26.1305 29.5756C26.0655 30.4206 25.9355 31.3306 25.6105 32.1106C25.2855 32.8906 24.7655 33.6056 24.0505 33.9956C23.0105 34.5806 21.7105 34.4506 20.6055 33.8656L20.6705 33.9306C21.9055 35.0356 23.7255 35.5556 25.0905 34.7756C25.8055 34.3856 26.3255 33.6706 26.6505 32.8906C26.9755 32.1106 27.1055 31.2006 27.1705 30.3556C27.2355 28.6656 27.0405 26.8456 26.5855 25.2206Z" fill="#FFE7C0"/>
<path d="M20.0208 27.7555C19.8908 28.4055 19.9558 29.1205 20.1508 29.7705C20.3458 30.6805 20.7358 31.5255 21.4508 32.1105C22.1008 32.6955 23.1408 32.8255 23.7908 32.3055C23.9858 32.1105 24.1808 31.9155 24.3108 31.6555C24.9608 30.4855 25.0258 28.9255 24.3758 27.6255C24.1158 27.0405 23.6608 26.4555 23.0758 26.1955C21.8408 25.6105 20.2808 26.3905 20.0208 27.7555Z" fill="#413E49"/>
<path d="M20.7358 28.8602C20.7358 29.0552 20.8008 29.2502 20.9958 29.3152C21.0608 29.3802 21.1908 29.3802 21.3208 29.3152C21.6458 29.2502 21.9058 28.9252 22.0358 28.6002C22.2308 28.2102 22.3608 27.7552 22.3608 27.2352C22.2958 26.5202 21.5808 26.1952 21.1258 26.7152C20.6708 27.2352 20.6708 28.2752 20.7358 28.8602Z" fill="white"/>
<path opacity="0.3" d="M18.4609 28.6005C18.5259 29.5755 18.8509 30.4855 19.4359 31.2005C19.5009 31.2655 19.6309 31.3955 19.6959 31.2655C19.7609 31.2005 19.6959 31.1355 19.6959 31.0705C19.2409 29.3805 18.7859 27.6255 19.1109 25.9355C19.1109 25.8055 19.1759 25.6105 19.0459 25.4805C18.5909 25.7405 18.5259 26.3905 18.4609 26.8455C18.4609 27.4955 18.4609 28.0805 18.4609 28.6005Z" fill="white"/>
<path d="M19.7604 24.5054C20.4104 24.1154 21.1904 23.9204 21.9704 23.8554C22.7504 23.7904 23.5304 23.7904 24.3104 23.9854C25.0904 24.1804 25.8054 24.5704 26.3254 25.0904C26.1304 24.1154 25.4154 23.2704 24.5054 22.8154C23.5954 22.3604 22.5554 22.1654 21.5804 22.2304C21.0604 22.2304 20.6054 22.3604 20.0854 22.5554C19.1754 22.9454 18.4604 23.7254 18.0704 24.5704C17.8754 24.9604 17.7454 25.4154 17.6804 25.8054C17.6154 26.0654 17.4854 26.7154 17.7454 26.9104C17.9404 27.1054 18.0704 26.4554 18.2004 26.2604C18.3954 25.9354 18.5904 25.5454 18.7854 25.2854C19.0454 25.0254 19.3704 24.7004 19.7604 24.5054Z" fill="#FFE7C0"/>
<path d="M18.3304 25.2204C18.9154 24.2454 19.6304 23.9204 20.4104 23.6604C20.7354 23.5954 21.0604 23.5304 21.3854 23.4654C22.4254 23.3354 23.4654 23.3354 24.5054 23.5304C25.1554 23.6604 26.1304 24.2454 26.5204 24.8304C26.2604 24.3754 25.8704 23.4004 25.6104 22.8804C25.5454 22.6854 25.4154 22.4904 25.2854 22.3604C25.1554 22.1654 24.9604 22.1004 24.7654 21.9704C24.3754 21.7104 23.9204 21.5154 23.4654 21.3854C23.0104 21.2554 22.4904 21.3204 22.0354 21.3204C20.8004 21.4504 19.5654 21.7754 18.6554 22.5554C18.0054 23.1404 17.6154 23.9204 17.4854 24.7654C17.3554 25.4804 17.2904 27.1054 17.6154 27.8204C17.7454 27.7554 17.9404 25.9354 18.3304 25.2204Z" fill="#3B82FF"/>
<path opacity="0.34" d="M18.2 23.3356C17.745 23.9856 17.615 24.8306 17.745 25.6106C17.81 24.8306 18.2 24.1156 18.72 23.5956C19.24 23.0106 19.89 22.6206 20.605 22.3606C20.93 22.2306 21.255 22.1656 21.515 21.9056C21.515 21.9056 21.58 21.8406 21.58 21.7756C21.58 21.6456 21.45 21.6456 21.32 21.5806C20.15 21.5806 18.85 22.3606 18.2 23.3356Z" fill="white"/>
<path d="M41.3398 22.36C40.4298 23.66 40.1048 25.35 39.9748 26.975C39.8448 28.73 39.9098 30.55 40.6248 32.11C41.3398 33.67 42.9648 34.84 44.5898 34.58C45.4348 34.45 46.2148 33.995 46.7998 33.345C47.3848 32.695 47.9048 31.915 48.2298 31.135C49.0098 29.51 49.4648 27.755 49.6598 26C49.7248 25.285 49.7248 24.505 49.5298 23.79C49.0748 22.035 47.5148 20.93 45.8248 20.865C45.0448 20.865 44.2648 20.67 43.4848 20.865C42.7048 21.06 41.8598 21.645 41.3398 22.36Z" fill="#3B82FF"/>
<path d="M41.3402 23.3351C40.4302 24.5701 40.1702 26.2601 40.0402 27.8201C39.9102 29.5101 39.9752 31.2651 40.6902 32.7601C41.4052 34.2551 42.9002 35.4251 44.5252 35.1651C45.3702 35.0351 46.0852 34.5801 46.6702 33.9951C47.2552 33.4101 47.7102 32.6301 48.1002 31.8501C48.8152 30.2901 49.3352 28.6001 49.4652 26.8451C49.5302 26.1301 49.5302 25.3501 49.4002 24.7001C49.0102 23.0101 47.4502 21.9051 45.8252 21.8401C45.0452 21.8401 44.3302 21.6451 43.5502 21.8401C42.5752 22.0351 41.8602 22.5551 41.3402 23.3351Z" fill="#FFF3E9"/>
<path d="M49.4 26.7798C49.465 26.0648 49.465 25.2848 49.335 24.6348C49.205 23.9848 48.88 23.4648 48.49 23.0098C48.555 23.1398 48.62 23.3348 48.62 23.4648C48.815 24.1798 48.75 24.8948 48.685 25.6098C48.555 27.3648 48.035 29.0548 47.32 30.6148C46.93 31.3948 46.475 32.1748 45.89 32.7598C45.305 33.3448 44.525 33.8648 43.745 33.9298C42.575 34.1248 41.405 33.4748 40.625 32.5648C40.625 32.6298 40.625 32.6298 40.69 32.6948C41.405 34.1898 42.9 35.3598 44.525 35.0998C45.37 34.9698 46.085 34.5148 46.67 33.9298C47.255 33.3448 47.71 32.5648 48.1 31.7848C48.75 30.2248 49.205 28.5348 49.4 26.7798Z" fill="#FFE7C0"/>
<path d="M42.3802 26.7801C41.9902 27.3651 41.8602 28.0151 41.7952 28.7301C41.6652 29.6401 41.7302 30.6151 42.1202 31.3951C42.5102 32.1751 43.4202 32.6951 44.2652 32.4351C44.5252 32.3701 44.7852 32.1751 44.9802 32.0451C46.0202 31.2001 46.6052 29.7701 46.5402 28.3401C46.4752 27.6901 46.2802 26.9751 45.8252 26.5201C44.8502 25.4801 43.0952 25.6101 42.3802 26.7801Z" fill="#413E49"/>
<path d="M42.6394 28.0799C42.5744 28.2749 42.5744 28.4699 42.7044 28.5999C42.7694 28.6649 42.8994 28.7299 42.9644 28.7299C43.2894 28.7949 43.6144 28.5999 43.9394 28.3399C44.2644 28.0149 44.5894 27.6249 44.7194 27.2349C44.9144 26.5199 44.3944 25.9999 43.7444 26.2599C43.0944 26.5199 42.7694 27.4949 42.6394 28.0799Z" fill="white"/>
<path opacity="0.3" d="M40.6246 27.0398C40.2996 27.9498 40.2996 28.9248 40.5596 29.8348C40.5596 29.9648 40.6896 30.0948 40.7546 30.0298C40.8196 30.0298 40.8196 29.9648 40.8196 29.8998C41.0146 28.2098 41.2096 26.3898 42.1846 24.9598C42.2496 24.8298 42.3796 24.6998 42.3146 24.5698C41.7946 24.6348 41.5346 25.2198 41.2746 25.6098C41.0146 25.9998 40.7546 26.5198 40.6246 27.0398Z" fill="white"/>
<path d="M43.2899 23.6602C44.0699 23.5302 44.8499 23.6602 45.5649 23.9202C46.2799 24.1152 47.0599 24.4402 47.6449 24.8952C48.2949 25.3502 48.8149 25.9352 49.1399 26.6502C49.2699 25.6752 48.9449 24.6352 48.2949 23.8552C47.6449 23.0752 46.7349 22.5552 45.7599 22.2302C45.3049 22.1002 44.7849 21.9702 44.2649 21.9702C43.2899 21.9702 42.3149 22.4252 41.6649 23.1402C41.3399 23.4652 41.0799 23.7902 40.8849 24.1802C40.7549 24.3752 40.3649 24.9602 40.4949 25.2202C40.6249 25.4802 41.0149 24.8952 41.1449 24.7652C41.4049 24.5052 41.7299 24.2452 42.0549 24.0502C42.4449 23.8552 42.8349 23.7252 43.2899 23.6602Z" fill="#FFE7C0"/>
<path d="M41.73 23.7899C42.64 23.0749 43.42 23.0099 44.2 23.0749C44.525 23.0749 44.85 23.1399 45.175 23.2699C46.215 23.5299 47.19 23.9199 48.1 24.4399C48.685 24.7649 49.335 25.6749 49.53 26.3899C49.465 25.8699 49.465 24.7649 49.4 24.2449C49.4 24.0499 49.335 23.8549 49.27 23.6599C49.205 23.4649 49.075 23.2699 48.88 23.1399C48.555 22.7499 48.295 22.4249 47.905 22.1649C47.515 21.9049 47.06 21.7099 46.605 21.5799C45.435 21.2549 44.135 21.0599 42.965 21.5149C42.185 21.8399 41.535 22.4249 41.08 23.0749C40.69 23.6599 40.04 25.2199 40.04 25.9349C40.235 25.9349 41.08 24.3099 41.73 23.7899Z" fill="#3B82FF"/>
<path opacity="0.34" d="M42.2502 22.0351C41.6002 22.4901 41.1452 23.2051 40.9502 23.9851C41.2752 23.3351 41.9252 22.8151 42.5752 22.4901C43.2902 22.1651 44.0052 22.0351 44.7852 22.0351C45.1102 22.0351 45.5002 22.1001 45.7602 21.9051C45.8252 21.9051 45.8252 21.8401 45.8252 21.8401C45.8902 21.7751 45.7602 21.6451 45.6952 21.5801C44.7202 21.0601 43.2252 21.3201 42.2502 22.0351Z" fill="white"/>
</svg>
