<svg width="19" height="20" viewBox="0 0 19 20" fill="none" xmlns="http://www.w3.org/2000/svg">
<g clip-path="url(#clip0_65_65)">
<path fill-rule="evenodd" clip-rule="evenodd" d="M8.45939 15.7971C4.73821 15.7971 1.71089 12.7707 1.71089 9.0506C1.71089 5.33053 4.73821 2.30413 8.45939 2.30413C12.1805 2.30413 15.2079 5.33053 15.2079 9.0506C15.2079 12.7707 12.1805 15.7971 8.45939 15.7971ZM15.0121 14.3917C16.2021 12.934 16.9188 11.0745 16.9188 9.0506C16.9188 4.38698 13.1234 0.59375 8.45939 0.59375C3.79532 0.59375 0 4.38698 0 9.0506C0 13.7142 3.79532 17.5074 8.45939 17.5074C10.4839 17.5074 12.344 16.7909 13.8012 15.6004L17.3589 19.1571C17.5261 19.3243 17.7457 19.4079 17.9643 19.4079C18.1829 19.4079 18.4025 19.3243 18.5698 19.1571C18.9034 18.8235 18.9034 18.2818 18.5698 17.9484L15.0121 14.3917Z" fill="#999999"/>
</g>
<defs>
<clipPath id="clip0_65_65">
<rect width="18.82" height="19.99" fill="white" transform="translate(0 0.00585938)"/>
</clipPath>
</defs>
</svg>
