<svg width="33" height="32" viewBox="0 0 33 32" fill="none" xmlns="http://www.w3.org/2000/svg">
<rect x="0.689941" y="0.5" width="31" height="31" rx="15.5" fill="white"/>
<rect x="0.689941" y="0.5" width="31" height="31" rx="15.5" stroke="#D1D5DB"/>
<path d="M20.8962 19.2936C21.2868 19.6842 21.2868 20.317 20.8962 20.7076C20.7024 20.9029 20.4462 20.9998 20.1899 20.9998C19.9337 20.9998 19.6781 20.9021 19.4831 20.7068L16.1899 17.4154L12.8971 20.7061C12.7018 20.9029 12.4459 20.9998 12.1899 20.9998C11.934 20.9998 11.6784 20.9029 11.4829 20.7061C11.0923 20.3154 11.0923 19.6826 11.4829 19.292L14.7767 15.9982L11.4829 12.7061C11.0923 12.3154 11.0923 11.6826 11.4829 11.292C11.8735 10.9014 12.5063 10.9014 12.897 11.292L16.1899 14.5873L19.4837 11.2936C19.8743 10.9029 20.5071 10.9029 20.8978 11.2936C21.2884 11.6842 21.2884 12.317 20.8978 12.7076L17.604 16.0014L20.8962 19.2936Z" fill="#4B5563"/>
</svg>
