<svg width="56" height="53" viewBox="0 0 56 53" fill="none" xmlns="http://www.w3.org/2000/svg">
<mask id="mask0_177_3170" style="mask-type:luminance" maskUnits="userSpaceOnUse" x="1" y="0" width="54" height="53">
<path d="M54.5 0H1.5V53H54.5V0Z" fill="white"/>
</mask>
<g mask="url(#mask0_177_3170)">
<path d="M24.3874 19.0329C24.3874 22.0188 22.0783 24.4394 19.2299 24.4394C16.3815 24.4394 14.0724 22.0188 14.0724 19.0329C14.0724 16.047 16.3815 13.6264 19.2299 13.6264C22.0783 13.6264 24.3874 16.047 24.3874 19.0329Z" fill="#0094FF"/>
<path d="M31.6125 19.0329C31.6125 22.0188 33.9215 24.4394 36.7699 24.4394C39.6184 24.4394 41.9276 22.0188 41.9276 19.0329C41.9276 16.047 39.6184 13.6264 36.7699 13.6264C33.9215 13.6264 31.6125 16.047 31.6125 19.0329Z" fill="#FF615F"/>
<path d="M44.5625 31.3182C44.5625 39.6338 37.1472 46.375 28 46.375C18.8528 46.375 11.4375 39.6338 11.4375 31.3182C11.4375 23.0026 18.8528 16.2614 28 16.2614C37.1472 16.2614 44.5625 23.0026 44.5625 31.3182Z" fill="#FFD037"/>
<path d="M22.7681 32.5245C24.2758 33.7053 26.0851 34.3295 28.0001 34.3295C29.915 34.3295 31.7243 33.7053 33.232 32.5245C33.8868 32.0118 34.8331 32.1269 35.3457 32.7816C35.8585 33.4363 35.7435 34.3825 35.0888 34.8953C33.046 36.4953 30.5948 37.341 28.0001 37.341C25.4053 37.341 22.9541 36.4953 20.9113 34.8953C20.2566 34.3825 20.1416 33.4363 20.6544 32.7816C21.167 32.1269 22.1134 32.0116 22.7681 32.5245Z" fill="#FF8533"/>
</g>
</svg>
