<svg width="56" height="45" viewBox="0 0 56 45" fill="none" xmlns="http://www.w3.org/2000/svg">
<mask id="mask0_177_1370" style="mask-type:luminance" maskUnits="userSpaceOnUse" x="1" y="-8" width="54" height="53">
<path d="M54.5 -8H1.5V45H54.5V-8Z" fill="white"/>
</mask>
<g mask="url(#mask0_177_1370)">
<path d="M31.3877 39.8205H24.6121C23.7805 39.8205 23.1064 39.1463 23.1064 38.3148V32.5744C23.1064 31.327 24.1177 30.3159 25.365 30.3159H30.6349C31.8822 30.3159 32.8934 31.327 32.8934 32.5744V38.3148C32.8934 39.1463 32.2192 39.8205 31.3877 39.8205Z" fill="#03C65A"/>
<mask id="mask1_177_1370" style="mask-type:alpha" maskUnits="userSpaceOnUse" x="14" y="6" width="28" height="29">
<path d="M32.1405 7.57535C32.1405 7.50477 32.1444 7.43515 32.1458 7.36468C30.8418 6.93261 29.4489 6.69531 27.9999 6.69531C20.7237 6.69531 14.8252 12.5939 14.8252 19.87V31.9155C14.8252 33.1629 15.8364 34.174 17.0837 34.174H38.9161C40.1634 34.174 41.1746 33.1629 41.1746 31.9155V19.87C41.1746 19.1132 41.1073 18.3727 40.9848 17.6508C38.5541 17.3354 36.3927 16.1622 34.8151 14.4445C33.1544 12.6363 32.1405 10.2246 32.1405 7.57535Z" fill="#FF0000"/>
</mask>
<g mask="url(#mask1_177_1370)">
<path d="M41.1746 26.5728H14.8252V14.6733H41.1746V26.5728Z" fill="#FFD037"/>
<path d="M41.1746 34.1742H14.8252V25.1401H41.1746V34.1742Z" fill="#FF615F"/>
<path d="M41.1746 16.1057H14.8252V6.69531H41.1746V16.1057Z" fill="#0094FF"/>
</g>
</g>
</svg>
