<svg width="56" height="53" viewBox="0 0 56 53" fill="none" xmlns="http://www.w3.org/2000/svg">
<mask id="mask0_177_2639" style="mask-type:luminance" maskUnits="userSpaceOnUse" x="1" y="0" width="54" height="53">
<path d="M54.5 0H1.5V53H54.5V0Z" fill="white"/>
</mask>
<g mask="url(#mask0_177_2639)">
<path d="M24.3875 19.0329C24.3875 22.0189 22.0783 24.4394 19.23 24.4394C16.3816 24.4394 14.0724 22.0189 14.0724 19.0329C14.0724 16.047 16.3816 13.6265 19.23 13.6265C22.0783 13.6265 24.3875 16.047 24.3875 19.0329Z" fill="#0094FF"/>
<path d="M31.6125 19.0329C31.6125 22.0189 33.9215 24.4394 36.7699 24.4394C39.6184 24.4394 41.9276 22.0189 41.9276 19.0329C41.9276 16.047 39.6184 13.6265 36.7699 13.6265C33.9215 13.6265 31.6125 16.047 31.6125 19.0329Z" fill="#FF615F"/>
<path d="M44.5625 31.3182C44.5625 39.6338 37.1472 46.375 28 46.375C18.8528 46.375 11.4375 39.6338 11.4375 31.3182C11.4375 23.0026 18.8528 16.2614 28 16.2614C37.1472 16.2614 44.5625 23.0026 44.5625 31.3182Z" fill="#FFD037"/>
<path d="M22.7681 32.5246C24.2758 33.7054 26.085 34.3296 28 34.3296C29.915 34.3296 31.7242 33.7054 33.2319 32.5246C33.8867 32.0118 34.833 32.127 35.3457 32.7817C35.8585 33.4363 35.7434 34.3826 35.0887 34.8954C33.046 36.4954 30.5947 37.3411 28 37.3411C25.4053 37.3411 22.954 36.4954 20.9112 34.8954C20.2566 34.3826 20.1415 33.4363 20.6543 32.7817C21.167 32.127 22.1134 32.0117 22.7681 32.5246Z" fill="#FF8533"/>
</g>
</svg>
