<svg width="56" height="53" viewBox="0 0 56 53" fill="none" xmlns="http://www.w3.org/2000/svg">
<mask id="mask0_177_2235" style="mask-type:luminance" maskUnits="userSpaceOnUse" x="1" y="0" width="54" height="53">
<path d="M54.5 0H1.5V53H54.5V0Z" fill="white"/>
</mask>
<g mask="url(#mask0_177_2235)">
<mask id="mask1_177_2235" style="mask-type:alpha" maskUnits="userSpaceOnUse" x="15" y="15" width="26" height="25">
<path d="M28 39.5844C21.0024 39.5844 15.3297 33.9118 15.3297 26.9141V17.9703C15.3297 16.7355 16.3308 15.7344 17.5656 15.7344H38.4344C39.6692 15.7344 40.6703 16.7355 40.6703 17.9703V26.9141C40.6703 33.9118 34.9977 39.5844 28 39.5844Z" fill="#FFD037"/>
</mask>
<g mask="url(#mask1_177_2235)">
<path d="M35.5284 33.682H39.2926C43.0347 33.682 46.0682 30.6485 46.0682 26.9064V23.5188C46.0682 22.2715 45.057 21.2603 43.8097 21.2603H35.5284V33.682Z" fill="#03C65A"/>
</g>
<path d="M34.3991 46.8569H21.6009C20.3535 46.8569 19.3423 45.8457 19.3423 44.5984C19.3423 43.3511 20.3535 42.3398 21.6009 42.3398H34.3991C35.6465 42.3398 36.6577 43.3511 36.6577 44.5984C36.6577 45.8457 35.6465 46.8569 34.3991 46.8569Z" fill="#FFD037"/>
<path d="M31.3878 46.2784H24.6122V35.9131H31.3878V46.2784Z" fill="#FFD037"/>
<path d="M28 39.7049C20.9317 39.7049 15.2017 33.975 15.2017 26.9066V17.8725C15.2017 16.6252 16.2129 15.614 17.4602 15.614H38.5398C39.7871 15.614 40.7983 16.6252 40.7983 17.8725V26.9066C40.7983 33.975 35.0684 39.7049 28 39.7049Z" fill="#FFD037"/>
<mask id="mask2_177_2235" style="mask-type:alpha" maskUnits="userSpaceOnUse" x="15" y="15" width="26" height="25">
<path d="M28 39.7049C20.9317 39.7049 15.2017 33.975 15.2017 26.9066V17.8725C15.2017 16.6252 16.2129 15.614 17.4602 15.614H38.5398C39.7871 15.614 40.7983 16.6252 40.7983 17.8725V26.9066C40.7983 33.975 35.0684 39.7049 28 39.7049Z" fill="#FFD037"/>
</mask>
<g mask="url(#mask2_177_2235)">
<path d="M28.5323 21.3944L30.1584 24.6893L33.7946 25.2177C34.2815 25.2886 34.4761 25.8869 34.1238 26.2302L31.4923 28.795L32.1135 32.4166C32.1968 32.9015 31.6878 33.2713 31.2524 33.0423L27.9999 31.3325L24.7475 33.0423C24.312 33.2713 23.8031 32.9015 23.8862 32.4166L24.5074 28.795L21.8762 26.2302C21.5239 25.8869 21.7184 25.2886 22.2053 25.2177L25.8414 24.6893L27.4676 21.3944C27.6854 20.9532 28.3145 20.9532 28.5323 21.3944Z" fill="#FF8533"/>
</g>
<mask id="mask3_177_2235" style="mask-type:alpha" maskUnits="userSpaceOnUse" x="15" y="15" width="26" height="25">
<path d="M28 39.5844C21.0024 39.5844 15.3297 33.9118 15.3297 26.9141V17.9703C15.3297 16.7355 16.3308 15.7344 17.5656 15.7344H38.4344C39.6692 15.7344 40.6703 16.7355 40.6703 17.9703V26.9141C40.6703 33.9118 34.9977 39.5844 28 39.5844Z" fill="#FFD037"/>
</mask>
<g mask="url(#mask3_177_2235)">
<path d="M20.4716 33.682H16.7074C12.9654 33.682 9.93182 30.6485 9.93182 26.9064V23.5188C9.93182 22.2715 10.943 21.2603 12.1903 21.2603H20.4716V33.682Z" fill="#FF615F"/>
</g>
</g>
</svg>
