<svg width="56" height="53" viewBox="0 0 56 53" fill="none" xmlns="http://www.w3.org/2000/svg">
<mask id="mask0_177_2304" style="mask-type:luminance" maskUnits="userSpaceOnUse" x="1" y="0" width="54" height="53">
<path d="M54.5 0H1.5V53H54.5V0Z" fill="white"/>
</mask>
<g mask="url(#mask0_177_2304)">
<path d="M31.3878 47.8205H24.6122C23.7806 47.8205 23.1065 47.1463 23.1065 46.3148V40.5744C23.1065 39.327 24.1178 38.3159 25.3651 38.3159H30.6349C31.8823 38.3159 32.8935 39.327 32.8935 40.5744V46.3148C32.8935 47.1463 32.2193 47.8205 31.3878 47.8205Z" fill="#03C65A"/>
<mask id="mask1_177_2304" style="mask-type:alpha" maskUnits="userSpaceOnUse" x="14" y="14" width="28" height="29">
<path d="M32.1406 15.5754C32.1406 15.5048 32.1445 15.4351 32.1459 15.3647C30.8419 14.9326 29.449 14.6953 28 14.6953C20.7238 14.6953 14.8253 20.5939 14.8253 27.87V39.9155C14.8253 41.1629 15.8365 42.174 17.0838 42.174H38.9162C40.1635 42.174 41.1747 41.1629 41.1747 39.9155V27.87C41.1747 27.1132 41.1074 26.3727 40.9849 25.6508C38.5542 25.3354 36.3928 24.1622 34.8152 22.4445C33.1545 20.6363 32.1406 18.2246 32.1406 15.5754Z" fill="#FF0000"/>
</mask>
<g mask="url(#mask1_177_2304)">
<path d="M41.1747 34.5728H14.8253V22.6733H41.1747V34.5728Z" fill="#FFD037"/>
<path d="M41.1747 42.174H14.8253V33.1399H41.1747V42.174Z" fill="#FF615F"/>
<path d="M41.1747 24.1057H14.8253V14.6953H41.1747V24.1057Z" fill="#0094FF"/>
</g>
</g>
</svg>
