<svg width="56" height="45" viewBox="0 0 56 45" fill="none" xmlns="http://www.w3.org/2000/svg">
<mask id="mask0_177_1351" style="mask-type:luminance" maskUnits="userSpaceOnUse" x="1" y="-8" width="54" height="53">
<path d="M54.5 -8H1.5V45H54.5V-8Z" fill="white"/>
</mask>
<g mask="url(#mask0_177_1351)">
<path d="M24.3875 11.0329C24.3875 14.0189 22.0784 16.4394 19.23 16.4394C16.3816 16.4394 14.0725 14.0189 14.0725 11.0329C14.0725 8.047 16.3816 5.62646 19.23 5.62646C22.0784 5.62646 24.3875 8.047 24.3875 11.0329Z" fill="#0094FF"/>
<path d="M31.6125 11.0329C31.6125 14.0189 33.9215 16.4394 36.7699 16.4394C39.6184 16.4394 41.9276 14.0189 41.9276 11.0329C41.9276 8.047 39.6184 5.62646 36.7699 5.62646C33.9215 5.62646 31.6125 8.047 31.6125 11.0329Z" fill="#FF615F"/>
<path d="M44.5625 23.318C44.5625 31.6336 37.1472 38.3749 28 38.3749C18.8528 38.3749 11.4375 31.6336 11.4375 23.318C11.4375 15.0025 18.8528 8.26123 28 8.26123C37.1472 8.26123 44.5625 15.0025 44.5625 23.318Z" fill="#FFD037"/>
<path d="M22.7681 24.5245C24.2758 25.7053 26.0851 26.3295 28.0001 26.3295C29.915 26.3295 31.7243 25.7053 33.232 24.5245C33.8868 24.0117 34.8331 24.1269 35.3457 24.7816C35.8585 25.4362 35.7435 26.3825 35.0888 26.8953C33.046 28.4953 30.5948 29.341 28.0001 29.341C25.4053 29.341 22.9541 28.4953 20.9113 26.8953C20.2566 26.3825 20.1416 25.4362 20.6544 24.7816C21.167 24.1269 22.1134 24.0116 22.7681 24.5245Z" fill="#FF8533"/>
</g>
</svg>
