<svg width="56" height="53" viewBox="0 0 56 53" fill="none" xmlns="http://www.w3.org/2000/svg">
<mask id="mask0_177_2835" style="mask-type:luminance" maskUnits="userSpaceOnUse" x="1" y="0" width="54" height="53">
<path d="M54.5 0H1.5V53H54.5V0Z" fill="white"/>
</mask>
<g mask="url(#mask0_177_2835)">
<path d="M31.3878 47.8204H24.6122C23.7806 47.8204 23.1066 47.1462 23.1066 46.3147V40.5743C23.1066 39.3269 24.1178 38.3158 25.3651 38.3158H30.635C31.8823 38.3158 32.8935 39.3269 32.8935 40.5743V46.3147C32.8935 47.1462 32.2193 47.8204 31.3878 47.8204Z" fill="#03C65A"/>
<mask id="mask1_177_2835" style="mask-type:alpha" maskUnits="userSpaceOnUse" x="14" y="14" width="28" height="29">
<path d="M32.1407 15.5754C32.1407 15.5048 32.1445 15.4351 32.146 15.3647C30.8419 14.9326 29.449 14.6953 28 14.6953C20.7239 14.6953 14.8253 20.5939 14.8253 27.87V39.9155C14.8253 41.1629 15.8365 42.174 17.0838 42.174H38.9162C40.1635 42.174 41.1748 41.1629 41.1748 39.9155V27.87C41.1748 27.1132 41.1074 26.3727 40.9849 25.6508C38.5543 25.3354 36.3928 24.1622 34.8152 22.4445C33.1545 20.6363 32.1407 18.2246 32.1407 15.5754Z" fill="#FF0000"/>
</mask>
<g mask="url(#mask1_177_2835)">
<path d="M41.1748 34.5727H14.8253V22.6732H41.1748V34.5727Z" fill="#FFD037"/>
<path d="M41.1748 42.174H14.8253V33.1399H41.1748V42.174Z" fill="#FF615F"/>
<path d="M41.1748 24.1057H14.8253V14.6953H41.1748V24.1057Z" fill="#0094FF"/>
</g>
</g>
</svg>
