<svg width="56" height="45" viewBox="0 0 56 45" fill="none" xmlns="http://www.w3.org/2000/svg">
<mask id="mask0_177_1301" style="mask-type:luminance" maskUnits="userSpaceOnUse" x="1" y="-8" width="54" height="53">
<path d="M54.5 -8H1.5V45H54.5V-8Z" fill="white"/>
</mask>
<g mask="url(#mask0_177_1301)">
<mask id="mask1_177_1301" style="mask-type:alpha" maskUnits="userSpaceOnUse" x="15" y="7" width="26" height="25">
<path d="M27.9999 31.5844C21.0023 31.5844 15.3296 25.9118 15.3296 18.9141V9.97031C15.3296 8.73548 16.3307 7.73438 17.5655 7.73438H38.4343C39.6691 7.73438 40.6702 8.73548 40.6702 9.97031V18.9141C40.6702 25.9118 34.9976 31.5844 27.9999 31.5844Z" fill="#FFD037"/>
</mask>
<g mask="url(#mask1_177_1301)">
<path d="M35.5283 25.682H39.2925C43.0346 25.682 46.0681 22.6485 46.0681 18.9064V15.5188C46.0681 14.2715 45.0569 13.2603 43.8096 13.2603H35.5283V25.682Z" fill="#03C65A"/>
</g>
<path d="M34.3991 38.8569H21.6008C20.3535 38.8569 19.3423 37.8457 19.3423 36.5984C19.3423 35.3511 20.3535 34.3398 21.6008 34.3398H34.3991C35.6464 34.3398 36.6576 35.3511 36.6576 36.5984C36.6576 37.8457 35.6464 38.8569 34.3991 38.8569Z" fill="#FFD037"/>
<path d="M31.3879 38.2784H24.6123V27.9131H31.3879V38.2784Z" fill="#FFD037"/>
<path d="M28 31.7047C20.9317 31.7047 15.2017 25.9748 15.2017 18.9064V9.87229C15.2017 8.62499 16.2129 7.61377 17.4602 7.61377H38.5397C39.787 7.61377 40.7983 8.62499 40.7983 9.87229V18.9064C40.7983 25.9748 35.0683 31.7047 28 31.7047Z" fill="#FFD037"/>
<mask id="mask2_177_1301" style="mask-type:alpha" maskUnits="userSpaceOnUse" x="15" y="7" width="26" height="25">
<path d="M28 31.7047C20.9317 31.7047 15.2017 25.9748 15.2017 18.9064V9.87229C15.2017 8.62499 16.2129 7.61377 17.4602 7.61377H38.5397C39.787 7.61377 40.7983 8.62499 40.7983 9.87229V18.9064C40.7983 25.9748 35.0683 31.7047 28 31.7047Z" fill="#FFD037"/>
</mask>
<g mask="url(#mask2_177_1301)">
<path d="M28.5323 13.3939L30.1584 16.6888L33.7946 17.2173C34.2814 17.2881 34.4761 17.8864 34.1238 18.2297L31.4923 20.7945L32.1135 24.4161C32.1967 24.9011 31.6878 25.2708 31.2524 25.0419L27.9998 23.332L24.7475 25.0419C24.312 25.2708 23.8031 24.9011 23.8862 24.4161L24.5074 20.7945L21.8762 18.2297C21.5238 17.8864 21.7184 17.2881 22.2053 17.2173L25.8414 16.6888L27.4676 13.3939C27.6853 12.9527 28.3145 12.9527 28.5323 13.3939Z" fill="#FF8533"/>
</g>
<mask id="mask3_177_1301" style="mask-type:alpha" maskUnits="userSpaceOnUse" x="15" y="7" width="26" height="25">
<path d="M27.9999 31.5844C21.0023 31.5844 15.3296 25.9118 15.3296 18.9141V9.97031C15.3296 8.73548 16.3307 7.73438 17.5655 7.73438H38.4343C39.6691 7.73438 40.6702 8.73548 40.6702 9.97031V18.9141C40.6702 25.9118 34.9976 31.5844 27.9999 31.5844Z" fill="#FFD037"/>
</mask>
<g mask="url(#mask3_177_1301)">
<path d="M20.4714 25.682H16.7072C12.9652 25.682 9.93164 22.6485 9.93164 18.9064V15.5188C9.93164 14.2715 10.9429 13.2603 12.1902 13.2603H20.4714V25.682Z" fill="#FF615F"/>
</g>
</g>
</svg>
