<svg width="56" height="53" viewBox="0 0 56 53" fill="none" xmlns="http://www.w3.org/2000/svg">
<mask id="mask0_177_3224" style="mask-type:luminance" maskUnits="userSpaceOnUse" x="1" y="0" width="54" height="53">
<path d="M54.5 0H1.5V53H54.5V0Z" fill="white"/>
</mask>
<g mask="url(#mask0_177_3224)">
<mask id="mask1_177_3224" style="mask-type:alpha" maskUnits="userSpaceOnUse" x="10" y="16" width="36" height="30">
<path d="M20.0459 16.8607C13.825 16.9268 9.57705 22.2506 10.3955 28.4176C11.4991 36.7335 20.5131 42.4985 25.1913 44.9612C26.9419 45.8826 29.0312 45.8826 30.7818 44.9612C35.46 42.4984 44.4744 36.7331 45.5775 28.417C46.3957 22.25 42.1476 16.9265 35.9267 16.8607H20.0459Z" fill="#00FF67"/>
</mask>
<g mask="url(#mask1_177_3224)">
<path d="M36.0267 16.8623C32.7514 16.7959 29.8307 18.3259 27.9882 20.7268C26.1458 18.3259 23.2251 16.7959 19.9498 16.8623C13.6874 16.9893 9.50811 22.4104 10.4238 28.607C12.076 39.786 27.9882 46.3018 27.9882 46.3018C27.9882 46.3018 43.9005 39.786 45.5526 28.607C46.4684 22.4104 42.2891 16.9893 36.0267 16.8623Z" fill="#FFD037"/>
</g>
<mask id="mask2_177_3224" style="mask-type:alpha" maskUnits="userSpaceOnUse" x="10" y="16" width="36" height="30">
<path d="M20.0459 16.8607C13.825 16.9268 9.57705 22.2506 10.3955 28.4176C11.4991 36.7335 20.5131 42.4985 25.1913 44.9612C26.9419 45.8826 29.0312 45.8826 30.7818 44.9612C35.46 42.4984 44.4744 36.7331 45.5775 28.417C46.3957 22.25 42.1476 16.9265 35.9267 16.8607H20.0459Z" fill="#00FF67"/>
</mask>
<g mask="url(#mask2_177_3224)">
<path d="M27.9865 20.7267C26.1441 18.3259 23.2235 16.7958 19.9482 16.8622C13.6856 16.9891 9.5064 22.4104 10.4221 28.607C12.0741 39.786 27.9865 46.3016 27.9865 46.3016V20.7267Z" fill="#FF625F"/>
</g>
<mask id="mask3_177_3224" style="mask-type:alpha" maskUnits="userSpaceOnUse" x="10" y="16" width="36" height="30">
<path d="M20.0459 16.8607C13.825 16.9268 9.57705 22.2506 10.3955 28.4176C11.4991 36.7335 20.5131 42.4985 25.1913 44.9612C26.9419 45.8826 29.0312 45.8826 30.7818 44.9612C35.46 42.4984 44.4744 36.7331 45.5775 28.417C46.3957 22.25 42.1476 16.9265 35.9267 16.8607H20.0459Z" fill="#00FF67"/>
</mask>
<g mask="url(#mask3_177_3224)">
<path d="M27.9865 20.7267C26.1441 18.3259 23.2235 16.7958 19.9482 16.8622C13.6856 16.9891 9.5064 22.4104 10.4221 28.607C12.0741 39.786 27.9865 46.3016 27.9865 46.3016V20.7267Z" fill="#FF8533"/>
</g>
<mask id="mask4_177_3224" style="mask-type:alpha" maskUnits="userSpaceOnUse" x="10" y="16" width="36" height="30">
<path d="M20.0459 16.8607C13.825 16.9268 9.57705 22.2506 10.3955 28.4176C11.4991 36.7335 20.5131 42.4985 25.1913 44.9612C26.9419 45.8826 29.0312 45.8826 30.7818 44.9612C35.46 42.4984 44.4744 36.7331 45.5775 28.417C46.3957 22.25 42.1476 16.9265 35.9267 16.8607H20.0459Z" fill="#00FF67"/>
</mask>
<g mask="url(#mask4_177_3224)">
<path d="M27.9865 20.7267C26.1441 18.3259 23.2235 16.7958 19.9482 16.8622C13.6856 16.9891 9.5064 22.4104 10.4221 28.607C12.0741 39.786 27.9865 46.3016 27.9865 46.3016V20.7267Z" fill="#FFAA3B"/>
</g>
<mask id="mask5_177_3224" style="mask-type:alpha" maskUnits="userSpaceOnUse" x="10" y="16" width="36" height="30">
<path d="M20.0459 16.8607C13.825 16.9268 9.57705 22.2506 10.3955 28.4176C11.4991 36.7335 20.5131 42.4985 25.1913 44.9612C26.9419 45.8826 29.0312 45.8826 30.7818 44.9612C35.46 42.4984 44.4744 36.7331 45.5775 28.417C46.3957 22.25 42.1476 16.9265 35.9267 16.8607H20.0459Z" fill="#00FF67"/>
</mask>
<g mask="url(#mask5_177_3224)">
<path d="M27.9865 20.7267C26.1441 18.3259 23.2235 16.7958 19.9482 16.8622C13.6856 16.9891 9.5064 22.4104 10.4221 28.607C12.0741 39.786 27.9865 46.3016 27.9865 46.3016V20.7267Z" fill="#FFD037"/>
</g>
<mask id="mask6_177_3224" style="mask-type:alpha" maskUnits="userSpaceOnUse" x="10" y="16" width="36" height="30">
<path d="M20.0459 16.8607C13.825 16.9268 9.57705 22.2506 10.3955 28.4176C11.4991 36.7335 20.5131 42.4985 25.1913 44.9612C26.9419 45.8826 29.0312 45.8826 30.7818 44.9612C35.46 42.4984 44.4744 36.7331 45.5775 28.417C46.3957 22.25 42.1476 16.9265 35.9267 16.8607H20.0459Z" fill="#00FF67"/>
</mask>
<g mask="url(#mask6_177_3224)">
<path d="M27.9865 20.7267C26.1441 18.3259 23.2235 16.7958 19.9482 16.8622C13.6856 16.9891 9.5064 22.4104 10.4221 28.607C12.0741 39.786 27.9865 46.3016 27.9865 46.3016V20.7267Z" fill="#FFAA3B"/>
</g>
<mask id="mask7_177_3224" style="mask-type:alpha" maskUnits="userSpaceOnUse" x="10" y="16" width="36" height="30">
<path d="M20.0459 16.8607C13.825 16.9268 9.57705 22.2506 10.3955 28.4176C11.4991 36.7335 20.5131 42.4985 25.1913 44.9612C26.9419 45.8826 29.0312 45.8826 30.7818 44.9612C35.46 42.4984 44.4744 36.7331 45.5775 28.417C46.3957 22.25 42.1476 16.9265 35.9267 16.8607H20.0459Z" fill="#00FF67"/>
</mask>
<g mask="url(#mask7_177_3224)">
<path d="M27.9865 20.7267C26.1441 18.3259 23.2235 16.7958 19.9482 16.8622C13.6856 16.9891 9.5064 22.4104 10.4221 28.607C12.0741 39.786 27.9865 46.3016 27.9865 46.3016V20.7267Z" fill="#FF615F"/>
</g>
</g>
</svg>
