<svg width="56" height="53" viewBox="0 0 56 53" fill="none" xmlns="http://www.w3.org/2000/svg">
<mask id="mask0_177_2481" style="mask-type:luminance" maskUnits="userSpaceOnUse" x="1" y="0" width="54" height="53">
<path d="M54.5 0H1.5V53H54.5V0Z" fill="white"/>
</mask>
<g mask="url(#mask0_177_2481)">
<path d="M31.3877 47.8205H24.6121C23.7805 47.8205 23.1064 47.1463 23.1064 46.3148V40.5744C23.1064 39.327 24.1177 38.3159 25.365 38.3159H30.6349C31.8822 38.3159 32.8934 39.327 32.8934 40.5744V46.3148C32.8934 47.1463 32.2192 47.8205 31.3877 47.8205Z" fill="#03C65A"/>
<mask id="mask1_177_2481" style="mask-type:alpha" maskUnits="userSpaceOnUse" x="14" y="14" width="28" height="29">
<path d="M32.1405 15.5754C32.1405 15.5048 32.1444 15.4351 32.1458 15.3647C30.8418 14.9326 29.4489 14.6953 27.9999 14.6953C20.7237 14.6953 14.8252 20.5939 14.8252 27.87V39.9155C14.8252 41.1629 15.8364 42.174 17.0837 42.174H38.9161C40.1634 42.174 41.1746 41.1629 41.1746 39.9155V27.87C41.1746 27.1132 41.1073 26.3727 40.9848 25.6508C38.5541 25.3354 36.3927 24.1622 34.8151 22.4445C33.1544 20.6363 32.1405 18.2246 32.1405 15.5754Z" fill="#FF0000"/>
</mask>
<g mask="url(#mask1_177_2481)">
<path d="M41.1746 34.5728H14.8252V22.6733H41.1746V34.5728Z" fill="#FFD037"/>
<path d="M41.1746 42.174H14.8252V33.1399H41.1746V42.174Z" fill="#FF615F"/>
<path d="M41.1746 24.1057H14.8252V14.6953H41.1746V24.1057Z" fill="#0094FF"/>
</g>
</g>
</svg>
