<svg width="56" height="53" viewBox="0 0 56 53" fill="none" xmlns="http://www.w3.org/2000/svg">
<mask id="mask0_177_2589" style="mask-type:luminance" maskUnits="userSpaceOnUse" x="1" y="0" width="54" height="53">
<path d="M54.5 0H1.5V53H54.5V0Z" fill="white"/>
</mask>
<g mask="url(#mask0_177_2589)">
<mask id="mask1_177_2589" style="mask-type:alpha" maskUnits="userSpaceOnUse" x="15" y="15" width="26" height="25">
<path d="M28 39.5844C21.0024 39.5844 15.3297 33.9118 15.3297 26.9141V17.9703C15.3297 16.7355 16.3308 15.7344 17.5656 15.7344H38.4344C39.6692 15.7344 40.6703 16.7355 40.6703 17.9703V26.9141C40.6703 33.9118 34.9977 39.5844 28 39.5844Z" fill="#FFD037"/>
</mask>
<g mask="url(#mask1_177_2589)">
<path d="M35.5284 33.682H39.2926C43.0347 33.682 46.0682 30.6485 46.0682 26.9064V23.5188C46.0682 22.2715 45.057 21.2603 43.8097 21.2603H35.5284V33.682Z" fill="#03C65A"/>
</g>
<path d="M34.3991 46.8568H21.6009C20.3535 46.8568 19.3423 45.8456 19.3423 44.5982C19.3423 43.3509 20.3535 42.3397 21.6009 42.3397H34.3991C35.6465 42.3397 36.6577 43.3509 36.6577 44.5982C36.6577 45.8456 35.6465 46.8568 34.3991 46.8568Z" fill="#FFD037"/>
<path d="M31.3878 46.2784H24.6122V35.9131H31.3878V46.2784Z" fill="#FFD037"/>
<path d="M28 39.7048C20.9317 39.7048 15.2017 33.9749 15.2017 26.9065V17.8724C15.2017 16.6251 16.2129 15.6139 17.4602 15.6139H38.5398C39.7871 15.6139 40.7983 16.6251 40.7983 17.8724V26.9065C40.7983 33.9749 35.0684 39.7048 28 39.7048Z" fill="#FFD037"/>
<mask id="mask2_177_2589" style="mask-type:alpha" maskUnits="userSpaceOnUse" x="15" y="15" width="26" height="25">
<path d="M28 39.7048C20.9317 39.7048 15.2017 33.9749 15.2017 26.9065V17.8724C15.2017 16.6251 16.2129 15.6139 17.4602 15.6139H38.5398C39.7871 15.6139 40.7983 16.6251 40.7983 17.8724V26.9065C40.7983 33.9749 35.0684 39.7048 28 39.7048Z" fill="#FFD037"/>
</mask>
<g mask="url(#mask2_177_2589)">
<path d="M28.5323 21.3943L30.1584 24.6892L33.7946 25.2176C34.2815 25.2884 34.4761 25.8867 34.1238 26.23L31.4923 28.7949L32.1135 32.4165C32.1968 32.9014 31.6878 33.2712 31.2524 33.0422L27.9999 31.3324L24.7475 33.0422C24.312 33.2712 23.8031 32.9014 23.8862 32.4165L24.5074 28.7949L21.8762 26.23C21.5239 25.8867 21.7184 25.2884 22.2053 25.2176L25.8414 24.6892L27.4676 21.3943C27.6854 20.953 28.3145 20.953 28.5323 21.3943Z" fill="#FF8533"/>
</g>
<mask id="mask3_177_2589" style="mask-type:alpha" maskUnits="userSpaceOnUse" x="15" y="15" width="26" height="25">
<path d="M28 39.5844C21.0024 39.5844 15.3297 33.9118 15.3297 26.9141V17.9703C15.3297 16.7355 16.3308 15.7344 17.5656 15.7344H38.4344C39.6692 15.7344 40.6703 16.7355 40.6703 17.9703V26.9141C40.6703 33.9118 34.9977 39.5844 28 39.5844Z" fill="#FFD037"/>
</mask>
<g mask="url(#mask3_177_2589)">
<path d="M20.4716 33.682H16.7074C12.9654 33.682 9.93182 30.6485 9.93182 26.9064V23.5188C9.93182 22.2715 10.943 21.2603 12.1903 21.2603H20.4716V33.682Z" fill="#FF615F"/>
</g>
</g>
</svg>
