<svg width="56" height="46" viewBox="0 0 56 46" fill="none" xmlns="http://www.w3.org/2000/svg">
<mask id="mask0_177_1405" style="mask-type:luminance" maskUnits="userSpaceOnUse" x="1" y="-7" width="54" height="53">
<path d="M54.5 -7H1.5V46H54.5V-7Z" fill="white"/>
</mask>
<g mask="url(#mask0_177_1405)">
<mask id="mask1_177_1405" style="mask-type:alpha" maskUnits="userSpaceOnUse" x="10" y="9" width="36" height="30">
<path d="M20.0459 9.86084C13.825 9.92685 9.57705 15.2507 10.3955 21.4177C11.4991 29.7336 20.5131 35.4986 25.1913 37.9613C26.9419 38.8827 29.0312 38.8827 30.7818 37.9613C35.46 35.4985 44.4744 29.7332 45.5775 21.4171C46.3957 15.2501 42.1476 9.92661 35.9267 9.86084H20.0459Z" fill="#00FF67"/>
</mask>
<g mask="url(#mask1_177_1405)">
<path d="M36.0267 9.86243C32.7514 9.79606 29.8307 11.3261 27.9882 13.727C26.1458 11.3261 23.2251 9.79606 19.9498 9.86243C13.6874 9.98939 9.50811 15.4106 10.4238 21.6071C12.076 32.7861 27.9882 39.3019 27.9882 39.3019C27.9882 39.3019 43.9005 32.7861 45.5526 21.6071C46.4684 15.4106 42.2891 9.98939 36.0267 9.86243Z" fill="#FFD037"/>
</g>
<mask id="mask2_177_1405" style="mask-type:alpha" maskUnits="userSpaceOnUse" x="10" y="9" width="36" height="30">
<path d="M20.0459 9.86084C13.825 9.92685 9.57705 15.2507 10.3955 21.4177C11.4991 29.7336 20.5131 35.4986 25.1913 37.9613C26.9419 38.8827 29.0312 38.8827 30.7818 37.9613C35.46 35.4985 44.4744 29.7332 45.5775 21.4171C46.3957 15.2501 42.1476 9.92661 35.9267 9.86084H20.0459Z" fill="#00FF67"/>
</mask>
<g mask="url(#mask2_177_1405)">
<path d="M27.9865 13.727C26.1441 11.3262 23.2235 9.79606 19.9482 9.86243C13.6856 9.98939 9.5064 15.4107 10.4221 21.6072C12.0741 32.7863 27.9865 39.3019 27.9865 39.3019V13.727Z" fill="#FF625F"/>
</g>
<mask id="mask3_177_1405" style="mask-type:alpha" maskUnits="userSpaceOnUse" x="10" y="9" width="36" height="30">
<path d="M20.0459 9.86084C13.825 9.92685 9.57705 15.2507 10.3955 21.4177C11.4991 29.7336 20.5131 35.4986 25.1913 37.9613C26.9419 38.8827 29.0312 38.8827 30.7818 37.9613C35.46 35.4985 44.4744 29.7332 45.5775 21.4171C46.3957 15.2501 42.1476 9.92661 35.9267 9.86084H20.0459Z" fill="#00FF67"/>
</mask>
<g mask="url(#mask3_177_1405)">
<path d="M27.9865 13.727C26.1441 11.3262 23.2235 9.79606 19.9482 9.86243C13.6856 9.98939 9.5064 15.4107 10.4221 21.6072C12.0741 32.7863 27.9865 39.3019 27.9865 39.3019V13.727Z" fill="#FF8533"/>
</g>
<mask id="mask4_177_1405" style="mask-type:alpha" maskUnits="userSpaceOnUse" x="10" y="9" width="36" height="30">
<path d="M20.0459 9.86084C13.825 9.92685 9.57705 15.2507 10.3955 21.4177C11.4991 29.7336 20.5131 35.4986 25.1913 37.9613C26.9419 38.8827 29.0312 38.8827 30.7818 37.9613C35.46 35.4985 44.4744 29.7332 45.5775 21.4171C46.3957 15.2501 42.1476 9.92661 35.9267 9.86084H20.0459Z" fill="#00FF67"/>
</mask>
<g mask="url(#mask4_177_1405)">
<path d="M27.9865 13.727C26.1441 11.3262 23.2235 9.79606 19.9482 9.86243C13.6856 9.98939 9.5064 15.4107 10.4221 21.6072C12.0741 32.7863 27.9865 39.3019 27.9865 39.3019V13.727Z" fill="#FFAA3B"/>
</g>
<mask id="mask5_177_1405" style="mask-type:alpha" maskUnits="userSpaceOnUse" x="10" y="9" width="36" height="30">
<path d="M20.0459 9.86084C13.825 9.92685 9.57705 15.2507 10.3955 21.4177C11.4991 29.7336 20.5131 35.4986 25.1913 37.9613C26.9419 38.8827 29.0312 38.8827 30.7818 37.9613C35.46 35.4985 44.4744 29.7332 45.5775 21.4171C46.3957 15.2501 42.1476 9.92661 35.9267 9.86084H20.0459Z" fill="#00FF67"/>
</mask>
<g mask="url(#mask5_177_1405)">
<path d="M27.9865 13.727C26.1441 11.3262 23.2235 9.79606 19.9482 9.86243C13.6856 9.98939 9.5064 15.4107 10.4221 21.6072C12.0741 32.7863 27.9865 39.3019 27.9865 39.3019V13.727Z" fill="#FFD037"/>
</g>
<mask id="mask6_177_1405" style="mask-type:alpha" maskUnits="userSpaceOnUse" x="10" y="9" width="36" height="30">
<path d="M20.0459 9.86084C13.825 9.92685 9.57705 15.2507 10.3955 21.4177C11.4991 29.7336 20.5131 35.4986 25.1913 37.9613C26.9419 38.8827 29.0312 38.8827 30.7818 37.9613C35.46 35.4985 44.4744 29.7332 45.5775 21.4171C46.3957 15.2501 42.1476 9.92661 35.9267 9.86084H20.0459Z" fill="#00FF67"/>
</mask>
<g mask="url(#mask6_177_1405)">
<path d="M27.9865 13.727C26.1441 11.3262 23.2235 9.79606 19.9482 9.86243C13.6856 9.98939 9.5064 15.4107 10.4221 21.6072C12.0741 32.7863 27.9865 39.3019 27.9865 39.3019V13.727Z" fill="#FFAA3B"/>
</g>
<mask id="mask7_177_1405" style="mask-type:alpha" maskUnits="userSpaceOnUse" x="10" y="9" width="36" height="30">
<path d="M20.0459 9.86084C13.825 9.92685 9.57705 15.2507 10.3955 21.4177C11.4991 29.7336 20.5131 35.4986 25.1913 37.9613C26.9419 38.8827 29.0312 38.8827 30.7818 37.9613C35.46 35.4985 44.4744 29.7332 45.5775 21.4171C46.3957 15.2501 42.1476 9.92661 35.9267 9.86084H20.0459Z" fill="#00FF67"/>
</mask>
<g mask="url(#mask7_177_1405)">
<path d="M27.9865 13.727C26.1441 11.3262 23.2235 9.79606 19.9482 9.86243C13.6856 9.98939 9.5064 15.4107 10.4221 21.6072C12.0741 32.7863 27.9865 39.3019 27.9865 39.3019V13.727Z" fill="#FF615F"/>
</g>
</g>
</svg>
