<svg width="32" height="10" viewBox="0 0 32 10" fill="none" xmlns="http://www.w3.org/2000/svg">
<path d="M6.25836 3.23999C6.10636 2.95999 5.88639 2.748 5.59839 2.604C5.31839 2.452 4.98636 2.37598 4.60236 2.37598C3.93836 2.37598 3.40635 2.59601 3.00635 3.03601C2.60635 3.46801 2.40637 4.048 2.40637 4.776C2.40637 5.552 2.6144 6.15998 3.0304 6.59998C3.4544 7.03198 4.03439 7.24799 4.77039 7.24799C5.27439 7.24799 5.69836 7.12001 6.04236 6.86401C6.39436 6.60801 6.65036 6.24001 6.81036 5.76001H4.20636V4.24799H8.67035V6.15601C8.51835 6.66801 8.25838 7.14398 7.89038 7.58398C7.53038 8.02398 7.07038 8.37998 6.51038 8.65198C5.95038 8.92398 5.31838 9.06 4.61438 9.06C3.78238 9.06 3.03839 8.88002 2.38239 8.52002C1.73439 8.15202 1.22634 7.64397 0.858337 6.99597C0.498337 6.34797 0.318359 5.608 0.318359 4.776C0.318359 3.944 0.498337 3.20403 0.858337 2.55603C1.22634 1.90003 1.73439 1.39198 2.38239 1.03198C3.03039 0.663982 3.77036 0.47998 4.60236 0.47998C5.61036 0.47998 6.45836 0.723975 7.14636 1.21198C7.84236 1.69998 8.30237 2.37599 8.52637 3.23999H6.25836ZM15.0873 0.575989V6.31201C15.0873 7.20001 14.8354 7.88401 14.3314 8.36401C13.8354 8.84401 13.1634 9.08398 12.3154 9.08398C11.4274 9.08398 10.7154 8.832 10.1794 8.328C9.64338 7.824 9.37537 7.10799 9.37537 6.17999H11.4153C11.4153 6.53199 11.4873 6.80001 11.6313 6.98401C11.7753 7.16001 11.9834 7.24799 12.2554 7.24799C12.5034 7.24799 12.6954 7.168 12.8314 7.008C12.9674 6.848 13.0353 6.61601 13.0353 6.31201V0.575989H15.0873ZM22.3364 3.23999C22.1844 2.95999 21.9644 2.748 21.6764 2.604C21.3964 2.452 21.0644 2.37598 20.6804 2.37598C20.0164 2.37598 19.4844 2.59601 19.0844 3.03601C18.6844 3.46801 18.4844 4.048 18.4844 4.776C18.4844 5.552 18.6923 6.15998 19.1083 6.59998C19.5323 7.03198 20.1124 7.24799 20.8484 7.24799C21.3524 7.24799 21.7764 7.12001 22.1204 6.86401C22.4724 6.60801 22.7284 6.24001 22.8884 5.76001H20.2844V4.24799H24.7484V6.15601C24.5964 6.66801 24.3364 7.14398 23.9684 7.58398C23.6084 8.02398 23.1484 8.37998 22.5884 8.65198C22.0284 8.92398 21.3964 9.06 20.6924 9.06C19.8604 9.06 19.1164 8.88002 18.4604 8.52002C17.8124 8.15202 17.3043 7.64397 16.9363 6.99597C16.5763 6.34797 16.3964 5.608 16.3964 4.776C16.3964 3.944 16.5763 3.20403 16.9363 2.55603C17.3043 1.90003 17.8124 1.39198 18.4604 1.03198C19.1084 0.663982 19.8484 0.47998 20.6804 0.47998C21.6884 0.47998 22.5364 0.723975 23.2244 1.21198C23.9204 1.69998 24.3804 2.37599 24.6044 3.23999H22.3364ZM31.1653 0.575989V6.31201C31.1653 7.20001 30.9134 7.88401 30.4094 8.36401C29.9134 8.84401 29.2414 9.08398 28.3934 9.08398C27.5054 9.08398 26.7934 8.832 26.2574 8.328C25.7214 7.824 25.4534 7.10799 25.4534 6.17999H27.4933C27.4933 6.53199 27.5654 6.80001 27.7094 6.98401C27.8534 7.16001 28.0614 7.24799 28.3334 7.24799C28.5814 7.24799 28.7734 7.168 28.9094 7.008C29.0454 6.848 29.1133 6.61601 29.1133 6.31201V0.575989H31.1653Z" fill="white"/>
</svg>
