<svg width="33" height="13" viewBox="0 0 33 13" fill="none" xmlns="http://www.w3.org/2000/svg">
<path d="M8.53192 0.956085H10.056V12.0681H8.53192V0.956085ZM4.12793 5.21609H6.50397V6.47609H4.12793V5.21609ZM6.19196 1.19609H7.67993V11.5761H6.19196V1.19609ZM3.76794 2.2641H5.30396C5.30396 5.4321 4.35596 7.9521 1.23596 9.7641L0.335938 8.64809C2.86794 7.12409 3.76794 5.27609 3.76794 2.58809V2.2641ZM0.959961 2.2641H4.27191V3.53609H0.959961V2.2641ZM14.231 1.80809H15.5269V3.42809C15.5269 6.28409 14.543 8.86409 12.335 9.88409L11.387 8.56409C13.319 7.72409 14.231 5.58809 14.231 3.42809V1.80809ZM14.543 1.80809H15.8389V3.42809C15.8389 5.48009 16.715 7.52009 18.611 8.33609L17.6749 9.62009C15.5269 8.63609 14.543 6.16409 14.543 3.42809V1.80809ZM19.1389 0.944092H20.7469V12.0921H19.1389V0.944092ZM22.7859 1.85609H28.7139V3.14009H22.7859V1.85609ZM22.666 7.66409L22.4979 6.3801C24.3819 6.3681 26.962 6.34408 29.098 6.06808L29.2059 7.23209C27.0219 7.61609 24.502 7.66409 22.666 7.66409ZM23.6619 2.84009H25.1979V6.62009H23.6619V2.84009ZM26.314 2.84009H27.838V6.62009H26.314V2.84009ZM29.71 0.968094H31.306V9.15208H29.71V0.968094ZM30.8499 4.08809H32.7819V5.4081H30.8499V4.08809ZM24.142 10.6041H31.702V11.8761H24.142V10.6041ZM24.142 8.38409H25.7379V10.9401H24.142V8.38409Z" fill="black"/>
</svg>
