<svg width="32" height="13" viewBox="0 0 32 13" fill="none" xmlns="http://www.w3.org/2000/svg">
<path d="M7.77319 3.2731C7.70519 2.6971 7.42818 2.2501 6.94318 1.9321C6.45818 1.6141 5.86418 1.45508 5.15918 1.45508C4.64418 1.45508 4.19319 1.53808 3.80719 1.70508C3.42419 1.87108 3.12518 2.10009 2.90918 2.39209C2.69718 2.68409 2.59119 3.01508 2.59119 3.38608C2.59119 3.69708 2.66519 3.96408 2.81219 4.18808C2.96419 4.40708 3.15721 4.59111 3.39221 4.73911C3.62721 4.88311 3.87316 5.00208 4.13116 5.09708C4.38816 5.18708 4.62519 5.26108 4.84119 5.31808L6.02319 5.63608C6.32619 5.71608 6.66318 5.82609 7.03418 5.96609C7.40918 6.10609 7.76715 6.2971 8.10815 6.5401C8.45315 6.7781 8.73721 7.08508 8.96021 7.46008C9.18421 7.83508 9.29517 8.29509 9.29517 8.84109C9.29517 9.47009 9.13121 10.0381 8.80121 10.5451C8.47521 11.0531 7.9982 11.4561 7.3692 11.7561C6.7442 12.0551 5.98519 12.2051 5.09119 12.2051C4.25819 12.2051 3.53621 12.0701 2.92621 11.8011C2.32021 11.5321 1.8432 11.1571 1.4942 10.6761C1.1502 10.1951 0.95518 9.63609 0.90918 9.00009H2.3642C2.4022 9.43909 2.54919 9.80309 2.80719 10.0911C3.06819 10.3751 3.39817 10.5871 3.79517 10.7271C4.19717 10.8641 4.62919 10.9321 5.09119 10.9321C5.62919 10.9321 6.11216 10.8451 6.54016 10.6701C6.96816 10.4921 7.30719 10.2461 7.55719 9.9321C7.80719 9.6141 7.93219 9.24208 7.93219 8.81808C7.93219 8.43208 7.82415 8.11709 7.60815 7.87509C7.39215 7.63309 7.10816 7.43609 6.75616 7.28409C6.40316 7.13309 6.0232 7.00008 5.6142 6.88608L4.18219 6.47708C3.27319 6.21608 2.55319 5.84309 2.02319 5.35809C1.49219 4.87309 1.22717 4.23908 1.22717 3.45508C1.22717 2.80308 1.40316 2.23509 1.75616 1.75009C2.11216 1.26109 2.58917 0.883105 3.18817 0.614105C3.79017 0.341105 4.4622 0.205078 5.2052 0.205078C5.9552 0.205078 6.6212 0.339093 7.2052 0.608093C7.7882 0.873093 8.25019 1.2371 8.59119 1.6991C8.93619 2.1611 9.11717 2.6861 9.13617 3.2731H7.77319ZM11.6122 12.0001V0.364105H13.0212V5.5451H19.2262V0.364105H20.6352V12.0001H19.2262V6.7951H13.0212V12.0001H11.6122ZM29.8202 3.2731C29.7512 2.6971 29.4752 2.2501 28.9902 1.9321C28.5052 1.6141 27.9112 1.45508 27.2062 1.45508C26.6912 1.45508 26.2402 1.53808 25.8542 1.70508C25.4712 1.87108 25.1722 2.10009 24.9562 2.39209C24.7442 2.68409 24.6382 3.01508 24.6382 3.38608C24.6382 3.69708 24.7122 3.96408 24.8592 4.18808C25.0112 4.40708 25.2042 4.59111 25.4392 4.73911C25.6742 4.88311 25.9202 5.00208 26.1782 5.09708C26.4352 5.18708 26.6722 5.26108 26.8882 5.31808L28.0702 5.63608C28.3732 5.71608 28.7102 5.82609 29.0812 5.96609C29.4562 6.10609 29.8142 6.2971 30.1552 6.5401C30.5002 6.7781 30.7842 7.08508 31.0072 7.46008C31.2312 7.83508 31.3422 8.29509 31.3422 8.84109C31.3422 9.47009 31.1782 10.0381 30.8482 10.5451C30.5222 11.0531 30.0452 11.4561 29.4162 11.7561C28.7912 12.0551 28.0322 12.2051 27.1382 12.2051C26.3042 12.2051 25.5832 12.0701 24.9732 11.8011C24.3672 11.5321 23.8902 11.1571 23.5412 10.6761C23.1962 10.1951 23.0012 9.63609 22.9562 9.00009H24.4112C24.4482 9.43909 24.5962 9.80309 24.8542 10.0911C25.1152 10.3751 25.4452 10.5871 25.8422 10.7271C26.2442 10.8641 26.6762 10.9321 27.1382 10.9321C27.6762 10.9321 28.1592 10.8451 28.5872 10.6701C29.0152 10.4921 29.3542 10.2461 29.6042 9.9321C29.8542 9.6141 29.9792 9.24208 29.9792 8.81808C29.9792 8.43208 29.8712 8.11709 29.6552 7.87509C29.4392 7.63309 29.1552 7.43609 28.8032 7.28409C28.4502 7.13309 28.0702 7.00008 27.6612 6.88608L26.2292 6.47708C25.3202 6.21608 24.6002 5.84309 24.0702 5.35809C23.5392 4.87309 23.2742 4.23908 23.2742 3.45508C23.2742 2.80308 23.4502 2.23509 23.8032 1.75009C24.1592 1.26109 24.6362 0.883105 25.2342 0.614105C25.8372 0.341105 26.5092 0.205078 27.2512 0.205078C28.0012 0.205078 28.6682 0.339093 29.2512 0.608093C29.8352 0.873093 30.2972 1.2371 30.6382 1.6991C30.9822 2.1611 31.1642 2.6861 31.1832 3.2731H29.8202Z" fill="black"/>
</svg>
