<svg width="181" height="16" viewBox="0 0 181 16" fill="none" xmlns="http://www.w3.org/2000/svg">
<path d="M11.7924 0.783569H13.0724V15.2476H11.7924V0.783569ZM6.52844 5.96759H9.29645V7.07159H6.52844V5.96759ZM8.89642 1.11957H10.1444V14.5116H8.89642V1.11957ZM3.74445 3.02356H4.76843V4.86359C4.76843 8.03159 3.55244 11.0236 1.42444 12.3676L0.608398 11.3755C2.6244 10.1595 3.74445 7.51959 3.74445 4.86359V3.02356ZM4.01642 3.02356H5.04041V4.86359C5.04041 7.37559 6.12843 9.88755 8.11243 11.0396L7.29645 12.0156C5.18445 10.7356 4.01642 7.88759 4.01642 4.86359V3.02356ZM1.00842 2.46356H7.61646V3.56757H1.00842V2.46356ZM30.5314 0.799561H31.8754V11.4875H30.5314V0.799561ZM22.5794 13.8396H32.3074V14.9276H22.5794V13.8396ZM22.5794 10.4796H23.8914V14.4156H22.5794V10.4796ZM23.9395 3.55157H25.0274V4.15955C25.0274 6.75155 23.3794 8.8956 20.9634 9.7276L20.3074 8.68756C22.4514 7.98356 23.9395 6.15955 23.9395 4.15955V3.55157ZM24.1635 3.55157H25.2514V4.15955C25.2514 6.04755 26.7554 7.75958 28.9154 8.43158L28.2755 9.47156C25.8275 8.68756 24.1635 6.63955 24.1635 4.15955V3.55157ZM20.6434 2.71954H28.5154V3.79156H20.6434V2.71954ZM23.9395 0.847595H25.2514V3.23157H23.9395V0.847595ZM36.3704 1.7276H45.4104V2.79956H36.3704V1.7276ZM34.7384 7.93555H47.8104V9.02356H34.7384V7.93555ZM40.5784 8.65558H41.9064V15.2635H40.5784V8.65558ZM44.7864 1.7276H46.0824V2.97559C46.0824 4.47959 46.0825 6.1756 45.5385 8.6236L44.2264 8.44757C44.7864 6.11157 44.7864 4.43159 44.7864 2.97559V1.7276ZM49.4564 6.81555H62.5284V7.90356H49.4564V6.81555ZM51.1844 4.57556H60.9764V5.64758H51.1844V4.57556ZM51.1844 1.24756H60.8164V2.33557H52.4964V5.43958H51.1844V1.24756ZM51.0244 9.15155H60.8484V12.5596H52.3684V14.3835H51.0565V11.5676H59.5364V10.1916H51.0244V9.15155ZM51.0565 14.0316H61.2805V15.0876H51.0565V14.0316ZM74.0634 0.799561H75.3914V11.6476H74.0634V0.799561ZM74.9754 5.53558H77.5354V6.65558H74.9754V5.53558ZM64.2074 2.54358H72.7514V3.6156H64.2074V2.54358ZM68.4794 4.41559C70.5274 4.41559 71.9354 5.48757 71.9354 7.11957C71.9354 8.73557 70.5274 9.80756 68.4794 9.80756C66.4154 9.80756 65.0074 8.73557 65.0074 7.11957C65.0074 5.48757 66.4154 4.41559 68.4794 4.41559ZM68.4794 5.45557C67.1674 5.45557 66.2714 6.11157 66.2714 7.11957C66.2714 8.11157 67.1674 8.76758 68.4794 8.76758C69.7754 8.76758 70.6714 8.11157 70.6714 7.11957C70.6714 6.11157 69.7754 5.45557 68.4794 5.45557ZM67.8074 0.783569H69.1354V3.10358H67.8074V0.783569ZM66.3834 13.8396H76.0474V14.9276H66.3834V13.8396ZM66.3834 10.7836H67.7114V14.3036H66.3834V10.7836ZM84.8944 6.25555H87.6144V7.35956H84.8944V6.25555ZM79.4224 10.6876H80.3504C82.5744 10.6876 83.9024 10.6396 85.5024 10.3196L85.6304 11.4076C83.9824 11.7276 82.6064 11.7756 80.3504 11.7756H79.4224V10.6876ZM79.4224 2.52759H84.7824V3.59955H80.6864V11.0556H79.4224V2.52759ZM80.3024 6.43158H84.1264V7.48755H80.3024V6.43158ZM89.8864 0.783569H91.1664V15.2476H89.8864V0.783569ZM86.9744 1.11957H88.2384V14.5116H86.9744V1.11957ZM108.001 0.783569H109.329V8.14355H108.001V0.783569ZM108.753 3.88757H111.457V4.99158H108.753V3.88757ZM100.145 8.83154H109.329V12.3835H101.489V14.5436H100.177V11.3755H108.033V9.88757H100.145V8.83154ZM100.177 13.9836H109.857V15.0556H100.177V13.9836ZM102.097 1.29559C104.273 1.29559 105.841 2.6236 105.841 4.5116C105.841 6.4156 104.273 7.74359 102.097 7.74359C99.9534 7.74359 98.3684 6.4156 98.3684 4.5116C98.3684 2.6236 99.9534 1.29559 102.097 1.29559ZM102.097 2.38354C100.705 2.38354 99.6644 3.2636 99.6644 4.5116C99.6644 5.7756 100.705 6.65558 102.097 6.65558C103.521 6.65558 104.561 5.7756 104.561 4.5116C104.561 3.2636 103.521 2.38354 102.097 2.38354ZM123.391 0.767578H124.719V15.2635H123.391V0.767578ZM120.543 4.07959H123.743V5.1676H120.543V4.07959ZM113.359 10.7836H114.431C116.671 10.7836 118.511 10.7196 120.719 10.3676L120.847 11.4716C118.575 11.8236 116.719 11.9036 114.431 11.9036H113.359V10.7836ZM113.327 2.07959H119.647V7.26355H114.671V11.0396H113.359V6.1756H118.335V3.18359H113.327V2.07959ZM120.447 8.03156H123.647V9.11957H120.447V8.03156ZM133.406 7.58356H134.734V9.80756H133.406V7.58356ZM127.534 6.81555H140.606V7.88757H127.534V6.81555ZM129.118 9.31158H138.942V12.6396H130.462V14.3356H129.15V11.6796H137.63V10.3196H129.118V9.31158ZM129.15 14.0636H139.374V15.0876H129.15V14.0636ZM133.31 1.67957H134.478V2.12756C134.478 4.35156 131.758 5.80757 128.67 6.11157L128.238 5.08759C130.91 4.86359 133.31 3.67956 133.31 2.12756V1.67957ZM133.694 1.67957H134.846V2.12756C134.846 3.67956 137.246 4.86359 139.918 5.08759L139.486 6.11157C136.414 5.80757 133.694 4.35156 133.694 2.12756V1.67957ZM128.734 1.26355H139.438V2.33557H128.734V1.26355ZM153.277 0.783569H154.557V15.2476H153.277V0.783569ZM147.005 6.68756H150.653V7.75958H147.005V6.68756ZM150.269 1.15155H151.517V14.5116H150.269V1.15155ZM147.181 2.60754H148.461C148.461 6.39954 146.941 9.80756 143.037 12.1276L142.253 11.1836C145.661 9.13559 147.181 6.2556 147.181 2.8476V2.60754ZM142.893 2.60754H147.677V3.69556H142.893V2.60754ZM160.188 8.22357H161.5V12.5596H160.188V8.22357ZM165.532 8.22357H166.86V12.5596H165.532V8.22357ZM156.988 12.3036H170.092V13.4076H156.988V12.3036ZM163.516 1.69556C166.572 1.69556 168.764 3.15158 168.764 5.42358C168.764 7.67958 166.572 9.13556 163.516 9.13556C160.444 9.13556 158.252 7.67958 158.252 5.42358C158.252 3.15158 160.444 1.69556 163.516 1.69556ZM163.516 2.75159C161.196 2.75159 159.532 3.80758 159.532 5.42358C159.532 7.02358 161.196 8.07959 163.516 8.07959C165.836 8.07959 167.484 7.02358 167.484 5.42358C167.484 3.80758 165.836 2.75159 163.516 2.75159ZM172.224 10.5446C172.213 9.91656 172.315 9.41059 172.531 9.02759C172.747 8.64559 173.027 8.36657 173.372 8.19257C173.721 8.01857 174.088 7.93158 174.474 7.93158C174.861 7.93158 175.213 8.01656 175.531 8.18756C175.853 8.35356 176.221 8.61656 176.634 8.97656C176.914 9.21956 177.137 9.38959 177.304 9.48859C177.474 9.58659 177.66 9.63556 177.861 9.63556C178.187 9.63556 178.444 9.51857 178.634 9.28357C178.823 9.04457 178.914 8.70057 178.906 8.24957H180.134C180.145 8.87857 180.043 9.3836 179.827 9.7666C179.615 10.1496 179.334 10.4276 178.986 10.6016C178.637 10.7766 178.27 10.8636 177.884 10.8636C177.497 10.8636 177.145 10.7796 176.827 10.6136C176.509 10.4426 176.141 10.1776 175.724 9.81757C175.448 9.57557 175.224 9.40458 175.054 9.30658C174.884 9.20758 174.698 9.15857 174.497 9.15857C174.19 9.15857 173.937 9.26654 173.736 9.48254C173.539 9.69454 173.444 10.0486 173.452 10.5446H172.224Z" fill="black"/>
</svg>
