<svg width="96" height="16" viewBox="0 0 96 16" fill="none" xmlns="http://www.w3.org/2000/svg">
<path d="M9.57635 0.78363H10.9203V15.2476H9.57635V0.78363ZM10.6003 6.46362H13.2884V7.59961H10.6003V6.46362ZM0.360352 1.99963H1.67236V5.82361H5.80035V1.99963H7.11237V11.7756H0.360352V1.99963ZM1.67236 6.87964V10.6876H5.80035V6.87964H1.67236ZM14.5193 12.3676H27.6234V13.4716H14.5193V12.3676ZM20.3754 9.26361H21.7034V12.8316H20.3754V9.26361ZM16.1034 1.85565H26.0074V6.23962H17.4634V9.13562H16.1514V5.16766H24.6954V2.92761H16.1034V1.85565ZM16.1514 8.57562H26.3434V9.66364H16.1514V8.57562ZM34.3304 1.75964H40.9703V7.96765H34.3304V1.75964ZM39.6744 2.8316H35.6263V6.89563H39.6744V2.8316ZM43.6263 0.78363H44.9543V9.02362H43.6263V0.78363ZM44.5864 4.25562H47.0984V5.35962H44.5864V4.25562ZM39.7704 10.3836H40.9064V10.7676C40.9064 13.0396 38.5224 14.7196 35.6744 15.1996L35.1624 14.1757C37.6584 13.7917 39.7704 12.3836 39.7704 10.7676V10.3836ZM40.0264 10.3836H41.1614V10.7676C41.1614 12.3516 43.3064 13.7917 45.7544 14.1917L45.2584 15.2156C42.4264 14.7356 40.0264 12.9916 40.0264 10.7676V10.3836ZM35.7224 9.88763H45.2104V10.9436H35.7224V9.88763ZM59.0483 0.78363H60.3763V9.93561H59.0483V0.78363ZM56.5844 4.25562H59.5284V5.34363H56.5844V4.25562ZM56.5684 7.03961H59.5124V8.12762H56.5684V7.03961ZM48.4724 2.28766H56.5684V3.37561H48.4724V2.28766ZM52.5684 4.04761C54.5044 4.04761 55.8323 5.13566 55.8323 6.73566C55.8323 8.33566 54.5044 9.40765 52.5684 9.40765C50.6324 9.40765 49.2884 8.33566 49.2884 6.73566C49.2884 5.13566 50.6324 4.04761 52.5684 4.04761ZM52.5684 5.07166C51.3524 5.07166 50.5364 5.74366 50.5364 6.73566C50.5364 7.72766 51.3524 8.39966 52.5684 8.39966C53.7684 8.39966 54.6003 7.72766 54.6003 6.73566C54.6003 5.74366 53.7684 5.07166 52.5684 5.07166ZM51.9124 0.639648H53.2404V2.95966H51.9124V0.639648ZM52.1684 10.2556H53.1924V10.7036C53.1924 12.5116 51.9924 14.3357 49.9124 15.0717L49.2723 14.0797C51.0643 13.4877 52.1684 12.0156 52.1684 10.7036V10.2556ZM52.4724 10.2556H53.4644V10.7036C53.4644 12.0796 54.3124 13.5516 56.0244 14.2076L55.4803 15.1996C53.4163 14.4316 52.4724 12.5436 52.4724 10.7036V10.2556ZM57.4963 10.2556H58.4724V10.7036C58.4724 12.3196 57.5123 14.3676 55.4803 15.1996L54.9363 14.2076C56.6163 13.4716 57.4963 11.8876 57.4963 10.7036V10.2556ZM57.7684 10.2556H58.7924V10.7036C58.7924 12.1116 59.8643 13.5197 61.7043 14.0797L61.0644 15.0717C58.9524 14.3677 57.7684 12.6236 57.7684 10.7036V10.2556ZM67.0314 1.88763C69.1274 1.88763 70.6313 3.85561 70.6313 6.92761C70.6313 10.0156 69.1274 11.9836 67.0314 11.9836C64.9194 11.9836 63.4314 10.0156 63.4314 6.92761C63.4314 3.85561 64.9194 1.88763 67.0314 1.88763ZM67.0314 3.08765C65.6394 3.08765 64.6954 4.59161 64.6954 6.92761C64.6954 9.27961 65.6394 10.8156 67.0314 10.8156C68.4234 10.8156 69.3674 9.27961 69.3674 6.92761C69.3674 4.59161 68.4234 3.08765 67.0314 3.08765ZM73.7674 0.767639H75.0793V15.2636H73.7674V0.767639ZM70.1993 6.28766H74.3434V7.37561H70.1993V6.28766ZM81.0944 8.22363H82.4064V12.5596H81.0944V8.22363ZM86.4384 8.22363H87.7664V12.5596H86.4384V8.22363ZM77.8943 12.3036H90.9984V13.4077H77.8943V12.3036ZM84.4224 1.69562C87.4784 1.69562 89.6703 3.15164 89.6703 5.42365C89.6703 7.67965 87.4784 9.13562 84.4224 9.13562C81.3504 9.13562 79.1584 7.67965 79.1584 5.42365C79.1584 3.15164 81.3504 1.69562 84.4224 1.69562ZM84.4224 2.75165C82.1024 2.75165 80.4384 3.80764 80.4384 5.42365C80.4384 7.02365 82.1024 8.07965 84.4224 8.07965C86.7424 8.07965 88.3904 7.02365 88.3904 5.42365C88.3904 3.80764 86.7424 2.75165 84.4224 2.75165ZM94.8124 2.36365L94.6993 10.7266H93.3813L93.2674 2.36365H94.8124ZM94.0403 14.0906C93.7593 14.0906 93.5194 13.9906 93.3184 13.7896C93.1174 13.5886 93.0174 13.3476 93.0174 13.0676C93.0174 12.7876 93.1174 12.5466 93.3184 12.3466C93.5194 12.1456 93.7593 12.0446 94.0403 12.0446C94.3203 12.0446 94.5614 12.1456 94.7614 12.3466C94.9624 12.5466 95.0624 12.7876 95.0624 13.0676C95.0624 13.2536 95.0153 13.4237 94.9203 13.5797C94.8303 13.7347 94.7064 13.8597 94.5514 13.9547C94.4004 14.0447 94.2293 14.0906 94.0403 14.0906Z" fill="black"/>
</svg>
