<svg width="66" height="15" viewBox="0 0 66 15" fill="none" xmlns="http://www.w3.org/2000/svg">
<path d="M0.456055 4.31982V3.32379H2.71204V11.9998H1.60803V4.31982H0.456055ZM4.45605 11.1238C5.47205 10.3078 6.26806 9.63981 6.84406 9.11981C7.42006 8.59181 7.90408 8.04383 8.29608 7.47583C8.69608 6.89983 8.89606 6.33581 8.89606 5.78381C8.89606 5.26381 8.76808 4.85581 8.51208 4.55981C8.26408 4.25581 7.86005 4.10382 7.30005 4.10382C6.75605 4.10382 6.33208 4.27581 6.02808 4.61981C5.73208 4.95581 5.57203 5.40783 5.54803 5.97583H4.49207C4.52407 5.07983 4.79604 4.38784 5.30804 3.89984C5.82004 3.41184 6.48009 3.16785 7.28809 3.16785C8.11209 3.16785 8.76408 3.39581 9.24408 3.85181C9.73208 4.30781 9.97607 4.93584 9.97607 5.73584C9.97607 6.39984 9.77604 7.04781 9.37604 7.67981C8.98404 8.30381 8.53604 8.85582 8.03204 9.33582C7.52804 9.80782 6.88404 10.3598 6.10004 10.9918H10.2281V11.9038H4.45605V11.1238ZM15.7501 0.695801L12.462 14.0398H11.3821L14.6581 0.695801H15.7501ZM17.1971 7.57184C17.1971 6.19584 17.4211 5.12383 17.8691 4.35583C18.3171 3.57983 19.1011 3.19183 20.2211 3.19183C21.3331 3.19183 22.113 3.57983 22.561 4.35583C23.009 5.12383 23.233 6.19584 23.233 7.57184C23.233 8.97184 23.009 10.0598 22.561 10.8358C22.113 11.6118 21.3331 11.9998 20.2211 11.9998C19.1011 11.9998 18.3171 11.6118 17.8691 10.8358C17.4211 10.0598 17.1971 8.97184 17.1971 7.57184ZM22.1531 7.57184C22.1531 6.87584 22.105 6.2878 22.009 5.8078C21.921 5.3198 21.7331 4.92784 21.4451 4.63184C21.1651 4.33584 20.7571 4.18781 20.2211 4.18781C19.6771 4.18781 19.2611 4.33584 18.9731 4.63184C18.6931 4.92784 18.5051 5.3198 18.4091 5.8078C18.3211 6.2878 18.277 6.87584 18.277 7.57184C18.277 8.29184 18.3211 8.89579 18.4091 9.38379C18.5051 9.87179 18.6931 10.2638 18.9731 10.5598C19.2611 10.8558 19.6771 11.0038 20.2211 11.0038C20.7571 11.0038 21.1651 10.8558 21.4451 10.5598C21.7331 10.2638 21.921 9.87179 22.009 9.38379C22.105 8.89579 22.1531 8.29184 22.1531 7.57184ZM24.4681 10.0678V9.23981L28.6801 3.40784H29.988V9.11981H31.188V10.0678H29.988V11.9998H28.9081V10.0678H24.4681ZM28.9561 4.54779L25.7281 9.11981H28.9561V4.54779ZM36.5391 0.695801L33.251 14.0398H32.1711L35.4471 0.695801H36.5391ZM37.8541 11.1238C38.8701 10.3078 39.6661 9.63981 40.2421 9.11981C40.8181 8.59181 41.302 8.04383 41.694 7.47583C42.094 6.89983 42.2941 6.33581 42.2941 5.78381C42.2941 5.26381 42.166 4.85581 41.91 4.55981C41.662 4.25581 41.2581 4.10382 40.6981 4.10382C40.1541 4.10382 39.7301 4.27581 39.4261 4.61981C39.1301 4.95581 38.97 5.40783 38.946 5.97583H37.8901C37.9221 5.07983 38.1941 4.38784 38.7061 3.89984C39.2181 3.41184 39.878 3.16785 40.686 3.16785C41.51 3.16785 42.1621 3.39581 42.6421 3.85181C43.1301 4.30781 43.3741 4.93584 43.3741 5.73584C43.3741 6.39984 43.174 7.04781 42.774 7.67981C42.382 8.30381 41.9341 8.85582 41.4301 9.33582C40.9261 9.80782 40.282 10.3598 39.498 10.9918H43.626V11.9038H37.8541V11.1238ZM44.889 7.57184C44.889 6.19584 45.113 5.12383 45.561 4.35583C46.009 3.57983 46.7931 3.19183 47.9131 3.19183C49.0251 3.19183 49.8051 3.57983 50.2531 4.35583C50.7011 5.12383 50.925 6.19584 50.925 7.57184C50.925 8.97184 50.7011 10.0598 50.2531 10.8358C49.8051 11.6118 49.0251 11.9998 47.9131 11.9998C46.7931 11.9998 46.009 11.6118 45.561 10.8358C45.113 10.0598 44.889 8.97184 44.889 7.57184ZM49.845 7.57184C49.845 6.87584 49.797 6.2878 49.701 5.8078C49.613 5.3198 49.4251 4.92784 49.1371 4.63184C48.8571 4.33584 48.4491 4.18781 47.9131 4.18781C47.3691 4.18781 46.953 4.33584 46.665 4.63184C46.385 4.92784 46.1971 5.3198 46.1011 5.8078C46.0131 6.2878 45.9691 6.87584 45.9691 7.57184C45.9691 8.29184 46.0131 8.89579 46.1011 9.38379C46.1971 9.87179 46.385 10.2638 46.665 10.5598C46.953 10.8558 47.3691 11.0038 47.9131 11.0038C48.4491 11.0038 48.8571 10.8558 49.1371 10.5598C49.4251 10.2638 49.613 9.87179 49.701 9.38379C49.797 8.89579 49.845 8.29184 49.845 7.57184ZM52.2921 11.1238C53.3081 10.3078 54.1041 9.63981 54.6801 9.11981C55.2561 8.59181 55.7401 8.04383 56.1321 7.47583C56.5321 6.89983 56.7321 6.33581 56.7321 5.78381C56.7321 5.26381 56.6041 4.85581 56.3481 4.55981C56.1001 4.25581 55.696 4.10382 55.136 4.10382C54.592 4.10382 54.1681 4.27581 53.8641 4.61981C53.5681 4.95581 53.408 5.40783 53.384 5.97583H52.3281C52.3601 5.07983 52.632 4.38784 53.144 3.89984C53.656 3.41184 54.3161 3.16785 55.1241 3.16785C55.9481 3.16785 56.6001 3.39581 57.0801 3.85181C57.5681 4.30781 57.8121 4.93584 57.8121 5.73584C57.8121 6.39984 57.612 7.04781 57.212 7.67981C56.82 8.30381 56.372 8.85582 55.868 9.33582C55.364 9.80782 54.72 10.3598 53.936 10.9918H58.0641V11.9038H52.2921V11.1238ZM59.0621 10.0678V9.23981L63.274 3.40784H64.582V9.11981H65.782V10.0678H64.582V11.9998H63.5021V10.0678H59.0621ZM63.55 4.54779L60.3221 9.11981H63.55V4.54779Z" fill="white"/>
</svg>
