<svg width="51" height="14" viewBox="0 0 51 14" fill="none" xmlns="http://www.w3.org/2000/svg">
<path d="M3.71008 0.950256H5.2301V2.13025C5.2301 4.62025 4.1101 6.81025 1.6001 7.63025L0.660156 6.15027C2.82016 5.46027 3.71008 3.81025 3.71008 2.13025V0.950256ZM4.09009 0.950256H5.59009V2.30023C5.59009 3.85023 6.46012 5.36025 8.50012 6.01025L7.59009 7.46027C5.18009 6.69027 4.09009 4.64023 4.09009 2.30023V0.950256ZM9.15015 0.280273H11.0101V8.11023H9.15015V0.280273ZM10.4901 3.43024H12.7301V4.97021H10.4901V3.43024ZM2.36011 8.65027H11.0101V13.2502H9.15015V10.1503H2.36011V8.65027ZM23.0502 0.280273H24.8102V13.2502H23.0502V0.280273ZM18.7802 4.71027H20.9202V6.22021H18.7802V4.71027ZM20.4302 0.490234H22.1702V12.6602H20.4302V0.490234ZM15.9801 2.40027H17.3801V3.73022C17.3801 6.64022 16.5801 9.54025 14.5201 10.8203L13.4202 9.45026C15.3202 8.26026 15.9801 5.94022 15.9801 3.73022V2.40027ZM16.4001 2.40027H17.7802V3.73022C17.7802 5.88022 18.4302 8.07022 20.3002 9.16022L19.2101 10.5203C17.1501 9.30026 16.4001 6.58022 16.4001 3.73022V2.40027ZM13.9102 1.58026H19.6901V3.08026H13.9102V1.58026ZM34.8801 0.280273H36.7201V13.2502H34.8801V0.280273ZM36.3002 5.34027H38.6001V6.89026H36.3002V5.34027ZM26.5001 2.20026H34.0502V3.68024H26.5001V2.20026ZM30.3002 4.41022C32.1902 4.41022 33.5901 5.70025 33.5901 7.51025C33.5901 9.31025 32.1902 10.6002 30.3002 10.6002C28.4102 10.6002 27.0101 9.31025 27.0101 7.51025C27.0101 5.70025 28.4102 4.41022 30.3002 4.41022ZM30.3002 5.92023C29.4202 5.92023 28.7902 6.51025 28.7902 7.51025C28.7902 8.50025 29.4202 9.09027 30.3002 9.09027C31.1802 9.09027 31.8102 8.50025 31.8102 7.51025C31.8102 6.51025 31.1802 5.92023 30.3002 5.92023ZM29.3601 0.490234H31.2201V2.76025H29.3601V0.490234ZM48.3701 0.280273H50.2501V13.2502H48.3701V0.280273ZM44.5502 1.63025H46.4001C46.4001 5.59025 45.0501 8.84024 40.4501 11.0602L39.4801 9.58026C43.2001 7.79026 44.5502 5.43027 44.5502 1.96027V1.63025ZM40.1702 1.63025H45.4302V3.10022H40.1702V1.63025Z" fill="white"/>
</svg>
