<svg width="63" height="16" viewBox="0 0 63 16" fill="none" xmlns="http://www.w3.org/2000/svg">
<path d="M4.72009 8.38354H6.06415V14.4156H4.72009V8.38354ZM11.4401 0.783569H12.7521V15.2476H11.4401V0.783569ZM0.880127 8.79956L0.704102 7.67957C3.6321 7.66357 7.21615 7.6156 10.4001 7.2796L10.5121 8.27155C7.26415 8.71955 3.74413 8.78356 0.880127 8.79956ZM1.96814 1.88757H7.95215V2.99158H1.96814V1.88757ZM7.44012 1.88757H8.75214V2.47955C8.75214 3.48755 8.75209 5.29558 8.27209 7.87158L6.96014 7.75958C7.44014 5.21558 7.44012 3.47155 7.44012 2.47955V1.88757ZM22.0311 3.99957H26.3991V5.10358H22.0311V3.99957ZM22.0311 8.57556H26.3991V9.67957H22.0311V8.57556ZM19.3751 1.88757C21.4711 1.88757 22.9751 3.85555 22.9751 6.92755C22.9751 10.0156 21.4711 11.9836 19.3751 11.9836C17.2631 11.9836 15.7751 10.0156 15.7751 6.92755C15.7751 3.85555 17.2631 1.88757 19.3751 1.88757ZM19.3751 3.08759C17.9831 3.08759 17.0231 4.59155 17.0231 6.92755C17.0231 9.27955 17.9831 10.8156 19.3751 10.8156C20.7671 10.8156 21.7271 9.27955 21.7271 6.92755C21.7271 4.59155 20.7671 3.08759 19.3751 3.08759ZM26.1111 0.767578H27.4231V15.2635H26.1111V0.767578ZM34.1581 8.86359H35.4701V14.7996H34.1581V8.86359ZM40.7821 0.783569H42.1101V15.2635H40.7821V0.783569ZM30.3501 9.51959L30.1741 8.3996C32.9101 8.3996 36.5421 8.38355 39.6781 7.93555L39.7581 8.92755C36.5261 9.47155 33.0381 9.51959 30.3501 9.51959ZM37.5021 10.6556H41.1181V11.6956H37.5021V10.6556ZM34.8941 1.5036C37.0221 1.5036 38.5101 2.63956 38.5101 4.35156C38.5101 6.06356 37.0221 7.19958 34.8941 7.19958C32.7341 7.19958 31.2621 6.06356 31.2621 4.35156C31.2621 2.63956 32.7341 1.5036 34.8941 1.5036ZM34.8941 2.52759C33.4861 2.52759 32.4941 3.27956 32.4941 4.35156C32.4941 5.43956 33.4861 6.1756 34.8941 6.1756C36.2701 6.1756 37.2621 5.43956 37.2621 4.35156C37.2621 3.27956 36.2701 2.52759 34.8941 2.52759ZM48.1561 8.22357H49.4681V12.5596H48.1561V8.22357ZM53.5001 8.22357H54.8281V12.5596H53.5001V8.22357ZM44.9561 12.3036H58.0601V13.4076H44.9561V12.3036ZM51.4841 1.69556C54.5401 1.69556 56.7321 3.15158 56.7321 5.42358C56.7321 7.67958 54.5401 9.13556 51.4841 9.13556C48.4121 9.13556 46.2201 7.67958 46.2201 5.42358C46.2201 3.15158 48.4121 1.69556 51.4841 1.69556ZM51.4841 2.75159C49.1641 2.75159 47.5001 3.80758 47.5001 5.42358C47.5001 7.02358 49.1641 8.07959 51.4841 8.07959C53.8041 8.07959 55.4521 7.02358 55.4521 5.42358C55.4521 3.80758 53.8041 2.75159 51.4841 2.75159ZM61.8751 2.36359L61.7611 10.7266H60.4431L60.3301 2.36359H61.8751ZM61.1021 14.0906C60.8221 14.0906 60.5811 13.9906 60.3811 13.7896C60.1801 13.5886 60.0801 13.3476 60.0801 13.0676C60.0801 12.7876 60.1801 12.5466 60.3811 12.3466C60.5811 12.1456 60.8221 12.0446 61.1021 12.0446C61.3831 12.0446 61.6231 12.1456 61.8241 12.3466C62.0251 12.5466 62.1251 12.7876 62.1251 13.0676C62.1251 13.2536 62.0781 13.4236 61.9831 13.5796C61.8921 13.7346 61.7691 13.8596 61.6141 13.9546C61.4621 14.0446 61.2921 14.0906 61.1021 14.0906Z" fill="black"/>
</svg>
