<svg width="9" height="12" viewBox="0 0 9 12" fill="none" xmlns="http://www.w3.org/2000/svg">
<path d="M5.68417 3.53784C5.60917 3.19284 5.47914 2.93582 5.29214 2.76782C5.10514 2.59082 4.83917 2.50183 4.49417 2.50183C3.96217 2.50183 3.57916 2.73484 3.34616 3.20184C3.11316 3.65884 2.99115 4.3868 2.98215 5.3858C3.18715 5.0588 3.48117 4.80284 3.86417 4.61584C4.25617 4.42884 4.68513 4.33582 5.15213 4.33582C6.06713 4.33582 6.79913 4.6248 7.35013 5.2038C7.91013 5.7828 8.19016 6.58979 8.19016 7.62579C8.19016 8.30679 8.05017 8.90485 7.77017 9.41785C7.49917 9.93085 7.09813 10.3328 6.56613 10.6218C6.04313 10.9108 5.42313 11.0558 4.70413 11.0558C3.26713 11.0558 2.26816 10.6078 1.70816 9.71179C1.14816 8.80679 0.868164 7.50882 0.868164 5.81982C0.868164 4.04682 1.16215 2.73083 1.75015 1.87183C2.34715 1.00383 3.29917 0.569824 4.60617 0.569824C5.30617 0.569824 5.89415 0.709807 6.37015 0.989807C6.85515 1.26081 7.21913 1.61981 7.46213 2.06781C7.71413 2.51581 7.86313 3.00584 7.91013 3.53784H5.68417ZM4.57816 6.22583C4.17716 6.22583 3.84116 6.34684 3.57016 6.58984C3.30916 6.82284 3.17813 7.15884 3.17813 7.59784C3.17813 8.04584 3.29914 8.39583 3.54214 8.64783C3.79414 8.89983 4.14917 9.02582 4.60617 9.02582C5.01717 9.02582 5.33917 8.9048 5.57217 8.6618C5.81517 8.4098 5.93613 8.06883 5.93613 7.63983C5.93613 7.20083 5.81915 6.85582 5.58615 6.60382C5.35315 6.35182 5.01716 6.22583 4.57816 6.22583Z" fill="white"/>
</svg>
