<svg width="51" height="14" viewBox="0 0 51 14" fill="none" xmlns="http://www.w3.org/2000/svg">
<path d="M3.71008 0.954224H5.2301V2.13025C5.2301 4.62225 4.1101 6.80626 1.6001 7.63226L0.660156 6.14825C2.82016 5.46225 3.71008 3.81025 3.71008 2.13025V0.954224ZM4.09009 0.954224H5.59009V2.29822C5.59009 3.85222 6.46012 5.36424 8.50012 6.00824L7.59009 7.46423C5.18009 6.69423 4.09009 4.63622 4.09009 2.29822V0.954224ZM9.15015 0.282227H11.0101V8.10822H9.15015V0.282227ZM10.4901 3.43225H12.7301V4.97223H10.4901V3.43225ZM2.36011 8.65424H11.0101V13.2462H9.15015V10.1522H2.36011V8.65424ZM23.0502 0.282227H24.8102V13.2462H23.0502V0.282227ZM18.7802 4.70624H20.9202V6.21826H18.7802V4.70624ZM20.4302 0.492249H22.1702V12.6583H20.4302V0.492249ZM15.9801 2.39624H17.3801V3.72626C17.3801 6.63826 16.5801 9.53622 14.5201 10.8242L13.4202 9.45227C15.3202 8.26227 15.9801 5.93826 15.9801 3.72626V2.39624ZM16.4001 2.39624H17.7802V3.72626C17.7802 5.88226 18.4302 8.06626 20.3002 9.15826L19.2101 10.5162C17.1501 9.29824 16.4001 6.58226 16.4001 3.72626V2.39624ZM13.9102 1.58423H19.6901V3.08221H13.9102V1.58423ZM34.8801 0.282227H36.7201V13.2462H34.8801V0.282227ZM36.3002 5.33624H38.6001V6.89026H36.3002V5.33624ZM26.5001 2.20026H34.0502V3.68427H26.5001V2.20026ZM30.3002 4.41223C32.1902 4.41223 33.5901 5.70023 33.5901 7.50623C33.5901 9.31223 32.1902 10.6002 30.3002 10.6002C28.4102 10.6002 27.0101 9.31223 27.0101 7.50623C27.0101 5.70023 28.4102 4.41223 30.3002 4.41223ZM30.3002 5.92426C29.4202 5.92426 28.7902 6.51223 28.7902 7.50623C28.7902 8.50023 29.4202 9.08826 30.3002 9.08826C31.1802 9.08826 31.8102 8.50023 31.8102 7.50623C31.8102 6.51223 31.1802 5.92426 30.3002 5.92426ZM29.3601 0.492249H31.2201V2.76025H29.3601V0.492249ZM48.3701 0.282227H50.2501V13.2462H48.3701V0.282227ZM44.5502 1.62622H46.4001C46.4001 5.58822 45.0501 8.83626 40.4501 11.0623L39.4801 9.57825C43.2001 7.78625 44.5502 5.43422 44.5502 1.96222V1.62622ZM40.1702 1.62622H45.4302V3.09625H40.1702V1.62622Z" fill="white"/>
</svg>
