<svg width="33" height="13" viewBox="0 0 33 13" fill="none" xmlns="http://www.w3.org/2000/svg">
<path d="M0.40918 12.0001V0.364075H4.47717C5.28817 0.364075 5.95615 0.504058 6.48315 0.784058C7.00915 1.06106 7.40218 1.43408 7.65918 1.90308C7.91718 2.36908 8.04517 2.88608 8.04517 3.45508C8.04517 3.95508 7.9562 4.36705 7.7782 4.69305C7.6042 5.01905 7.37321 5.27706 7.08521 5.46606C6.80121 5.65506 6.49218 5.79505 6.15918 5.88605V6.00006C6.51518 6.02306 6.87315 6.14806 7.23315 6.37506C7.59315 6.60206 7.89417 6.92805 8.13617 7.35205C8.37917 7.77705 8.50018 8.29506 8.50018 8.90906C8.50018 9.49206 8.36717 10.017 8.10217 10.483C7.83717 10.949 7.41917 11.3181 6.84717 11.5911C6.27517 11.8641 5.5302 12.0001 4.6142 12.0001H0.40918ZM1.81818 10.7501H4.6142C5.5342 10.7501 6.18816 10.5721 6.57416 10.2161C6.96416 9.85606 7.15918 9.42006 7.15918 8.90906C7.15918 8.51506 7.05915 8.15205 6.85815 7.81805C6.65715 7.48105 6.37118 7.21205 6.00018 7.01105C5.62918 6.80705 5.18919 6.70508 4.68219 6.70508H1.81818V10.7501ZM1.81818 5.47705H4.43219C4.85619 5.47705 5.2392 5.39405 5.5802 5.22705C5.9242 5.06105 6.19719 4.82607 6.39819 4.52307C6.60219 4.22007 6.7052 3.86408 6.7052 3.45508C6.7052 2.94308 6.52717 2.50908 6.17017 2.15308C5.81417 1.79408 5.25017 1.61407 4.47717 1.61407H1.81818V5.47705ZM10.8152 12.0001V0.364075H12.2242V5.54504H18.4292V0.364075H19.8382V12.0001H18.4292V6.79504H12.2242V12.0001H10.8152ZM32.0232 4.00006H30.6142C30.5302 3.59506 30.3842 3.23907 30.1762 2.93207C29.9722 2.62507 29.7222 2.36706 29.4262 2.15906C29.1342 1.94706 28.8112 1.78807 28.4552 1.68207C28.0982 1.57607 27.7272 1.52307 27.3412 1.52307C26.6362 1.52307 25.9982 1.70107 25.4262 2.05707C24.8582 2.41307 24.4052 2.93804 24.0682 3.63104C23.7352 4.32404 23.5682 5.17407 23.5682 6.18207C23.5682 7.18907 23.7352 8.04003 24.0682 8.73303C24.4052 9.42603 24.8582 9.95107 25.4262 10.3071C25.9982 10.6631 26.6362 10.8411 27.3412 10.8411C27.7272 10.8411 28.0982 10.7881 28.4552 10.6821C28.8112 10.5761 29.1342 10.4191 29.4262 10.2101C29.7222 9.99808 29.9722 9.73907 30.1762 9.43207C30.3842 9.12107 30.5302 8.76507 30.6142 8.36407H32.0232C31.9172 8.95807 31.7232 9.49108 31.4432 9.96008C31.1632 10.4301 30.8142 10.8301 30.3982 11.1591C29.9812 11.4851 29.5132 11.7331 28.9942 11.9031C28.4792 12.0741 27.9282 12.1591 27.3412 12.1591C26.3482 12.1591 25.4662 11.9171 24.6932 11.4321C23.9202 10.9471 23.3132 10.2581 22.8692 9.36407C22.4262 8.47007 22.2052 7.40907 22.2052 6.18207C22.2052 4.95507 22.4262 3.89406 22.8692 3.00006C23.3132 2.10606 23.9202 1.41707 24.6932 0.932068C25.4662 0.447068 26.3482 0.205078 27.3412 0.205078C27.9282 0.205078 28.4792 0.290083 28.9942 0.460083C29.5132 0.631083 29.9812 0.881083 30.3982 1.21008C30.8142 1.53608 31.1632 1.93408 31.4432 2.40308C31.7232 2.86908 31.9172 3.40206 32.0232 4.00006Z" fill="black"/>
</svg>
