<svg width="51" height="14" viewBox="0 0 51 14" fill="none" xmlns="http://www.w3.org/2000/svg">
<path d="M3.71008 0.954224H5.2301V2.13022C5.2301 4.62222 4.1101 6.8062 1.6001 7.6322L0.660156 6.14822C2.82016 5.46222 3.71008 3.81022 3.71008 2.13022V0.954224ZM4.09009 0.954224H5.59009V2.29822C5.59009 3.85222 6.46012 5.36421 8.50012 6.00821L7.59009 7.4642C5.18009 6.6942 4.09009 4.63622 4.09009 2.29822V0.954224ZM9.15015 0.282227H11.0101V8.10822H9.15015V0.282227ZM10.4901 3.43222H12.7301V4.9722H10.4901V3.43222ZM2.36011 8.65421H11.0101V13.2462H9.15015V10.1522H2.36011V8.65421ZM23.0502 0.282227H24.8102V13.2462H23.0502V0.282227ZM18.7802 4.70621H20.9202V6.2182H18.7802V4.70621ZM20.4302 0.492218H22.1702V12.6582H20.4302V0.492218ZM15.9801 2.39621H17.3801V3.72623C17.3801 6.63823 16.5801 9.53622 14.5201 10.8242L13.4202 9.45221C15.3202 8.26221 15.9801 5.93823 15.9801 3.72623V2.39621ZM16.4001 2.39621H17.7802V3.72623C17.7802 5.88223 18.4302 8.0662 20.3002 9.1582L19.2101 10.5162C17.1501 9.2982 16.4001 6.58223 16.4001 3.72623V2.39621ZM13.9102 1.58423H19.6901V3.08221H13.9102V1.58423ZM34.8801 0.282227H36.7201V13.2462H34.8801V0.282227ZM36.3002 5.33621H38.6001V6.89023H36.3002V5.33621ZM26.5001 2.20023H34.0502V3.6842H26.5001V2.20023ZM30.3002 4.4122C32.1902 4.4122 33.5901 5.70023 33.5901 7.50623C33.5901 9.31223 32.1902 10.6002 30.3002 10.6002C28.4102 10.6002 27.0101 9.31223 27.0101 7.50623C27.0101 5.70023 28.4102 4.4122 30.3002 4.4122ZM30.3002 5.92422C29.4202 5.92422 28.7902 6.51223 28.7902 7.50623C28.7902 8.50023 29.4202 9.08823 30.3002 9.08823C31.1802 9.08823 31.8102 8.50023 31.8102 7.50623C31.8102 6.51223 31.1802 5.92422 30.3002 5.92422ZM29.3601 0.492218H31.2201V2.76022H29.3601V0.492218ZM48.3701 0.282227H50.2501V13.2462H48.3701V0.282227ZM44.5502 1.62622H46.4001C46.4001 5.58822 45.0501 8.83623 40.4501 11.0622L39.4801 9.57822C43.2001 7.78622 44.5502 5.43422 44.5502 1.96222V1.62622ZM40.1702 1.62622H45.4302V3.09622H40.1702V1.62622Z" fill="white"/>
</svg>
