<svg width="56" height="10" viewBox="0 0 56 10" fill="none" xmlns="http://www.w3.org/2000/svg">
<path d="M3.90131 9.08405C3.28531 9.08405 2.7333 8.98406 2.2453 8.78406C1.7573 8.58406 1.36527 8.28806 1.06927 7.89606C0.781275 7.50406 0.629281 7.03204 0.613281 6.48004H2.7973C2.8293 6.79204 2.93728 7.03207 3.12128 7.20007C3.30528 7.36007 3.54531 7.44006 3.84131 7.44006C4.14531 7.44006 4.38528 7.37208 4.56128 7.23608C4.73728 7.09208 4.82532 6.89607 4.82532 6.64807C4.82532 6.44007 4.75331 6.26808 4.60931 6.13208C4.47331 5.99608 4.30132 5.88408 4.09332 5.79608C3.89332 5.70808 3.60531 5.60803 3.22931 5.49603C2.68531 5.32803 2.24128 5.16007 1.89728 4.99207C1.55328 4.82407 1.25728 4.57605 1.00928 4.24805C0.761277 3.92005 0.637329 3.49205 0.637329 2.96405C0.637329 2.18005 0.921319 1.56805 1.48932 1.12805C2.05732 0.680052 2.79729 0.456055 3.70929 0.456055C4.63729 0.456055 5.38531 0.680052 5.95331 1.12805C6.52131 1.56805 6.8253 2.18407 6.8653 2.97607H4.64532C4.62932 2.70407 4.52928 2.49209 4.34528 2.34009C4.16128 2.18009 3.92533 2.10004 3.63733 2.10004C3.38933 2.10004 3.18929 2.16808 3.03729 2.30408C2.88529 2.43208 2.80933 2.62004 2.80933 2.86804C2.80933 3.14004 2.9373 3.35209 3.1933 3.50409C3.4493 3.65609 3.84931 3.82003 4.39331 3.99603C4.93731 4.18003 5.37732 4.35605 5.71332 4.52405C6.05732 4.69205 6.35332 4.93604 6.60132 5.25604C6.84932 5.57604 6.97333 5.98807 6.97333 6.49207C6.97333 6.97207 6.84932 7.40805 6.60132 7.80005C6.36132 8.19205 6.00929 8.50408 5.54529 8.73608C5.08129 8.96808 4.53331 9.08405 3.90131 9.08405ZM15.5323 0.57605V9.00006H13.4803V5.53204H10.2883V9.00006H8.23633V0.57605H10.2883V3.87604H13.4803V0.57605H15.5323ZM22.2583 7.51208H19.1143L18.6103 9.00006H16.4623L19.5103 0.57605H21.8863L24.9343 9.00006H22.7623L22.2583 7.51208ZM21.7303 5.92804L20.6863 2.84406L19.6543 5.92804H21.7303ZM29.0173 0.57605C29.9053 0.57605 30.6813 0.752065 31.3453 1.10406C32.0093 1.45606 32.5213 1.95204 32.8813 2.59204C33.2493 3.22404 33.4333 3.95609 33.4333 4.78809C33.4333 5.61209 33.2493 6.34407 32.8813 6.98407C32.5213 7.62407 32.0053 8.12005 31.3333 8.47205C30.6693 8.82405 29.8973 9.00006 29.0173 9.00006H25.8613V0.57605H29.0173ZM28.8853 7.22406C29.6613 7.22406 30.2653 7.01207 30.6973 6.58807C31.1293 6.16407 31.3453 5.56409 31.3453 4.78809C31.3453 4.01209 31.1293 3.40807 30.6973 2.97607C30.2653 2.54407 29.6613 2.32806 28.8853 2.32806H27.9133V7.22406H28.8853ZM38.5643 9.08405C37.7723 9.08405 37.0443 8.90004 36.3803 8.53204C35.7243 8.16404 35.2003 7.65203 34.8083 6.99603C34.4243 6.33203 34.2323 5.58804 34.2323 4.76404C34.2323 3.94004 34.4243 3.20007 34.8083 2.54407C35.2003 1.88807 35.7243 1.37606 36.3803 1.00806C37.0443 0.640057 37.7723 0.456055 38.5643 0.456055C39.3563 0.456055 40.0803 0.640057 40.7363 1.00806C41.4003 1.37606 41.9203 1.88807 42.2963 2.54407C42.6803 3.20007 42.8723 3.94004 42.8723 4.76404C42.8723 5.58804 42.6803 6.33203 42.2963 6.99603C41.9123 7.65203 41.3923 8.16404 40.7363 8.53204C40.0803 8.90004 39.3563 9.08405 38.5643 9.08405ZM38.5643 7.21204C39.2363 7.21204 39.7723 6.98804 40.1723 6.54004C40.5803 6.09204 40.7843 5.50004 40.7843 4.76404C40.7843 4.02004 40.5803 3.42804 40.1723 2.98804C39.7723 2.54004 39.2363 2.31604 38.5643 2.31604C37.8843 2.31604 37.3403 2.53607 36.9323 2.97607C36.5323 3.41607 36.3323 4.01204 36.3323 4.76404C36.3323 5.50804 36.5323 6.10406 36.9323 6.55206C37.3403 6.99206 37.8843 7.21204 38.5643 7.21204ZM55.6063 0.57605L53.4103 9.00006H50.9263L49.5823 3.45605L48.1903 9.00006H45.7063L43.5703 0.57605H45.7663L46.9783 6.70807L48.4783 0.57605H50.7343L52.1743 6.70807L53.3983 0.57605H55.6063Z" fill="white"/>
</svg>
