<svg width="81" height="16" viewBox="0 0 81 16" fill="none" xmlns="http://www.w3.org/2000/svg">
<path d="M0.799805 7.90356H13.8718V8.99158H0.799805V7.90356ZM6.67181 5.58359H7.98383V8.35156H6.67181V5.58359ZM2.44781 5.16757H12.3518V6.25558H2.44781V5.16757ZM2.44781 1.43958H12.2398V2.51157H3.75983V5.80759H2.44781V1.43958ZM7.31183 10.0316C10.3998 10.0316 12.2718 10.9756 12.2718 12.6236C12.2718 14.3036 10.3998 15.2316 7.31183 15.2316C4.22383 15.2316 2.35181 14.3036 2.35181 12.6236C2.35181 10.9756 4.22383 10.0316 7.31183 10.0316ZM7.31183 11.0556C5.05583 11.0556 3.6958 11.6316 3.6958 12.6236C3.6958 13.6316 5.05583 14.1916 7.31183 14.1916C9.58383 14.1916 10.9278 13.6316 10.9278 12.6236C10.9278 11.6316 9.58383 11.0556 7.31183 11.0556ZM21.3748 7.61557H22.6868V9.83957H21.3748V7.61557ZM15.5028 6.87958H28.5748V7.95157H15.5028V6.87958ZM17.1988 1.26358H26.8788V5.66357H17.1988V1.26358ZM25.5828 2.31958H18.5108V4.60757H25.5828V2.31958ZM17.0868 9.35956H26.9108V12.6076H18.4308V14.3676H17.1188V11.6476H25.5988V10.3836H17.0868V9.35956ZM17.1188 14.0476H27.3428V15.0876H17.1188V14.0476ZM40.7498 0.799561H42.0938V11.3596H40.7498V0.799561ZM32.7978 13.8396H42.5258V14.9276H32.7978V13.8396ZM32.7978 10.2716H34.1098V14.2076H32.7978V10.2716ZM34.3338 1.79156C36.4938 1.79156 38.0938 3.26356 38.0938 5.35956C38.0938 7.43956 36.4938 8.92758 34.3338 8.92758C32.1738 8.92758 30.5578 7.43956 30.5578 5.35956C30.5578 3.26356 32.1738 1.79156 34.3338 1.79156ZM34.3338 2.94357C32.9258 2.94357 31.8538 3.93556 31.8538 5.35956C31.8538 6.76756 32.9258 7.75958 34.3338 7.75958C35.7418 7.75958 36.8138 6.76756 36.8138 5.35956C36.8138 3.93556 35.7418 2.94357 34.3338 2.94357ZM54.7318 0.767578H56.0758V15.2476H54.7318V0.767578ZM55.7078 6.63959H58.3798V7.74356H55.7078V6.63959ZM51.0358 2.33557H52.3318C52.3318 6.44757 50.4438 10.1596 45.7718 12.5116L45.0358 11.4876C49.0358 9.45558 51.0358 6.36758 51.0358 2.54358V2.33557ZM45.7078 2.33557H51.7238V3.42358H45.7078V2.33557ZM62.8748 8.22357H64.1868V12.5596H62.8748V8.22357ZM68.2188 8.22357H69.5468V12.5596H68.2188V8.22357ZM59.6748 12.3036H72.7788V13.4076H59.6748V12.3036ZM66.2028 1.69559C69.2588 1.69559 71.4508 3.15158 71.4508 5.42358C71.4508 7.67958 69.2588 9.13556 66.2028 9.13556C63.1308 9.13556 60.9388 7.67958 60.9388 5.42358C60.9388 3.15158 63.1308 1.69559 66.2028 1.69559ZM66.2028 2.75159C63.8828 2.75159 62.2188 3.80758 62.2188 5.42358C62.2188 7.02358 63.8828 8.07956 66.2028 8.07956C68.5228 8.07956 70.1708 7.02358 70.1708 5.42358C70.1708 3.80758 68.5228 2.75159 66.2028 2.75159ZM76.5708 10.7266V10.6586C76.5788 9.93557 76.6538 9.35958 76.7978 8.93158C76.9418 8.50358 77.1468 8.15657 77.4118 7.89157C77.6768 7.62657 77.9948 7.38257 78.3658 7.15857C78.5898 7.02257 78.7908 6.86157 78.9688 6.67557C79.1468 6.48657 79.2868 6.26858 79.3888 6.02258C79.4948 5.77658 79.5478 5.50356 79.5478 5.20456C79.5478 4.83256 79.4608 4.51059 79.2868 4.23859C79.1128 3.96559 78.8798 3.75557 78.5878 3.60757C78.2958 3.45957 77.9728 3.38556 77.6158 3.38556C77.3058 3.38556 77.0068 3.45056 76.7188 3.57956C76.4308 3.70756 76.1898 3.91056 75.9968 4.18756C75.8038 4.46356 75.6918 4.82558 75.6618 5.27258H74.2298C74.2598 4.62858 74.4268 4.07756 74.7298 3.61856C75.0368 3.16056 75.4398 2.81057 75.9398 2.56757C76.4438 2.32557 77.0028 2.20456 77.6158 2.20456C78.2828 2.20456 78.8628 2.33656 79.3548 2.60156C79.8508 2.86656 80.2338 3.23057 80.5028 3.69257C80.7758 4.15457 80.9118 4.68158 80.9118 5.27258C80.9118 5.68858 80.8478 6.06559 80.7188 6.40259C80.5938 6.74059 80.4118 7.04158 80.1728 7.30658C79.9378 7.57158 79.6538 7.80656 79.3208 8.01056C78.9878 8.21956 78.7208 8.43859 78.5198 8.66959C78.3188 8.89759 78.1728 9.16857 78.0818 9.48257C77.9908 9.79657 77.9418 10.1886 77.9348 10.6586V10.7266H76.5708ZM77.2978 14.0906C77.0178 14.0906 76.7768 13.9906 76.5768 13.7896C76.3758 13.5886 76.2758 13.3476 76.2758 13.0676C76.2758 12.7876 76.3758 12.5466 76.5768 12.3466C76.7768 12.1456 77.0178 12.0446 77.2978 12.0446C77.5788 12.0446 77.8188 12.1456 78.0198 12.3466C78.2208 12.5466 78.3208 12.7876 78.3208 13.0676C78.3208 13.2536 78.2738 13.4236 78.1788 13.5796C78.0878 13.7346 77.9648 13.8596 77.8098 13.9546C77.6578 14.0446 77.4878 14.0906 77.2978 14.0906Z" fill="black"/>
</svg>
