<svg width="9" height="12" viewBox="0 0 9 12" fill="none" xmlns="http://www.w3.org/2000/svg">
<path d="M2.30984 5.50983C1.43284 5.04983 0.993835 4.30981 0.993835 3.30981C0.993835 2.80981 1.12483 2.34982 1.38583 1.93982C1.64683 1.51982 2.04384 1.18983 2.57584 0.949829C3.10784 0.699829 3.76086 0.569824 4.53586 0.569824C5.31086 0.569824 5.95884 0.699829 6.48184 0.949829C7.01384 1.18983 7.41084 1.51982 7.67184 1.93982C7.93284 2.34982 8.06387 2.80981 8.06387 3.30981C8.06387 3.81981 7.94286 4.25982 7.69986 4.62982C7.46686 4.99982 7.14883 5.29983 6.74783 5.50983C7.25183 5.74983 7.63882 6.08984 7.90982 6.51984C8.18082 6.93984 8.31583 7.42982 8.31583 7.99982C8.31583 8.66982 8.14786 9.2398 7.81186 9.7298C7.47586 10.1998 7.01885 10.5698 6.43985 10.8198C5.87085 11.0698 5.23586 11.1998 4.53586 11.1998C3.83586 11.1998 3.19686 11.0698 2.61786 10.8198C2.04886 10.5698 1.59586 10.1998 1.25986 9.7298C0.923857 9.2398 0.755859 8.66982 0.755859 7.99982C0.755859 7.42982 0.890835 6.92983 1.16183 6.50983C1.43283 6.07983 1.81484 5.74983 2.30984 5.50983ZM5.73984 3.67981C5.73984 3.29981 5.62784 2.9998 5.40384 2.7998C5.18884 2.5798 4.89986 2.46979 4.53586 2.46979C4.17186 2.46979 3.87784 2.5798 3.65384 2.7998C3.43884 3.0098 3.33182 3.30982 3.33182 3.68982C3.33182 4.05982 3.44388 4.34981 3.66788 4.55981C3.89188 4.76981 4.18086 4.86981 4.53586 4.86981C4.89086 4.86981 5.17984 4.7598 5.40384 4.5498C5.62784 4.3298 5.73984 4.03981 5.73984 3.67981ZM4.53586 6.5498C4.09686 6.5498 3.74283 6.66979 3.47183 6.90979C3.20083 7.14979 3.06583 7.46983 3.06583 7.88983C3.06583 8.27983 3.19686 8.6098 3.45786 8.8598C3.72886 9.1098 4.08786 9.23981 4.53586 9.23981C4.98386 9.23981 5.33385 9.1098 5.58585 8.8598C5.84685 8.6098 5.97787 8.27983 5.97787 7.88983C5.97787 7.47983 5.84287 7.14979 5.57187 6.90979C5.31087 6.66979 4.96486 6.5498 4.53586 6.5498Z" fill="white"/>
</svg>
