<svg width="47" height="13" viewBox="0 0 47 13" fill="none" xmlns="http://www.w3.org/2000/svg">
<path d="M0.492188 9.54807H10.5482V10.8441H0.492188V9.54807ZM4.70416 7.44806H6.30017V10.0761H4.70416V7.44806ZM1.62018 1.67606H9.42017V5.37206H3.22821V7.24406H1.64417V4.12405H7.83618V2.93607H1.62018V1.67606ZM1.64417 6.60806H9.67218V7.89206H1.64417V6.60806ZM12.5512 1.97606H19.6002V3.23605H12.5512V1.97606ZM11.5312 9.32007H21.5802V10.6161H11.5312V9.32007ZM18.7602 1.97606H20.3402V3.29607C20.3402 4.85607 20.3402 6.36806 19.9402 8.64806L18.3502 8.51607C18.7602 6.38007 18.7602 4.79607 18.7602 3.29607V1.97606ZM28.0802 1.72406C29.7702 1.72406 30.9902 3.26007 30.9902 5.68407C30.9902 8.13207 29.7702 9.66806 28.0802 9.66806C26.3902 9.66806 25.1602 8.13207 25.1602 5.68407C25.1602 3.26007 26.3902 1.72406 28.0802 1.72406ZM28.0802 3.17606C27.2502 3.17606 26.7002 4.05207 26.7002 5.68407C26.7002 7.34007 27.2502 8.22806 28.0802 8.22806C28.9102 8.22806 29.4702 7.34007 29.4702 5.68407C29.4702 4.05207 28.9102 3.17606 28.0802 3.17606ZM32.2102 0.956055H33.8102V12.0681H32.2102V0.956055ZM33.4502 5.14406H35.4202V6.46407H33.4502V5.14406ZM36.1402 5.82806H46.2001V7.11206H36.1402V5.82806ZM40.3502 6.39206H41.9401V8.15607H40.3502V6.39206ZM40.3202 8.60007H41.6702V8.79207C41.6702 10.4121 40.1602 11.7681 37.3002 12.0321L36.7902 10.8321C39.2102 10.6161 40.3202 9.64407 40.3202 8.79207V8.60007ZM40.6002 8.60007H41.9601V8.79207C41.9601 9.70407 43.0302 10.6281 45.4902 10.8321L44.9802 12.0321C42.1402 11.7681 40.6002 10.4841 40.6002 8.79207V8.60007ZM41.1702 1.07607C43.6302 1.07607 45.1901 1.85606 45.1901 3.17606C45.1901 4.49606 43.6302 5.27606 41.1702 5.27606C38.7102 5.27606 37.1502 4.49606 37.1502 3.17606C37.1502 1.85606 38.7102 1.07607 41.1702 1.07607ZM41.1702 2.26407C39.6302 2.26407 38.7902 2.56406 38.7902 3.17606C38.7902 3.76406 39.6302 4.07607 41.1702 4.07607C42.6902 4.07607 43.5402 3.76406 43.5402 3.17606C43.5402 2.56406 42.6902 2.26407 41.1702 2.26407Z" fill="black"/>
</svg>
