<svg width="181" height="16" viewBox="0 0 181 16" fill="none" xmlns="http://www.w3.org/2000/svg">
<path d="M11.7924 0.784058H13.0724V15.248H11.7924V0.784058ZM6.52844 5.96808H9.29645V7.07208H6.52844V5.96808ZM8.89642 1.12006H10.1444V14.5121H8.89642V1.12006ZM3.74445 3.02405H4.76843V4.86407C4.76843 8.03207 3.55244 11.024 1.42444 12.368L0.608398 11.376C2.6244 10.16 3.74445 7.52007 3.74445 4.86407V3.02405ZM4.01642 3.02405H5.04041V4.86407C5.04041 7.37607 6.12843 9.88804 8.11243 11.04L7.29645 12.0161C5.18445 10.7361 4.01642 7.88807 4.01642 4.86407V3.02405ZM1.00842 2.46405H7.61646V3.56805H1.00842V2.46405ZM30.5314 0.800049H31.8754V11.488H30.5314V0.800049ZM22.5794 13.8401H32.3074V14.928H22.5794V13.8401ZM22.5794 10.48H23.8914V14.4161H22.5794V10.48ZM23.9395 3.55206H25.0274V4.16003C25.0274 6.75203 23.3794 8.89609 20.9634 9.72809L20.3074 8.68805C22.4514 7.98405 23.9395 6.16003 23.9395 4.16003V3.55206ZM24.1635 3.55206H25.2514V4.16003C25.2514 6.04803 26.7554 7.76007 28.9154 8.43207L28.2755 9.47205C25.8275 8.68805 24.1635 6.64003 24.1635 4.16003V3.55206ZM20.6434 2.72003H28.5154V3.79205H20.6434V2.72003ZM23.9395 0.848083H25.2514V3.23206H23.9395V0.848083ZM36.3704 1.72809H45.4104V2.80005H36.3704V1.72809ZM34.7384 7.93604H47.8104V9.02405H34.7384V7.93604ZM40.5784 8.65607H41.9064V15.264H40.5784V8.65607ZM44.7864 1.72809H46.0824V2.97607C46.0824 4.48007 46.0825 6.17608 45.5385 8.62408L44.2264 8.44806C44.7864 6.11206 44.7864 4.43207 44.7864 2.97607V1.72809ZM49.4564 6.81604H62.5284V7.90405H49.4564V6.81604ZM51.1844 4.57605H60.9764V5.64807H51.1844V4.57605ZM51.1844 1.24805H60.8164V2.33606H52.4964V5.44006H51.1844V1.24805ZM51.0244 9.15204H60.8484V12.5601H52.3684V14.384H51.0565V11.5681H59.5364V10.1921H51.0244V9.15204ZM51.0565 14.032H61.2805V15.0881H51.0565V14.032ZM74.0634 0.800049H75.3914V11.6481H74.0634V0.800049ZM74.9754 5.53607H77.5354V6.65607H74.9754V5.53607ZM64.2074 2.54407H72.7514V3.61609H64.2074V2.54407ZM68.4794 4.41608C70.5274 4.41608 71.9354 5.48806 71.9354 7.12006C71.9354 8.73606 70.5274 9.80804 68.4794 9.80804C66.4154 9.80804 65.0074 8.73606 65.0074 7.12006C65.0074 5.48806 66.4154 4.41608 68.4794 4.41608ZM68.4794 5.45605C67.1674 5.45605 66.2714 6.11206 66.2714 7.12006C66.2714 8.11206 67.1674 8.76807 68.4794 8.76807C69.7754 8.76807 70.6714 8.11206 70.6714 7.12006C70.6714 6.11206 69.7754 5.45605 68.4794 5.45605ZM67.8074 0.784058H69.1354V3.10406H67.8074V0.784058ZM66.3834 13.8401H76.0474V14.928H66.3834V13.8401ZM66.3834 10.7841H67.7114V14.3041H66.3834V10.7841ZM84.8944 6.25604H87.6144V7.36005H84.8944V6.25604ZM79.4224 10.688H80.3504C82.5744 10.688 83.9024 10.6401 85.5024 10.3201L85.6304 11.4081C83.9824 11.7281 82.6064 11.7761 80.3504 11.7761H79.4224V10.688ZM79.4224 2.52808H84.7824V3.60004H80.6864V11.0561H79.4224V2.52808ZM80.3024 6.43207H84.1264V7.48804H80.3024V6.43207ZM89.8864 0.784058H91.1664V15.248H89.8864V0.784058ZM86.9744 1.12006H88.2384V14.5121H86.9744V1.12006ZM108.001 0.784058H109.329V8.14404H108.001V0.784058ZM108.753 3.88806H111.457V4.99207H108.753V3.88806ZM100.145 8.83203H109.329V12.384H101.489V14.5441H100.177V11.376H108.033V9.88806H100.145V8.83203ZM100.177 13.9841H109.857V15.0561H100.177V13.9841ZM102.097 1.29608C104.273 1.29608 105.841 2.62408 105.841 4.51208C105.841 6.41609 104.273 7.74408 102.097 7.74408C99.9534 7.74408 98.3684 6.41609 98.3684 4.51208C98.3684 2.62408 99.9534 1.29608 102.097 1.29608ZM102.097 2.38403C100.705 2.38403 99.6644 3.26408 99.6644 4.51208C99.6644 5.77609 100.705 6.65607 102.097 6.65607C103.521 6.65607 104.561 5.77609 104.561 4.51208C104.561 3.26408 103.521 2.38403 102.097 2.38403ZM123.391 0.768066H124.719V15.264H123.391V0.768066ZM120.543 4.08008H123.743V5.16809H120.543V4.08008ZM113.359 10.7841H114.431C116.671 10.7841 118.511 10.72 120.719 10.368L120.847 11.472C118.575 11.824 116.719 11.9041 114.431 11.9041H113.359V10.7841ZM113.327 2.08008H119.647V7.26404H114.671V11.04H113.359V6.17609H118.335V3.18408H113.327V2.08008ZM120.447 8.03204H123.647V9.12006H120.447V8.03204ZM133.406 7.58405H134.734V9.80804H133.406V7.58405ZM127.534 6.81604H140.606V7.88806H127.534V6.81604ZM129.118 9.31207H138.942V12.6401H130.462V14.3361H129.15V11.6801H137.63V10.3201H129.118V9.31207ZM129.15 14.0641H139.374V15.0881H129.15V14.0641ZM133.31 1.68005H134.478V2.12805C134.478 4.35205 131.758 5.80806 128.67 6.11206L128.238 5.08807C130.91 4.86407 133.31 3.68005 133.31 2.12805V1.68005ZM133.694 1.68005H134.846V2.12805C134.846 3.68005 137.246 4.86407 139.918 5.08807L139.486 6.11206C136.414 5.80806 133.694 4.35205 133.694 2.12805V1.68005ZM128.734 1.26404H139.438V2.33606H128.734V1.26404ZM153.277 0.784058H154.557V15.248H153.277V0.784058ZM147.005 6.68805H150.653V7.76007H147.005V6.68805ZM150.269 1.15204H151.517V14.5121H150.269V1.15204ZM147.181 2.60803H148.461C148.461 6.40003 146.941 9.80805 143.037 12.1281L142.253 11.1841C145.661 9.13608 147.181 6.25608 147.181 2.84808V2.60803ZM142.893 2.60803H147.677V3.69604H142.893V2.60803ZM160.188 8.22406H161.5V12.5601H160.188V8.22406ZM165.532 8.22406H166.86V12.5601H165.532V8.22406ZM156.988 12.3041H170.092V13.4081H156.988V12.3041ZM163.516 1.69604C166.572 1.69604 168.764 3.15207 168.764 5.42407C168.764 7.68007 166.572 9.13605 163.516 9.13605C160.444 9.13605 158.252 7.68007 158.252 5.42407C158.252 3.15207 160.444 1.69604 163.516 1.69604ZM163.516 2.75208C161.196 2.75208 159.532 3.80807 159.532 5.42407C159.532 7.02407 161.196 8.08008 163.516 8.08008C165.836 8.08008 167.484 7.02407 167.484 5.42407C167.484 3.80807 165.836 2.75208 163.516 2.75208ZM172.224 10.545C172.213 9.91704 172.315 9.41108 172.531 9.02808C172.747 8.64608 173.027 8.36705 173.372 8.19305C173.721 8.01905 174.088 7.93207 174.474 7.93207C174.861 7.93207 175.213 8.01705 175.531 8.18805C175.853 8.35405 176.221 8.61705 176.634 8.97705C176.914 9.22005 177.137 9.39007 177.304 9.48907C177.474 9.58707 177.66 9.63605 177.861 9.63605C178.187 9.63605 178.444 9.51906 178.634 9.28406C178.823 9.04506 178.914 8.70106 178.906 8.25006H180.134C180.145 8.87906 180.043 9.38409 179.827 9.76709C179.615 10.1501 179.334 10.4281 178.986 10.6021C178.637 10.7771 178.27 10.8641 177.884 10.8641C177.497 10.8641 177.145 10.7801 176.827 10.6141C176.509 10.4431 176.141 10.1781 175.724 9.81805C175.448 9.57605 175.224 9.40507 175.054 9.30707C174.884 9.20807 174.698 9.15906 174.497 9.15906C174.19 9.15906 173.937 9.26703 173.736 9.48303C173.539 9.69503 173.444 10.049 173.452 10.545H172.224Z" fill="black"/>
</svg>
