<svg width="96" height="16" viewBox="0 0 96 16" fill="none" xmlns="http://www.w3.org/2000/svg">
<path d="M9.57635 0.784119H10.9203V15.2481H9.57635V0.784119ZM10.6003 6.46411H13.2884V7.6001H10.6003V6.46411ZM0.360352 2.00012H1.67236V5.8241H5.80035V2.00012H7.11237V11.7761H0.360352V2.00012ZM1.67236 6.88013V10.6881H5.80035V6.88013H1.67236ZM14.5193 12.3681H27.6234V13.4721H14.5193V12.3681ZM20.3754 9.2641H21.7034V12.8321H20.3754V9.2641ZM16.1034 1.85614H26.0074V6.24011H17.4634V9.13611H16.1514V5.16815H24.6954V2.9281H16.1034V1.85614ZM16.1514 8.57611H26.3434V9.66412H16.1514V8.57611ZM34.3304 1.76013H40.9703V7.96814H34.3304V1.76013ZM39.6744 2.83209H35.6263V6.89612H39.6744V2.83209ZM43.6263 0.784119H44.9543V9.02411H43.6263V0.784119ZM44.5864 4.2561H47.0984V5.36011H44.5864V4.2561ZM39.7704 10.3841H40.9064V10.7681C40.9064 13.0401 38.5224 14.7201 35.6744 15.2001L35.1624 14.1761C37.6584 13.7921 39.7704 12.3841 39.7704 10.7681V10.3841ZM40.0264 10.3841H41.1614V10.7681C41.1614 12.3521 43.3064 13.7921 45.7544 14.1921L45.2584 15.2161C42.4264 14.7361 40.0264 12.9921 40.0264 10.7681V10.3841ZM35.7224 9.88812H45.2104V10.9441H35.7224V9.88812ZM59.0483 0.784119H60.3763V9.9361H59.0483V0.784119ZM56.5844 4.2561H59.5284V5.34412H56.5844V4.2561ZM56.5684 7.0401H59.5124V8.12811H56.5684V7.0401ZM48.4724 2.28815H56.5684V3.3761H48.4724V2.28815ZM52.5684 4.0481C54.5044 4.0481 55.8323 5.13614 55.8323 6.73615C55.8323 8.33615 54.5044 9.40814 52.5684 9.40814C50.6324 9.40814 49.2884 8.33615 49.2884 6.73615C49.2884 5.13614 50.6324 4.0481 52.5684 4.0481ZM52.5684 5.07214C51.3524 5.07214 50.5364 5.74415 50.5364 6.73615C50.5364 7.72815 51.3524 8.40015 52.5684 8.40015C53.7684 8.40015 54.6003 7.72815 54.6003 6.73615C54.6003 5.74415 53.7684 5.07214 52.5684 5.07214ZM51.9124 0.640137H53.2404V2.96014H51.9124V0.640137ZM52.1684 10.2561H53.1924V10.7041C53.1924 12.5121 51.9924 14.3361 49.9124 15.0721L49.2723 14.0801C51.0643 13.4881 52.1684 12.0161 52.1684 10.7041V10.2561ZM52.4724 10.2561H53.4644V10.7041C53.4644 12.0801 54.3124 13.5521 56.0244 14.2081L55.4803 15.2001C53.4163 14.4321 52.4724 12.5441 52.4724 10.7041V10.2561ZM57.4963 10.2561H58.4724V10.7041C58.4724 12.3201 57.5123 14.3681 55.4803 15.2001L54.9363 14.2081C56.6163 13.4721 57.4963 11.8881 57.4963 10.7041V10.2561ZM57.7684 10.2561H58.7924V10.7041C58.7924 12.1121 59.8643 13.5201 61.7043 14.0801L61.0644 15.0721C58.9524 14.3681 57.7684 12.6241 57.7684 10.7041V10.2561ZM67.0314 1.88812C69.1274 1.88812 70.6313 3.8561 70.6313 6.9281C70.6313 10.0161 69.1274 11.9841 67.0314 11.9841C64.9194 11.9841 63.4314 10.0161 63.4314 6.9281C63.4314 3.8561 64.9194 1.88812 67.0314 1.88812ZM67.0314 3.08813C65.6394 3.08813 64.6954 4.5921 64.6954 6.9281C64.6954 9.2801 65.6394 10.8161 67.0314 10.8161C68.4234 10.8161 69.3674 9.2801 69.3674 6.9281C69.3674 4.5921 68.4234 3.08813 67.0314 3.08813ZM73.7674 0.768127H75.0793V15.2641H73.7674V0.768127ZM70.1993 6.28815H74.3434V7.3761H70.1993V6.28815ZM81.0944 8.22412H82.4064V12.5601H81.0944V8.22412ZM86.4384 8.22412H87.7664V12.5601H86.4384V8.22412ZM77.8943 12.3041H90.9984V13.4081H77.8943V12.3041ZM84.4224 1.69611C87.4784 1.69611 89.6703 3.15213 89.6703 5.42413C89.6703 7.68013 87.4784 9.13611 84.4224 9.13611C81.3504 9.13611 79.1584 7.68013 79.1584 5.42413C79.1584 3.15213 81.3504 1.69611 84.4224 1.69611ZM84.4224 2.75214C82.1024 2.75214 80.4384 3.80813 80.4384 5.42413C80.4384 7.02413 82.1024 8.08014 84.4224 8.08014C86.7424 8.08014 88.3904 7.02413 88.3904 5.42413C88.3904 3.80813 86.7424 2.75214 84.4224 2.75214ZM94.8124 2.36414L94.6993 10.7271H93.3813L93.2674 2.36414H94.8124ZM94.0403 14.0911C93.7593 14.0911 93.5194 13.9911 93.3184 13.7901C93.1174 13.5891 93.0174 13.3481 93.0174 13.0681C93.0174 12.7881 93.1174 12.5471 93.3184 12.3471C93.5194 12.1461 93.7593 12.0451 94.0403 12.0451C94.3203 12.0451 94.5614 12.1461 94.7614 12.3471C94.9624 12.5471 95.0624 12.7881 95.0624 13.0681C95.0624 13.2541 95.0153 13.4241 94.9203 13.5801C94.8303 13.7351 94.7064 13.8601 94.5514 13.9551C94.4004 14.0451 94.2293 14.0911 94.0403 14.0911Z" fill="black"/>
</svg>
