<svg width="141" height="16" viewBox="0 0 141 16" fill="none" xmlns="http://www.w3.org/2000/svg">
<path d="M11.8557 0.783569H13.1196V15.2476H11.8557V0.783569ZM9.56763 6.60757H12.3516V7.72757H9.56763V6.60757ZM8.70361 1.08759H9.95166V14.5276H8.70361V1.08759ZM3.77563 3.02356H4.81561V4.68756C4.81561 8.15956 3.67963 10.9436 1.45563 12.2716L0.639648 11.2476C2.71965 10.0956 3.77563 7.63156 3.77563 4.68756V3.02356ZM4.01562 3.02356H5.05566V4.68756C5.05566 7.34356 6.12761 9.69557 8.15961 10.7356L7.37561 11.7596C5.16761 10.5436 4.01562 7.87156 4.01562 4.68756V3.02356ZM0.975647 2.47958H7.69562V3.58359H0.975647V2.47958ZM19.1187 9.56757H20.1426V10.4956C20.1426 12.3836 18.9587 14.2876 16.8787 15.0876L16.2066 14.0956C18.0306 13.4396 19.1187 11.8876 19.1187 10.4956V9.56757ZM19.4066 9.56757H20.3986V10.4956C20.3986 11.9516 21.2627 13.5036 22.9907 14.2076L22.4307 15.2156C20.3507 14.3996 19.4066 12.4156 19.4066 10.4956V9.56757ZM24.4626 9.56757H25.4547V10.4956C25.4547 12.1916 24.4947 14.3356 22.4307 15.2156L21.8706 14.2076C23.5826 13.4236 24.4626 11.7436 24.4626 10.4956V9.56757ZM24.7346 9.56757H25.7586V10.4956C25.7586 11.9836 26.8307 13.4716 28.6707 14.0956L27.9987 15.0876C25.8867 14.3196 24.7346 12.4956 24.7346 10.4956V9.56757ZM16.2706 1.72757H23.0067V8.03159H16.2706V1.72757ZM21.7266 2.79956H17.5507V6.95956H21.7266V2.79956ZM26.0306 0.799561H27.3746V9.08759H26.0306V0.799561ZM31.9976 5.11957H41.8217V6.20758H31.9976V5.11957ZM30.2216 8.14359H43.3416V9.23157H30.2216V8.14359ZM31.9976 1.31158H33.3096V5.66357H31.9976V1.31158ZM31.9016 13.8076H41.9016V14.8956H31.9016V13.8076ZM31.9016 10.6716H33.2136V14.0956H31.9016V10.6716ZM51.1356 13.8396H61.0717V14.9276H51.1356V13.8396ZM51.1356 10.7836H52.4636V14.2236H51.1356V10.7836ZM49.4396 8.54358H62.5596V9.63156H49.4396V8.54358ZM55.3116 6.11157H56.6237V8.94357H55.3116V6.11157ZM55.2957 1.15158H56.4476V1.80759C56.4476 4.49559 53.7276 6.47958 50.8156 7.03958L50.2877 5.98358C52.8637 5.56758 55.2957 3.82359 55.2957 1.80759V1.15158ZM55.5037 1.15158H56.6396V1.80759C56.6396 3.82359 59.1036 5.56758 61.6476 5.98358L61.1196 7.03958C58.2396 6.46358 55.5037 4.49559 55.5037 1.80759V1.15158ZM64.1746 7.90356H77.2466V8.99158H64.1746V7.90356ZM70.0466 5.58359H71.3586V8.35156H70.0466V5.58359ZM65.8226 5.16757H75.7266V6.25558H65.8226V5.16757ZM65.8226 1.43958H75.6146V2.51157H67.1346V5.80759H65.8226V1.43958ZM70.6866 10.0316C73.7746 10.0316 75.6466 10.9756 75.6466 12.6236C75.6466 14.3036 73.7746 15.2316 70.6866 15.2316C67.5986 15.2316 65.7266 14.3036 65.7266 12.6236C65.7266 10.9756 67.5986 10.0316 70.6866 10.0316ZM70.6866 11.0556C68.4306 11.0556 67.0706 11.6316 67.0706 12.6236C67.0706 13.6316 68.4306 14.1916 70.6866 14.1916C72.9586 14.1916 74.3026 13.6316 74.3026 12.6236C74.3026 11.6316 72.9586 11.0556 70.6866 11.0556ZM82.4456 2.27158H83.5336V3.43958C83.5336 6.09558 81.9336 8.30357 79.5176 9.16757L78.8137 8.12756C81.0057 7.35956 82.4456 5.50358 82.4456 3.43958V2.27158ZM82.6856 2.27158H83.7736V3.42358C83.7736 5.34358 85.1656 7.11957 87.2936 7.83957L86.6057 8.87958C84.2217 8.04758 82.6856 5.91958 82.6856 3.42358V2.27158ZM79.2296 1.79156H86.9576V2.87958H79.2296V1.79156ZM88.7816 0.783569H90.1096V9.48758H88.7816V0.783569ZM89.7416 4.59158H92.2537V5.69559H89.7416V4.59158ZM80.7177 10.2556H90.1096V15.2476H88.7816V11.3596H80.7177V10.2556ZM104.109 0.767578H105.437V15.2636H104.109V0.767578ZM97.8046 1.88757C99.9486 1.88757 101.485 3.85558 101.485 6.92758C101.485 10.0156 99.9486 11.9836 97.8046 11.9836C95.6766 11.9836 94.1406 10.0156 94.1406 6.92758C94.1406 3.85558 95.6766 1.88757 97.8046 1.88757ZM97.8046 3.08759C96.3966 3.08759 95.4047 4.59158 95.4047 6.92758C95.4047 9.27958 96.3966 10.8156 97.8046 10.8156C99.2286 10.8156 100.205 9.27958 100.205 6.92758C100.205 4.59158 99.2286 3.08759 97.8046 3.08759ZM109.019 2.33557H110.331V10.8156H109.019V2.33557ZM109.019 10.4316H109.947C111.627 10.4316 113.195 10.3516 115.019 9.98358L115.195 11.1196C113.307 11.5036 111.691 11.5836 109.947 11.5836H109.019V10.4316ZM119.339 0.783569H120.619V15.2476H119.339V0.783569ZM113.035 5.63156H116.651V6.73557H113.035V5.63156ZM116.283 1.11957H117.531V14.5116H116.283V1.11957ZM126.25 8.22357H127.562V12.5596H126.25V8.22357ZM131.594 8.22357H132.922V12.5596H131.594V8.22357ZM123.05 12.3036H136.154V13.4076H123.05V12.3036ZM129.578 1.69559C132.634 1.69559 134.826 3.15158 134.826 5.42358C134.826 7.67958 132.634 9.13556 129.578 9.13556C126.506 9.13556 124.314 7.67958 124.314 5.42358C124.314 3.15158 126.506 1.69559 129.578 1.69559ZM129.578 2.75159C127.258 2.75159 125.594 3.80758 125.594 5.42358C125.594 7.02358 127.258 8.07956 129.578 8.07956C131.898 8.07956 133.546 7.02358 133.546 5.42358C133.546 3.80758 131.898 2.75159 129.578 2.75159ZM139.969 2.36359L139.855 10.7266H138.537L138.423 2.36359H139.969ZM139.196 14.0906C138.916 14.0906 138.675 13.9906 138.474 13.7896C138.274 13.5886 138.173 13.3476 138.173 13.0676C138.173 12.7876 138.274 12.5466 138.474 12.3466C138.675 12.1456 138.916 12.0446 139.196 12.0446C139.476 12.0446 139.717 12.1456 139.918 12.3466C140.118 12.5466 140.219 12.7876 140.219 13.0676C140.219 13.2536 140.171 13.4236 140.077 13.5796C139.986 13.7346 139.863 13.8596 139.707 13.9546C139.556 14.0446 139.385 14.0906 139.196 14.0906Z" fill="black"/>
</svg>
