<svg width="73" height="10" viewBox="0 0 73 10" fill="none" xmlns="http://www.w3.org/2000/svg">
<path d="M7.35559 0.303986V7H5.30359V6.08801C5.09559 6.38401 4.8116 6.62401 4.4516 6.80801C4.0996 6.98401 3.70757 7.07199 3.27557 7.07199C2.76357 7.07199 2.31156 6.95999 1.91956 6.73599C1.52756 6.50399 1.22357 6.17199 1.00757 5.73999C0.791568 5.30799 0.683594 4.8 0.683594 4.216V0.303986H2.72357V3.94C2.72357 4.388 2.83959 4.73601 3.07159 4.98401C3.30359 5.23201 3.61557 5.35599 4.00757 5.35599C4.40757 5.35599 4.72357 5.23201 4.95557 4.98401C5.18757 4.73601 5.30359 4.388 5.30359 3.94V0.303986H7.35559ZM11.5536 7.09601C10.9696 7.09601 10.4496 6.99599 9.99359 6.79599C9.53759 6.59599 9.17757 6.32401 8.91357 5.98001C8.64957 5.62801 8.50154 5.23599 8.46954 4.80399H10.4976C10.5216 5.03599 10.6296 5.22401 10.8216 5.36801C11.0136 5.51201 11.2496 5.58401 11.5296 5.58401C11.7856 5.58401 11.9816 5.536 12.1176 5.44C12.2616 5.336 12.3336 5.20401 12.3336 5.04401C12.3336 4.85201 12.2336 4.71199 12.0336 4.62399C11.8336 4.52799 11.5096 4.42401 11.0616 4.31201C10.5816 4.20001 10.1816 4.08399 9.86157 3.96399C9.54157 3.83599 9.26557 3.64001 9.03357 3.37601C8.80157 3.10401 8.68555 2.74 8.68555 2.284C8.68555 1.9 8.78956 1.55199 8.99756 1.23999C9.21356 0.91999 9.52559 0.668009 9.93359 0.484009C10.3496 0.300009 10.8415 0.208008 11.4095 0.208008C12.2495 0.208008 12.9096 0.416001 13.3896 0.832001C13.8776 1.248 14.1576 1.80001 14.2296 2.48801H12.3336C12.3016 2.25601 12.1975 2.072 12.0215 1.936C11.8535 1.8 11.6295 1.73199 11.3495 1.73199C11.1095 1.73199 10.9255 1.78001 10.7975 1.87601C10.6695 1.96401 10.6056 2.08799 10.6056 2.24799C10.6056 2.43999 10.7056 2.58399 10.9056 2.67999C11.1136 2.77599 11.4336 2.87199 11.8656 2.96799C12.3616 3.09599 12.7656 3.22399 13.0776 3.35199C13.3896 3.47199 13.6616 3.672 13.8936 3.952C14.1336 4.224 14.2576 4.592 14.2656 5.056C14.2656 5.448 14.1536 5.8 13.9296 6.112C13.7136 6.416 13.3976 6.656 12.9816 6.832C12.5736 7.008 12.0976 7.09601 11.5536 7.09601ZM21.8326 3.54401C21.8326 3.73601 21.8206 3.93601 21.7966 4.14401H17.1526C17.1846 4.56001 17.3166 4.88 17.5486 5.104C17.7886 5.32 18.0806 5.42801 18.4246 5.42801C18.9366 5.42801 19.2926 5.212 19.4926 4.78H21.6766C21.5646 5.22 21.3606 5.61599 21.0646 5.96799C20.7766 6.31999 20.4126 6.59599 19.9726 6.79599C19.5326 6.99599 19.0406 7.09601 18.4966 7.09601C17.8406 7.09601 17.2566 6.95599 16.7446 6.67599C16.2326 6.39599 15.8326 5.99601 15.5446 5.47601C15.2566 4.95601 15.1125 4.34801 15.1125 3.65201C15.1125 2.95601 15.2526 2.348 15.5326 1.828C15.8206 1.308 16.2205 0.907991 16.7325 0.627991C17.2445 0.347991 17.8326 0.208008 18.4966 0.208008C19.1446 0.208008 19.7205 0.343997 20.2245 0.615997C20.7285 0.887997 21.1206 1.276 21.4006 1.78C21.6886 2.284 21.8326 2.87201 21.8326 3.54401ZM19.7325 3.004C19.7325 2.652 19.6126 2.372 19.3726 2.164C19.1326 1.956 18.8326 1.85199 18.4726 1.85199C18.1286 1.85199 17.8366 1.95201 17.5966 2.15201C17.3646 2.35201 17.2206 2.636 17.1646 3.004H19.7325ZM24.9676 1.42001C25.2076 1.05201 25.5076 0.764 25.8676 0.556C26.2276 0.34 26.6276 0.231995 27.0676 0.231995V2.40399H26.5036C25.9916 2.40399 25.6076 2.51599 25.3516 2.73999C25.0956 2.95599 24.9676 3.34 24.9676 3.892V7H22.9156V0.303986H24.9676V1.42001ZM35.7646 7.492V9.45999H28.3246V7.492H35.7646ZM41.4916 0.231995C42.2756 0.231995 42.8996 0.488 43.3636 1C43.8356 1.504 44.0716 2.20001 44.0716 3.08801V7H42.0316V3.36401C42.0316 2.91601 41.9156 2.56801 41.6836 2.32001C41.4516 2.07201 41.1396 1.948 40.7476 1.948C40.3556 1.948 40.0436 2.07201 39.8116 2.32001C39.5796 2.56801 39.4636 2.91601 39.4636 3.36401V7H37.4116V0.303986H39.4636V1.19199C39.6716 0.895986 39.9516 0.664002 40.3036 0.496002C40.6556 0.320002 41.0516 0.231995 41.4916 0.231995ZM45.0896 3.64001C45.0896 2.95201 45.2176 2.348 45.4736 1.828C45.7376 1.308 46.0936 0.907991 46.5416 0.627991C46.9896 0.347991 47.4896 0.208008 48.0416 0.208008C48.5136 0.208008 48.9256 0.304002 49.2776 0.496002C49.6376 0.688002 49.9136 0.940014 50.1056 1.25201V0.303986H52.1576V7H50.1056V6.052C49.9056 6.364 49.6256 6.61601 49.2656 6.80801C48.9136 7.00001 48.5016 7.09601 48.0296 7.09601C47.4856 7.09601 46.9896 6.95599 46.5416 6.67599C46.0936 6.38799 45.7376 5.98399 45.4736 5.46399C45.2176 4.93599 45.0896 4.32801 45.0896 3.64001ZM50.1056 3.65201C50.1056 3.14001 49.9616 2.736 49.6736 2.44C49.3936 2.144 49.0496 1.996 48.6416 1.996C48.2336 1.996 47.8856 2.144 47.5976 2.44C47.3176 2.728 47.1776 3.12801 47.1776 3.64001C47.1776 4.15201 47.3176 4.56001 47.5976 4.86401C47.8856 5.16001 48.2336 5.30801 48.6416 5.30801C49.0496 5.30801 49.3936 5.16001 49.6736 4.86401C49.9616 4.56801 50.1056 4.16401 50.1056 3.65201ZM62.1855 0.231995C63.0175 0.231995 63.6776 0.484007 64.1656 0.988007C64.6616 1.49201 64.9095 2.19201 64.9095 3.08801V7H62.8696V3.36401C62.8696 2.93201 62.7535 2.60001 62.5215 2.36801C62.2975 2.12801 61.9856 2.008 61.5856 2.008C61.1856 2.008 60.8696 2.12801 60.6376 2.36801C60.4136 2.60001 60.3016 2.93201 60.3016 3.36401V7H58.2616V3.36401C58.2616 2.93201 58.1456 2.60001 57.9136 2.36801C57.6896 2.12801 57.3776 2.008 56.9776 2.008C56.5776 2.008 56.2616 2.12801 56.0296 2.36801C55.8056 2.60001 55.6935 2.93201 55.6935 3.36401V7H53.6416V0.303986H55.6935V1.14401C55.9015 0.864012 56.1736 0.644009 56.5096 0.484009C56.8456 0.316009 57.2256 0.231995 57.6496 0.231995C58.1536 0.231995 58.6016 0.34 58.9936 0.556C59.3936 0.772 59.7056 1.08001 59.9296 1.48001C60.1616 1.11201 60.4776 0.811987 60.8776 0.579987C61.2776 0.347987 61.7135 0.231995 62.1855 0.231995ZM72.6576 3.54401C72.6576 3.73601 72.6456 3.93601 72.6216 4.14401H67.9776C68.0096 4.56001 68.1416 4.88 68.3736 5.104C68.6136 5.32 68.9056 5.42801 69.2496 5.42801C69.7616 5.42801 70.1176 5.212 70.3176 4.78H72.5016C72.3896 5.22 72.1856 5.61599 71.8896 5.96799C71.6016 6.31999 71.2375 6.59599 70.7975 6.79599C70.3575 6.99599 69.8656 7.09601 69.3216 7.09601C68.6656 7.09601 68.0816 6.95599 67.5696 6.67599C67.0576 6.39599 66.6576 5.99601 66.3696 5.47601C66.0816 4.95601 65.9376 4.34801 65.9376 3.65201C65.9376 2.95601 66.0775 2.348 66.3575 1.828C66.6455 1.308 67.0456 0.907991 67.5576 0.627991C68.0696 0.347991 68.6576 0.208008 69.3216 0.208008C69.9696 0.208008 70.5456 0.343997 71.0496 0.615997C71.5536 0.887997 71.9456 1.276 72.2256 1.78C72.5136 2.284 72.6576 2.87201 72.6576 3.54401ZM70.5576 3.004C70.5576 2.652 70.4376 2.372 70.1976 2.164C69.9576 1.956 69.6575 1.85199 69.2975 1.85199C68.9535 1.85199 68.6616 1.95201 68.4216 2.15201C68.1896 2.35201 68.0456 2.636 67.9896 3.004H70.5576Z" fill="white"/>
</svg>
