<svg width="39" height="10" viewBox="0 0 39 10" fill="none" xmlns="http://www.w3.org/2000/svg">
<path d="M0.339844 5.64014C0.339844 4.95214 0.459849 4.34812 0.719849 3.82812C0.979849 3.30813 1.33992 2.90811 1.78992 2.62811C2.23992 2.34811 2.73992 2.20813 3.28992 2.20813C3.72992 2.20813 4.12987 2.30013 4.48987 2.48413C4.85987 2.66813 5.13985 2.91612 5.34985 3.22812V0.120117H7.3999V9.00012H5.34985V8.04013C5.15985 8.36013 4.8799 8.61614 4.5199 8.80814C4.1699 9.00014 3.75992 9.09613 3.28992 9.09613C2.73992 9.09613 2.23992 8.95612 1.78992 8.67612C1.33992 8.38812 0.979849 7.98411 0.719849 7.46411C0.459849 6.93611 0.339844 6.32814 0.339844 5.64014ZM5.34985 5.65213C5.34985 5.14013 5.20992 4.73612 4.91992 4.44012C4.63992 4.14412 4.29989 3.99612 3.88989 3.99612C3.47989 3.99612 3.12984 4.14412 2.83984 4.44012C2.55984 4.72812 2.41992 5.12814 2.41992 5.64014C2.41992 6.15214 2.55984 6.56014 2.83984 6.86414C3.12984 7.16014 3.47989 7.30814 3.88989 7.30814C4.29989 7.30814 4.63992 7.16014 4.91992 6.86414C5.20992 6.56814 5.34985 6.16413 5.34985 5.65213ZM15.1998 5.54413C15.1998 5.73613 15.1899 5.93613 15.1599 6.14413H10.5199C10.5499 6.56013 10.6799 6.88013 10.9199 7.10413C11.1599 7.32013 11.4499 7.42813 11.7899 7.42813C12.2999 7.42813 12.6599 7.21212 12.8599 6.78012H15.0399C14.9299 7.22012 14.7299 7.61611 14.4299 7.96811C14.1399 8.32011 13.7798 8.59611 13.3398 8.79611C12.8998 8.99611 12.4099 9.09613 11.8599 9.09613C11.2099 9.09613 10.6199 8.95612 10.1099 8.67612C9.59986 8.39612 9.19991 7.99614 8.90991 7.47614C8.61991 6.95614 8.47986 6.34813 8.47986 5.65213C8.47986 4.95613 8.6199 4.34812 8.8999 3.82812C9.1899 3.30813 9.58985 2.90811 10.0999 2.62811C10.6099 2.34811 11.1999 2.20813 11.8599 2.20813C12.5099 2.20813 13.0898 2.34412 13.5898 2.61612C14.0998 2.88812 14.4899 3.27612 14.7699 3.78012C15.0599 4.28412 15.1998 4.87213 15.1998 5.54413ZM13.0999 5.00412C13.0999 4.65212 12.9799 4.37212 12.7399 4.16412C12.4999 3.95612 12.1998 3.85211 11.8398 3.85211C11.4998 3.85211 11.1998 3.95213 10.9598 4.15213C10.7298 4.35213 10.5899 4.63612 10.5299 5.00412H13.0999ZM18.3398 0.120117V9.00012H16.2799V0.120117H18.3398ZM26.1299 5.54413C26.1299 5.73613 26.1199 5.93613 26.0999 6.14413H21.4498C21.4898 6.56013 21.6199 6.88013 21.8499 7.10413C22.0899 7.32013 22.3799 7.42813 22.7299 7.42813C23.2399 7.42813 23.5899 7.21212 23.7899 6.78012H25.9799C25.8699 7.22012 25.6599 7.61611 25.3699 7.96811C25.0799 8.32011 24.7099 8.59611 24.2699 8.79611C23.8299 8.99611 23.3399 9.09613 22.7999 9.09613C22.1399 9.09613 21.5599 8.95612 21.0499 8.67612C20.5299 8.39612 20.1299 7.99614 19.8499 7.47614C19.5599 6.95614 19.4099 6.34813 19.4099 5.65213C19.4099 4.95613 19.5498 4.34812 19.8298 3.82812C20.1198 3.30813 20.5199 2.90811 21.0299 2.62811C21.5499 2.34811 22.1299 2.20813 22.7999 2.20813C23.4499 2.20813 24.0199 2.34412 24.5299 2.61612C25.0299 2.88812 25.4198 3.27612 25.6998 3.78012C25.9898 4.28412 26.1299 4.87213 26.1299 5.54413ZM24.0299 5.00412C24.0299 4.65212 23.9099 4.37212 23.6699 4.16412C23.4299 3.95612 23.1299 3.85211 22.7699 3.85211C22.4299 3.85211 22.1399 3.95213 21.8999 4.15213C21.6699 4.35213 21.5198 4.63612 21.4698 5.00412H24.0299ZM30.9498 7.26013V9.00012H29.8999C29.1599 9.00012 28.5799 8.82011 28.1599 8.46011C27.7499 8.09211 27.5399 7.49612 27.5399 6.67212V4.00812H26.7198V2.30411H27.5399V0.672119H29.5898V2.30411H30.9398V4.00812H29.5898V6.69614C29.5898 6.89614 29.6399 7.04011 29.7399 7.12811C29.8299 7.21611 29.9898 7.26013 30.2198 7.26013H30.9498ZM38.3999 5.54413C38.3999 5.73613 38.3899 5.93613 38.3699 6.14413H33.7198C33.7598 6.56013 33.8899 6.88013 34.1199 7.10413C34.3599 7.32013 34.6499 7.42813 34.9999 7.42813C35.5099 7.42813 35.8599 7.21212 36.0599 6.78012H38.2499C38.1399 7.22012 37.9299 7.61611 37.6399 7.96811C37.3499 8.32011 36.9799 8.59611 36.5399 8.79611C36.0999 8.99611 35.6098 9.09613 35.0698 9.09613C34.4098 9.09613 33.8298 8.95612 33.3198 8.67612C32.7998 8.39612 32.3999 7.99614 32.1199 7.47614C31.8299 6.95614 31.6799 6.34813 31.6799 5.65213C31.6799 4.95613 31.8199 4.34812 32.0999 3.82812C32.3899 3.30813 32.7899 2.90811 33.2999 2.62811C33.8199 2.34811 34.3998 2.20813 35.0698 2.20813C35.7198 2.20813 36.2899 2.34412 36.7999 2.61612C37.2999 2.88812 37.6898 3.27612 37.9698 3.78012C38.2598 4.28412 38.3999 4.87213 38.3999 5.54413ZM36.2999 5.00412C36.2999 4.65212 36.1798 4.37212 35.9398 4.16412C35.6998 3.95612 35.3999 3.85211 35.0399 3.85211C34.6999 3.85211 34.4099 3.95213 34.1699 4.15213C33.9399 4.35213 33.7899 4.63612 33.7399 5.00412H36.2999Z" fill="white"/>
</svg>
