<svg width="24" height="10" viewBox="0 0 24 10" fill="none" xmlns="http://www.w3.org/2000/svg">
<path d="M4.02142 9.08405C3.40542 9.08405 2.85342 8.98406 2.36542 8.78406C1.87742 8.58406 1.48545 8.28806 1.18945 7.89606C0.901453 7.50406 0.749398 7.03204 0.733398 6.48004H2.91742C2.94942 6.79204 3.05746 7.03207 3.24146 7.20007C3.42546 7.36007 3.66543 7.44006 3.96143 7.44006C4.26543 7.44006 4.50546 7.37208 4.68146 7.23608C4.85746 7.09208 4.94543 6.89607 4.94543 6.64807C4.94543 6.44007 4.87343 6.26808 4.72943 6.13208C4.59343 5.99608 4.42144 5.88408 4.21344 5.79608C4.01344 5.70808 3.72543 5.60803 3.34943 5.49603C2.80543 5.32803 2.36146 5.16007 2.01746 4.99207C1.67346 4.82407 1.37746 4.57605 1.12946 4.24805C0.881456 3.92005 0.757446 3.49205 0.757446 2.96405C0.757446 2.18005 1.04144 1.56805 1.60944 1.12805C2.17744 0.680052 2.91741 0.456055 3.82941 0.456055C4.75741 0.456055 5.50543 0.680052 6.07343 1.12805C6.64143 1.56805 6.94541 2.18407 6.98541 2.97607H4.76544C4.74944 2.70407 4.64945 2.49209 4.46545 2.34009C4.28145 2.18009 4.04545 2.10004 3.75745 2.10004C3.50945 2.10004 3.30941 2.16808 3.15741 2.30408C3.00541 2.43208 2.92944 2.62004 2.92944 2.86804C2.92944 3.14004 3.05742 3.35209 3.31342 3.50409C3.56942 3.65609 3.96943 3.82003 4.51343 3.99603C5.05743 4.18003 5.49744 4.35605 5.83344 4.52405C6.17744 4.69205 6.47344 4.93604 6.72144 5.25604C6.96944 5.57604 7.09344 5.98807 7.09344 6.49207C7.09344 6.97207 6.96944 7.40805 6.72144 7.80005C6.48144 8.19205 6.12941 8.50408 5.66541 8.73608C5.20141 8.96808 4.65342 9.08405 4.02142 9.08405ZM15.6514 0.57605V9.00006H13.5994V5.53204H10.4074V9.00006H8.35541V0.57605H10.4074V3.87604H13.5994V0.57605H15.6514ZM20.1815 9.08405C19.5655 9.08405 19.0135 8.98406 18.5255 8.78406C18.0375 8.58406 17.6454 8.28806 17.3494 7.89606C17.0614 7.50406 16.9094 7.03204 16.8934 6.48004H19.0775C19.1095 6.79204 19.2174 7.03207 19.4014 7.20007C19.5854 7.36007 19.8254 7.44006 20.1214 7.44006C20.4254 7.44006 20.6654 7.37208 20.8414 7.23608C21.0174 7.09208 21.1054 6.89607 21.1054 6.64807C21.1054 6.44007 21.0334 6.26808 20.8894 6.13208C20.7534 5.99608 20.5814 5.88408 20.3734 5.79608C20.1734 5.70808 19.8854 5.60803 19.5094 5.49603C18.9654 5.32803 18.5214 5.16007 18.1774 4.99207C17.8334 4.82407 17.5374 4.57605 17.2894 4.24805C17.0414 3.92005 16.9174 3.49205 16.9174 2.96405C16.9174 2.18005 17.2014 1.56805 17.7694 1.12805C18.3374 0.680052 19.0774 0.456055 19.9894 0.456055C20.9174 0.456055 21.6654 0.680052 22.2334 1.12805C22.8014 1.56805 23.1054 2.18407 23.1454 2.97607H20.9254C20.9094 2.70407 20.8094 2.49209 20.6254 2.34009C20.4414 2.18009 20.2054 2.10004 19.9174 2.10004C19.6694 2.10004 19.4694 2.16808 19.3174 2.30408C19.1654 2.43208 19.0894 2.62004 19.0894 2.86804C19.0894 3.14004 19.2174 3.35209 19.4734 3.50409C19.7294 3.65609 20.1294 3.82003 20.6734 3.99603C21.2174 4.18003 21.6574 4.35605 21.9934 4.52405C22.3374 4.69205 22.6334 4.93604 22.8814 5.25604C23.1294 5.57604 23.2534 5.98807 23.2534 6.49207C23.2534 6.97207 23.1294 7.40805 22.8814 7.80005C22.6414 8.19205 22.2894 8.50408 21.8254 8.73608C21.3614 8.96808 20.8135 9.08405 20.1815 9.08405Z" fill="white"/>
</svg>
