<svg width="58" height="13" viewBox="0 0 58 13" fill="none" xmlns="http://www.w3.org/2000/svg">
<path d="M8.53195 0.956085H10.0559V12.0681H8.53195V0.956085ZM4.12793 5.21609H6.50394V6.4761H4.12793V5.21609ZM6.19193 1.19611H7.67993V11.5761H6.19193V1.19611ZM3.76794 2.2641H5.30392C5.30392 5.4321 4.35593 7.9521 1.23593 9.7641L0.335938 8.6481C2.86794 7.1241 3.76794 5.2761 3.76794 2.5881V2.2641ZM0.95993 2.2641H4.27194V3.5361H0.95993V2.2641ZM14.2309 1.80811H15.5269V3.4281C15.5269 6.2841 14.5429 8.86409 12.3349 9.88409L11.3869 8.56409C13.3189 7.72409 14.2309 5.5881 14.2309 3.4281V1.80811ZM14.5429 1.80811H15.8389V3.4281C15.8389 5.4801 16.715 7.52009 18.611 8.33609L17.6749 9.62009C15.5269 8.63609 14.5429 6.1641 14.5429 3.4281V1.80811ZM19.1389 0.944092H20.7469V12.0921H19.1389V0.944092ZM23.7939 1.40009H30.838V2.6601H23.7939V1.40009ZM22.5699 4.8681H32.6259V6.12808H22.5699V4.8681ZM29.8779 1.40009H31.45V2.1561C31.45 2.9481 31.4499 3.95608 31.1619 5.24008L29.59 5.0961C29.878 3.8361 29.8779 2.9361 29.8779 2.1561V1.40009ZM23.6859 6.88409H31.4139V10.0161H25.2939V11.1441H23.6979V8.84009H29.83V8.12009H23.6859V6.88409ZM23.6979 10.7601H31.702V11.9961H23.6979V10.7601ZM41.3959 3.90808H44.252V5.18008H41.3959V3.90808ZM43.8439 0.968079H45.4399V9.16409H43.8439V0.968079ZM38.0839 10.6041H45.6799V11.8761H38.0839V10.6041ZM38.0839 8.36008H39.692V11.3361H38.0839V8.36008ZM36.6079 1.68808H38.192V3.3801H40.304V1.68808H41.864V7.4241H36.6079V1.68808ZM38.192 4.5921V6.16409H40.304V4.5921H38.192ZM47.611 2.33609H56.7789V3.60809H47.611V2.33609ZM47.1909 9.66809H57.2469V10.9521H47.1909V9.66809ZM51.403 8.2041H52.9869V10.1721H51.403V8.2041ZM52.1829 4.0881C54.4989 4.0881 55.9509 4.8921 55.9509 6.2601C55.9509 7.6281 54.4989 8.4321 52.1829 8.4321C49.8669 8.4321 48.4149 7.6281 48.4149 6.2601C48.4149 4.8921 49.8669 4.0881 52.1829 4.0881ZM52.1829 5.3241C50.7909 5.3241 50.0469 5.6241 50.0469 6.2601C50.0469 6.8961 50.7909 7.18408 52.1829 7.18408C53.5749 7.18408 54.3189 6.8961 54.3189 6.2601C54.3189 5.6241 53.5749 5.3241 52.1829 5.3241ZM51.403 1.07608H52.9869V3.12808H51.403V1.07608Z" fill="white"/>
</svg>
