<svg width="65" height="15" viewBox="0 0 65 15" fill="none" xmlns="http://www.w3.org/2000/svg">
<path d="M0.612305 11.1238C1.6283 10.3078 2.42431 9.63981 3.00031 9.11981C3.57631 8.59181 4.06033 8.04383 4.45233 7.47583C4.85233 6.89983 5.05231 6.33581 5.05231 5.78381C5.05231 5.26381 4.92433 4.85581 4.66833 4.55981C4.42033 4.25581 4.0163 4.10382 3.4563 4.10382C2.9123 4.10382 2.48833 4.27581 2.18433 4.61981C1.88833 4.95581 1.72828 5.40783 1.70428 5.97583H0.648315C0.680315 5.07983 0.952294 4.38784 1.46429 3.89984C1.97629 3.41184 2.63627 3.16785 3.44427 3.16785C4.26827 3.16785 4.92033 3.39581 5.40033 3.85181C5.88833 4.30781 6.13232 4.93584 6.13232 5.73584C6.13232 6.39984 5.93229 7.04781 5.53229 7.67981C5.14029 8.30381 4.69229 8.85582 4.18829 9.33582C3.68429 9.80782 3.04029 10.3598 2.25629 10.9918H6.38428V11.9038H0.612305V11.1238ZM7.51428 11.1238C8.53028 10.3078 9.32628 9.63981 9.90228 9.11981C10.4783 8.59181 10.9623 8.04383 11.3543 7.47583C11.7543 6.89983 11.9543 6.33581 11.9543 5.78381C11.9543 5.26381 11.8263 4.85581 11.5703 4.55981C11.3223 4.25581 10.9183 4.10382 10.3583 4.10382C9.81428 4.10382 9.3903 4.27581 9.0863 4.61981C8.7903 4.95581 8.63032 5.40783 8.60632 5.97583H7.55029C7.58229 5.07983 7.85433 4.38784 8.36633 3.89984C8.87833 3.41184 9.53831 3.16785 10.3463 3.16785C11.1703 3.16785 11.8223 3.39581 12.3023 3.85181C12.7903 4.30781 13.0343 4.93584 13.0343 5.73584C13.0343 6.39984 12.8343 7.04781 12.4343 7.67981C12.0423 8.30381 11.5943 8.85582 11.0903 9.33582C10.5863 9.80782 9.94233 10.3598 9.15833 10.9918H13.2863V11.9038H7.51428V11.1238ZM18.8093 0.695801L15.5213 14.0398H14.4413L17.7173 0.695801H18.8093ZM20.2563 7.57184C20.2563 6.19584 20.4803 5.12383 20.9283 4.35583C21.3763 3.57983 22.1603 3.19183 23.2803 3.19183C24.3923 3.19183 25.1723 3.57983 25.6203 4.35583C26.0683 5.12383 26.2923 6.19584 26.2923 7.57184C26.2923 8.97184 26.0683 10.0598 25.6203 10.8358C25.1723 11.6118 24.3923 11.9998 23.2803 11.9998C22.1603 11.9998 21.3763 11.6118 20.9283 10.8358C20.4803 10.0598 20.2563 8.97184 20.2563 7.57184ZM25.2123 7.57184C25.2123 6.87584 25.1643 6.2878 25.0683 5.8078C24.9803 5.3198 24.7923 4.92784 24.5043 4.63184C24.2243 4.33584 23.8163 4.18781 23.2803 4.18781C22.7363 4.18781 22.3203 4.33584 22.0323 4.63184C21.7523 4.92784 21.5643 5.3198 21.4683 5.8078C21.3803 6.2878 21.3363 6.87584 21.3363 7.57184C21.3363 8.29184 21.3803 8.89579 21.4683 9.38379C21.5643 9.87179 21.7523 10.2638 22.0323 10.5598C22.3203 10.8558 22.7363 11.0038 23.2803 11.0038C23.8163 11.0038 24.2243 10.8558 24.5043 10.5598C24.7923 10.2638 24.9803 9.87179 25.0683 9.38379C25.1643 8.89579 25.2123 8.29184 25.2123 7.57184ZM27.7673 5.50781C27.8233 4.77181 28.1073 4.19585 28.6193 3.77985C29.1313 3.36385 29.7953 3.15582 30.6113 3.15582C31.1553 3.15582 31.6233 3.25581 32.0153 3.45581C32.4153 3.64781 32.7153 3.9118 32.9153 4.2478C33.1233 4.5838 33.2273 4.96382 33.2273 5.38782C33.2273 5.88382 33.0833 6.31181 32.7953 6.67181C32.5153 7.03181 32.1473 7.2638 31.6913 7.3678V7.4278C32.2113 7.5558 32.6233 7.80784 32.9273 8.18384C33.2313 8.55984 33.3833 9.05179 33.3833 9.65979C33.3833 10.1158 33.2793 10.5278 33.0713 10.8958C32.8633 11.2558 32.5513 11.5398 32.1353 11.7478C31.7193 11.9558 31.2193 12.0598 30.6353 12.0598C29.7873 12.0598 29.0913 11.8398 28.5473 11.3998C28.0033 10.9518 27.6993 10.3198 27.6353 9.50385H28.6913C28.7473 9.98385 28.9433 10.3758 29.2793 10.6798C29.6153 10.9838 30.0633 11.1358 30.6233 11.1358C31.1833 11.1358 31.6073 10.9918 31.8953 10.7038C32.1913 10.4078 32.3393 10.0278 32.3393 9.56384C32.3393 8.96384 32.1393 8.53182 31.7393 8.26782C31.3393 8.00382 30.7353 7.87183 29.9273 7.87183H29.6513V6.95984H29.9393C30.6753 6.95184 31.2313 6.83179 31.6073 6.59979C31.9833 6.35979 32.1713 5.99179 32.1713 5.49579C32.1713 5.07179 32.0313 4.73183 31.7513 4.47583C31.4793 4.21983 31.0873 4.0918 30.5753 4.0918C30.0793 4.0918 29.6793 4.21983 29.3753 4.47583C29.0713 4.73183 28.8913 5.07581 28.8353 5.50781H27.7673ZM39.1173 0.695801L35.8293 14.0398H34.7493L38.0253 0.695801H39.1173ZM40.4323 11.1238C41.4483 10.3078 42.2443 9.63981 42.8203 9.11981C43.3963 8.59181 43.8803 8.04383 44.2723 7.47583C44.6723 6.89983 44.8723 6.33581 44.8723 5.78381C44.8723 5.26381 44.7443 4.85581 44.4883 4.55981C44.2403 4.25581 43.8363 4.10382 43.2763 4.10382C42.7323 4.10382 42.3083 4.27581 42.0043 4.61981C41.7083 4.95581 41.5483 5.40783 41.5243 5.97583H40.4683C40.5003 5.07983 40.7723 4.38784 41.2843 3.89984C41.7963 3.41184 42.4563 3.16785 43.2643 3.16785C44.0883 3.16785 44.7403 3.39581 45.2203 3.85181C45.7083 4.30781 45.9523 4.93584 45.9523 5.73584C45.9523 6.39984 45.7523 7.04781 45.3523 7.67981C44.9603 8.30381 44.5123 8.85582 44.0083 9.33582C43.5043 9.80782 42.8603 10.3598 42.0763 10.9918H46.2043V11.9038H40.4323V11.1238ZM47.4673 7.57184C47.4673 6.19584 47.6913 5.12383 48.1393 4.35583C48.5873 3.57983 49.3713 3.19183 50.4913 3.19183C51.6033 3.19183 52.3833 3.57983 52.8313 4.35583C53.2793 5.12383 53.5033 6.19584 53.5033 7.57184C53.5033 8.97184 53.2793 10.0598 52.8313 10.8358C52.3833 11.6118 51.6033 11.9998 50.4913 11.9998C49.3713 11.9998 48.5873 11.6118 48.1393 10.8358C47.6913 10.0598 47.4673 8.97184 47.4673 7.57184ZM52.4233 7.57184C52.4233 6.87584 52.3753 6.2878 52.2793 5.8078C52.1913 5.3198 52.0033 4.92784 51.7153 4.63184C51.4353 4.33584 51.0273 4.18781 50.4913 4.18781C49.9473 4.18781 49.5313 4.33584 49.2433 4.63184C48.9633 4.92784 48.7753 5.3198 48.6793 5.8078C48.5913 6.2878 48.5473 6.87584 48.5473 7.57184C48.5473 8.29184 48.5913 8.89579 48.6793 9.38379C48.7753 9.87179 48.9633 10.2638 49.2433 10.5598C49.5313 10.8558 49.9473 11.0038 50.4913 11.0038C51.0273 11.0038 51.4353 10.8558 51.7153 10.5598C52.0033 10.2638 52.1913 9.87179 52.2793 9.38379C52.3753 8.89579 52.4233 8.29184 52.4233 7.57184ZM54.7143 4.31982V3.32379H56.9703V11.9998H55.8663V4.31982H54.7143ZM60.2503 9.67181C60.3303 10.1278 60.5143 10.4798 60.8023 10.7278C61.0983 10.9758 61.4943 11.0998 61.9903 11.0998C62.6543 11.0998 63.1423 10.8398 63.4543 10.3198C63.7743 9.79982 63.9263 8.92383 63.9103 7.69183C63.7423 8.05183 63.4623 8.33582 63.0703 8.54382C62.6783 8.74382 62.2423 8.84381 61.7623 8.84381C61.2263 8.84381 60.7463 8.73584 60.3223 8.51984C59.9063 8.29584 59.5783 7.97179 59.3383 7.54779C59.0983 7.12379 58.9783 6.61184 58.9783 6.01184C58.9783 5.15584 59.2263 4.46781 59.7223 3.94781C60.2183 3.41981 60.9223 3.15582 61.8343 3.15582C62.9543 3.15582 63.7383 3.5198 64.1863 4.2478C64.6423 4.9758 64.8703 6.05982 64.8703 7.49982C64.8703 8.50782 64.7783 9.33979 64.5943 9.99579C64.4183 10.6518 64.1143 11.1518 63.6823 11.4958C63.2583 11.8398 62.6743 12.0118 61.9303 12.0118C61.1143 12.0118 60.4783 11.7918 60.0223 11.3518C59.5663 10.9118 59.3063 10.3518 59.2423 9.67181H60.2503ZM61.9423 7.9198C62.4783 7.9198 62.9183 7.7558 63.2623 7.4278C63.6063 7.0918 63.7783 6.63984 63.7783 6.07184C63.7783 5.47184 63.6103 4.98781 63.2743 4.61981C62.9383 4.25181 62.4663 4.06781 61.8583 4.06781C61.2983 4.06781 60.8503 4.24383 60.5143 4.59583C60.1863 4.94783 60.0223 5.41179 60.0223 5.98779C60.0223 6.57179 60.1863 7.03985 60.5143 7.39185C60.8423 7.74385 61.3183 7.9198 61.9423 7.9198Z" fill="white"/>
</svg>
