<svg width="63" height="15" viewBox="0 0 63 15" fill="none" xmlns="http://www.w3.org/2000/svg">
<path d="M0.744141 7.57208C0.744141 6.19608 0.968138 5.12408 1.41614 4.35608C1.86414 3.58008 2.64813 3.19208 3.76813 3.19208C4.88013 3.19208 5.66009 3.58008 6.10809 4.35608C6.55609 5.12408 6.78015 6.19608 6.78015 7.57208C6.78015 8.97208 6.55609 10.0601 6.10809 10.8361C5.66009 11.6121 4.88013 12.0001 3.76813 12.0001C2.64813 12.0001 1.86414 11.6121 1.41614 10.8361C0.968138 10.0601 0.744141 8.97208 0.744141 7.57208ZM5.70013 7.57208C5.70013 6.87608 5.65215 6.28804 5.55615 5.80804C5.46815 5.32004 5.28013 4.92808 4.99213 4.63208C4.71213 4.33608 4.30413 4.18805 3.76813 4.18805C3.22413 4.18805 2.80814 4.33608 2.52014 4.63208C2.24014 4.92808 2.05212 5.32004 1.95612 5.80804C1.86812 6.28804 1.8241 6.87608 1.8241 7.57208C1.8241 8.29208 1.86812 8.89603 1.95612 9.38403C2.05212 9.87203 2.24014 10.2641 2.52014 10.5601C2.80814 10.8561 3.22413 11.0041 3.76813 11.0041C4.30413 11.0041 4.71213 10.8561 4.99213 10.5601C5.28013 10.2641 5.46815 9.87203 5.55615 9.38403C5.65215 8.89603 5.70013 8.29208 5.70013 7.57208ZM7.99115 4.32007V3.32404H10.2471V12.0001H9.14313V4.32007H7.99115ZM16.3831 0.696045L13.0951 14.04H12.0151L15.2911 0.696045H16.3831ZM17.8301 7.57208C17.8301 6.19608 18.0541 5.12408 18.5021 4.35608C18.9501 3.58008 19.7341 3.19208 20.8541 3.19208C21.9661 3.19208 22.7461 3.58008 23.1941 4.35608C23.6421 5.12408 23.8661 6.19608 23.8661 7.57208C23.8661 8.97208 23.6421 10.0601 23.1941 10.8361C22.7461 11.6121 21.9661 12.0001 20.8541 12.0001C19.7341 12.0001 18.9501 11.6121 18.5021 10.8361C18.0541 10.0601 17.8301 8.97208 17.8301 7.57208ZM22.7861 7.57208C22.7861 6.87608 22.7382 6.28804 22.6422 5.80804C22.5542 5.32004 22.3661 4.92808 22.0781 4.63208C21.7981 4.33608 21.3901 4.18805 20.8541 4.18805C20.3101 4.18805 19.8941 4.33608 19.6061 4.63208C19.3261 4.92808 19.1381 5.32004 19.0421 5.80804C18.9541 6.28804 18.9101 6.87608 18.9101 7.57208C18.9101 8.29208 18.9541 8.89603 19.0421 9.38403C19.1381 9.87203 19.3261 10.2641 19.6061 10.5601C19.8941 10.8561 20.3101 11.0041 20.8541 11.0041C21.3901 11.0041 21.7981 10.8561 22.0781 10.5601C22.3661 10.2641 22.5542 9.87203 22.6422 9.38403C22.7382 8.89603 22.7861 8.29208 22.7861 7.57208ZM25.0771 4.32007V3.32404H27.3331V12.0001H26.2291V4.32007H25.0771ZM33.4691 0.696045L30.1812 14.04H29.1011L32.3771 0.696045H33.4691ZM34.7841 11.1241C35.8001 10.3081 36.5961 9.64006 37.1721 9.12006C37.7481 8.59206 38.2321 8.04407 38.6241 7.47607C39.0241 6.90007 39.2241 6.33606 39.2241 5.78406C39.2241 5.26406 39.0961 4.85606 38.8401 4.56006C38.5921 4.25606 38.1881 4.10406 37.6281 4.10406C37.0841 4.10406 36.6601 4.27606 36.3561 4.62006C36.0601 4.95606 35.9001 5.40807 35.8761 5.97607H34.8201C34.8521 5.08007 35.1241 4.38809 35.6361 3.90009C36.1481 3.41209 36.8081 3.16809 37.6161 3.16809C38.4401 3.16809 39.0921 3.39605 39.5721 3.85205C40.0601 4.30805 40.3041 4.93608 40.3041 5.73608C40.3041 6.40008 40.1041 7.04805 39.7041 7.68005C39.3121 8.30405 38.8641 8.85606 38.3601 9.33606C37.8561 9.80806 37.2121 10.3601 36.4281 10.9921H40.5562V11.9041H34.7841V11.1241ZM41.8181 7.57208C41.8181 6.19608 42.0421 5.12408 42.4901 4.35608C42.9381 3.58008 43.7221 3.19208 44.8421 3.19208C45.9541 3.19208 46.7341 3.58008 47.1821 4.35608C47.6301 5.12408 47.8541 6.19608 47.8541 7.57208C47.8541 8.97208 47.6301 10.0601 47.1821 10.8361C46.7341 11.6121 45.9541 12.0001 44.8421 12.0001C43.7221 12.0001 42.9381 11.6121 42.4901 10.8361C42.0421 10.0601 41.8181 8.97208 41.8181 7.57208ZM46.7741 7.57208C46.7741 6.87608 46.7261 6.28804 46.6301 5.80804C46.5421 5.32004 46.3541 4.92808 46.0661 4.63208C45.7861 4.33608 45.3781 4.18805 44.8421 4.18805C44.2981 4.18805 43.8821 4.33608 43.5941 4.63208C43.3141 4.92808 43.1262 5.32004 43.0302 5.80804C42.9422 6.28804 42.8981 6.87608 42.8981 7.57208C42.8981 8.29208 42.9422 8.89603 43.0302 9.38403C43.1262 9.87203 43.3141 10.2641 43.5941 10.5601C43.8821 10.8561 44.2981 11.0041 44.8421 11.0041C45.3781 11.0041 45.7861 10.8561 46.0661 10.5601C46.3541 10.2641 46.5421 9.87203 46.6301 9.38403C46.7261 8.89603 46.7741 8.29208 46.7741 7.57208ZM49.2211 11.1241C50.2371 10.3081 51.0331 9.64006 51.6091 9.12006C52.1851 8.59206 52.6691 8.04407 53.0611 7.47607C53.4611 6.90007 53.6611 6.33606 53.6611 5.78406C53.6611 5.26406 53.5331 4.85606 53.2771 4.56006C53.0291 4.25606 52.6251 4.10406 52.0651 4.10406C51.5211 4.10406 51.0972 4.27606 50.7932 4.62006C50.4972 4.95606 50.3371 5.40807 50.3131 5.97607H49.2571C49.2891 5.08007 49.5611 4.38809 50.0731 3.90009C50.5851 3.41209 51.2451 3.16809 52.0531 3.16809C52.8771 3.16809 53.5291 3.39605 54.0091 3.85205C54.4971 4.30805 54.7411 4.93608 54.7411 5.73608C54.7411 6.40008 54.5411 7.04805 54.1411 7.68005C53.7491 8.30405 53.3011 8.85606 52.7971 9.33606C52.2931 9.80806 51.6491 10.3601 50.8651 10.9921H54.9931V11.9041H49.2211V11.1241ZM55.9921 10.0681V9.24005L60.2041 3.40808H61.5121V9.12006H62.7121V10.0681H61.5121V12.0001H60.4321V10.0681H55.9921ZM60.4801 4.54803L57.2521 9.12006H60.4801V4.54803Z" fill="white"/>
</svg>
