<svg width="34" height="10" viewBox="0 0 34 10" fill="none" xmlns="http://www.w3.org/2000/svg">
<path d="M6.35016 3.24005C6.19816 2.96005 5.97819 2.74806 5.69019 2.60406C5.41019 2.45206 5.07815 2.37604 4.69415 2.37604C4.03015 2.37604 3.49821 2.59607 3.09821 3.03607C2.69821 3.46807 2.49817 4.04806 2.49817 4.77606C2.49817 5.55206 2.70619 6.16004 3.12219 6.60004C3.54619 7.03204 4.12618 7.24805 4.86218 7.24805C5.36618 7.24805 5.79016 7.12007 6.13416 6.86407C6.48616 6.60807 6.74216 6.24007 6.90216 5.76007H4.29816V4.24805H8.76221V6.15607C8.61021 6.66807 8.35018 7.14405 7.98218 7.58405C7.62218 8.02405 7.16217 8.38004 6.60217 8.65204C6.04217 8.92404 5.41018 9.06006 4.70618 9.06006C3.87418 9.06006 3.13018 8.88008 2.47418 8.52008C1.82618 8.15208 1.3182 7.64403 0.950195 6.99603C0.590195 6.34803 0.410156 5.60806 0.410156 4.77606C0.410156 3.94406 0.590195 3.20409 0.950195 2.55609C1.3182 1.90009 1.82618 1.39204 2.47418 1.03204C3.12218 0.664043 3.86215 0.480042 4.69415 0.480042C5.70215 0.480042 6.55016 0.724036 7.23816 1.21204C7.93416 1.70004 8.39416 2.37605 8.61816 3.24005H6.35016ZM11.9142 0.57605V5.61609C11.9142 6.12009 12.0382 6.50809 12.2862 6.78009C12.5342 7.05209 12.8982 7.18805 13.3782 7.18805C13.8582 7.18805 14.2262 7.05209 14.4822 6.78009C14.7382 6.50809 14.8662 6.12009 14.8662 5.61609V0.57605H16.9182V5.60406C16.9182 6.35606 16.7582 6.99208 16.4382 7.51208C16.1182 8.03208 15.6862 8.42405 15.1422 8.68805C14.6062 8.95205 14.0062 9.08405 13.3422 9.08405C12.6782 9.08405 12.0822 8.95607 11.5542 8.70007C11.0342 8.43607 10.6222 8.04405 10.3182 7.52405C10.0142 6.99605 9.86218 6.35606 9.86218 5.60406V0.57605H11.9142ZM23.6392 0.57605V6.31207C23.6392 7.20007 23.3872 7.88407 22.8832 8.36407C22.3872 8.84407 21.7152 9.08405 20.8672 9.08405C19.9792 9.08405 19.2672 8.83206 18.7312 8.32806C18.1952 7.82406 17.9272 7.10805 17.9272 6.18005H19.9672C19.9672 6.53205 20.0392 6.80007 20.1832 6.98407C20.3272 7.16007 20.5352 7.24805 20.8072 7.24805C21.0552 7.24805 21.2472 7.16806 21.3832 7.00806C21.5192 6.84806 21.5872 6.61607 21.5872 6.31207V0.57605H23.6392ZM29.2812 9.08405C28.4892 9.08405 27.7612 8.90004 27.0972 8.53204C26.4412 8.16404 25.9172 7.65203 25.5252 6.99603C25.1412 6.33203 24.9492 5.58804 24.9492 4.76404C24.9492 3.94004 25.1412 3.20007 25.5252 2.54407C25.9172 1.88807 26.4412 1.37606 27.0972 1.00806C27.7612 0.640057 28.4892 0.456055 29.2812 0.456055C30.0732 0.456055 30.7972 0.640057 31.4532 1.00806C32.1172 1.37606 32.6372 1.88807 33.0132 2.54407C33.3972 3.20007 33.5892 3.94004 33.5892 4.76404C33.5892 5.58804 33.3972 6.33203 33.0132 6.99603C32.6292 7.65203 32.1092 8.16404 31.4532 8.53204C30.7972 8.90004 30.0732 9.08405 29.2812 9.08405ZM29.2812 7.21204C29.9532 7.21204 30.4892 6.98804 30.8892 6.54004C31.2972 6.09204 31.5012 5.50004 31.5012 4.76404C31.5012 4.02004 31.2972 3.42804 30.8892 2.98804C30.4892 2.54004 29.9532 2.31604 29.2812 2.31604C28.6012 2.31604 28.0572 2.53607 27.6492 2.97607C27.2492 3.41607 27.0492 4.01204 27.0492 4.76404C27.0492 5.50804 27.2492 6.10406 27.6492 6.55206C28.0572 6.99206 28.6012 7.21204 29.2812 7.21204Z" fill="white"/>
</svg>
