<svg width="29" height="10" viewBox="0 0 29 10" fill="none" xmlns="http://www.w3.org/2000/svg">
<path d="M3.90015 0.575928C4.78815 0.575928 5.56415 0.751943 6.22815 1.10394C6.89215 1.45594 7.4041 1.95195 7.7641 2.59195C8.1321 3.22395 8.3161 3.95593 8.3161 4.78793C8.3161 5.61193 8.1321 6.34395 7.7641 6.98395C7.4041 7.62395 6.88813 8.11992 6.21613 8.47192C5.55213 8.82392 4.78015 8.99994 3.90015 8.99994H0.744141V0.575928H3.90015ZM3.76813 7.22394C4.54413 7.22394 5.14814 7.01195 5.58014 6.58795C6.01214 6.16395 6.22815 5.56393 6.22815 4.78793C6.22815 4.01193 6.01214 3.40795 5.58014 2.97595C5.14814 2.54395 4.54413 2.32794 3.76813 2.32794H2.79614V7.22394H3.76813ZM9.05511 5.63995C9.05511 4.95195 9.18315 4.34794 9.43915 3.82794C9.70315 3.30794 10.0591 2.90793 10.5071 2.62793C10.9551 2.34793 11.4551 2.20795 12.0071 2.20795C12.4791 2.20795 12.8911 2.30394 13.2431 2.49594C13.6031 2.68794 13.8791 2.93995 14.0711 3.25195V2.30392H16.1231V8.99994H14.0711V8.05194C13.8711 8.36394 13.5911 8.61595 13.2311 8.80795C12.8791 8.99995 12.4671 9.09595 11.9951 9.09595C11.4511 9.09595 10.9551 8.95593 10.5071 8.67593C10.0591 8.38793 9.70315 7.98393 9.43915 7.46393C9.18315 6.93593 9.05511 6.32795 9.05511 5.63995ZM14.0711 5.65195C14.0711 5.13995 13.9271 4.73594 13.6391 4.43994C13.3591 4.14394 13.0151 3.99594 12.6071 3.99594C12.1991 3.99594 11.8511 4.14394 11.5631 4.43994C11.2831 4.72794 11.1431 5.12795 11.1431 5.63995C11.1431 6.15195 11.2831 6.55995 11.5631 6.86395C11.8511 7.15995 12.1991 7.30795 12.6071 7.30795C13.0151 7.30795 13.3591 7.15995 13.6391 6.86395C13.9271 6.56795 14.0711 6.16395 14.0711 5.65195ZM21.3391 7.25995V8.99994H20.2951C19.5511 8.99994 18.9711 8.81993 18.5551 8.45993C18.1391 8.09193 17.9312 7.49594 17.9312 6.67194V4.00793H17.1151V2.30392H17.9312V0.671936H19.9831V2.30392H21.3271V4.00793H19.9831V6.69595C19.9831 6.89595 20.0311 7.03993 20.1271 7.12793C20.2231 7.21593 20.3831 7.25995 20.6071 7.25995H21.3391ZM28.7941 5.54395C28.7941 5.73595 28.7821 5.93595 28.7581 6.14395H24.1141C24.1461 6.55995 24.2781 6.87994 24.5101 7.10394C24.7501 7.31994 25.0421 7.42795 25.3861 7.42795C25.8981 7.42795 26.2541 7.21194 26.4541 6.77994H28.6381C28.5261 7.21994 28.3221 7.61593 28.0261 7.96793C27.7381 8.31993 27.3741 8.59593 26.9341 8.79593C26.4941 8.99593 26.0021 9.09595 25.4581 9.09595C24.8021 9.09595 24.2181 8.95593 23.7061 8.67593C23.1941 8.39593 22.7941 7.99595 22.5061 7.47595C22.2181 6.95595 22.0741 6.34795 22.0741 5.65195C22.0741 4.95595 22.2141 4.34794 22.4941 3.82794C22.7821 3.30794 23.1821 2.90793 23.6941 2.62793C24.2061 2.34793 24.7941 2.20795 25.4581 2.20795C26.1061 2.20795 26.6821 2.34394 27.1861 2.61594C27.6901 2.88794 28.0821 3.27594 28.3621 3.77994C28.6501 4.28394 28.7941 4.87195 28.7941 5.54395ZM26.6941 5.00394C26.6941 4.65194 26.5741 4.37194 26.3341 4.16394C26.0941 3.95594 25.7941 3.85193 25.4341 3.85193C25.0901 3.85193 24.7981 3.95195 24.5581 4.15195C24.3261 4.35195 24.1821 4.63594 24.1261 5.00394H26.6941Z" fill="white"/>
</svg>
