<svg width="7" height="10" viewBox="0 0 7 10" fill="none" xmlns="http://www.w3.org/2000/svg">
<path d="M0.611908 2.7121C0.643908 1.8561 0.923904 1.19612 1.4519 0.732117C1.9799 0.268117 2.69588 0.0361328 3.59988 0.0361328C4.19988 0.0361328 4.71189 0.140145 5.13589 0.348145C5.56789 0.556145 5.89188 0.840134 6.10788 1.20013C6.33188 1.56013 6.44388 1.96411 6.44388 2.41211C6.44388 2.94011 6.31188 3.37213 6.04788 3.70813C5.78388 4.03613 5.47593 4.26013 5.12393 4.38013V4.4281C5.57993 4.5801 5.93989 4.83214 6.20389 5.18414C6.46789 5.53614 6.59988 5.9881 6.59988 6.5401C6.59988 7.0361 6.48392 7.47611 6.25192 7.86011C6.02792 8.23611 5.69589 8.53211 5.25589 8.74811C4.82389 8.96411 4.30792 9.07214 3.70792 9.07214C2.74792 9.07214 1.9799 8.83614 1.4039 8.36414C0.8359 7.89214 0.535906 7.18015 0.503906 6.22815H2.49591C2.50391 6.58015 2.6039 6.86012 2.7959 7.06812C2.9879 7.26812 3.26789 7.3681 3.63589 7.3681C3.94789 7.3681 4.18793 7.28013 4.35593 7.10413C4.53193 6.92013 4.6199 6.68009 4.6199 6.38409C4.6199 6.00009 4.49589 5.72415 4.24789 5.55615C4.00789 5.38015 3.61989 5.29211 3.08389 5.29211H2.69992V3.62415H3.08389C3.49189 3.62415 3.8199 3.5561 4.0679 3.4201C4.3239 3.2761 4.45193 3.02412 4.45193 2.66412C4.45193 2.37612 4.37188 2.15213 4.21188 1.99213C4.05188 1.83213 3.83191 1.75214 3.55191 1.75214C3.24791 1.75214 3.01992 1.84414 2.86792 2.02814C2.72392 2.21214 2.63991 2.4401 2.61591 2.7121H0.611908Z" fill="white"/>
</svg>
