<svg width="63" height="16" viewBox="0 0 63 16" fill="none" xmlns="http://www.w3.org/2000/svg">
<path d="M4.72009 8.38403H6.06415V14.4161H4.72009V8.38403ZM11.4401 0.784058H12.7521V15.248H11.4401V0.784058ZM0.880127 8.80005L0.704102 7.68005C3.6321 7.66405 7.21615 7.61609 10.4001 7.28009L10.5121 8.27203C7.26415 8.72003 3.74413 8.78405 0.880127 8.80005ZM1.96814 1.88806H7.95215V2.99207H1.96814V1.88806ZM7.44012 1.88806H8.75214V2.48004C8.75214 3.48804 8.75209 5.29607 8.27209 7.87207L6.96014 7.76007C7.44014 5.21607 7.44012 3.47204 7.44012 2.48004V1.88806ZM22.0311 4.00006H26.3991V5.10406H22.0311V4.00006ZM22.0311 8.57605H26.3991V9.68005H22.0311V8.57605ZM19.3751 1.88806C21.4711 1.88806 22.9751 3.85604 22.9751 6.92804C22.9751 10.016 21.4711 11.9841 19.3751 11.9841C17.2631 11.9841 15.7751 10.016 15.7751 6.92804C15.7751 3.85604 17.2631 1.88806 19.3751 1.88806ZM19.3751 3.08807C17.9831 3.08807 17.0231 4.59204 17.0231 6.92804C17.0231 9.28004 17.9831 10.816 19.3751 10.816C20.7671 10.816 21.7271 9.28004 21.7271 6.92804C21.7271 4.59204 20.7671 3.08807 19.3751 3.08807ZM26.1111 0.768066H27.4231V15.264H26.1111V0.768066ZM34.1581 8.86407H35.4701V14.8H34.1581V8.86407ZM40.7821 0.784058H42.1101V15.264H40.7821V0.784058ZM30.3501 9.52008L30.1741 8.40009C32.9101 8.40009 36.5421 8.38404 39.6781 7.93604L39.7581 8.92804C36.5261 9.47204 33.0381 9.52008 30.3501 9.52008ZM37.5021 10.6561H41.1181V11.696H37.5021V10.6561ZM34.8941 1.50409C37.0221 1.50409 38.5101 2.64005 38.5101 4.35205C38.5101 6.06405 37.0221 7.20007 34.8941 7.20007C32.7341 7.20007 31.2621 6.06405 31.2621 4.35205C31.2621 2.64005 32.7341 1.50409 34.8941 1.50409ZM34.8941 2.52808C33.4861 2.52808 32.4941 3.28005 32.4941 4.35205C32.4941 5.44005 33.4861 6.17609 34.8941 6.17609C36.2701 6.17609 37.2621 5.44005 37.2621 4.35205C37.2621 3.28005 36.2701 2.52808 34.8941 2.52808ZM48.1561 8.22406H49.4681V12.5601H48.1561V8.22406ZM53.5001 8.22406H54.8281V12.5601H53.5001V8.22406ZM44.9561 12.3041H58.0601V13.4081H44.9561V12.3041ZM51.4841 1.69604C54.5401 1.69604 56.7321 3.15207 56.7321 5.42407C56.7321 7.68007 54.5401 9.13605 51.4841 9.13605C48.4121 9.13605 46.2201 7.68007 46.2201 5.42407C46.2201 3.15207 48.4121 1.69604 51.4841 1.69604ZM51.4841 2.75208C49.1641 2.75208 47.5001 3.80807 47.5001 5.42407C47.5001 7.02407 49.1641 8.08008 51.4841 8.08008C53.8041 8.08008 55.4521 7.02407 55.4521 5.42407C55.4521 3.80807 53.8041 2.75208 51.4841 2.75208ZM61.8751 2.36407L61.7611 10.7271H60.4431L60.3301 2.36407H61.8751ZM61.1021 14.0911C60.8221 14.0911 60.5811 13.991 60.3811 13.79C60.1801 13.589 60.0801 13.3481 60.0801 13.0681C60.0801 12.7881 60.1801 12.547 60.3811 12.347C60.5811 12.146 60.8221 12.045 61.1021 12.045C61.3831 12.045 61.6231 12.146 61.8241 12.347C62.0251 12.547 62.1251 12.7881 62.1251 13.0681C62.1251 13.2541 62.0781 13.4241 61.9831 13.5801C61.8921 13.7351 61.7691 13.8601 61.6141 13.9551C61.4621 14.0451 61.2921 14.0911 61.1021 14.0911Z" fill="black"/>
</svg>
