<svg width="8" height="11" viewBox="0 0 8 11" fill="none" xmlns="http://www.w3.org/2000/svg">
<path d="M6.82578 2.86615H2.45779V4.7981C2.64479 4.5931 2.90579 4.42513 3.24179 4.29413C3.57779 4.16313 3.94177 4.09814 4.33377 4.09814C5.03377 4.09814 5.61279 4.2571 6.06979 4.5741C6.53679 4.8911 6.87677 5.30215 7.09177 5.80615C7.30677 6.31015 7.41379 6.85609 7.41379 7.44409C7.41379 8.53609 7.10578 9.4041 6.48978 10.0481C5.87378 10.6831 5.00577 11.0001 3.88577 11.0001C3.13877 11.0001 2.49079 10.8741 1.93979 10.6221C1.38879 10.3611 0.964771 10.0011 0.665771 9.54413C0.366771 9.08713 0.203781 8.5591 0.175781 7.9621H2.51376C2.56976 8.2511 2.70477 8.49412 2.91977 8.69012C3.13477 8.87712 3.42879 8.97009 3.80179 8.97009C4.24079 8.97009 4.56677 8.83011 4.78177 8.55011C4.99677 8.27011 5.10379 7.89711 5.10379 7.43011C5.10379 6.97311 4.99179 6.62313 4.76779 6.38013C4.54379 6.13713 4.21681 6.01611 3.78781 6.01611C3.47081 6.01611 3.20881 6.09515 3.00381 6.25415C2.79881 6.40315 2.66281 6.60414 2.59781 6.85614H0.287781V0.766113H6.82578V2.86615Z" fill="white"/>
</svg>
