<svg width="7" height="9" viewBox="0 0 7 9" fill="none" xmlns="http://www.w3.org/2000/svg">
<path d="M0.468323 7.3559C0.740323 7.1399 0.864332 7.03991 0.840332 7.05591C1.62433 6.40791 2.24032 5.8759 2.68832 5.4599C3.14432 5.0439 3.52836 4.60786 3.84036 4.15186C4.15236 3.69586 4.30832 3.25189 4.30832 2.81989C4.30832 2.49189 4.23235 2.23588 4.08035 2.05188C3.92835 1.86788 3.70033 1.77588 3.39633 1.77588C3.09233 1.77588 2.85233 1.8919 2.67633 2.1239C2.50833 2.3479 2.42435 2.66786 2.42435 3.08386H0.444336C0.460336 2.40386 0.604343 1.83588 0.876343 1.37988C1.15634 0.923883 1.52032 0.587887 1.96832 0.371887C2.42432 0.155887 2.92832 0.0478516 3.48032 0.0478516C4.43232 0.0478516 5.14833 0.291907 5.62833 0.779907C6.11633 1.26791 6.36032 1.90387 6.36032 2.68787C6.36032 3.54387 6.06834 4.33987 5.48434 5.07587C4.90034 5.80387 4.15635 6.51585 3.25235 7.21185H6.49234V8.87988H0.468323V7.3559Z" fill="white"/>
</svg>
