<svg width="46" height="10" viewBox="0 0 46 10" fill="none" xmlns="http://www.w3.org/2000/svg">
<path d="M0.836914 4.78003C0.836914 3.94003 1.01695 3.2 1.37695 2.56C1.73695 1.9 2.23695 1.39003 2.87695 1.03003C3.52495 0.660029 4.25694 0.47998 5.07294 0.47998C6.07294 0.47998 6.92893 0.74002 7.64093 1.27002C8.35293 1.80002 8.82891 2.51999 9.06891 3.42999H6.81293C6.64493 3.07999 6.40496 2.81 6.09296 2.63C5.78896 2.44 5.44095 2.34998 5.04895 2.34998C4.41695 2.34998 3.90494 2.57001 3.51294 3.01001C3.12094 3.45001 2.92493 4.04003 2.92493 4.78003C2.92493 5.51003 3.12094 6.09998 3.51294 6.53998C3.90494 6.97998 4.41695 7.20001 5.04895 7.20001C5.44095 7.20001 5.78896 7.10998 6.09296 6.91998C6.40496 6.73998 6.64493 6.47 6.81293 6.12H9.06891C8.82891 7.03 8.35293 7.75003 7.64093 8.28003C6.92893 8.80003 6.07294 9.06 5.07294 9.06C4.25694 9.06 3.52495 8.88002 2.87695 8.52002C2.23695 8.15002 1.73695 7.64 1.37695 7C1.01695 6.35 0.836914 5.61003 0.836914 4.78003ZM9.97797 4.78003C9.97797 3.94003 10.1579 3.2 10.5179 2.56C10.8779 1.9 11.3779 1.39003 12.0179 1.03003C12.6659 0.660029 13.3979 0.47998 14.2139 0.47998C15.2139 0.47998 16.0699 0.74002 16.7819 1.27002C17.4939 1.80002 17.97 2.51999 18.21 3.42999H15.9539C15.7859 3.07999 15.5459 2.81 15.2339 2.63C14.9299 2.44 14.5819 2.34998 14.1899 2.34998C13.5579 2.34998 13.0459 2.57001 12.6539 3.01001C12.2619 3.45001 12.0659 4.04003 12.0659 4.78003C12.0659 5.51003 12.2619 6.09998 12.6539 6.53998C13.0459 6.97998 13.5579 7.20001 14.1899 7.20001C14.5819 7.20001 14.9299 7.10998 15.2339 6.91998C15.5459 6.73998 15.7859 6.47 15.9539 6.12H18.21C17.97 7.03 17.4939 7.75003 16.7819 8.28003C16.0699 8.80003 15.2139 9.06 14.2139 9.06C13.3979 9.06 12.6659 8.88002 12.0179 8.52002C11.3779 8.15002 10.8779 7.64 10.5179 7C10.1579 6.35 9.97797 5.61003 9.97797 4.78003ZM19.119 4.78003C19.119 3.94003 19.2989 3.2 19.6589 2.56C20.0189 1.9 20.5189 1.39003 21.1589 1.03003C21.8069 0.660029 22.5389 0.47998 23.3549 0.47998C24.3549 0.47998 25.2109 0.74002 25.9229 1.27002C26.6349 1.80002 27.111 2.51999 27.351 3.42999H25.0949C24.9269 3.07999 24.6869 2.81 24.3749 2.63C24.0709 2.44 23.7229 2.34998 23.3309 2.34998C22.6989 2.34998 22.1869 2.57001 21.7949 3.01001C21.4029 3.45001 21.2069 4.04003 21.2069 4.78003C21.2069 5.51003 21.4029 6.09998 21.7949 6.53998C22.1869 6.97998 22.6989 7.20001 23.3309 7.20001C23.7229 7.20001 24.0709 7.10998 24.3749 6.91998C24.6869 6.73998 24.9269 6.47 25.0949 6.12H27.351C27.111 7.03 26.6349 7.75003 25.9229 8.28003C25.2109 8.80003 24.3549 9.06 23.3549 9.06C22.5389 9.06 21.8069 8.88002 21.1589 8.52002C20.5189 8.15002 20.0189 7.64 19.6589 7C19.2989 6.35 19.119 5.61003 19.119 4.78003ZM33.851 7.51001H30.7069L30.2029 9H28.0549L31.103 0.580017H33.4789L36.5269 9H34.3549L33.851 7.51001ZM33.3229 5.92999L32.2789 2.84003L31.2469 5.92999H33.3229ZM42.6989 7.51001H39.5549L39.051 9H36.903L39.9509 0.580017H42.327L45.3749 9H43.2029L42.6989 7.51001ZM42.171 5.92999L41.127 2.84003L40.0949 5.92999H42.171Z" fill="white"/>
</svg>
