<svg width="135" height="24" viewBox="0 0 135 24" fill="none" xmlns="http://www.w3.org/2000/svg">
<path d="M1.9444 2.51994H11.4484V5.08794H1.9444V2.51994ZM4.68042 7.70393H7.84845V13.2719H4.68042V7.70393ZM10.2004 2.51994H13.3444V3.91194C13.3444 5.47194 13.3444 7.67994 12.8164 10.4399L9.7204 10.1039C10.2004 7.36794 10.2004 5.44794 10.2004 3.91194V2.51994ZM15.5045 0.911942H18.7204V17.5439H15.5045V0.911942ZM17.4484 7.67993H21.3604V10.2959H17.4484V7.67993ZM3.88843 20.2079H19.4164V22.7519H3.88843V20.2079ZM3.88843 16.0559H7.08044V20.9999H3.88843V16.0559ZM0.936401 14.5679L0.648438 12.0479C4.48844 12.0479 9.84044 11.9759 14.3044 11.3519L14.4964 13.6079C9.9124 14.4719 4.7524 14.5679 0.936401 14.5679ZM38.3504 0.887939H41.5424V23.1839H38.3504V0.887939ZM24.2384 15.4079H26.2064C30.1424 15.4079 33.2865 15.2639 36.8145 14.6639L37.1264 17.2319C33.5264 17.8799 30.2624 17.9999 26.2064 17.9999H24.2384V15.4079ZM24.2144 2.78394H34.7025V11.3759H27.4785V16.3679H24.2384V8.85594H31.4384V5.32794H24.2144V2.78394ZM50.1084 4.41594H52.6284V6.91194C52.6284 11.9279 50.5164 17.0399 46.4364 18.9599L44.6364 16.4399C48.3084 14.7119 50.1084 10.5599 50.1084 6.91194V4.41594ZM50.7805 4.41594H53.3004V6.91194C53.3004 10.2719 55.0285 14.2079 58.6765 15.8879L56.9244 18.4079C52.8444 16.5119 50.7805 11.6399 50.7805 6.91194V4.41594ZM45.5004 3.04794H57.6924V5.66394H45.5004V3.04794ZM59.3244 0.911942H62.5404V23.1359H59.3244V0.911942ZM61.8204 9.38394H65.7564V12.0239H61.8204V9.38394ZM88.5284 0.911942H91.5764V23.1359H88.5284V0.911942ZM82.0244 8.99994H85.0004V11.8079H82.0244V8.99994ZM84.1124 1.34393H87.1124V22.1039H84.1124V1.34393ZM72.4484 3.40794H82.5524V5.95193H72.4484V3.40794ZM72.4005 18.0959L72.0645 15.5039C74.8485 15.5039 79.5284 15.4319 82.8884 14.9759L83.1044 17.2799C79.6484 18.0239 75.1365 18.0959 72.4005 18.0959ZM73.8164 5.03993H76.6724V16.1759H73.8164V5.03993ZM78.2805 5.03993H81.1604V16.1759H78.2805V5.03993ZM109.598 0.887939H112.814V23.1839H109.598V0.887939ZM100.838 2.44794C104.198 2.44794 106.67 5.51994 106.67 10.3679C106.67 15.2639 104.198 18.3359 100.838 18.3359C97.4784 18.3359 95.0064 15.2639 95.0064 10.3679C95.0064 5.51994 97.4784 2.44794 100.838 2.44794ZM100.838 5.35194C99.1824 5.35194 98.0544 7.10394 98.0544 10.3679C98.0544 13.6799 99.1824 15.4559 100.838 15.4559C102.494 15.4559 103.598 13.6799 103.598 10.3679C103.598 7.10394 102.494 5.35194 100.838 5.35194ZM121.789 4.41594H124.33V6.91194C124.33 12.0479 122.245 17.0639 118.069 18.9599L116.269 16.4399C119.989 14.7839 121.789 10.6799 121.789 6.91194V4.41594ZM122.509 4.41594H125.03V6.91194C125.03 10.5119 126.8 14.3519 130.52 15.8879L128.8 18.4079C124.57 16.5839 122.509 11.8559 122.509 6.91194V4.41594ZM117.157 3.04794H129.61V5.66394H117.157V3.04794ZM131.68 0.911942H134.89V23.1359H131.68V0.911942Z" fill="white"/>
</svg>
