<svg width="48" height="16" viewBox="0 0 48 16" fill="none" xmlns="http://www.w3.org/2000/svg">
<path d="M7.71155 3.44019H11.5836V4.5282H7.71155V3.44019ZM7.58356 6.44818H11.4875V7.53619H7.58356V6.44818ZM11.3596 0.78418H12.6876V9.45618H11.3596V0.78418ZM6.83154 1.87219H8.25555C8.25555 5.60019 5.67959 8.20818 1.51959 9.45618L0.975586 8.38416C4.67159 7.31216 6.83154 5.18418 6.83154 2.44818V1.87219ZM1.7276 1.87219H7.74359V2.96021H1.7276V1.87219ZM7.98358 9.61621C10.9116 9.61621 12.7676 10.6562 12.7676 12.4002C12.7676 14.1442 10.9116 15.1842 7.98358 15.1842C5.05558 15.1842 3.19958 14.1442 3.19958 12.4002C3.19958 10.6562 5.05558 9.61621 7.98358 9.61621ZM7.98358 10.6562C5.87158 10.6562 4.5116 11.3122 4.5116 12.4002C4.5116 13.4882 5.87158 14.1282 7.98358 14.1282C10.1116 14.1282 11.4716 13.4882 11.4716 12.4002C11.4716 11.3122 10.1116 10.6562 7.98358 10.6562ZM25.9456 8.18219C25.9456 9.40919 25.7236 10.4702 25.2806 11.3642C24.8376 12.2582 24.2295 12.9472 23.4565 13.4322C22.6845 13.9172 21.8016 14.1592 20.8096 14.1592C19.8166 14.1592 18.9346 13.9172 18.1616 13.4322C17.3886 12.9472 16.7806 12.2582 16.3376 11.3642C15.8946 10.4702 15.6725 9.40919 15.6725 8.18219C15.6725 6.95519 15.8946 5.89418 16.3376 5.00018C16.7806 4.10618 17.3886 3.41719 18.1616 2.93219C18.9346 2.44719 19.8166 2.2052 20.8096 2.2052C21.8016 2.2052 22.6845 2.44719 23.4565 2.93219C24.2295 3.41719 24.8376 4.10618 25.2806 5.00018C25.7236 5.89418 25.9456 6.95519 25.9456 8.18219ZM24.5815 8.18219C24.5815 7.17419 24.4136 6.32416 24.0766 5.63116C23.7426 4.93816 23.2906 4.41319 22.7186 4.05719C22.1506 3.70119 21.5136 3.52319 20.8096 3.52319C20.1046 3.52319 19.4666 3.70119 18.8946 4.05719C18.3266 4.41319 17.8736 4.93816 17.5366 5.63116C17.2036 6.32416 17.0366 7.17419 17.0366 8.18219C17.0366 9.18919 17.2036 10.0402 17.5366 10.7332C17.8736 11.4262 18.3266 11.9512 18.8946 12.3072C19.4666 12.6632 20.1046 12.8412 20.8096 12.8412C21.5136 12.8412 22.1506 12.6632 22.7186 12.3072C23.2906 11.9512 23.7426 11.4262 24.0766 10.7332C24.4136 10.0402 24.5815 9.18919 24.5815 8.18219ZM37.5426 2.3642V14.0002H36.1786L29.8376 4.8642H29.7236V14.0002H28.3146V2.3642H29.6786L36.0426 11.5232H36.1556V2.3642H37.5426ZM40.3616 14.0002V2.3642H47.3846V3.6142H41.7706V7.54517H47.0206V8.79517H41.7706V12.7502H47.4756V14.0002H40.3616Z" fill="black"/>
</svg>
