<svg width="69" height="15" viewBox="0 0 69 15" fill="none" xmlns="http://www.w3.org/2000/svg">
<path d="M0.612305 11.1241C1.6283 10.3081 2.42431 9.64006 3.00031 9.12006C3.57631 8.59206 4.06033 8.04407 4.45233 7.47607C4.85233 6.90007 5.05231 6.33606 5.05231 5.78406C5.05231 5.26406 4.92433 4.85606 4.66833 4.56006C4.42033 4.25606 4.0163 4.10406 3.4563 4.10406C2.9123 4.10406 2.48833 4.27606 2.18433 4.62006C1.88833 4.95606 1.72828 5.40807 1.70428 5.97607H0.648315C0.680315 5.08007 0.952294 4.38809 1.46429 3.90009C1.97629 3.41209 2.63627 3.16809 3.44427 3.16809C4.26827 3.16809 4.92033 3.39605 5.40033 3.85205C5.88833 4.30805 6.13232 4.93608 6.13232 5.73608C6.13232 6.40008 5.93229 7.04805 5.53229 7.68005C5.14029 8.30405 4.69229 8.85606 4.18829 9.33606C3.68429 9.80806 3.04029 10.3601 2.25629 10.9921H6.38428V11.9041H0.612305V11.1241ZM7.51428 11.1241C8.53028 10.3081 9.32628 9.64006 9.90228 9.12006C10.4783 8.59206 10.9623 8.04407 11.3543 7.47607C11.7543 6.90007 11.9543 6.33606 11.9543 5.78406C11.9543 5.26406 11.8263 4.85606 11.5703 4.56006C11.3223 4.25606 10.9183 4.10406 10.3583 4.10406C9.81428 4.10406 9.3903 4.27606 9.0863 4.62006C8.7903 4.95606 8.63032 5.40807 8.60632 5.97607H7.55029C7.58229 5.08007 7.85433 4.38809 8.36633 3.90009C8.87833 3.41209 9.53831 3.16809 10.3463 3.16809C11.1703 3.16809 11.8223 3.39605 12.3023 3.85205C12.7903 4.30805 13.0343 4.93608 13.0343 5.73608C13.0343 6.40008 12.8343 7.04805 12.4343 7.68005C12.0423 8.30405 11.5943 8.85606 11.0903 9.33606C10.5863 9.80806 9.94233 10.3601 9.15833 10.9921H13.2863V11.9041H7.51428V11.1241ZM18.8093 0.696045L15.5213 14.04H14.4413L17.7173 0.696045H18.8093ZM20.2563 7.57208C20.2563 6.19608 20.4803 5.12408 20.9283 4.35608C21.3763 3.58008 22.1603 3.19208 23.2803 3.19208C24.3923 3.19208 25.1723 3.58008 25.6203 4.35608C26.0683 5.12408 26.2923 6.19608 26.2923 7.57208C26.2923 8.97208 26.0683 10.0601 25.6203 10.8361C25.1723 11.6121 24.3923 12.0001 23.2803 12.0001C22.1603 12.0001 21.3763 11.6121 20.9283 10.8361C20.4803 10.0601 20.2563 8.97208 20.2563 7.57208ZM25.2123 7.57208C25.2123 6.87608 25.1643 6.28804 25.0683 5.80804C24.9803 5.32004 24.7923 4.92808 24.5043 4.63208C24.2243 4.33608 23.8163 4.18805 23.2803 4.18805C22.7363 4.18805 22.3203 4.33608 22.0323 4.63208C21.7523 4.92808 21.5643 5.32004 21.4683 5.80804C21.3803 6.28804 21.3363 6.87608 21.3363 7.57208C21.3363 8.29208 21.3803 8.89603 21.4683 9.38403C21.5643 9.87203 21.7523 10.2641 22.0323 10.5601C22.3203 10.8561 22.7363 11.0041 23.2803 11.0041C23.8163 11.0041 24.2243 10.8561 24.5043 10.5601C24.7923 10.2641 24.9803 9.87203 25.0683 9.38403C25.1643 8.89603 25.2123 8.29208 25.2123 7.57208ZM27.6593 11.1241C28.6753 10.3081 29.4713 9.64006 30.0473 9.12006C30.6233 8.59206 31.1073 8.04407 31.4993 7.47607C31.8993 6.90007 32.0993 6.33606 32.0993 5.78406C32.0993 5.26406 31.9713 4.85606 31.7153 4.56006C31.4673 4.25606 31.0633 4.10406 30.5033 4.10406C29.9593 4.10406 29.5353 4.27606 29.2313 4.62006C28.9353 4.95606 28.7753 5.40807 28.7513 5.97607H27.6953C27.7273 5.08007 27.9993 4.38809 28.5113 3.90009C29.0233 3.41209 29.6833 3.16809 30.4913 3.16809C31.3153 3.16809 31.9673 3.39605 32.4473 3.85205C32.9353 4.30805 33.1793 4.93608 33.1793 5.73608C33.1793 6.40008 32.9793 7.04805 32.5793 7.68005C32.1873 8.30405 31.7393 8.85606 31.2353 9.33606C30.7313 9.80806 30.0873 10.3601 29.3033 10.9921H33.4313V11.9041H27.6593V11.1241ZM38.9533 0.696045L35.6653 14.04H34.5853L37.8613 0.696045H38.9533ZM40.2683 11.1241C41.2843 10.3081 42.0803 9.64006 42.6563 9.12006C43.2323 8.59206 43.7163 8.04407 44.1083 7.47607C44.5083 6.90007 44.7083 6.33606 44.7083 5.78406C44.7083 5.26406 44.5803 4.85606 44.3243 4.56006C44.0763 4.25606 43.6723 4.10406 43.1123 4.10406C42.5683 4.10406 42.1443 4.27606 41.8403 4.62006C41.5443 4.95606 41.3843 5.40807 41.3603 5.97607H40.3043C40.3363 5.08007 40.6083 4.38809 41.1203 3.90009C41.6323 3.41209 42.2923 3.16809 43.1003 3.16809C43.9243 3.16809 44.5763 3.39605 45.0563 3.85205C45.5443 4.30805 45.7883 4.93608 45.7883 5.73608C45.7883 6.40008 45.5883 7.04805 45.1883 7.68005C44.7963 8.30405 44.3483 8.85606 43.8443 9.33606C43.3403 9.80806 42.6963 10.3601 41.9123 10.9921H46.0403V11.9041H40.2683V11.1241ZM47.3033 7.57208C47.3033 6.19608 47.5273 5.12408 47.9753 4.35608C48.4233 3.58008 49.2073 3.19208 50.3273 3.19208C51.4393 3.19208 52.2193 3.58008 52.6673 4.35608C53.1153 5.12408 53.3393 6.19608 53.3393 7.57208C53.3393 8.97208 53.1153 10.0601 52.6673 10.8361C52.2193 11.6121 51.4393 12.0001 50.3273 12.0001C49.2073 12.0001 48.4233 11.6121 47.9753 10.8361C47.5273 10.0601 47.3033 8.97208 47.3033 7.57208ZM52.2593 7.57208C52.2593 6.87608 52.2113 6.28804 52.1153 5.80804C52.0273 5.32004 51.8393 4.92808 51.5513 4.63208C51.2713 4.33608 50.8633 4.18805 50.3273 4.18805C49.7833 4.18805 49.3673 4.33608 49.0793 4.63208C48.7993 4.92808 48.6113 5.32004 48.5153 5.80804C48.4273 6.28804 48.3833 6.87608 48.3833 7.57208C48.3833 8.29208 48.4273 8.89603 48.5153 9.38403C48.6113 9.87203 48.7993 10.2641 49.0793 10.5601C49.3673 10.8561 49.7833 11.0041 50.3273 11.0041C50.8633 11.0041 51.2713 10.8561 51.5513 10.5601C51.8393 10.2641 52.0273 9.87203 52.1153 9.38403C52.2113 8.89603 52.2593 8.29208 52.2593 7.57208ZM54.7063 11.1241C55.7223 10.3081 56.5183 9.64006 57.0943 9.12006C57.6703 8.59206 58.1543 8.04407 58.5463 7.47607C58.9463 6.90007 59.1463 6.33606 59.1463 5.78406C59.1463 5.26406 59.0183 4.85606 58.7623 4.56006C58.5143 4.25606 58.1103 4.10406 57.5503 4.10406C57.0063 4.10406 56.5823 4.27606 56.2783 4.62006C55.9823 4.95606 55.8223 5.40807 55.7983 5.97607H54.7423C54.7743 5.08007 55.0463 4.38809 55.5583 3.90009C56.0703 3.41209 56.7303 3.16809 57.5383 3.16809C58.3623 3.16809 59.0143 3.39605 59.4943 3.85205C59.9823 4.30805 60.2263 4.93608 60.2263 5.73608C60.2263 6.40008 60.0263 7.04805 59.6263 7.68005C59.2343 8.30405 58.7863 8.85606 58.2823 9.33606C57.7783 9.80806 57.1343 10.3601 56.3503 10.9921H60.4783V11.9041H54.7063V11.1241ZM61.4763 10.0681V9.24005L65.6883 3.40808H66.9963V9.12006H68.1963V10.0681H66.9963V12.0001H65.9163V10.0681H61.4763ZM65.9643 4.54803L62.7363 9.12006H65.9643V4.54803Z" fill="white"/>
</svg>
