<svg width="48" height="10" viewBox="0 0 48 10" fill="none" xmlns="http://www.w3.org/2000/svg">
<path d="M0.975586 4.77606C0.975586 3.94406 1.15556 3.20409 1.51556 2.55609C1.87556 1.90009 2.37556 1.39204 3.01556 1.03204C3.66356 0.664043 4.39555 0.480042 5.21155 0.480042C6.21155 0.480042 7.0676 0.744034 7.7796 1.27203C8.4916 1.80003 8.96758 2.52007 9.20758 3.43207H6.9516C6.7836 3.08007 6.54357 2.81205 6.23157 2.62805C5.92757 2.44405 5.57956 2.35205 5.18756 2.35205C4.55556 2.35205 4.04355 2.57208 3.65155 3.01208C3.25955 3.45208 3.0636 4.04006 3.0636 4.77606C3.0636 5.51206 3.25955 6.10004 3.65155 6.54004C4.04355 6.98004 4.55556 7.20007 5.18756 7.20007C5.57956 7.20007 5.92757 7.10807 6.23157 6.92407C6.54357 6.74007 6.7836 6.47206 6.9516 6.12006H9.20758C8.96758 7.03206 8.4916 7.75209 7.7796 8.28009C7.0676 8.80009 6.21155 9.06006 5.21155 9.06006C4.39555 9.06006 3.66356 8.88008 3.01556 8.52008C2.37556 8.15208 1.87556 7.64403 1.51556 6.99603C1.15556 6.34803 0.975586 5.60806 0.975586 4.77606ZM14.4485 9.08405C13.6565 9.08405 12.9286 8.90004 12.2646 8.53204C11.6086 8.16404 11.0846 7.65203 10.6926 6.99603C10.3086 6.33203 10.1166 5.58804 10.1166 4.76404C10.1166 3.94004 10.3086 3.20007 10.6926 2.54407C11.0846 1.88807 11.6086 1.37606 12.2646 1.00806C12.9286 0.640057 13.6565 0.456055 14.4485 0.456055C15.2405 0.456055 15.9645 0.640057 16.6205 1.00806C17.2845 1.37606 17.8046 1.88807 18.1806 2.54407C18.5646 3.20007 18.7566 3.94004 18.7566 4.76404C18.7566 5.58804 18.5646 6.33203 18.1806 6.99603C17.7966 7.65203 17.2765 8.16404 16.6205 8.53204C15.9645 8.90004 15.2405 9.08405 14.4485 9.08405ZM14.4485 7.21204C15.1205 7.21204 15.6566 6.98804 16.0566 6.54004C16.4646 6.09204 16.6686 5.50004 16.6686 4.76404C16.6686 4.02004 16.4646 3.42804 16.0566 2.98804C15.6566 2.54004 15.1205 2.31604 14.4485 2.31604C13.7685 2.31604 13.2246 2.53607 12.8166 2.97607C12.4166 3.41607 12.2166 4.01204 12.2166 4.76404C12.2166 5.50804 12.4166 6.10406 12.8166 6.55206C13.2246 6.99206 13.7685 7.21204 14.4485 7.21204ZM27.4336 9.00006H25.3816L21.9496 3.80408V9.00006H19.8976V0.57605H21.9496L25.3816 5.79608V0.57605H27.4336V9.00006ZM34.4056 0.57605V2.22003H30.9736V3.99603H33.5416V5.59204H30.9736V9.00006H28.9216V0.57605H34.4056ZM37.5356 0.57605V9.00006H35.4836V0.57605H37.5356ZM44.6146 3.24005C44.4626 2.96005 44.2426 2.74806 43.9546 2.60406C43.6746 2.45206 43.3426 2.37604 42.9586 2.37604C42.2946 2.37604 41.7625 2.59607 41.3625 3.03607C40.9625 3.46807 40.7626 4.04806 40.7626 4.77606C40.7626 5.55206 40.9706 6.16004 41.3866 6.60004C41.8106 7.03204 42.3906 7.24805 43.1266 7.24805C43.6306 7.24805 44.0546 7.12007 44.3986 6.86407C44.7506 6.60807 45.0066 6.24007 45.1666 5.76007H42.5626V4.24805H47.0266V6.15607C46.8746 6.66807 46.6146 7.14405 46.2466 7.58405C45.8866 8.02405 45.4266 8.38004 44.8666 8.65204C44.3066 8.92404 43.6746 9.06006 42.9706 9.06006C42.1386 9.06006 41.3946 8.88008 40.7386 8.52008C40.0906 8.15208 39.5826 7.64403 39.2146 6.99603C38.8546 6.34803 38.6746 5.60806 38.6746 4.77606C38.6746 3.94406 38.8546 3.20409 39.2146 2.55609C39.5826 1.90009 40.0906 1.39204 40.7386 1.03204C41.3866 0.664043 42.1266 0.480042 42.9586 0.480042C43.9666 0.480042 44.8146 0.724036 45.5026 1.21204C46.1986 1.70004 46.6586 2.37605 46.8826 3.24005H44.6146Z" fill="white"/>
</svg>
