<svg width="28" height="13" viewBox="0 0 28 13" fill="none" xmlns="http://www.w3.org/2000/svg">
<path d="M4.00018 12.0001H0.40918V0.364075H4.15918C5.28818 0.364075 6.25419 0.597073 7.05719 1.06207C7.86019 1.52507 8.4752 2.18907 8.9032 3.05707C9.3312 3.92007 9.54517 4.95506 9.54517 6.15906C9.54517 7.37106 9.33019 8.41504 8.89819 9.29004C8.46619 10.161 7.83717 10.8311 7.01117 11.3011C6.18617 11.7671 5.18218 12.0001 4.00018 12.0001ZM1.81818 10.7501H3.90918C4.87118 10.7501 5.66921 10.5641 6.30121 10.1931C6.93421 9.82205 7.40519 9.29403 7.71619 8.60803C8.02719 7.92203 8.18219 7.10606 8.18219 6.15906C8.18219 5.22006 8.02817 4.41103 7.72217 3.73303C7.41517 3.05103 6.95617 2.52804 6.34717 2.16504C5.73717 1.79704 4.97718 1.61407 4.06818 1.61407H1.81818V10.7501ZM13.9552 6.90906L14.0452 4.40906L11.9322 5.75006L11.3862 4.79504L13.6142 3.63605L11.3862 2.47705L11.9322 1.52307L14.0452 2.86407L13.9552 0.364075H15.0452L14.9552 2.86407L17.0682 1.52307L17.6142 2.47705L15.3862 3.63605L17.6142 4.79504L17.0682 5.75006L14.9552 4.40906L15.0452 6.90906H13.9552ZM23.6362 12.1591C22.8862 12.1591 22.2182 12.0301 21.6312 11.7731C21.0472 11.5151 20.5832 11.157 20.2392 10.699C19.8982 10.237 19.7122 9.70106 19.6822 9.09106H21.1142C21.1442 9.46606 21.2732 9.79007 21.5002 10.0621C21.7272 10.3311 22.0252 10.54 22.3922 10.688C22.7592 10.835 23.1672 10.9091 23.6142 10.9091C24.1142 10.9091 24.5572 10.8221 24.9432 10.6481C25.3302 10.4731 25.6332 10.231 25.8522 9.92004C26.0722 9.61004 26.1822 9.25006 26.1822 8.84106C26.1822 8.41306 26.0762 8.03608 25.8642 7.71008C25.6522 7.38108 25.3412 7.12305 24.9322 6.93805C24.5232 6.75205 24.0232 6.65906 23.4322 6.65906H22.5002V5.40906H23.4322C23.8942 5.40906 24.2992 5.32606 24.6482 5.15906C25.0002 4.99206 25.2752 4.75808 25.4722 4.45508C25.6722 4.15208 25.7732 3.79505 25.7732 3.38605C25.7732 2.99205 25.6862 2.65003 25.5112 2.35803C25.3372 2.06603 25.0912 1.83909 24.7732 1.67609C24.4582 1.51309 24.0872 1.43207 23.6592 1.43207C23.2582 1.43207 22.8792 1.50608 22.5232 1.65308C22.1702 1.79708 21.8832 2.00806 21.6592 2.28406C21.4362 2.55706 21.3142 2.88607 21.2952 3.27307H19.9322C19.9552 2.66307 20.1382 2.12904 20.4832 1.67004C20.8282 1.20804 21.2782 0.848064 21.8352 0.591064C22.3962 0.333064 23.0112 0.205078 23.6822 0.205078C24.4022 0.205078 25.0192 0.35009 25.5342 0.64209C26.0492 0.93009 26.4452 1.31106 26.7222 1.78406C26.9982 2.25806 27.1362 2.76905 27.1362 3.31805C27.1362 3.97305 26.9642 4.53208 26.6192 4.99408C26.2782 5.45608 25.8142 5.77708 25.2272 5.95508V6.04504C25.9622 6.16704 26.5362 6.47903 26.9492 6.98303C27.3622 7.48303 27.5682 8.10206 27.5682 8.84106C27.5682 9.47306 27.3962 10.042 27.0512 10.545C26.7102 11.045 26.2442 11.4391 25.6532 11.7271C25.0632 12.0151 24.3902 12.1591 23.6362 12.1591Z" fill="black"/>
</svg>
