<svg width="64" height="15" viewBox="0 0 64 15" fill="none" xmlns="http://www.w3.org/2000/svg">
<path d="M0.612305 11.124C1.6283 10.308 2.42431 9.64003 3.00031 9.12003C3.57631 8.59203 4.06033 8.04404 4.45233 7.47604C4.85233 6.90004 5.05231 6.33603 5.05231 5.78403C5.05231 5.26403 4.92433 4.85603 4.66833 4.56003C4.42033 4.25603 4.0163 4.10403 3.4563 4.10403C2.9123 4.10403 2.48833 4.27603 2.18433 4.62003C1.88833 4.95603 1.72828 5.40804 1.70428 5.97604H0.648315C0.680315 5.08004 0.952294 4.38802 1.46429 3.90002C1.97629 3.41202 2.63627 3.16803 3.44427 3.16803C4.26827 3.16803 4.92033 3.39602 5.40033 3.85202C5.88833 4.30802 6.13232 4.93602 6.13232 5.73602C6.13232 6.40002 5.93229 7.04802 5.53229 7.68002C5.14029 8.30402 4.69229 8.85603 4.18829 9.33603C3.68429 9.80803 3.04029 10.36 2.25629 10.992H6.38428V11.904H0.612305V11.124ZM7.62231 5.50803C7.67831 4.77203 7.9623 4.19603 8.4743 3.78003C8.9863 3.36403 9.65031 3.15604 10.4663 3.15604C11.0103 3.15604 11.4783 3.25602 11.8703 3.45602C12.2703 3.64802 12.5703 3.91202 12.7703 4.24802C12.9783 4.58402 13.0823 4.96403 13.0823 5.38803C13.0823 5.88403 12.9383 6.31203 12.6503 6.67203C12.3703 7.03203 12.0023 7.26404 11.5463 7.36804V7.42804C12.0663 7.55604 12.4783 7.80802 12.7823 8.18402C13.0863 8.56002 13.2383 9.05203 13.2383 9.66003C13.2383 10.116 13.1343 10.528 12.9263 10.896C12.7183 11.256 12.4063 11.54 11.9903 11.748C11.5743 11.956 11.0743 12.06 10.4903 12.06C9.6423 12.06 8.94628 11.84 8.40228 11.4C7.85828 10.952 7.5543 10.32 7.4903 9.50403H8.54633C8.60233 9.98403 8.79828 10.376 9.13428 10.68C9.47028 10.984 9.91833 11.136 10.4783 11.136C11.0383 11.136 11.4623 10.992 11.7503 10.704C12.0463 10.408 12.1943 10.028 12.1943 9.56403C12.1943 8.96403 11.9943 8.53204 11.5943 8.26804C11.1943 8.00404 10.5903 7.87204 9.78229 7.87204H9.50629V6.96002H9.79431C10.5303 6.95202 11.0863 6.83204 11.4623 6.60004C11.8383 6.36004 12.0263 5.99203 12.0263 5.49603C12.0263 5.07203 11.8863 4.73204 11.6063 4.47604C11.3343 4.22004 10.9423 4.09204 10.4303 4.09204C9.9343 4.09204 9.53429 4.22004 9.23029 4.47604C8.92629 4.73204 8.74631 5.07603 8.69031 5.50803H7.62231ZM18.9733 0.696045L15.6853 14.04H14.6053L17.8813 0.696045H18.9733ZM20.1323 4.32004V3.32404H22.3883V12H21.2843V4.32004H20.1323ZM24.1323 11.124C25.1483 10.308 25.9443 9.64003 26.5203 9.12003C27.0963 8.59203 27.5803 8.04404 27.9723 7.47604C28.3723 6.90004 28.5723 6.33603 28.5723 5.78403C28.5723 5.26403 28.4443 4.85603 28.1883 4.56003C27.9403 4.25603 27.5363 4.10403 26.9763 4.10403C26.4323 4.10403 26.0083 4.27603 25.7043 4.62003C25.4083 4.95603 25.2483 5.40804 25.2243 5.97604H24.1683C24.2003 5.08004 24.4723 4.38802 24.9843 3.90002C25.4963 3.41202 26.1563 3.16803 26.9643 3.16803C27.7883 3.16803 28.4403 3.39602 28.9203 3.85202C29.4083 4.30802 29.6523 4.93602 29.6523 5.73602C29.6523 6.40002 29.4523 7.04802 29.0523 7.68002C28.6603 8.30402 28.2123 8.85603 27.7083 9.33603C27.2043 9.80803 26.5603 10.36 25.7763 10.992H29.9043V11.904H24.1323V11.124ZM35.4263 0.696045L32.1383 14.04H31.0583L34.3343 0.696045H35.4263ZM36.7413 11.124C37.7573 10.308 38.5533 9.64003 39.1293 9.12003C39.7053 8.59203 40.1893 8.04404 40.5813 7.47604C40.9813 6.90004 41.1813 6.33603 41.1813 5.78403C41.1813 5.26403 41.0533 4.85603 40.7973 4.56003C40.5493 4.25603 40.1453 4.10403 39.5853 4.10403C39.0413 4.10403 38.6173 4.27603 38.3133 4.62003C38.0173 4.95603 37.8573 5.40804 37.8333 5.97604H36.7773C36.8093 5.08004 37.0813 4.38802 37.5933 3.90002C38.1053 3.41202 38.7653 3.16803 39.5733 3.16803C40.3973 3.16803 41.0493 3.39602 41.5293 3.85202C42.0173 4.30802 42.2613 4.93602 42.2613 5.73602C42.2613 6.40002 42.0613 7.04802 41.6613 7.68002C41.2693 8.30402 40.8213 8.85603 40.3173 9.33603C39.8133 9.80803 39.1693 10.36 38.3853 10.992H42.5133V11.904H36.7413V11.124ZM43.7753 7.57202C43.7753 6.19602 43.9993 5.12402 44.4473 4.35602C44.8953 3.58002 45.6793 3.19202 46.7993 3.19202C47.9113 3.19202 48.6913 3.58002 49.1393 4.35602C49.5873 5.12402 49.8113 6.19602 49.8113 7.57202C49.8113 8.97202 49.5873 10.06 49.1393 10.836C48.6913 11.612 47.9113 12 46.7993 12C45.6793 12 44.8953 11.612 44.4473 10.836C43.9993 10.06 43.7753 8.97202 43.7753 7.57202ZM48.7313 7.57202C48.7313 6.87602 48.6833 6.28804 48.5873 5.80804C48.4993 5.32004 48.3113 4.92802 48.0233 4.63202C47.7433 4.33602 47.3353 4.18802 46.7993 4.18802C46.2553 4.18802 45.8393 4.33602 45.5513 4.63202C45.2713 4.92802 45.0833 5.32004 44.9873 5.80804C44.8993 6.28804 44.8553 6.87602 44.8553 7.57202C44.8553 8.29202 44.8993 8.89603 44.9873 9.38403C45.0833 9.87203 45.2713 10.264 45.5513 10.56C45.8393 10.856 46.2553 11.004 46.7993 11.004C47.3353 11.004 47.7433 10.856 48.0233 10.56C48.3113 10.264 48.4993 9.87203 48.5873 9.38403C48.6833 8.89603 48.7313 8.29202 48.7313 7.57202ZM51.1783 11.124C52.1943 10.308 52.9903 9.64003 53.5663 9.12003C54.1423 8.59203 54.6263 8.04404 55.0183 7.47604C55.4183 6.90004 55.6183 6.33603 55.6183 5.78403C55.6183 5.26403 55.4903 4.85603 55.2343 4.56003C54.9863 4.25603 54.5823 4.10403 54.0223 4.10403C53.4783 4.10403 53.0543 4.27603 52.7503 4.62003C52.4543 4.95603 52.2943 5.40804 52.2703 5.97604H51.2143C51.2463 5.08004 51.5183 4.38802 52.0303 3.90002C52.5423 3.41202 53.2023 3.16803 54.0103 3.16803C54.8343 3.16803 55.4863 3.39602 55.9663 3.85202C56.4543 4.30802 56.6983 4.93602 56.6983 5.73602C56.6983 6.40002 56.4983 7.04802 56.0983 7.68002C55.7063 8.30402 55.2583 8.85603 54.7543 9.33603C54.2503 9.80803 53.6063 10.36 52.8223 10.992H56.9503V11.904H51.1783V11.124ZM58.1893 5.50803C58.2453 4.77203 58.5293 4.19603 59.0413 3.78003C59.5533 3.36403 60.2173 3.15604 61.0333 3.15604C61.5773 3.15604 62.0453 3.25602 62.4373 3.45602C62.8373 3.64802 63.1373 3.91202 63.3373 4.24802C63.5453 4.58402 63.6493 4.96403 63.6493 5.38803C63.6493 5.88403 63.5053 6.31203 63.2173 6.67203C62.9373 7.03203 62.5693 7.26404 62.1133 7.36804V7.42804C62.6333 7.55604 63.0453 7.80802 63.3493 8.18402C63.6533 8.56002 63.8053 9.05203 63.8053 9.66003C63.8053 10.116 63.7013 10.528 63.4933 10.896C63.2853 11.256 62.9733 11.54 62.5573 11.748C62.1413 11.956 61.6413 12.06 61.0573 12.06C60.2093 12.06 59.5133 11.84 58.9693 11.4C58.4253 10.952 58.1213 10.32 58.0573 9.50403H59.1133C59.1693 9.98403 59.3653 10.376 59.7013 10.68C60.0373 10.984 60.4853 11.136 61.0453 11.136C61.6053 11.136 62.0293 10.992 62.3173 10.704C62.6133 10.408 62.7613 10.028 62.7613 9.56403C62.7613 8.96403 62.5613 8.53204 62.1613 8.26804C61.7613 8.00404 61.1573 7.87204 60.3493 7.87204H60.0733V6.96002H60.3613C61.0973 6.95202 61.6533 6.83204 62.0293 6.60004C62.4053 6.36004 62.5933 5.99203 62.5933 5.49603C62.5933 5.07203 62.4533 4.73204 62.1733 4.47604C61.9013 4.22004 61.5093 4.09204 60.9973 4.09204C60.5013 4.09204 60.1013 4.22004 59.7973 4.47604C59.4933 4.73204 59.3133 5.07603 59.2573 5.50803H58.1893Z" fill="white"/>
</svg>
