<svg width="51" height="14" viewBox="0 0 51 14" fill="none" xmlns="http://www.w3.org/2000/svg">
<path d="M3.71008 0.953979H5.2301V2.12997C5.2301 4.62197 4.1101 6.80596 1.6001 7.63196L0.660156 6.14798C2.82016 5.46198 3.71008 3.80997 3.71008 2.12997V0.953979ZM4.09009 0.953979H5.59009V2.29797C5.59009 3.85197 6.46012 5.36397 8.50012 6.00797L7.59009 7.46396C5.18009 6.69396 4.09009 4.63597 4.09009 2.29797V0.953979ZM9.15015 0.281982H11.0101V8.10797H9.15015V0.281982ZM10.4901 3.43198H12.7301V4.97195H10.4901V3.43198ZM2.36011 8.65396H11.0101V13.246H9.15015V10.152H2.36011V8.65396ZM23.0502 0.281982H24.8102V13.246H23.0502V0.281982ZM18.7802 4.70596H20.9202V6.21796H18.7802V4.70596ZM20.4302 0.491974H22.1702V12.658H20.4302V0.491974ZM15.9801 2.39597H17.3801V3.72598C17.3801 6.63798 16.5801 9.53597 14.5201 10.824L13.4202 9.45197C15.3202 8.26197 15.9801 5.93798 15.9801 3.72598V2.39597ZM16.4001 2.39597H17.7802V3.72598C17.7802 5.88198 18.4302 8.06596 20.3002 9.15796L19.2101 10.516C17.1501 9.29796 16.4001 6.58198 16.4001 3.72598V2.39597ZM13.9102 1.58398H19.6901V3.08197H13.9102V1.58398ZM34.8801 0.281982H36.7201V13.246H34.8801V0.281982ZM36.3002 5.33597H38.6001V6.88998H36.3002V5.33597ZM26.5001 2.19998H34.0502V3.68396H26.5001V2.19998ZM30.3002 4.41196C32.1902 4.41196 33.5901 5.69998 33.5901 7.50598C33.5901 9.31198 32.1902 10.6 30.3002 10.6C28.4102 10.6 27.0101 9.31198 27.0101 7.50598C27.0101 5.69998 28.4102 4.41196 30.3002 4.41196ZM30.3002 5.92398C29.4202 5.92398 28.7902 6.51198 28.7902 7.50598C28.7902 8.49998 29.4202 9.08798 30.3002 9.08798C31.1802 9.08798 31.8102 8.49998 31.8102 7.50598C31.8102 6.51198 31.1802 5.92398 30.3002 5.92398ZM29.3601 0.491974H31.2201V2.75998H29.3601V0.491974ZM48.3701 0.281982H50.2501V13.246H48.3701V0.281982ZM44.5502 1.62598H46.4001C46.4001 5.58798 45.0501 8.83598 40.4501 11.062L39.4801 9.57797C43.2001 7.78597 44.5502 5.43397 44.5502 1.96198V1.62598ZM40.1702 1.62598H45.4302V3.09598H40.1702V1.62598Z" fill="white"/>
</svg>
