<svg width="35" height="10" viewBox="0 0 35 10" fill="none" xmlns="http://www.w3.org/2000/svg">
<path d="M6.62115 3.28809C6.62115 3.77609 6.50916 4.22408 6.28516 4.63208C6.06116 5.03208 5.71717 5.35606 5.25317 5.60406C4.78917 5.85206 4.21321 5.97607 3.52521 5.97607H2.25317V9.00006H0.201172V0.57605H3.52521C4.19721 0.57605 4.76519 0.692072 5.22919 0.924072C5.69319 1.15607 6.04119 1.47603 6.27319 1.88403C6.50519 2.29203 6.62115 2.76009 6.62115 3.28809ZM3.3692 4.34406C3.7612 4.34406 4.05318 4.25205 4.24518 4.06805C4.43718 3.88405 4.5332 3.62409 4.5332 3.28809C4.5332 2.95209 4.43718 2.69206 4.24518 2.50806C4.05318 2.32406 3.7612 2.23206 3.3692 2.23206H2.25317V4.34406H3.3692ZM11.6732 9.08405C10.8812 9.08405 10.1532 8.90004 9.4892 8.53204C8.8332 8.16404 8.30918 7.65203 7.91718 6.99603C7.53318 6.33203 7.34119 5.58804 7.34119 4.76404C7.34119 3.94004 7.53318 3.20007 7.91718 2.54407C8.30918 1.88807 8.8332 1.37606 9.4892 1.00806C10.1532 0.640057 10.8812 0.456055 11.6732 0.456055C12.4652 0.456055 13.1892 0.640057 13.8452 1.00806C14.5092 1.37606 15.0292 1.88807 15.4052 2.54407C15.7892 3.20007 15.9812 3.94004 15.9812 4.76404C15.9812 5.58804 15.7892 6.33203 15.4052 6.99603C15.0212 7.65203 14.5012 8.16404 13.8452 8.53204C13.1892 8.90004 12.4652 9.08405 11.6732 9.08405ZM11.6732 7.21204C12.3452 7.21204 12.8812 6.98804 13.2812 6.54004C13.6892 6.09204 13.8932 5.50004 13.8932 4.76404C13.8932 4.02004 13.6892 3.42804 13.2812 2.98804C12.8812 2.54004 12.3452 2.31604 11.6732 2.31604C10.9932 2.31604 10.4492 2.53607 10.0412 2.97607C9.6412 3.41607 9.44116 4.01204 9.44116 4.76404C9.44116 5.50804 9.6412 6.10406 10.0412 6.55206C10.4492 6.99206 10.9932 7.21204 11.6732 7.21204ZM24.6592 9.00006H22.6072L19.1752 3.80408V9.00006H17.1232V0.57605H19.1752L22.6072 5.79608V0.57605H24.6592V9.00006ZM31.7382 3.24005C31.5862 2.96005 31.3662 2.74806 31.0782 2.60406C30.7982 2.45206 30.4662 2.37604 30.0822 2.37604C29.4182 2.37604 28.8862 2.59607 28.4862 3.03607C28.0862 3.46807 27.8862 4.04806 27.8862 4.77606C27.8862 5.55206 28.0942 6.16004 28.5102 6.60004C28.9342 7.03204 29.5142 7.24805 30.2502 7.24805C30.7542 7.24805 31.1782 7.12007 31.5222 6.86407C31.8742 6.60807 32.1302 6.24007 32.2902 5.76007H29.6862V4.24805H34.1502V6.15607C33.9982 6.66807 33.7382 7.14405 33.3702 7.58405C33.0102 8.02405 32.5502 8.38004 31.9902 8.65204C31.4302 8.92404 30.7982 9.06006 30.0942 9.06006C29.2622 9.06006 28.5182 8.88008 27.8622 8.52008C27.2142 8.15208 26.7062 7.64403 26.3382 6.99603C25.9782 6.34803 25.7982 5.60806 25.7982 4.77606C25.7982 3.94406 25.9782 3.20409 26.3382 2.55609C26.7062 1.90009 27.2142 1.39204 27.8622 1.03204C28.5102 0.664043 29.2502 0.480042 30.0822 0.480042C31.0902 0.480042 31.9382 0.724036 32.6262 1.21204C33.3222 1.70004 33.7822 2.37605 34.0062 3.24005H31.7382Z" fill="white"/>
</svg>
