<svg width="51" height="14" viewBox="0 0 51 14" fill="none" xmlns="http://www.w3.org/2000/svg">
<path d="M3.71008 0.953979H5.2301V2.13C5.2301 4.622 4.1101 6.80602 1.6001 7.63202L0.660156 6.14801C2.82016 5.46201 3.71008 3.81 3.71008 2.13V0.953979ZM4.09009 0.953979H5.59009V2.29797C5.59009 3.85197 6.46012 5.364 8.50012 6.008L7.59009 7.46399C5.18009 6.69399 4.09009 4.63597 4.09009 2.29797V0.953979ZM9.15015 0.281982H11.0101V8.10797H9.15015V0.281982ZM10.4901 3.43201H12.7301V4.97198H10.4901V3.43201ZM2.36011 8.65399H11.0101V13.246H9.15015V10.152H2.36011V8.65399ZM23.0502 0.281982H24.8102V13.246H23.0502V0.281982ZM18.7802 4.70599H20.9202V6.21802H18.7802V4.70599ZM20.4302 0.492004H22.1702V12.658H20.4302V0.492004ZM15.9801 2.396H17.3801V3.72601C17.3801 6.63801 16.5801 9.53597 14.5201 10.824L13.4202 9.45203C15.3202 8.26203 15.9801 5.93801 15.9801 3.72601V2.396ZM16.4001 2.396H17.7802V3.72601C17.7802 5.88201 18.4302 8.06602 20.3002 9.15802L19.2101 10.516C17.1501 9.29799 16.4001 6.58201 16.4001 3.72601V2.396ZM13.9102 1.58398H19.6901V3.08197H13.9102V1.58398ZM34.8801 0.281982H36.7201V13.246H34.8801V0.281982ZM36.3002 5.336H38.6001V6.89001H36.3002V5.336ZM26.5001 2.20001H34.0502V3.68402H26.5001V2.20001ZM30.3002 4.41199C32.1902 4.41199 33.5901 5.69998 33.5901 7.50598C33.5901 9.31198 32.1902 10.6 30.3002 10.6C28.4102 10.6 27.0101 9.31198 27.0101 7.50598C27.0101 5.69998 28.4102 4.41199 30.3002 4.41199ZM30.3002 5.92401C29.4202 5.92401 28.7902 6.51198 28.7902 7.50598C28.7902 8.49998 29.4202 9.08801 30.3002 9.08801C31.1802 9.08801 31.8102 8.49998 31.8102 7.50598C31.8102 6.51198 31.1802 5.92401 30.3002 5.92401ZM29.3601 0.492004H31.2201V2.76001H29.3601V0.492004ZM48.3701 0.281982H50.2501V13.246H48.3701V0.281982ZM44.5502 1.62598H46.4001C46.4001 5.58798 45.0501 8.83601 40.4501 11.062L39.4801 9.578C43.2001 7.786 44.5502 5.43397 44.5502 1.96198V1.62598ZM40.1702 1.62598H45.4302V3.09601H40.1702V1.62598Z" fill="white"/>
</svg>
