<svg width="66" height="15" viewBox="0 0 66 15" fill="none" xmlns="http://www.w3.org/2000/svg">
<path d="M0.612305 11.1202C1.6283 10.3102 2.42431 9.64018 3.00031 9.12018C3.57631 8.59018 4.06033 8.04016 4.45233 7.48016C4.85233 6.90016 5.05231 6.34021 5.05231 5.78021C5.05231 5.26021 4.92433 4.86018 4.66833 4.56018C4.42033 4.26018 4.0163 4.10016 3.4563 4.10016C2.9123 4.10016 2.48833 4.28018 2.18433 4.62018C1.88833 4.96018 1.72828 5.41016 1.70428 5.98016H0.648315C0.680315 5.08016 0.952294 4.39021 1.46429 3.90021C1.97629 3.41021 2.63627 3.17017 3.44427 3.17017C4.26827 3.17017 4.92033 3.40016 5.40033 3.85016C5.88833 4.31016 6.13232 4.94017 6.13232 5.74017C6.13232 6.40017 5.93229 7.05018 5.53229 7.68018C5.14029 8.30018 4.69229 8.86021 4.18829 9.34021C3.68429 9.81021 3.04029 10.3602 2.25629 10.9902H6.38428V11.9002H0.612305V11.1202ZM7.35828 4.32019V3.32019H9.61432V12.0002H8.51031V4.32019H7.35828ZM15.7503 0.700195L12.4623 14.0402H11.3823L14.6583 0.700195H15.7503ZM18.6013 9.67017C18.6813 10.1302 18.8653 10.4802 19.1533 10.7302C19.4493 10.9802 19.8453 11.1002 20.3413 11.1002C21.0053 11.1002 21.4933 10.8402 21.8053 10.3202C22.1253 9.80019 22.2773 8.92019 22.2613 7.69019C22.0933 8.05019 21.8133 8.34016 21.4213 8.54016C21.0293 8.74016 20.5933 8.84021 20.1133 8.84021C19.5773 8.84021 19.0973 8.7402 18.6733 8.5202C18.2573 8.3002 17.9293 7.97017 17.6893 7.55017C17.4493 7.12017 17.3293 6.61019 17.3293 6.01019C17.3293 5.16019 17.5773 4.4702 18.0733 3.9502C18.5693 3.4202 19.2733 3.16016 20.1853 3.16016C21.3053 3.16016 22.0893 3.52018 22.5373 4.25018C22.9933 4.98018 23.2213 6.06018 23.2213 7.50018C23.2213 8.51018 23.1293 9.34018 22.9453 10.0002C22.7693 10.6502 22.4653 11.1502 22.0333 11.5002C21.6093 11.8402 21.0253 12.0102 20.2813 12.0102C19.4653 12.0102 18.8293 11.7902 18.3733 11.3502C17.9173 10.9102 17.6573 10.3502 17.5933 9.67017H18.6013ZM20.2933 7.92017C20.8293 7.92017 21.2693 7.76018 21.6133 7.43018C21.9573 7.09018 22.1293 6.64019 22.1293 6.07019C22.1293 5.47019 21.9613 4.99018 21.6253 4.62018C21.2893 4.25018 20.8173 4.07019 20.2093 4.07019C19.6493 4.07019 19.2013 4.24016 18.8653 4.60016C18.5373 4.95016 18.3733 5.41017 18.3733 5.99017C18.3733 6.57017 18.5373 7.0402 18.8653 7.3902C19.1933 7.7402 19.6693 7.92017 20.2933 7.92017ZM29.5923 5.3902C29.4163 4.5002 28.8683 4.06018 27.9483 4.06018C27.2363 4.06018 26.7043 4.33019 26.3523 4.88019C26.0003 5.43019 25.8283 6.3302 25.8363 7.5802C26.0203 7.1702 26.3243 6.84017 26.7483 6.61017C27.1803 6.37017 27.6603 6.25018 28.1883 6.25018C29.0123 6.25018 29.6683 6.5102 30.1563 7.0202C30.6523 7.5302 30.9003 8.2402 30.9003 9.1402C30.9003 9.6902 30.7923 10.1802 30.5763 10.6102C30.3683 11.0402 30.0483 11.3802 29.6163 11.6402C29.1923 11.9002 28.6763 12.0202 28.0683 12.0202C27.2443 12.0202 26.6003 11.8402 26.1363 11.4702C25.6723 11.1002 25.3483 10.6002 25.1643 9.9502C24.9803 9.3002 24.8883 8.50017 24.8883 7.55017C24.8883 4.61017 25.9123 3.1402 27.9603 3.1402C28.7443 3.1402 29.3603 3.36021 29.8083 3.78021C30.2563 4.20021 30.5203 4.7402 30.6003 5.3902H29.5923ZM27.9603 7.18018C27.6163 7.18018 27.2923 7.2502 26.9883 7.3902C26.6843 7.5302 26.4363 7.74021 26.2443 8.03021C26.0603 8.31021 25.9683 8.65018 25.9683 9.06018C25.9683 9.67018 26.1443 10.1602 26.4963 10.5502C26.8483 10.9202 27.3523 11.1102 28.0083 11.1102C28.5683 11.1102 29.0123 10.9402 29.3403 10.6002C29.6763 10.2402 29.8443 9.77018 29.8443 9.18018C29.8443 8.56018 29.6843 8.07015 29.3643 7.72015C29.0443 7.36015 28.5763 7.18018 27.9603 7.18018ZM36.6333 0.700195L33.3453 14.0402H32.2653L35.5413 0.700195H36.6333ZM37.9483 11.1202C38.9643 10.3102 39.7603 9.64018 40.3363 9.12018C40.9123 8.59018 41.3963 8.04016 41.7883 7.48016C42.1883 6.90016 42.3883 6.34021 42.3883 5.78021C42.3883 5.26021 42.2603 4.86018 42.0043 4.56018C41.7563 4.26018 41.3523 4.10016 40.7923 4.10016C40.2483 4.10016 39.8243 4.28018 39.5203 4.62018C39.2243 4.96018 39.0643 5.41016 39.0403 5.98016H37.9843C38.0163 5.08016 38.2883 4.39021 38.8003 3.90021C39.3123 3.41021 39.9723 3.17017 40.7803 3.17017C41.6043 3.17017 42.2563 3.40016 42.7363 3.85016C43.2243 4.31016 43.4683 4.94017 43.4683 5.74017C43.4683 6.40017 43.2683 7.05018 42.8683 7.68018C42.4763 8.30018 42.0283 8.86021 41.5243 9.34021C41.0203 9.81021 40.3763 10.3602 39.5923 10.9902H43.7203V11.9002H37.9483V11.1202ZM44.9823 7.57019C44.9823 6.20019 45.2063 5.12017 45.6543 4.36017C46.1023 3.58017 46.8863 3.19019 48.0063 3.19019C49.1183 3.19019 49.8983 3.58017 50.3463 4.36017C50.7943 5.12017 51.0183 6.20019 51.0183 7.57019C51.0183 8.97019 50.7943 10.0602 50.3463 10.8402C49.8983 11.6102 49.1183 12.0002 48.0063 12.0002C46.8863 12.0002 46.1023 11.6102 45.6543 10.8402C45.2063 10.0602 44.9823 8.97019 44.9823 7.57019ZM49.9383 7.57019C49.9383 6.88019 49.8903 6.29018 49.7943 5.81018C49.7063 5.32018 49.5183 4.93019 49.2303 4.63019C48.9503 4.34019 48.5423 4.19019 48.0063 4.19019C47.4623 4.19019 47.0463 4.34019 46.7583 4.63019C46.4783 4.93019 46.2903 5.32018 46.1943 5.81018C46.1063 6.29018 46.0623 6.88019 46.0623 7.57019C46.0623 8.29019 46.1063 8.90019 46.1943 9.38019C46.2903 9.87019 46.4783 10.2602 46.7583 10.5602C47.0463 10.8602 47.4623 11.0002 48.0063 11.0002C48.5423 11.0002 48.9503 10.8602 49.2303 10.5602C49.5183 10.2602 49.7063 9.87019 49.7943 9.38019C49.8903 8.90019 49.9383 8.29019 49.9383 7.57019ZM52.3853 11.1202C53.4013 10.3102 54.1973 9.64018 54.7733 9.12018C55.3493 8.59018 55.8333 8.04016 56.2253 7.48016C56.6253 6.90016 56.8253 6.34021 56.8253 5.78021C56.8253 5.26021 56.6973 4.86018 56.4413 4.56018C56.1933 4.26018 55.7893 4.10016 55.2293 4.10016C54.6853 4.10016 54.2613 4.28018 53.9573 4.62018C53.6613 4.96018 53.5013 5.41016 53.4773 5.98016H52.4213C52.4533 5.08016 52.7253 4.39021 53.2373 3.90021C53.7493 3.41021 54.4093 3.17017 55.2173 3.17017C56.0413 3.17017 56.6933 3.40016 57.1733 3.85016C57.6613 4.31016 57.9053 4.94017 57.9053 5.74017C57.9053 6.40017 57.7053 7.05018 57.3053 7.68018C56.9133 8.30018 56.4653 8.86021 55.9613 9.34021C55.4573 9.81021 54.8133 10.3602 54.0293 10.9902H58.1573V11.9002H52.3853V11.1202ZM59.1563 10.0702V9.24017L63.3683 3.41016H64.6763V9.12018H65.8763V10.0702H64.6763V12.0002H63.5963V10.0702H59.1563ZM63.6443 4.55017L60.4163 9.12018H63.6443V4.55017Z" fill="white"/>
</svg>
