<svg width="63" height="15" viewBox="0 0 63 15" fill="none" xmlns="http://www.w3.org/2000/svg">
<path d="M0.456055 4.31982V3.32379H2.71204V11.9998H1.60803V4.31982H0.456055ZM4.30005 4.31982V3.32379H6.55609V11.9998H5.45209V4.31982H4.30005ZM12.6921 0.695801L9.40405 14.0398H8.32404L11.6 0.695801H12.6921ZM14.139 7.57184C14.139 6.19584 14.363 5.12383 14.811 4.35583C15.259 3.57983 16.0431 3.19183 17.1631 3.19183C18.2751 3.19183 19.0551 3.57983 19.5031 4.35583C19.9511 5.12383 20.175 6.19584 20.175 7.57184C20.175 8.97184 19.9511 10.0598 19.5031 10.8358C19.0551 11.6118 18.2751 11.9998 17.1631 11.9998C16.0431 11.9998 15.259 11.6118 14.811 10.8358C14.363 10.0598 14.139 8.97184 14.139 7.57184ZM19.095 7.57184C19.095 6.87584 19.047 6.2878 18.951 5.8078C18.863 5.3198 18.6751 4.92784 18.3871 4.63184C18.1071 4.33584 17.6991 4.18781 17.1631 4.18781C16.6191 4.18781 16.203 4.33584 15.915 4.63184C15.635 4.92784 15.4471 5.3198 15.3511 5.8078C15.2631 6.2878 15.2191 6.87584 15.2191 7.57184C15.2191 8.29184 15.2631 8.89579 15.3511 9.38379C15.4471 9.87179 15.635 10.2638 15.915 10.5598C16.203 10.8558 16.6191 11.0038 17.1631 11.0038C17.6991 11.0038 18.1071 10.8558 18.3871 10.5598C18.6751 10.2638 18.863 9.87179 18.951 9.38379C19.047 8.89579 19.095 8.29184 19.095 7.57184ZM21.6501 5.50781C21.7061 4.77181 21.9901 4.19585 22.5021 3.77985C23.0141 3.36385 23.6781 3.15582 24.4941 3.15582C25.0381 3.15582 25.5061 3.25581 25.8981 3.45581C26.2981 3.64781 26.598 3.9118 26.798 4.2478C27.006 4.5838 27.11 4.96382 27.11 5.38782C27.11 5.88382 26.966 6.31181 26.678 6.67181C26.398 7.03181 26.03 7.2638 25.574 7.3678V7.4278C26.094 7.5558 26.5061 7.80784 26.8101 8.18384C27.1141 8.55984 27.2661 9.05179 27.2661 9.65979C27.2661 10.1158 27.162 10.5278 26.954 10.8958C26.746 11.2558 26.4341 11.5398 26.0181 11.7478C25.6021 11.9558 25.1021 12.0598 24.5181 12.0598C23.6701 12.0598 22.9741 11.8398 22.4301 11.3998C21.8861 10.9518 21.5821 10.3198 21.5181 9.50385H22.574C22.63 9.98385 22.826 10.3758 23.162 10.6798C23.498 10.9838 23.946 11.1358 24.506 11.1358C25.066 11.1358 25.4901 10.9918 25.7781 10.7038C26.0741 10.4078 26.222 10.0278 26.222 9.56384C26.222 8.96384 26.0221 8.53182 25.6221 8.26782C25.2221 8.00382 24.6181 7.87183 23.8101 7.87183H23.5341V6.95984H23.8221C24.5581 6.95184 25.1141 6.83179 25.4901 6.59979C25.8661 6.35979 26.0541 5.99179 26.0541 5.49579C26.0541 5.07179 25.914 4.73183 25.634 4.47583C25.362 4.21983 24.9701 4.0918 24.4581 4.0918C23.9621 4.0918 23.5621 4.21983 23.2581 4.47583C22.9541 4.73183 22.7741 5.07581 22.7181 5.50781H21.6501ZM33.0001 0.695801L29.712 14.0398H28.6321L31.9081 0.695801H33.0001ZM34.3151 11.1238C35.3311 10.3078 36.1271 9.63981 36.7031 9.11981C37.2791 8.59181 37.7631 8.04383 38.1551 7.47583C38.5551 6.89983 38.7551 6.33581 38.7551 5.78381C38.7551 5.26381 38.627 4.85581 38.371 4.55981C38.123 4.25581 37.7191 4.10382 37.1591 4.10382C36.6151 4.10382 36.1911 4.27581 35.8871 4.61981C35.5911 4.95581 35.431 5.40783 35.407 5.97583H34.3511C34.3831 5.07983 34.6551 4.38784 35.1671 3.89984C35.6791 3.41184 36.339 3.16785 37.147 3.16785C37.971 3.16785 38.6231 3.39581 39.1031 3.85181C39.5911 4.30781 39.8351 4.93584 39.8351 5.73584C39.8351 6.39984 39.635 7.04781 39.235 7.67981C38.843 8.30381 38.3951 8.85582 37.8911 9.33582C37.3871 9.80782 36.743 10.3598 35.959 10.9918H40.087V11.9038H34.3151V11.1238ZM41.3491 7.57184C41.3491 6.19584 41.5731 5.12383 42.0211 4.35583C42.4691 3.57983 43.253 3.19183 44.373 3.19183C45.485 3.19183 46.2651 3.57983 46.7131 4.35583C47.1611 5.12383 47.3851 6.19584 47.3851 7.57184C47.3851 8.97184 47.1611 10.0598 46.7131 10.8358C46.2651 11.6118 45.485 11.9998 44.373 11.9998C43.253 11.9998 42.4691 11.6118 42.0211 10.8358C41.5731 10.0598 41.3491 8.97184 41.3491 7.57184ZM46.3051 7.57184C46.3051 6.87584 46.2571 6.2878 46.1611 5.8078C46.0731 5.3198 45.885 4.92784 45.597 4.63184C45.317 4.33584 44.909 4.18781 44.373 4.18781C43.829 4.18781 43.4131 4.33584 43.1251 4.63184C42.8451 4.92784 42.657 5.3198 42.561 5.8078C42.473 6.2878 42.4291 6.87584 42.4291 7.57184C42.4291 8.29184 42.473 8.89579 42.561 9.38379C42.657 9.87179 42.8451 10.2638 43.1251 10.5598C43.4131 10.8558 43.829 11.0038 44.373 11.0038C44.909 11.0038 45.317 10.8558 45.597 10.5598C45.885 10.2638 46.0731 9.87179 46.1611 9.38379C46.2571 8.89579 46.3051 8.29184 46.3051 7.57184ZM48.7531 11.1238C49.7691 10.3078 50.5651 9.63981 51.1411 9.11981C51.7171 8.59181 52.2011 8.04383 52.5931 7.47583C52.9931 6.89983 53.1931 6.33581 53.1931 5.78381C53.1931 5.26381 53.0651 4.85581 52.8091 4.55981C52.5611 4.25581 52.157 4.10382 51.597 4.10382C51.053 4.10382 50.6291 4.27581 50.3251 4.61981C50.0291 4.95581 49.869 5.40783 49.845 5.97583H48.7891C48.8211 5.07983 49.093 4.38784 49.605 3.89984C50.117 3.41184 50.7771 3.16785 51.5851 3.16785C52.4091 3.16785 53.0611 3.39581 53.5411 3.85181C54.0291 4.30781 54.2731 4.93584 54.2731 5.73584C54.2731 6.39984 54.073 7.04781 53.673 7.67981C53.281 8.30381 52.833 8.85582 52.329 9.33582C51.825 9.80782 51.181 10.3598 50.397 10.9918H54.5251V11.9038H48.7531V11.1238ZM55.5231 10.0678V9.23981L59.735 3.40784H61.0431V9.11981H62.243V10.0678H61.0431V11.9998H59.9631V10.0678H55.5231ZM60.011 4.54779L56.7831 9.11981H60.011V4.54779Z" fill="white"/>
</svg>
