<svg width="69" height="15" viewBox="0 0 69 15" fill="none" xmlns="http://www.w3.org/2000/svg">
<path d="M0.612305 11.1238C1.6283 10.3078 2.42431 9.63981 3.00031 9.11981C3.57631 8.59181 4.06033 8.04383 4.45233 7.47583C4.85233 6.89983 5.05231 6.33581 5.05231 5.78381C5.05231 5.26381 4.92433 4.85581 4.66833 4.55981C4.42033 4.25581 4.0163 4.10382 3.4563 4.10382C2.9123 4.10382 2.48833 4.27581 2.18433 4.61981C1.88833 4.95581 1.72828 5.40783 1.70428 5.97583H0.648315C0.680315 5.07983 0.952294 4.38784 1.46429 3.89984C1.97629 3.41184 2.63627 3.16785 3.44427 3.16785C4.26827 3.16785 4.92033 3.39581 5.40033 3.85181C5.88833 4.30781 6.13232 4.93584 6.13232 5.73584C6.13232 6.39984 5.93229 7.04781 5.53229 7.67981C5.14029 8.30381 4.69229 8.85582 4.18829 9.33582C3.68429 9.80782 3.04029 10.3598 2.25629 10.9918H6.38428V11.9038H0.612305V11.1238ZM7.51428 11.1238C8.53028 10.3078 9.32628 9.63981 9.90228 9.11981C10.4783 8.59181 10.9623 8.04383 11.3543 7.47583C11.7543 6.89983 11.9543 6.33581 11.9543 5.78381C11.9543 5.26381 11.8263 4.85581 11.5703 4.55981C11.3223 4.25581 10.9183 4.10382 10.3583 4.10382C9.81428 4.10382 9.3903 4.27581 9.0863 4.61981C8.7903 4.95581 8.63032 5.40783 8.60632 5.97583H7.55029C7.58229 5.07983 7.85433 4.38784 8.36633 3.89984C8.87833 3.41184 9.53831 3.16785 10.3463 3.16785C11.1703 3.16785 11.8223 3.39581 12.3023 3.85181C12.7903 4.30781 13.0343 4.93584 13.0343 5.73584C13.0343 6.39984 12.8343 7.04781 12.4343 7.67981C12.0423 8.30381 11.5943 8.85582 11.0903 9.33582C10.5863 9.80782 9.94233 10.3598 9.15833 10.9918H13.2863V11.9038H7.51428V11.1238ZM18.8093 0.695801L15.5213 14.0398H14.4413L17.7173 0.695801H18.8093ZM20.2563 7.57184C20.2563 6.19584 20.4803 5.12383 20.9283 4.35583C21.3763 3.57983 22.1603 3.19183 23.2803 3.19183C24.3923 3.19183 25.1723 3.57983 25.6203 4.35583C26.0683 5.12383 26.2923 6.19584 26.2923 7.57184C26.2923 8.97184 26.0683 10.0598 25.6203 10.8358C25.1723 11.6118 24.3923 11.9998 23.2803 11.9998C22.1603 11.9998 21.3763 11.6118 20.9283 10.8358C20.4803 10.0598 20.2563 8.97184 20.2563 7.57184ZM25.2123 7.57184C25.2123 6.87584 25.1643 6.2878 25.0683 5.8078C24.9803 5.3198 24.7923 4.92784 24.5043 4.63184C24.2243 4.33584 23.8163 4.18781 23.2803 4.18781C22.7363 4.18781 22.3203 4.33584 22.0323 4.63184C21.7523 4.92784 21.5643 5.3198 21.4683 5.8078C21.3803 6.2878 21.3363 6.87584 21.3363 7.57184C21.3363 8.29184 21.3803 8.89579 21.4683 9.38379C21.5643 9.87179 21.7523 10.2638 22.0323 10.5598C22.3203 10.8558 22.7363 11.0038 23.2803 11.0038C23.8163 11.0038 24.2243 10.8558 24.5043 10.5598C24.7923 10.2638 24.9803 9.87179 25.0683 9.38379C25.1643 8.89579 25.2123 8.29184 25.2123 7.57184ZM27.6593 11.1238C28.6753 10.3078 29.4713 9.63981 30.0473 9.11981C30.6233 8.59181 31.1073 8.04383 31.4993 7.47583C31.8993 6.89983 32.0993 6.33581 32.0993 5.78381C32.0993 5.26381 31.9713 4.85581 31.7153 4.55981C31.4673 4.25581 31.0633 4.10382 30.5033 4.10382C29.9593 4.10382 29.5353 4.27581 29.2313 4.61981C28.9353 4.95581 28.7753 5.40783 28.7513 5.97583H27.6953C27.7273 5.07983 27.9993 4.38784 28.5113 3.89984C29.0233 3.41184 29.6833 3.16785 30.4913 3.16785C31.3153 3.16785 31.9673 3.39581 32.4473 3.85181C32.9353 4.30781 33.1793 4.93584 33.1793 5.73584C33.1793 6.39984 32.9793 7.04781 32.5793 7.67981C32.1873 8.30381 31.7393 8.85582 31.2353 9.33582C30.7313 9.80782 30.0873 10.3598 29.3033 10.9918H33.4313V11.9038H27.6593V11.1238ZM38.9533 0.695801L35.6653 14.0398H34.5853L37.8613 0.695801H38.9533ZM40.2683 11.1238C41.2843 10.3078 42.0803 9.63981 42.6563 9.11981C43.2323 8.59181 43.7163 8.04383 44.1083 7.47583C44.5083 6.89983 44.7083 6.33581 44.7083 5.78381C44.7083 5.26381 44.5803 4.85581 44.3243 4.55981C44.0763 4.25581 43.6723 4.10382 43.1123 4.10382C42.5683 4.10382 42.1443 4.27581 41.8403 4.61981C41.5443 4.95581 41.3843 5.40783 41.3603 5.97583H40.3043C40.3363 5.07983 40.6083 4.38784 41.1203 3.89984C41.6323 3.41184 42.2923 3.16785 43.1003 3.16785C43.9243 3.16785 44.5763 3.39581 45.0563 3.85181C45.5443 4.30781 45.7883 4.93584 45.7883 5.73584C45.7883 6.39984 45.5883 7.04781 45.1883 7.67981C44.7963 8.30381 44.3483 8.85582 43.8443 9.33582C43.3403 9.80782 42.6963 10.3598 41.9123 10.9918H46.0403V11.9038H40.2683V11.1238ZM47.3033 7.57184C47.3033 6.19584 47.5273 5.12383 47.9753 4.35583C48.4233 3.57983 49.2073 3.19183 50.3273 3.19183C51.4393 3.19183 52.2193 3.57983 52.6673 4.35583C53.1153 5.12383 53.3393 6.19584 53.3393 7.57184C53.3393 8.97184 53.1153 10.0598 52.6673 10.8358C52.2193 11.6118 51.4393 11.9998 50.3273 11.9998C49.2073 11.9998 48.4233 11.6118 47.9753 10.8358C47.5273 10.0598 47.3033 8.97184 47.3033 7.57184ZM52.2593 7.57184C52.2593 6.87584 52.2113 6.2878 52.1153 5.8078C52.0273 5.3198 51.8393 4.92784 51.5513 4.63184C51.2713 4.33584 50.8633 4.18781 50.3273 4.18781C49.7833 4.18781 49.3673 4.33584 49.0793 4.63184C48.7993 4.92784 48.6113 5.3198 48.5153 5.8078C48.4273 6.2878 48.3833 6.87584 48.3833 7.57184C48.3833 8.29184 48.4273 8.89579 48.5153 9.38379C48.6113 9.87179 48.7993 10.2638 49.0793 10.5598C49.3673 10.8558 49.7833 11.0038 50.3273 11.0038C50.8633 11.0038 51.2713 10.8558 51.5513 10.5598C51.8393 10.2638 52.0273 9.87179 52.1153 9.38379C52.2113 8.89579 52.2593 8.29184 52.2593 7.57184ZM54.7063 11.1238C55.7223 10.3078 56.5183 9.63981 57.0943 9.11981C57.6703 8.59181 58.1543 8.04383 58.5463 7.47583C58.9463 6.89983 59.1463 6.33581 59.1463 5.78381C59.1463 5.26381 59.0183 4.85581 58.7623 4.55981C58.5143 4.25581 58.1103 4.10382 57.5503 4.10382C57.0063 4.10382 56.5823 4.27581 56.2783 4.61981C55.9823 4.95581 55.8223 5.40783 55.7983 5.97583H54.7423C54.7743 5.07983 55.0463 4.38784 55.5583 3.89984C56.0703 3.41184 56.7303 3.16785 57.5383 3.16785C58.3623 3.16785 59.0143 3.39581 59.4943 3.85181C59.9823 4.30781 60.2263 4.93584 60.2263 5.73584C60.2263 6.39984 60.0263 7.04781 59.6263 7.67981C59.2343 8.30381 58.7863 8.85582 58.2823 9.33582C57.7783 9.80782 57.1343 10.3598 56.3503 10.9918H60.4783V11.9038H54.7063V11.1238ZM61.4763 10.0678V9.23981L65.6883 3.40784H66.9963V9.11981H68.1963V10.0678H66.9963V11.9998H65.9163V10.0678H61.4763ZM65.9643 4.54779L62.7363 9.11981H65.9643V4.54779Z" fill="white"/>
</svg>
