<svg width="81" height="16" viewBox="0 0 81 16" fill="none" xmlns="http://www.w3.org/2000/svg">
<path d="M0.799805 7.90405H13.8718V8.99207H0.799805V7.90405ZM6.67181 5.58408H7.98383V8.35205H6.67181V5.58408ZM2.44781 5.16806H12.3518V6.25607H2.44781V5.16806ZM2.44781 1.44006H12.2398V2.51205H3.75983V5.80807H2.44781V1.44006ZM7.31183 10.0321C10.3998 10.0321 12.2718 10.9761 12.2718 12.6241C12.2718 14.3041 10.3998 15.2321 7.31183 15.2321C4.22383 15.2321 2.35181 14.3041 2.35181 12.6241C2.35181 10.9761 4.22383 10.0321 7.31183 10.0321ZM7.31183 11.0561C5.05583 11.0561 3.6958 11.6321 3.6958 12.6241C3.6958 13.6321 5.05583 14.192 7.31183 14.192C9.58383 14.192 10.9278 13.6321 10.9278 12.6241C10.9278 11.6321 9.58383 11.0561 7.31183 11.0561ZM21.3748 7.61606H22.6868V9.84006H21.3748V7.61606ZM15.5028 6.88007H28.5748V7.95206H15.5028V6.88007ZM17.1988 1.26407H26.8788V5.66406H17.1988V1.26407ZM25.5828 2.32007H18.5108V4.60806H25.5828V2.32007ZM17.0868 9.36005H26.9108V12.6081H18.4308V14.3681H17.1188V11.6481H25.5988V10.3841H17.0868V9.36005ZM17.1188 14.0481H27.3428V15.0881H17.1188V14.0481ZM40.7498 0.800049H42.0938V11.36H40.7498V0.800049ZM32.7978 13.8401H42.5258V14.9281H32.7978V13.8401ZM32.7978 10.2721H34.1098V14.2081H32.7978V10.2721ZM34.3338 1.79205C36.4938 1.79205 38.0938 3.26405 38.0938 5.36005C38.0938 7.44005 36.4938 8.92807 34.3338 8.92807C32.1738 8.92807 30.5578 7.44005 30.5578 5.36005C30.5578 3.26405 32.1738 1.79205 34.3338 1.79205ZM34.3338 2.94406C32.9258 2.94406 31.8538 3.93605 31.8538 5.36005C31.8538 6.76805 32.9258 7.76007 34.3338 7.76007C35.7418 7.76007 36.8138 6.76805 36.8138 5.36005C36.8138 3.93605 35.7418 2.94406 34.3338 2.94406ZM54.7318 0.768066H56.0758V15.248H54.7318V0.768066ZM55.7078 6.64008H58.3798V7.74405H55.7078V6.64008ZM51.0358 2.33606H52.3318C52.3318 6.44806 50.4438 10.1601 45.7718 12.5121L45.0358 11.4881C49.0358 9.45607 51.0358 6.36807 51.0358 2.54407V2.33606ZM45.7078 2.33606H51.7238V3.42407H45.7078V2.33606ZM62.8748 8.22406H64.1868V12.5601H62.8748V8.22406ZM68.2188 8.22406H69.5468V12.5601H68.2188V8.22406ZM59.6748 12.304H72.7788V13.4081H59.6748V12.304ZM66.2028 1.69608C69.2588 1.69608 71.4508 3.15207 71.4508 5.42407C71.4508 7.68007 69.2588 9.13605 66.2028 9.13605C63.1308 9.13605 60.9388 7.68007 60.9388 5.42407C60.9388 3.15207 63.1308 1.69608 66.2028 1.69608ZM66.2028 2.75208C63.8828 2.75208 62.2188 3.80807 62.2188 5.42407C62.2188 7.02407 63.8828 8.08005 66.2028 8.08005C68.5228 8.08005 70.1708 7.02407 70.1708 5.42407C70.1708 3.80807 68.5228 2.75208 66.2028 2.75208ZM76.5708 10.7271V10.6591C76.5788 9.93606 76.6538 9.36007 76.7978 8.93207C76.9418 8.50407 77.1468 8.15706 77.4118 7.89206C77.6768 7.62706 77.9948 7.38306 78.3658 7.15906C78.5898 7.02306 78.7908 6.86206 78.9688 6.67606C79.1468 6.48706 79.2868 6.26907 79.3888 6.02307C79.4948 5.77707 79.5478 5.50405 79.5478 5.20505C79.5478 4.83305 79.4608 4.51107 79.2868 4.23907C79.1128 3.96607 78.8798 3.75606 78.5878 3.60806C78.2958 3.46006 77.9728 3.38605 77.6158 3.38605C77.3058 3.38605 77.0068 3.45105 76.7188 3.58005C76.4308 3.70805 76.1898 3.91105 75.9968 4.18805C75.8038 4.46405 75.6918 4.82607 75.6618 5.27307H74.2298C74.2598 4.62907 74.4268 4.07805 74.7298 3.61905C75.0368 3.16105 75.4398 2.81105 75.9398 2.56805C76.4438 2.32605 77.0028 2.20505 77.6158 2.20505C78.2828 2.20505 78.8628 2.33705 79.3548 2.60205C79.8508 2.86705 80.2338 3.23105 80.5028 3.69305C80.7758 4.15505 80.9118 4.68207 80.9118 5.27307C80.9118 5.68907 80.8478 6.06608 80.7188 6.40308C80.5938 6.74108 80.4118 7.04207 80.1728 7.30707C79.9378 7.57207 79.6538 7.80705 79.3208 8.01105C78.9878 8.22005 78.7208 8.43907 78.5198 8.67007C78.3188 8.89807 78.1728 9.16906 78.0818 9.48306C77.9908 9.79706 77.9418 10.1891 77.9348 10.6591V10.7271H76.5708ZM77.2978 14.0911C77.0178 14.0911 76.7768 13.9911 76.5768 13.7901C76.3758 13.5891 76.2758 13.3481 76.2758 13.0681C76.2758 12.7881 76.3758 12.547 76.5768 12.347C76.7768 12.146 77.0178 12.0451 77.2978 12.0451C77.5788 12.0451 77.8188 12.146 78.0198 12.347C78.2208 12.547 78.3208 12.7881 78.3208 13.0681C78.3208 13.2541 78.2738 13.424 78.1788 13.58C78.0878 13.735 77.9648 13.86 77.8098 13.955C77.6578 14.045 77.4878 14.0911 77.2978 14.0911Z" fill="black"/>
</svg>
