<svg width="141" height="16" viewBox="0 0 141 16" fill="none" xmlns="http://www.w3.org/2000/svg">
<path d="M11.8557 0.784058H13.1196V15.248H11.8557V0.784058ZM9.56763 6.60806H12.3516V7.72806H9.56763V6.60806ZM8.70361 1.08807H9.95166V14.5281H8.70361V1.08807ZM3.77563 3.02405H4.81561V4.68805C4.81561 8.16005 3.67963 10.9441 1.45563 12.2721L0.639648 11.248C2.71965 10.096 3.77563 7.63205 3.77563 4.68805V3.02405ZM4.01562 3.02405H5.05566V4.68805C5.05566 7.34405 6.12761 9.69605 8.15961 10.7361L7.37561 11.7601C5.16761 10.5441 4.01562 7.87205 4.01562 4.68805V3.02405ZM0.975647 2.48007H7.69562V3.58408H0.975647V2.48007ZM19.1187 9.56805H20.1426V10.4961C20.1426 12.3841 18.9587 14.2881 16.8787 15.0881L16.2066 14.0961C18.0306 13.4401 19.1187 11.8881 19.1187 10.4961V9.56805ZM19.4066 9.56805H20.3986V10.4961C20.3986 11.9521 21.2627 13.5041 22.9907 14.2081L22.4307 15.2161C20.3507 14.4001 19.4066 12.4161 19.4066 10.4961V9.56805ZM24.4626 9.56805H25.4547V10.4961C25.4547 12.1921 24.4947 14.3361 22.4307 15.2161L21.8706 14.2081C23.5826 13.4241 24.4626 11.7441 24.4626 10.4961V9.56805ZM24.7346 9.56805H25.7586V10.4961C25.7586 11.9841 26.8307 13.4721 28.6707 14.0961L27.9987 15.0881C25.8867 14.3201 24.7346 12.4961 24.7346 10.4961V9.56805ZM16.2706 1.72806H23.0067V8.03207H16.2706V1.72806ZM21.7266 2.80005H17.5507V6.96005H21.7266V2.80005ZM26.0306 0.800049H27.3746V9.08807H26.0306V0.800049ZM31.9976 5.12006H41.8217V6.20807H31.9976V5.12006ZM30.2216 8.14407H43.3416V9.23206H30.2216V8.14407ZM31.9976 1.31207H33.3096V5.66406H31.9976V1.31207ZM31.9016 13.8081H41.9016V14.8961H31.9016V13.8081ZM31.9016 10.6721H33.2136V14.0961H31.9016V10.6721ZM51.1356 13.8401H61.0717V14.9281H51.1356V13.8401ZM51.1356 10.7841H52.4636V14.2241H51.1356V10.7841ZM49.4396 8.54407H62.5596V9.63205H49.4396V8.54407ZM55.3116 6.11206H56.6237V8.94406H55.3116V6.11206ZM55.2957 1.15207H56.4476V1.80807C56.4476 4.49607 53.7276 6.48007 50.8156 7.04007L50.2877 5.98407C52.8637 5.56807 55.2957 3.82407 55.2957 1.80807V1.15207ZM55.5037 1.15207H56.6396V1.80807C56.6396 3.82407 59.1036 5.56807 61.6476 5.98407L61.1196 7.04007C58.2396 6.46407 55.5037 4.49607 55.5037 1.80807V1.15207ZM64.1746 7.90405H77.2466V8.99207H64.1746V7.90405ZM70.0466 5.58408H71.3586V8.35205H70.0466V5.58408ZM65.8226 5.16806H75.7266V6.25607H65.8226V5.16806ZM65.8226 1.44006H75.6146V2.51205H67.1346V5.80807H65.8226V1.44006ZM70.6866 10.0321C73.7746 10.0321 75.6466 10.9761 75.6466 12.6241C75.6466 14.3041 73.7746 15.2321 70.6866 15.2321C67.5986 15.2321 65.7266 14.3041 65.7266 12.6241C65.7266 10.9761 67.5986 10.0321 70.6866 10.0321ZM70.6866 11.0561C68.4306 11.0561 67.0706 11.6321 67.0706 12.6241C67.0706 13.6321 68.4306 14.192 70.6866 14.192C72.9586 14.192 74.3026 13.6321 74.3026 12.6241C74.3026 11.6321 72.9586 11.0561 70.6866 11.0561ZM82.4456 2.27206H83.5336V3.44006C83.5336 6.09606 81.9336 8.30406 79.5176 9.16806L78.8137 8.12805C81.0057 7.36005 82.4456 5.50406 82.4456 3.44006V2.27206ZM82.6856 2.27206H83.7736V3.42407C83.7736 5.34407 85.1656 7.12006 87.2936 7.84006L86.6057 8.88007C84.2217 8.04807 82.6856 5.92007 82.6856 3.42407V2.27206ZM79.2296 1.79205H86.9576V2.88007H79.2296V1.79205ZM88.7816 0.784058H90.1096V9.48807H88.7816V0.784058ZM89.7416 4.59207H92.2537V5.69608H89.7416V4.59207ZM80.7177 10.2561H90.1096V15.248H88.7816V11.36H80.7177V10.2561ZM104.109 0.768066H105.437V15.2641H104.109V0.768066ZM97.8046 1.88806C99.9486 1.88806 101.485 3.85607 101.485 6.92807C101.485 10.0161 99.9486 11.9841 97.8046 11.9841C95.6766 11.9841 94.1406 10.0161 94.1406 6.92807C94.1406 3.85607 95.6766 1.88806 97.8046 1.88806ZM97.8046 3.08807C96.3966 3.08807 95.4047 4.59207 95.4047 6.92807C95.4047 9.28007 96.3966 10.8161 97.8046 10.8161C99.2286 10.8161 100.205 9.28007 100.205 6.92807C100.205 4.59207 99.2286 3.08807 97.8046 3.08807ZM109.019 2.33606H110.331V10.8161H109.019V2.33606ZM109.019 10.4321H109.947C111.627 10.4321 113.195 10.3521 115.019 9.98407L115.195 11.1201C113.307 11.5041 111.691 11.5841 109.947 11.5841H109.019V10.4321ZM119.339 0.784058H120.619V15.248H119.339V0.784058ZM113.035 5.63205H116.651V6.73605H113.035V5.63205ZM116.283 1.12006H117.531V14.5121H116.283V1.12006ZM126.25 8.22406H127.562V12.5601H126.25V8.22406ZM131.594 8.22406H132.922V12.5601H131.594V8.22406ZM123.05 12.304H136.154V13.4081H123.05V12.304ZM129.578 1.69608C132.634 1.69608 134.826 3.15207 134.826 5.42407C134.826 7.68007 132.634 9.13605 129.578 9.13605C126.506 9.13605 124.314 7.68007 124.314 5.42407C124.314 3.15207 126.506 1.69608 129.578 1.69608ZM129.578 2.75208C127.258 2.75208 125.594 3.80807 125.594 5.42407C125.594 7.02407 127.258 8.08005 129.578 8.08005C131.898 8.08005 133.546 7.02407 133.546 5.42407C133.546 3.80807 131.898 2.75208 129.578 2.75208ZM139.969 2.36407L139.855 10.7271H138.537L138.423 2.36407H139.969ZM139.196 14.0911C138.916 14.0911 138.675 13.9911 138.474 13.7901C138.274 13.5891 138.173 13.3481 138.173 13.0681C138.173 12.7881 138.274 12.547 138.474 12.347C138.675 12.146 138.916 12.0451 139.196 12.0451C139.476 12.0451 139.717 12.146 139.918 12.347C140.118 12.547 140.219 12.7881 140.219 13.0681C140.219 13.2541 140.171 13.424 140.077 13.58C139.986 13.735 139.863 13.86 139.707 13.955C139.556 14.045 139.385 14.0911 139.196 14.0911Z" fill="black"/>
</svg>
